<?xml version="1.0" encoding="UTF-8" standalone="no"?>
<!-- Created with Inkscape (http://www.inkscape.org/) -->

<svg
   xmlns:dc="http://purl.org/dc/elements/1.1/"
   xmlns:cc="http://creativecommons.org/ns#"
   xmlns:rdf="http://www.w3.org/1999/02/22-rdf-syntax-ns#"
   xmlns:svg="http://www.w3.org/2000/svg"
   xmlns="http://www.w3.org/2000/svg"
   xmlns:xlink="http://www.w3.org/1999/xlink"
   xmlns:sodipodi="http://sodipodi.sourceforge.net/DTD/sodipodi-0.dtd"
   xmlns:inkscape="http://www.inkscape.org/namespaces/inkscape"
   version="1.1"
   width="100%"
   height="100%"
   id="AI"
   inkscape:version="0.91 r13725"
   sodipodi:docname="AI.svg"
   viewBox="0 0 512 512"
   preserveAspectRatio="xMinYMin meet">
  <sodipodi:namedview
     bordercolor="#666666"
     borderopacity="1"
     objecttolerance="10"
     gridtolerance="10"
     guidetolerance="10"
     inkscape:pageshadow="2"
     inkscape:window-width="1366"
     inkscape:window-height="704"
     id="namedview6302"
     showgrid="false"
     inkscape:zoom="1.38383"
     inkscape:cx="247.0991"
     inkscape:cy="230.75236"
     inkscape:window-x="0"
     inkscape:window-y="27"
     inkscape:window-maximized="1"
     inkscape:current-layer="Pitch"
     showguides="true"
     inkscape:guide-bbox="true" />
  <title
     id="title4">Attitude Indicator</title>
  <defs
     id="defs5201">
    <linearGradient
       inkscape:collect="always"
       id="linearGradient4181">
      <stop
         style="stop-color:#363636;stop-opacity:1"
         offset="0"
         id="stop4183" />
      <stop
         style="stop-color:#050505;stop-opacity:1"
         offset="1"
         id="stop4185" />
    </linearGradient>
    <linearGradient
       inkscape:collect="always"
       id="linearGradient4165">
      <stop
         style="stop-color:#ddf1f5;stop-opacity:1"
         offset="0"
         id="stop4167" />
      <stop
         style="stop-color:#1e94a8;stop-opacity:1"
         offset="1"
         id="stop4169" />
    </linearGradient>
    <clipPath
       id="mainClip">
      <circle
         cx="256"
         cy="256"
         r="256"
         id="circle8" />
    </clipPath>
    <radialGradient
       inkscape:collect="always"
       xlink:href="#linearGradient4165"
       id="radialGradient4171"
       cx="257.44525"
       cy="401.78647"
       fx="257.44525"
       fy="401.78647"
       r="254"
       gradientTransform="matrix(1.1763905,0,0,0.73259453,-45.410898,-43.044933)"
       gradientUnits="userSpaceOnUse" />
    <radialGradient
       inkscape:collect="always"
       xlink:href="#linearGradient4181"
       id="radialGradient4187"
       cx="254.55473"
       cy="277.26276"
       fx="254.55473"
       fy="277.26276"
       r="254"
       gradientTransform="matrix(1,0,0,0.55807087,0,135.11983)"
       gradientUnits="userSpaceOnUse" />
  </defs>
  <metadata
     id="metadata5204">
    <rdf:RDF>
      <cc:Work
         rdf:about="">
        <dc:format>image/svg+xml</dc:format>
        <dc:type
           rdf:resource="http://purl.org/dc/dcmitype/StillImage" />
        <dc:title>FlightGear SenecaII AI</dc:title>
        <dc:date>04/04/2014</dc:date>
        <dc:creator>
          <cc:Agent>
            <dc:title>Torsten Dreyer</dc:title>
          </cc:Agent>
        </dc:creator>
        <dc:rights>
          <cc:Agent>
            <dc:title>(c) Torsten Dreyer</dc:title>
          </cc:Agent>
        </dc:rights>
        <dc:publisher>
          <cc:Agent>
            <dc:title>FlightGear.org</dc:title>
          </cc:Agent>
        </dc:publisher>
        <cc:license
           rdf:resource="http://creativecommons.org/licenses/by/3.0/" />
      </cc:Work>
      <cc:License
         rdf:about="http://creativecommons.org/licenses/by/3.0/">
        <cc:permits
           rdf:resource="http://creativecommons.org/ns#Reproduction" />
        <cc:permits
           rdf:resource="http://creativecommons.org/ns#Distribution" />
        <cc:requires
           rdf:resource="http://creativecommons.org/ns#Notice" />
        <cc:requires
           rdf:resource="http://creativecommons.org/ns#Attribution" />
        <cc:permits
           rdf:resource="http://creativecommons.org/ns#DerivativeWorks" />
      </cc:License>
    </rdf:RDF>
  </metadata>
  <g
     clip-path="url(#mainClip)"
     inkscape:groupmode="layer"
     id="Roll"
     inkscape:label="Roll"
     style="display:inline">
    <g
       inkscape:groupmode="layer"
       id="Background"
       inkscape:label="Background"
       style="display:inline">
      <path
         style="fill:#157c8d;fill-opacity:1;stroke:none"
         d="M 0,256 C 0,114.61498 114.6151,0 256,0 397.3849,0 512,114.61518 512,256 l -256,0 z"
         id="BackgroundSky"
         inkscape:connector-curvature="0" />
      <path
         style="fill:#000000;fill-opacity:1;stroke:none"
         d="M 512,256 C 512,397.38502 397.3849,512 256,512 114.6151,512 0,397.38482 0,256 l 256,0 z"
         id="BackgroundGround"
         inkscape:connector-curvature="0" />
    </g>
    <g
       inkscape:groupmode="layer"
       id="Pitch"
       inkscape:label="Pitch"
       style="display:inline"
       mask="none">
      <path
         style="fill:url(#radialGradient4171);fill-opacity:1"
         d="M 256,64.5 C 115.7168,64.5 2,150.23885 2,256 l 508,0 C 510,150.23885 396.2832,64.5 256,64.5 z"
         id="PitchBlue"
         inkscape:connector-curvature="0" />
      <path
         style="fill:url(#radialGradient4187);fill-opacity:1"
         d="m 222.78125,164 0,4 66.4375,0 0,-4 -66.4375,0 z m -9.4375,23.40625 c -1.02746,2e-5 -1.89927,0.20914 -2.625,0.625 -0.71759,0.41589 -1.3246,1.02154 -1.78125,1.8125 -0.44849,0.78283 -0.75674,1.7334 -0.96875,2.875 -0.20386,1.14162 -0.3125,2.43169 -0.3125,3.875 0,1.44333 0.11543,2.73339 0.34375,3.875 0.23648,1.14161 0.5977,2.11528 1.0625,2.90625 0.47295,0.79097 1.04057,1.39663 1.75,1.8125 0.71758,0.41587 1.56902,0.625 2.53125,0.625 1.03559,0 1.93051,-0.20913 2.65625,-0.625 0.72573,-0.41587 1.29334,-1.02153 1.75,-1.8125 0.46479,-0.79097 0.79613,-1.76464 1,-2.90625 0.212,-1.14161 0.34374,-2.43167 0.34375,-3.875 -1e-5,-1.45147 -0.13853,-2.73338 -0.375,-3.875 -0.23649,-1.1416 -0.58956,-2.12342 -1.0625,-2.90625 -0.47297,-0.79096 -1.06368,-1.37352 -1.78125,-1.78125 -0.71759,-0.41586 -1.56089,-0.62498 -2.53125,-0.625 z m 96.0625,0 c -1.02746,2e-5 -1.89926,0.20914 -2.625,0.625 -0.71759,0.41589 -1.29336,1.02154 -1.75,1.8125 -0.44849,0.78283 -0.78799,1.7334 -1,2.875 -0.20386,1.14162 -0.3125,2.43169 -0.3125,3.875 0,1.44333 0.11542,2.73339 0.34375,3.875 0.23647,1.14161 0.5977,2.11528 1.0625,2.90625 0.47295,0.79097 1.04056,1.39663 1.75,1.8125 0.71758,0.41587 1.56903,0.625 2.53125,0.625 1.0356,0 1.9305,-0.20913 2.65625,-0.625 0.72573,-0.41587 1.29335,-1.02153 1.75,-1.8125 0.46479,-0.79097 0.79613,-1.76464 1,-2.90625 0.212,-1.14161 0.34374,-2.43167 0.34375,-3.875 -10e-6,-1.45147 -0.13854,-2.73338 -0.375,-3.875 -0.23649,-1.1416 -0.58956,-2.12342 -1.0625,-2.90625 -0.47296,-0.79096 -1.06367,-1.37352 -1.78125,-1.78125 -0.71759,-0.41586 -1.56089,-0.62498 -2.53125,-0.625 z m -108.09375,0.28125 -4.6875,3.65625 1.1875,1.5 1.8125,-1.5 c 0.17123,-0.14676 0.31518,-0.26897 0.4375,-0.375 0.12231,-0.11414 0.23773,-0.2146 0.34375,-0.3125 0.11415,-0.0978 0.20649,-0.20648 0.3125,-0.3125 0.106,-0.106 0.23637,-0.22821 0.375,-0.375 -0.008,0.27726 -0.0149,0.60182 -0.0312,0.96875 -0.008,0.35881 -0.0149,0.7567 -0.0312,1.15625 -0.008,0.39142 -0.0232,0.78795 -0.0312,1.1875 l 0,1.125 0,11.15625 2.15625,0 0,-17.875 -1.84375,0 z m 96.0625,0 -4.6875,3.65625 1.1875,1.5 1.8125,-1.5 c 0.17124,-0.14676 0.31517,-0.26897 0.4375,-0.375 0.12231,-0.11414 0.23774,-0.2146 0.34375,-0.3125 0.11415,-0.0978 0.20649,-0.20648 0.3125,-0.3125 0.106,-0.106 0.23637,-0.22821 0.375,-0.375 -0.008,0.27726 -0.0149,0.60182 -0.0312,0.96875 -0.008,0.35881 -0.0149,0.7567 -0.0312,1.15625 -0.008,0.39142 -0.0233,0.78795 -0.0312,1.1875 l 0,1.125 0,11.15625 2.15625,0 0,-17.875 -1.84375,0 z m -84.03125,1.625 c 0.62788,2e-5 1.15341,0.1358 1.59375,0.4375 0.44033,0.30173 0.81649,0.77159 1.09375,1.375 0.28539,0.60344 0.47142,1.33673 0.59375,2.25 0.1305,0.9133 0.21874,1.99561 0.21875,3.21875 -1e-5,1.23132 -0.0883,2.29731 -0.21875,3.21875 -0.12233,0.91329 -0.30836,1.67783 -0.59375,2.28125 -0.27726,0.60342 -0.65342,1.07329 -1.09375,1.375 -0.44034,0.30171 -0.96587,0.4375 -1.59375,0.4375 -0.6279,0 -1.15342,-0.13579 -1.59375,-0.4375 -0.43219,-0.30986 -0.79341,-0.77157 -1.0625,-1.375 -0.2691,-0.61157 -0.47144,-1.36795 -0.59375,-2.28125 -0.12237,-0.91328 -0.18751,-1.99558 -0.1875,-3.21875 -1e-5,-1.22314 0.0652,-2.30545 0.1875,-3.21875 0.12231,-0.91327 0.32465,-1.64656 0.59375,-2.25 0.26909,-0.60341 0.63031,-1.07327 1.0625,-1.375 0.44033,-0.3017 0.96585,-0.43748 1.59375,-0.4375 z m 96.0625,0 c 0.62788,2e-5 1.15341,0.1358 1.59375,0.4375 0.44033,0.30173 0.81649,0.77159 1.09375,1.375 0.28539,0.60344 0.47142,1.33673 0.59375,2.25 0.1305,0.9133 0.21874,1.99561 0.21875,3.21875 -10e-6,1.23132 -0.0883,2.29731 -0.21875,3.21875 -0.12233,0.91329 -0.30836,1.67783 -0.59375,2.28125 -0.27726,0.60342 -0.65342,1.07329 -1.09375,1.375 -0.44034,0.30171 -0.96587,0.4375 -1.59375,0.4375 -0.62789,0 -1.15342,-0.13579 -1.59375,-0.4375 -0.43218,-0.30986 -0.79341,-0.77157 -1.0625,-1.375 -0.2691,-0.61157 -0.47143,-1.36795 -0.59375,-2.28125 -0.12227,-0.91328 -0.1875,-1.99558 -0.1875,-3.21875 0,-1.22314 0.0652,-2.30545 0.1875,-3.21875 0.12232,-0.91327 0.32465,-1.64656 0.59375,-2.25 0.26909,-0.60341 0.63032,-1.07327 1.0625,-1.375 0.44033,-0.3017 0.96586,-0.43748 1.59375,-0.4375 z m -86.625,2.6875 0,8 66.4375,0 0,-8 -66.4375,0 z m 0,32 0,4 66.4375,0 0,-4 -66.4375,0 z M 2,256 c 0,105.76115 113.7168,191.5 254,191.5 140.2832,0 254,-85.73885 254,-191.5 L 2,256 z"
         id="PitchBlack"
         inkscape:connector-curvature="0" />
      <path
         style="fill:#e1e1e1;fill-opacity:1"
         d="M 2.0625,252 C 2.0262305,253.33225 2,254.6612 2,256 c 0,1.3388 0.026231,2.66775 0.0625,4 l 223.59375,0 -210.71875,56.46875 c 1.084893,2.45894 2.256684,4.899 3.46875,7.3125 l 14.28125,-3.8125 0,0.0312 104.46875,0 -85.71875,49.5 c 3.51688,3.59631 7.196885,7.102 11.03125,10.5 l 48.5625,0 0,-8 -47.9375,0 90.0625,-52 19.53125,0 0,-8 -5.65625,0 75.375,-43.53125 L 211.9375,312 l -8.21875,0 0,8 2.59375,0 -36.40625,52 -26.5,0 0,8 20.90625,0 -30.6875,43.8125 c 2.50714,1.04138 5.03584,2.0838 7.59375,3.0625 l 32.8125,-46.875 163.9375,0 32.8125,46.875 c 2.55791,-0.9787 5.08661,-2.02112 7.59375,-3.0625 L 347.6875,380 l 20.90625,0 0,-8 -26.5,0 -36.40625,-52 2.59375,0 0,-8 -8.21875,0 -30.46875,-43.53125 75.375,43.53125 -5.65625,0 0,8 19.53125,0 90.0625,52 -47.9375,0 0,8 48.5625,0 c 3.83436,-3.398 7.51437,-6.90369 11.03125,-10.5 l -85.71875,-49.5 104.46875,0 0,-0.0312 14.28125,3.8125 c 1.21207,-2.4135 2.38386,-4.85356 3.46875,-7.3125 L 286.34375,260 509.9375,260 c 0.0363,-1.33225 0.0625,-2.6612 0.0625,-4 0,-1.3388 -0.0262,-2.66775 -0.0625,-4 L 2.0625,252 Z M 256,262.9375 290.34375,312 221.65625,312 256,262.9375 Z M 227.65625,267.71875 151,312 l -88.59375,0 165.25,-44.28125 z m 56.6875,0 L 449.59375,312 361,312 284.34375,267.71875 Z m -90.6875,38.75 c -1.02746,2e-5 -1.89926,0.1779 -2.625,0.59375 -0.71759,0.41589 -1.29336,1.02154 -1.75,1.8125 -0.4485,0.78283 -0.78799,1.76466 -1,2.90625 -0.20386,1.14163 -0.3125,2.43169 -0.3125,3.875 0,1.44333 0.11543,2.73339 0.34375,3.875 0.23648,1.14161 0.5977,2.11527 1.0625,2.90625 0.47295,0.79097 1.07181,1.39662 1.78125,1.8125 0.71758,0.41587 1.53778,0.625 2.5,0.625 1.0356,0 1.93051,-0.20913 2.65625,-0.625 0.72573,-0.41588 1.3246,-1.02153 1.78125,-1.8125 0.46479,-0.79098 0.79613,-1.76464 1,-2.90625 0.212,-1.14161 0.31249,-2.43167 0.3125,-3.875 -1e-5,-1.45147 -0.10729,-2.76462 -0.34375,-3.90625 -0.23649,-1.1416 -0.58956,-2.09216 -1.0625,-2.875 -0.47297,-0.79095 -1.06367,-1.40476 -1.78125,-1.8125 -0.71759,-0.41585 -1.59214,-0.59373 -2.5625,-0.59375 z m 135.9375,0 c -1.02745,2e-5 -1.89927,0.1779 -2.625,0.59375 -0.71759,0.41589 -1.32461,1.02154 -1.78125,1.8125 -0.44849,0.78283 -0.75674,1.76466 -0.96875,2.90625 -0.20387,1.14163 -0.3125,2.43169 -0.3125,3.875 0,1.44333 0.11543,2.73339 0.34375,3.875 0.23648,1.14161 0.5977,2.11527 1.0625,2.90625 0.47296,0.79097 1.04057,1.39662 1.75,1.8125 0.71758,0.41587 1.56903,0.625 2.53125,0.625 1.0356,0 1.89925,-0.20913 2.625,-0.625 0.72573,-0.41588 1.32459,-1.02153 1.78125,-1.8125 0.46479,-0.79098 0.79612,-1.76464 1,-2.90625 0.212,-1.14161 0.34373,-2.43167 0.34375,-3.875 -2e-5,-1.45147 -0.13853,-2.76462 -0.375,-3.90625 -0.23649,-1.1416 -0.58956,-2.09216 -1.0625,-2.875 -0.47297,-0.79095 -1.06368,-1.40476 -1.78125,-1.8125 -0.7176,-0.41585 -1.56088,-0.59373 -2.53125,-0.59375 z M 181.625,306.75 l -4.65625,3.65625 1.15625,1.5 1.8125,-1.5 c 0.17123,-0.14676 0.31518,-0.26898 0.4375,-0.375 0.12231,-0.11414 0.23773,-0.2146 0.34375,-0.3125 0.11415,-0.0978 0.23774,-0.20648 0.34375,-0.3125 0.106,-0.10599 0.20512,-0.2282 0.34375,-0.375 -0.008,0.27727 -0.0149,0.60182 -0.0312,0.96875 -0.008,0.3588 -0.0149,0.72545 -0.0312,1.125 -0.008,0.39143 -0.0232,0.78795 -0.0312,1.1875 l 0,1.125 0,11.1875 2.15625,0 0,-17.875 -1.84375,0 z m 135.9375,0 -4.6875,3.65625 1.1875,1.5 1.78125,-1.5 c 0.17124,-0.14676 0.34643,-0.26898 0.46875,-0.375 0.12231,-0.11414 0.23774,-0.2146 0.34375,-0.3125 0.11416,-0.0978 0.20648,-0.20648 0.3125,-0.3125 0.106,-0.10599 0.23637,-0.2282 0.375,-0.375 -0.008,0.27727 -0.0149,0.60182 -0.0312,0.96875 -0.008,0.3588 -0.0462,0.72545 -0.0625,1.125 -0.008,0.39143 0.008,0.78795 0,1.1875 l 0,1.125 0,11.1875 2.15625,0 0,-17.875 -1.84375,0 z m -124.34375,1.625 c 0.14525,-0.0189 0.28053,0 0.4375,0 0.62788,10e-6 1.18466,0.1358 1.625,0.4375 0.44033,0.30172 0.78524,0.74034 1.0625,1.34375 0.28539,0.60344 0.50267,1.36797 0.625,2.28125 0.1305,0.9133 0.18749,1.9956 0.1875,3.21875 -1e-5,1.23132 -0.057,2.29731 -0.1875,3.21875 -0.12233,0.9133 -0.33961,1.67783 -0.625,2.28125 -0.27726,0.60343 -0.62217,1.04204 -1.0625,1.34375 -0.44034,0.30171 -0.99712,0.46876 -1.625,0.46875 -0.6279,10e-6 -1.15342,-0.16704 -1.59375,-0.46875 -0.43218,-0.30987 -0.76216,-0.74032 -1.03125,-1.34375 -0.2691,-0.61157 -0.47144,-1.39921 -0.59375,-2.3125 -0.12237,-0.91328 -0.1875,-1.96434 -0.1875,-3.1875 0,-1.22315 0.0652,-2.30545 0.1875,-3.21875 0.12231,-0.91328 0.32465,-1.67781 0.59375,-2.28125 0.26909,-0.60341 0.59907,-1.04203 1.03125,-1.34375 0.33025,-0.22627 0.7205,-0.38092 1.15625,-0.4375 z m 135.90625,0 c 0.14525,-0.0189 0.31178,0 0.46875,0 0.62788,10e-6 1.1534,0.1358 1.59375,0.4375 0.44033,0.30172 0.81649,0.74034 1.09375,1.34375 0.28539,0.60344 0.47143,1.36797 0.59375,2.28125 0.13041,0.9133 0.18749,1.9956 0.1875,3.21875 -10e-6,1.23132 -0.057,2.29731 -0.1875,3.21875 -0.12232,0.9133 -0.30836,1.67783 -0.59375,2.28125 -0.27726,0.60343 -0.65342,1.04204 -1.09375,1.34375 -0.44035,0.30171 -0.96587,0.46876 -1.59375,0.46875 -0.62789,10e-6 -1.15342,-0.16704 -1.59375,-0.46875 -0.43219,-0.30987 -0.79341,-0.74032 -1.0625,-1.34375 -0.26909,-0.61157 -0.47144,-1.39921 -0.59375,-2.3125 -0.12237,-0.91328 -0.18751,-1.96434 -0.1875,-3.1875 -10e-6,-1.22315 0.0652,-2.30545 0.1875,-3.21875 0.12231,-0.91328 0.32466,-1.67781 0.59375,-2.28125 0.26909,-0.60341 0.63031,-1.04203 1.0625,-1.34375 0.33025,-0.22627 0.68925,-0.38092 1.125,-0.4375 z M 216.0625,320 l 79.875,0 36.40625,52 -152.6875,0 36.40625,-52 z m -82.9375,47.25 c -1.02746,2e-5 -1.89927,0.20915 -2.625,0.625 -0.71759,0.41589 -1.32461,1.02154 -1.78125,1.8125 -0.4485,0.78284 -0.75674,1.76465 -0.96875,2.90625 -0.20386,1.14162 -0.3125,2.43168 -0.3125,3.875 0,1.44333 0.11543,2.7334 0.34375,3.875 0.23648,1.14162 0.56645,2.08403 1.03125,2.875 0.47295,0.79098 1.07182,1.39663 1.78125,1.8125 0.71758,0.41588 1.56902,0.625 2.53125,0.625 1.03559,0 1.89926,-0.20912 2.625,-0.625 0.72573,-0.41587 1.32459,-1.02152 1.78125,-1.8125 0.46479,-0.79097 0.79613,-1.73338 1,-2.875 0.212,-1.1416 0.31249,-2.43167 0.3125,-3.875 -1e-5,-1.45147 -0.10728,-2.76463 -0.34375,-3.90625 -0.23648,-1.1416 -0.58956,-2.09216 -1.0625,-2.875 -0.47297,-0.79096 -1.06368,-1.40476 -1.78125,-1.8125 -0.71759,-0.41585 -1.56089,-0.62498 -2.53125,-0.625 z m 256.75,0 c -1.02745,2e-5 -1.89927,0.20915 -2.625,0.625 -0.71759,0.41589 -1.29336,1.02154 -1.75,1.8125 -0.44849,0.78284 -0.78799,1.76465 -1,2.90625 -0.20387,1.14162 -0.3125,2.43168 -0.3125,3.875 0,1.44333 0.11543,2.7334 0.34375,3.875 0.23648,1.14162 0.5977,2.08403 1.0625,2.875 0.47296,0.79098 1.07182,1.39663 1.78125,1.8125 0.71758,0.41588 1.53778,0.625 2.5,0.625 1.0356,0 1.9305,-0.20912 2.65625,-0.625 0.72573,-0.41587 1.32459,-1.02152 1.78125,-1.8125 0.46479,-0.79097 0.79612,-1.73338 1,-2.875 0.212,-1.1416 0.31248,-2.43167 0.3125,-3.875 -2e-5,-1.45147 -0.10728,-2.76463 -0.34375,-3.90625 -0.23649,-1.1416 -0.58956,-2.09216 -1.0625,-2.875 -0.47297,-0.79096 -1.09493,-1.40476 -1.8125,-1.8125 -0.7176,-0.41585 -1.56088,-0.62498 -2.53125,-0.625 z m -269.15625,0.0312 c -0.53004,2e-5 -1.01889,0.0734 -1.5,0.1875 -0.48111,0.10602 -0.94282,0.24997 -1.375,0.4375 -0.43219,0.18757 -0.84365,0.39532 -1.21875,0.65625 -0.3751,0.2528 -0.70508,0.51896 -1.03125,0.8125 l 1.25,1.46875 c 0.56265,-0.48925 1.13026,-0.87762 1.75,-1.1875 0.62788,-0.31801 1.35032,-0.49998 2.125,-0.5 0.43217,2e-5 0.8056,0.0883 1.15625,0.21875 0.35063,0.13049 0.65346,0.30158 0.90625,0.5625 0.26093,0.25281 0.45511,0.57057 0.59375,0.9375 0.13863,0.36696 0.21874,0.80015 0.21875,1.28125 -1e-5,0.61974 -0.10186,1.18872 -0.28125,1.71875 -0.17941,0.52189 -0.43878,1.04063 -0.78125,1.5625 -0.33434,0.52189 -0.73765,1.04742 -1.21875,1.59375 -0.48111,0.54635 -1.01342,1.15201 -1.625,1.8125 l -4.28125,4.65625 0,1.9375 11.15625,0 0,-2.03125 -8.4375,0 0,-0.125 3.4375,-3.65625 c 0.61157,-0.6605 1.16561,-1.29467 1.6875,-1.90625 0.53003,-0.61157 0.99988,-1.20907 1.375,-1.8125 0.38324,-0.61157 0.66297,-1.21585 0.875,-1.84375 0.22016,-0.62788 0.34374,-1.30686 0.34375,-2 -1e-5,-0.74203 -0.13038,-1.41287 -0.375,-2 -0.23648,-0.59525 -0.55968,-1.09227 -1,-1.5 -0.44035,-0.41586 -0.98897,-0.71732 -1.625,-0.9375 -0.6279,-0.22015 -1.34219,-0.34373 -2.125,-0.34375 z m 256.78125,0 c -0.53004,2e-5 -1.05015,0.0734 -1.53125,0.1875 -0.48111,0.10602 -0.91158,0.24997 -1.34375,0.4375 -0.43219,0.18757 -0.84365,0.39532 -1.21875,0.65625 -0.3751,0.2528 -0.73633,0.51896 -1.0625,0.8125 l 1.25,1.46875 c 0.56265,-0.48925 1.16152,-0.87762 1.78125,-1.1875 0.62789,-0.31801 1.31908,-0.49998 2.09375,-0.5 0.43218,2e-5 0.83686,0.0883 1.1875,0.21875 0.35063,0.13049 0.65345,0.30158 0.90625,0.5625 0.26093,0.25281 0.45512,0.57057 0.59375,0.9375 0.13864,0.36696 0.21874,0.80015 0.21875,1.28125 -10e-6,0.61974 -0.10187,1.18872 -0.28125,1.71875 -0.17941,0.52189 -0.43878,1.04063 -0.78125,1.5625 -0.33434,0.52189 -0.73765,1.04742 -1.21875,1.59375 -0.48111,0.54635 -1.04468,1.15201 -1.65625,1.8125 l -4.28125,4.65625 0,1.9375 11.15625,0 0,-2.03125 -8.40625,0 0,-0.125 3.4375,-3.65625 c 0.61157,-0.6605 1.16561,-1.29467 1.6875,-1.90625 0.53002,-0.61157 0.96864,-1.20907 1.34375,-1.8125 0.38325,-0.61157 0.69422,-1.21585 0.90625,-1.84375 0.22015,-0.62788 0.34374,-1.30686 0.34375,-2 -10e-6,-0.74203 -0.13038,-1.41287 -0.375,-2 -0.23649,-0.59525 -0.59092,-1.09227 -1.03125,-1.5 -0.44034,-0.41586 -0.95772,-0.71732 -1.59375,-0.9375 -0.6279,-0.22015 -1.34219,-0.34373 -2.125,-0.34375 z m -244.375,1.875 c 0.62788,2e-5 1.15341,0.16706 1.59375,0.46875 0.44033,0.30173 0.81649,0.74034 1.09375,1.34375 0.28539,0.60343 0.47142,1.36797 0.59375,2.28125 0.1305,0.9133 0.18749,1.9956 0.1875,3.21875 -1e-5,1.23131 -0.057,2.29731 -0.1875,3.21875 -0.12233,0.91329 -0.30836,1.67783 -0.59375,2.28125 -0.27726,0.60343 -0.65342,1.04204 -1.09375,1.34375 -0.44034,0.30172 -0.96587,0.46875 -1.59375,0.46875 -0.6279,0 -1.15342,-0.16703 -1.59375,-0.46875 -0.43219,-0.30986 -0.79341,-0.77158 -1.0625,-1.375 -0.2691,-0.61158 -0.47144,-1.36796 -0.59375,-2.28125 -0.12237,-0.91329 -0.1875,-1.96434 -0.1875,-3.1875 0,-1.22315 0.0652,-2.30545 0.1875,-3.21875 0.12231,-0.91328 0.32465,-1.67782 0.59375,-2.28125 0.26909,-0.60341 0.63031,-1.04202 1.0625,-1.34375 0.44033,-0.30169 0.96585,-0.46873 1.59375,-0.46875 z m 256.75,0 c 0.62788,2e-5 1.18465,0.16706 1.625,0.46875 0.44033,0.30173 0.78524,0.74034 1.0625,1.34375 0.28539,0.60343 0.50268,1.36797 0.625,2.28125 0.13051,0.9133 0.18749,1.9956 0.1875,3.21875 -10e-6,1.23131 -0.057,2.29731 -0.1875,3.21875 -0.12232,0.91329 -0.33961,1.67783 -0.625,2.28125 -0.27726,0.60343 -0.62217,1.04204 -1.0625,1.34375 -0.44035,0.30172 -0.99712,0.46875 -1.625,0.46875 -0.62789,0 -1.15342,-0.16703 -1.59375,-0.46875 -0.43219,-0.30986 -0.79341,-0.77158 -1.0625,-1.375 -0.26909,-0.61158 -0.44019,-1.36796 -0.5625,-2.28125 -0.12237,-0.91329 -0.18751,-1.96434 -0.1875,-3.1875 -10e-6,-1.22315 0.0652,-2.30545 0.1875,-3.21875 0.12231,-0.91328 0.29341,-1.67782 0.5625,-2.28125 0.26909,-0.60341 0.63031,-1.04202 1.0625,-1.34375 0.44033,-0.30169 0.96586,-0.46873 1.59375,-0.46875 z"
         id="PitchWhite"
         inkscape:connector-curvature="0" />
    </g>
    <g
       inkscape:groupmode="layer"
       id="RollMarker"
       inkscape:label="RollMarker"
       style="display:inline">
      <path
         style="fill:none;stroke:#0a0a0a;stroke-width:40;stroke-linecap:round;stroke-miterlimit:4;stroke-opacity:1"
         d="m 492,255.99999 c 0,130.33922 -105.66081,236 -236,236 -130.33921,0 -235.999998,-105.66078 -235.999998,-236 C 20.000002,125.6608 125.66079,20.000007 256,20.000007 c 130.33919,0 236,105.660793 236,235.999983 z"
         id="path4839"
         inkscape:connector-curvature="0" />
      <path
         id="rect4823"
         style="fill:#ffffff;fill-opacity:1;stroke:none"
         d="m 345.43654,16.122738 -13.6808,37.587703 -3.5331,-1.285941 13.68081,-37.587703 z M 302.42356,4.2365198 295.47763,43.62883 291.77491,42.975941 298.72084,3.58363 z m -88.90787,-0.6945964 6.94593,39.3923106 -3.70272,0.652888 -6.94593,-39.3923103 z m -43.19346,11.2127346 13.68081,37.587708 -3.5331,1.28594 -13.6808,-37.587706 z m 309.38024,116.709432 -34.64102,20 -3.75983,-6.51222 34.64102,-20 z m -92.23836,-95.166591 -20,34.641015 -6.51223,-3.759835 20,-34.641015 z m -256.00002,-4.000005 20,34.641016 -6.51222,3.759843 -20.00001,-34.641018 z m -95.166596,92.238396 34.641014,20 -3.759842,6.51223 -34.641011,-20 z M 264,17.037999 c 0,4.418278 -3.58173,8 -8,8.000001 -4.41828,0 -8,-3.581722 -8,-8.000001 0,-4.418278 3.58172,-8.0000005 8,-7.9999981 4.41828,-10e-7 8,3.5817211 8,7.9999981 z m -4.00001,7.233446 10e-6,15.473054 -8,1e-6 0,-15.473055 z M 472,252.48032 l 40,0 0,7.51968 -40.00001,0 z M -1.1149851e-6,252 39.999998,252 l -3e-6,7.51968 -39.9999969438028,0 z"
         inkscape:connector-curvature="0" />
    </g>
  </g>
  <g
     inkscape:groupmode="layer"
     id="Chassis"
     inkscape:label="Chassis"
     style="display:inline"
     sodipodi:insensitive="true">
    <path
       inkscape:connector-curvature="0"
       d="m 232.47108,1.021943 19.41716,0 0,38.774998 -16.25565,0 z m 47.05784,0 -19.41716,0 0,38.774998 16.25565,0 z"
       style="fill:#ffffff;fill-opacity:1;stroke:none"
       id="rect3028" />
    <path
       style="fill:none;stroke:#1e1e1e;stroke-width:8;stroke-miterlimit:4;stroke-opacity:1"
       d="M 508,256 C 508,395.17574 395.17574,508 256,508 116.82425,508 3.9999998,395.17574 3.9999998,256 3.9999998,116.82423 116.82425,4 256,4 395.17574,4 508,116.82423 508,256 z"
       id="path4852"
       inkscape:connector-curvature="0" />
    <g
       inkscape:groupmode="layer"
       id="reference"
       inkscape:label="Reference"
       style="display:inline">
      <path
         style="fill:none;stroke:#000000;stroke-width:7.99999952;stroke-linecap:round;stroke-miterlimit:4;stroke-opacity:1"
         d="m 287.51385,263.50471 c -3.06891,17.40462 -19.66598,29.02601 -37.07059,25.95711 -13.24838,-2.33605 -23.62106,-12.70874 -25.95711,-25.95711"
         id="path4464"
         inkscape:connector-curvature="0" />
      <path
         style="fill:#000000;fill-opacity:1;stroke:none"
         d="M 254,257.15625 254,290 l 4,0 0,-32.84375 -4,0 z m -3,33 0,96.75 -60,96.71875 130,0 -60,-96.71875 0,-96.75 -10,0 z"
         id="rect4466"
         inkscape:connector-curvature="0" />
      <path
         style="fill:#ffffff;fill-opacity:1;stroke:none"
         d="m 260,256 c 0,2.20913 -1.79086,4 -4,4 -2.20914,0 -4,-1.79087 -4,-4 0,-2.20913 1.79086,-3.99999 4,-3.99999 2.20914,0 4,1.79086 4,3.99999 z"
         id="path4460"
         inkscape:connector-curvature="0" />
      <path
         id="path4475"
         style="fill:#ffffff;fill-opacity:1;stroke:none"
         d="m 363.08245,252 -65.88877,0 c -2.216,0 -4,1.784 -4,4 0,2.216 1.784,4 4,4 l 65.88877,0 c 2.216,0 4,-1.784 4,-4 0,-2.216 -1.784,-4 -4,-4 z m -214.1649,0 65.88876,0 c 2.216,0 4,1.784 4,4 0,2.216 -1.784,4 -4,4 l -65.88876,0 c -2.21601,0 -4,-1.784 -4,-4 0,-2.216 1.78399,-4 4,-4 z"
         inkscape:connector-curvature="0" />
      <path
         id="path4477"
         style="fill:none;stroke:#ffffff;stroke-width:8;stroke-linecap:round;stroke-miterlimit:4;stroke-opacity:1"
         d="m 296.75914,256.00136 c -4.53971,0.0747 -8.3865,3.17244 -9.17493,7.38835 m -72.34335,-7.38835 c 4.53971,0.0747 8.3865,3.17244 9.17493,7.38835"
         inkscape:connector-curvature="0" />
    </g>
  </g>
</svg>
