<?xml version="1.0" encoding="UTF-8" standalone="no"?>
<!-- Created with Inkscape (http://www.inkscape.org/) -->

<svg
   xmlns:dc="http://purl.org/dc/elements/1.1/"
   xmlns:cc="http://creativecommons.org/ns#"
   xmlns:rdf="http://www.w3.org/1999/02/22-rdf-syntax-ns#"
   xmlns:svg="http://www.w3.org/2000/svg"
   xmlns="http://www.w3.org/2000/svg"
   xmlns:xlink="http://www.w3.org/1999/xlink"
   xmlns:sodipodi="http://sodipodi.sourceforge.net/DTD/sodipodi-0.dtd"
   xmlns:inkscape="http://www.inkscape.org/namespaces/inkscape"
   version="1.1"
   width="100%"
   height="100%"
   id="ASI"
   inkscape:version="0.92.4 (5da689c313, 2019-01-14)"
   sodipodi:docname="START.svg"
   viewBox="0 0 512 256"
   preserveAspectRatio="xMinYMin meet">
  <title
     id="title5958">Switches</title>
  <defs
     id="defs3747">
    <linearGradient
       id="redswitchoff-gradient">
      <stop
         style="stop-color:#9f0a0a;stop-opacity:1"
         offset="0"
         id="stop9932" />
      <stop
         style="stop-color:#951c1c;stop-opacity:1"
         offset="0.7302621"
         id="stop9934" />
      <stop
         id="stop9936"
         offset="0.77466345"
         style="stop-color:#ffa9a9;stop-opacity:1;" />
      <stop
         id="stop9938"
         offset="1"
         style="stop-color:#ff4646;stop-opacity:1;" />
    </linearGradient>
    <linearGradient
       id="redswitchon-gradient">
      <stop
         style="stop-color:#820000;stop-opacity:1"
         offset="0"
         id="stop9902" />
      <stop
         style="stop-color:#7f1f1f;stop-opacity:1"
         offset="0.20321894"
         id="stop9904" />
      <stop
         id="stop9906"
         offset="0.2387525"
         style="stop-color:#f6a2a2;stop-opacity:1" />
      <stop
         id="stop9908"
         offset="1"
         style="stop-color:#fe4646;stop-opacity:1" />
    </linearGradient>
    <linearGradient
       inkscape:collect="always"
       id="linearGradient1725">
      <stop
         style="stop-color:#010101;stop-opacity:1"
         offset="0"
         id="stop1721" />
      <stop
         style="stop-color:#686f6f;stop-opacity:1"
         offset="1"
         id="stop1723" />
    </linearGradient>
    <linearGradient
       inkscape:collect="always"
       id="linearGradient1717">
      <stop
         style="stop-color:#000000;stop-opacity:1"
         offset="0"
         id="stop1713" />
      <stop
         style="stop-color:#111111;stop-opacity:0;"
         offset="1"
         id="stop1715" />
    </linearGradient>
    <linearGradient
       inkscape:collect="always"
       id="linearGradient1707">
      <stop
         style="stop-color:#4a4a4a;stop-opacity:1"
         offset="0"
         id="stop1703" />
      <stop
         id="stop1711"
         offset="0.55742937"
         style="stop-color:#aaaaaa;stop-opacity:0.98823529" />
      <stop
         style="stop-color:#424242;stop-opacity:0.98214287"
         offset="1"
         id="stop1705" />
    </linearGradient>
    <linearGradient
       id="linearGradient1880-3">
      <stop
         id="stop1872"
         offset="0"
         style="stop-color:#ababab;stop-opacity:1;" />
      <stop
         id="stop1874"
         offset="0.20321894"
         style="stop-color:#808080;stop-opacity:1;" />
      <stop
         style="stop-color:#d4d4d4;stop-opacity:1;"
         offset="0.2387525"
         id="stop1876" />
      <stop
         style="stop-color:#a2a2a2;stop-opacity:1;"
         offset="1"
         id="stop1878" />
    </linearGradient>
    <linearGradient
       id="linearGradient3755-2-9">
      <stop
         style="stop-color:#ababab;stop-opacity:1;"
         offset="0"
         id="stop3854-1" />
      <stop
         style="stop-color:#808080;stop-opacity:1;"
         offset="0.7302621"
         id="stop3852-6" />
      <stop
         id="stop3858-0"
         offset="0.77466345"
         style="stop-color:#d4d4d4;stop-opacity:1;" />
      <stop
         id="stop3856-9"
         offset="1"
         style="stop-color:#a2a2a2;stop-opacity:1;" />
    </linearGradient>
    <filter
       style="color-interpolation-filters:sRGB"
       inkscape:collect="always"
       id="filter3781-4-7-3-2"
       x="-0.025198275"
       width="1.0503966"
       y="-6.7531495"
       height="14.506299">
      <feGaussianBlur
         inkscape:collect="always"
         stdDeviation="3.5251722"
         id="feGaussianBlur3783-2-2-2-6" />
    </filter>
    <filter
       style="color-interpolation-filters:sRGB"
       inkscape:collect="always"
       id="filter3781-4-7-4"
       x="-0.025198275"
       width="1.0503966"
       y="-6.7531495"
       height="14.506299">
      <feGaussianBlur
         inkscape:collect="always"
         stdDeviation="3.5251722"
         id="feGaussianBlur3783-2-2-8" />
    </filter>
    <linearGradient
       inkscape:collect="always"
       xlink:href="#redswitchoff-gradient"
       id="linearGradient5617"
       gradientUnits="userSpaceOnUse"
       gradientTransform="matrix(0.85783753,0,0,1,90.577796,0)"
       x1="455.0712"
       y1="105.30653"
       x2="445.87366"
       y2="922.14001" />
    <linearGradient
       inkscape:collect="always"
       xlink:href="#redswitchoff-gradient"
       id="linearGradient5619"
       gradientUnits="userSpaceOnUse"
       gradientTransform="matrix(0.85783753,0,0,1,90.577796,0)"
       x1="455.0712"
       y1="105.30653"
       x2="445.87366"
       y2="922.14001" />
    <filter
       style="color-interpolation-filters:sRGB"
       inkscape:collect="always"
       id="filter3781-4-7-3-26"
       x="-0.025198275"
       width="1.0503966"
       y="-6.7531495"
       height="14.506299">
      <feGaussianBlur
         inkscape:collect="always"
         stdDeviation="3.5251722"
         id="feGaussianBlur3783-2-2-2-8" />
    </filter>
    <linearGradient
       inkscape:collect="always"
       xlink:href="#linearGradient3755-2-9"
       id="linearGradient5758"
       gradientUnits="userSpaceOnUse"
       gradientTransform="matrix(0.85783753,0,0,1,90.577796,0)"
       x1="455.0712"
       y1="105.30653"
       x2="445.87366"
       y2="922.14001" />
    <filter
       style="color-interpolation-filters:sRGB"
       inkscape:collect="always"
       id="filter3781-4-7-4-9"
       x="-0.025198275"
       width="1.0503966"
       y="-6.7531495"
       height="14.506299">
      <feGaussianBlur
         inkscape:collect="always"
         stdDeviation="3.5251722"
         id="feGaussianBlur3783-2-2-8-7" />
    </filter>
    <filter
       style="color-interpolation-filters:sRGB"
       inkscape:collect="always"
       id="filter3781-4-7-3-2-7"
       x="-0.025198275"
       width="1.0503966"
       y="-6.7531495"
       height="14.506299">
      <feGaussianBlur
         inkscape:collect="always"
         stdDeviation="3.5251722"
         id="feGaussianBlur3783-2-2-2-6-8" />
    </filter>
    <filter
       style="color-interpolation-filters:sRGB"
       inkscape:collect="always"
       id="filter3781-4-7-3-26-7"
       x="-0.025198275"
       width="1.0503966"
       y="-6.7531495"
       height="14.506299">
      <feGaussianBlur
         inkscape:collect="always"
         stdDeviation="3.5251722"
         id="feGaussianBlur3783-2-2-2-8-9" />
    </filter>
    <linearGradient
       inkscape:collect="always"
       xlink:href="#redswitchon-gradient"
       id="linearGradient1862"
       gradientUnits="userSpaceOnUse"
       gradientTransform="matrix(0.85783753,0,0,1,90.577796,0)"
       x1="455.0712"
       y1="105.30653"
       x2="445.87366"
       y2="922.14001" />
    <linearGradient
       inkscape:collect="always"
       xlink:href="#redswitchon-gradient"
       id="linearGradient1864"
       gradientUnits="userSpaceOnUse"
       gradientTransform="matrix(0.85783753,0,0,1,90.577796,0)"
       x1="455.0712"
       y1="105.30653"
       x2="445.87366"
       y2="922.14001" />
    <linearGradient
       inkscape:collect="always"
       xlink:href="#linearGradient1880-3"
       id="linearGradient1868"
       gradientUnits="userSpaceOnUse"
       gradientTransform="matrix(0.85783753,0,0,1,90.577796,0)"
       x1="455.0712"
       y1="105.30653"
       x2="445.87366"
       y2="922.14001" />
    <linearGradient
       inkscape:collect="always"
       xlink:href="#linearGradient1707"
       id="linearGradient1709"
       x1="49.5"
       y1="669.18239"
       x2="75.5"
       y2="669.18239"
       gradientUnits="userSpaceOnUse" />
    <linearGradient
       inkscape:collect="always"
       xlink:href="#linearGradient1717"
       id="linearGradient1719"
       x1="62.935287"
       y1="598.33899"
       x2="63.070351"
       y2="614.73987"
       gradientUnits="userSpaceOnUse"
       gradientTransform="matrix(1,0,0,0.93890637,-12,45.60356)" />
    <radialGradient
       inkscape:collect="always"
       xlink:href="#linearGradient1725"
       id="radialGradient1729"
       cx="62.5"
       cy="751.36218"
       fx="62.5"
       fy="751.36218"
       r="40"
       gradientUnits="userSpaceOnUse"
       gradientTransform="matrix(0.89230769,0,0,0.76923077,6.7307692,177.39127)" />
    <linearGradient
       inkscape:collect="always"
       xlink:href="#linearGradient1717"
       id="linearGradient1763"
       x1="62.824799"
       y1="776.255"
       x2="62.546402"
       y2="739.73718"
       gradientUnits="userSpaceOnUse"
       gradientTransform="matrix(1.3469828,0,0,1.4125,-21.748923,-311.27439)" />
    <radialGradient
       inkscape:collect="always"
       xlink:href="#linearGradient1707"
       id="radialGradient1796"
       cx="63.125"
       cy="603.98718"
       fx="63.125"
       fy="603.98718"
       r="19.125"
       gradientTransform="matrix(1,0,0,0.71895425,-12,177.74803)"
       gradientUnits="userSpaceOnUse" />
    <radialGradient
       inkscape:collect="always"
       xlink:href="#linearGradient1707"
       id="radialGradient9950"
       cx="206.47519"
       cy="671.91138"
       fx="206.47519"
       fy="671.91138"
       r="56.568542"
       gradientUnits="userSpaceOnUse"
       gradientTransform="translate(-18.475187,-1.0492088)" />
    <linearGradient
       inkscape:collect="always"
       xlink:href="#linearGradient1707"
       id="linearGradient9960"
       x1="154.14928"
       y1="673.32562"
       x2="256.67975"
       y2="673.32562"
       gradientUnits="userSpaceOnUse"
       gradientTransform="translate(-17.414516,-2.4634247)" />
  </defs>
  <sodipodi:namedview
     id="base"
     bordercolor="#666666"
     borderopacity="1.0"
     inkscape:pageshadow="2"
     inkscape:zoom="1.9152136"
     inkscape:cx="243.81247"
     inkscape:cy="110.27295"
     inkscape:document-units="px"
     inkscape:current-layer="Face"
     showgrid="true"
     borderlayer="true"
     inkscape:window-width="1858"
     inkscape:window-height="1057"
     inkscape:window-x="1974"
     inkscape:window-y="-8"
     inkscape:window-maximized="1"
     inkscape:snap-bbox="true"
     inkscape:snap-bbox-midpoints="true"
     inkscape:snap-bbox-edge-midpoints="true"
     inkscape:bbox-nodes="true"
     inkscape:bbox-paths="true"
     inkscape:snap-global="false"
     inkscape:snap-center="true"
     inkscape:snap-page="true"
     inkscape:snap-object-midpoints="true"
     inkscape:object-paths="true"
     inkscape:snap-intersection-paths="true"
     inkscape:snap-smooth-nodes="true"
     inkscape:snap-midpoints="true"
     inkscape:object-nodes="true"
     inkscape:snap-text-baseline="true"
     inkscape:snap-grids="true"
     showguides="true"
     inkscape:guide-bbox="true"
     height="0.5">
    <inkscape:grid
       type="xygrid"
       id="grid1800" />
  </sodipodi:namedview>
  <metadata
     id="metadata3750">
    <rdf:RDF>
      <cc:Work
         rdf:about="">
        <dc:format>image/svg+xml</dc:format>
        <dc:type
           rdf:resource="http://purl.org/dc/dcmitype/StillImage" />
        <dc:title>Switches</dc:title>
        <dc:creator>
          <cc:Agent>
            <dc:title>Juan Vera</dc:title>
          </cc:Agent>
        </dc:creator>
        <dc:rights>
          <cc:Agent>
            <dc:title>Juan Vera</dc:title>
          </cc:Agent>
        </dc:rights>
        <dc:publisher>
          <cc:Agent>
            <dc:title>flightgear.org</dc:title>
          </cc:Agent>
        </dc:publisher>
        <cc:license
           rdf:resource="" />
        <dc:date>2014-08-01</dc:date>
      </cc:Work>
    </rdf:RDF>
  </metadata>
  <g
     inkscape:label="Face"
     inkscape:groupmode="layer"
     id="Face"
     transform="translate(0,-540.36218)"
     style="display:inline;opacity:1">
    <rect
       ry="2.4374504"
       y="542.86444"
       x="2.1421356"
       height="255.0836"
       width="97.580734"
       id="rect1684"
       style="fill:#111111;fill-opacity:1;stroke:none;stroke-width:3.77952766;stroke-linecap:round;stroke-linejoin:bevel;stroke-miterlimit:4;stroke-dasharray:none;stroke-opacity:1" />
    <g
       id="g7571"
       transform="translate(-16,-16)">
      <g
         id="g1893"
         transform="translate(0,-170)">
        <rect
           style="fill:#000000;fill-opacity:1;stroke:none;stroke-width:3.14777946;stroke-linecap:butt;stroke-linejoin:bevel;stroke-miterlimit:4;stroke-dasharray:none;stroke-opacity:1"
           id="rect6666"
           width="210.93207"
           height="50.204586"
           x="297.09903"
           y="729.14539" />
        <text
           xml:space="preserve"
           style="font-style:normal;font-weight:normal;font-size:40px;line-height:19.76692963px;font-family:sans-serif;letter-spacing:0px;word-spacing:0px;display:inline;opacity:1;fill:#000000;fill-opacity:1;stroke:none"
           x="307.92746"
           y="765.02838"
           id="text6670-4-0"><tspan
             sodipodi:role="line"
             x="307.92746"
             y="765.02838"
             style="font-size:26.66666603px;line-height:19.76692963px;writing-mode:lr-tb;text-orientation:upright;fill:#ffffff;fill-opacity:1"
             id="tspan6712">BAT</tspan></text>
        <text
           xml:space="preserve"
           style="font-style:normal;font-weight:normal;font-size:40px;line-height:19.76692963px;font-family:sans-serif;letter-spacing:0px;word-spacing:0px;display:inline;opacity:1;fill:#000000;fill-opacity:1;stroke:none"
           x="378.97321"
           y="765.01538"
           id="text6670-4-0-1"><tspan
             sodipodi:role="line"
             x="378.97321"
             y="765.01538"
             style="font-size:26.66666603px;line-height:19.76692963px;writing-mode:lr-tb;text-orientation:upright;fill:#ffffff;fill-opacity:1"
             id="tspan6712-5">ALT</tspan></text>
        <text
           xml:space="preserve"
           style="font-style:normal;font-weight:normal;font-size:40px;line-height:19.76692963px;font-family:sans-serif;letter-spacing:0px;word-spacing:0px;display:inline;opacity:1;fill:#000000;fill-opacity:1;stroke:none"
           x="452.03824"
           y="765.01538"
           id="text6670-4-0-1-0-8"><tspan
             sodipodi:role="line"
             x="452.03824"
             y="765.01538"
             style="font-size:26.66666603px;line-height:19.76692963px;writing-mode:lr-tb;text-orientation:upright;fill:#ffffff;fill-opacity:1"
             id="tspan6712-5-8-7">AVI</tspan></text>
      </g>
      <g
         transform="translate(138,42.000002)"
         style="display:inline;opacity:1"
         id="switches-on">
        <g
           inkscape:label="#g3785-3-2-9"
           id="master-bat-on"
           transform="matrix(0.20379453,0,0,-0.19221958,99.080253,747.0623)"
           style="display:inline;opacity:1">
          <rect
             style="fill:url(#linearGradient1862);fill-opacity:1;fill-rule:nonzero;stroke:#000000;stroke-width:10;stroke-linecap:round;stroke-linejoin:round;stroke-miterlimit:4;stroke-dasharray:none;stroke-dashoffset:0;stroke-opacity:1"
             id="master-bat-on-shape"
             width="332.62793"
             height="814.42065"
             x="304.51489"
             y="106.51292" />
          <path
             style="fill:none;stroke:#ffffff;stroke-width:8.22789001;stroke-linecap:butt;stroke-linejoin:miter;stroke-miterlimit:4;stroke-dasharray:none;stroke-opacity:1;filter:url(#filter3781-4-7-4-9)"
             d="m 301.92772,735.40072 335.75365,1.25281"
             id="path3771-1-8-00-5"
             inkscape:connector-curvature="0"
             transform="matrix(0.94537253,0,0,1,25.052852,-432.8596)" />
        </g>
        <g
           inkscape:label="#g3785-3-2-4-1"
           id="landingswitch-on"
           transform="matrix(0.20379453,0,0,-0.19221958,169.53741,747.0623)"
           style="display:inline;opacity:1">
          <rect
             style="fill:url(#linearGradient1864);fill-opacity:1;fill-rule:nonzero;stroke:#000000;stroke-width:10;stroke-linecap:round;stroke-linejoin:round;stroke-miterlimit:4;stroke-dasharray:none;stroke-dashoffset:0;stroke-opacity:1"
             id="rect2985-8-9-5-1-4"
             width="332.62793"
             height="814.42065"
             x="304.51489"
             y="106.51292" />
          <path
             style="fill:none;stroke:#ffffff;stroke-width:8.22789001;stroke-linecap:butt;stroke-linejoin:miter;stroke-miterlimit:4;stroke-dasharray:none;stroke-opacity:1;filter:url(#filter3781-4-7-3-2-7)"
             d="m 301.92772,735.40072 335.75365,1.25281"
             id="path3771-1-8-0-9-6"
             inkscape:connector-curvature="0"
             transform="matrix(0.94537253,0,0,1,25.052852,-432.8596)" />
        </g>
        <g
           inkscape:label="#g3785-3-2-4-4"
           id="beaconswitch-on"
           transform="matrix(0.20379453,0,0,-0.19221958,240.2609,747.0623)"
           style="display:inline;opacity:1">
          <rect
             style="fill:url(#linearGradient1868);fill-opacity:1;fill-rule:nonzero;stroke:#000000;stroke-width:10;stroke-linecap:round;stroke-linejoin:round;stroke-miterlimit:4;stroke-dasharray:none;stroke-dashoffset:0;stroke-opacity:1"
             id="rect2985-8-9-5-5-2"
             width="332.62793"
             height="814.42065"
             x="304.51489"
             y="106.51292" />
          <path
             style="fill:none;stroke:#ffffff;stroke-width:8.22789001;stroke-linecap:butt;stroke-linejoin:miter;stroke-miterlimit:4;stroke-dasharray:none;stroke-opacity:1;filter:url(#filter3781-4-7-3-26-7)"
             d="m 301.92772,735.40072 335.75365,1.25281"
             id="path3771-1-8-0-94-7"
             inkscape:connector-curvature="0"
             transform="matrix(0.94537253,0,0,1,25.052852,-432.8596)" />
        </g>
      </g>
      <g
         id="switches-off"
         transform="translate(138,42)">
        <g
           inkscape:label="#g3785-3-2-9"
           id="master_bat"
           transform="matrix(0.20379453,0,0,-0.19221958,99.080253,747.0623)"
           style="display:inline;opacity:1">
          <rect
             style="fill:url(#linearGradient5617);fill-opacity:1;fill-rule:nonzero;stroke:#000000;stroke-width:10;stroke-linecap:round;stroke-linejoin:round;stroke-miterlimit:4;stroke-dasharray:none;stroke-dashoffset:0;stroke-opacity:1"
             id="master_bat_shape"
             width="332.62793"
             height="814.42065"
             x="304.51489"
             y="106.51292" />
          <path
             style="fill:none;stroke:#ffffff;stroke-width:8.22789001;stroke-linecap:butt;stroke-linejoin:miter;stroke-miterlimit:4;stroke-dasharray:none;stroke-opacity:1;filter:url(#filter3781-4-7-4)"
             d="m 301.92772,735.40072 335.75365,1.25281"
             id="path3771-1-8-00"
             inkscape:connector-curvature="0"
             transform="matrix(0.94537253,0,0,1,25.052852,-6.2640606)" />
        </g>
        <g
           inkscape:label="#g3785-3-2-4-1"
           id="master_alt"
           transform="matrix(0.20379453,0,0,-0.19221958,169.53741,747.0623)"
           style="display:inline;opacity:1">
          <rect
             style="fill:url(#linearGradient5619);fill-opacity:1;fill-rule:nonzero;stroke:#000000;stroke-width:10;stroke-linecap:round;stroke-linejoin:round;stroke-miterlimit:4;stroke-dasharray:none;stroke-dashoffset:0;stroke-opacity:1"
             id="master_alt_shape"
             width="332.62793"
             height="814.42065"
             x="304.51489"
             y="106.51292" />
          <path
             style="fill:none;stroke:#ffffff;stroke-width:8.22789001;stroke-linecap:butt;stroke-linejoin:miter;stroke-miterlimit:4;stroke-dasharray:none;stroke-opacity:1;filter:url(#filter3781-4-7-3-2)"
             d="m 301.92772,735.40072 335.75365,1.25281"
             id="path3771-1-8-0-9"
             inkscape:connector-curvature="0"
             transform="matrix(0.94537253,0,0,1,25.052852,-6.2640606)" />
        </g>
        <g
           inkscape:label="#g3785-3-2-4-4"
           id="master_avionics"
           transform="matrix(0.20379453,0,0,-0.19221958,240.2609,747.0623)"
           style="display:inline;opacity:1">
          <rect
             style="fill:url(#linearGradient5758);fill-opacity:1;fill-rule:nonzero;stroke:#000000;stroke-width:10;stroke-linecap:round;stroke-linejoin:round;stroke-miterlimit:4;stroke-dasharray:none;stroke-dashoffset:0;stroke-opacity:1"
             id="master_avionics_shape"
             width="332.62793"
             height="814.42065"
             x="304.51489"
             y="106.51292" />
          <path
             style="fill:none;stroke:#ffffff;stroke-width:8.22789001;stroke-linecap:butt;stroke-linejoin:miter;stroke-miterlimit:4;stroke-dasharray:none;stroke-opacity:1;filter:url(#filter3781-4-7-3-26)"
             d="m 301.92772,735.40072 335.75365,1.25281"
             id="path3771-1-8-0-94"
             inkscape:connector-curvature="0"
             transform="matrix(0.94537253,0,0,1,25.052852,-6.2640606)" />
        </g>
      </g>
    </g>
    <g
       id="primer"
       transform="translate(-12,-94)">
      <rect
         ry="2.5888753"
         y="589.50256"
         x="49.5"
         height="159.35965"
         width="26"
         id="rect1674"
         style="fill:url(#linearGradient1709);fill-opacity:1;stroke:none;stroke-width:3.77952766;stroke-linecap:round;stroke-linejoin:bevel;stroke-miterlimit:4;stroke-dasharray:none;stroke-opacity:1" />
      <ellipse
         cy="755.36218"
         cx="62.5"
         id="path1657"
         style="fill:#c6c6c6;fill-opacity:1;stroke:url(#radialGradient1729);stroke-width:20;stroke-linecap:round;stroke-linejoin:bevel;stroke-miterlimit:4;stroke-dasharray:none;stroke-opacity:1"
         rx="29"
         ry="25" />
      <ellipse
         cy="755.67468"
         cx="62.4375"
         id="path1657-3"
         style="display:inline;opacity:1;fill:url(#linearGradient1763);fill-opacity:1;stroke:none;stroke-width:19.99999809;stroke-linecap:round;stroke-linejoin:bevel;stroke-miterlimit:4;stroke-dasharray:none;stroke-opacity:1"
         rx="39.0625"
         ry="35.3125" />
    </g>
    <path
       style="fill:#111111;fill-opacity:1;stroke:none;stroke-width:3.7795279;stroke-linecap:round;stroke-linejoin:bevel;stroke-miterlimit:4;stroke-dasharray:none;stroke-opacity:1"
       d="M 5.328427,538.55281 H 95.96447 v 87.8033 H 65.260741 c 0.426073,-28.007 -29.863191,-28.11492 -29.827,0 H 5.328427 Z"
       id="rect1680"
       inkscape:connector-curvature="0"
       sodipodi:nodetypes="ccccccc" />
    <path
       style="fill:url(#linearGradient1719);fill-opacity:1;stroke:none;stroke-width:1px;stroke-linecap:butt;stroke-linejoin:miter;stroke-opacity:1"
       d="m 35.251155,625.16192 c 0.121176,-27.81478 30.22426,-28.72866 30.239537,0.34513"
       id="path1693"
       inkscape:connector-curvature="0"
       sodipodi:nodetypes="cc" />
    <path
       style="display:inline;opacity:1;fill:url(#radialGradient1796);fill-opacity:1;stroke:none;stroke-width:1px;stroke-linecap:butt;stroke-linejoin:miter;stroke-opacity:1"
       d="m 37.4375,617.17468 c 0.0031,-12.88265 25.808876,-12.47825 26.0625,0.0625 v 9.4375 c 1.22205,-0.52145 4.81203,-1.86404 4.75,-11.3125 -0.06203,-9.44846 -7.686413,-15.04151 -17.1875,-15.125 -9.501087,-0.0835 -18.054113,5.58052 -18.125,14.625 -0.07089,9.04448 3.205143,11.3327 4.5625,11.8125 z"
       id="path1765"
       inkscape:connector-curvature="0"
       sodipodi:nodetypes="ccczzzcc" />
    <circle
       style="fill:#000000;fill-opacity:1;stroke:none;stroke-width:20;stroke-linecap:round;stroke-linejoin:bevel;stroke-miterlimit:4;stroke-dasharray:none;stroke-opacity:1"
       id="path1798"
       cx="188"
       cy="670.86218"
       r="82.5" />
    <circle
       style="fill:url(#radialGradient9950);fill-opacity:1;stroke:none;stroke-width:20;stroke-linecap:round;stroke-linejoin:bevel;stroke-miterlimit:4;stroke-dasharray:none;stroke-opacity:1"
       id="path9942"
       cx="188"
       cy="670.86218"
       r="56.568542" />
    <rect
       style="fill:url(#linearGradient9960);fill-opacity:1;stroke:#000000;stroke-width:1;stroke-linecap:round;stroke-linejoin:bevel;stroke-miterlimit:4;stroke-dasharray:none;stroke-opacity:1"
       id="magnetos"
       width="102.53048"
       height="28.284271"
       x="136.73476"
       y="656.72003" />
    <flowRoot
       xml:space="preserve"
       id="flowRoot9966"
       style="fill:black;fill-opacity:1;stroke:none;font-family:sans-serif;font-style:normal;font-weight:normal;font-size:40px;line-height:1.25;letter-spacing:0px;word-spacing:0px"><flowRegion
         id="flowRegion9968"><rect
           id="rect9970"
           width="152.73506"
           height="54.447224"
           x="137.17871"
           y="80.63752" /></flowRegion><flowPara
         id="flowPara9972" /></flowRoot>    <text
       xml:space="preserve"
       style="font-style:normal;font-weight:normal;font-size:40px;line-height:1.25;font-family:sans-serif;letter-spacing:0px;word-spacing:0px;display:inline;opacity:1;fill:#000000;fill-opacity:1;stroke:none"
       x="14.950474"
       y="592.71844"
       id="text10030-0"><tspan
         sodipodi:role="line"
         id="tspan10028-5"
         x="14.950474"
         y="592.71844"
         style="font-size:18.66666603px;fill:#cecece;fill-opacity:1">PRIMER</tspan></text>
    <g
       aria-label="      OFF    R    L    BOTH  START"
       transform="matrix(0.92477682,0,0,0.94571392,-0.659299,35.608947)"
       style="font-style:normal;font-weight:normal;font-size:40px;line-height:1.25;font-family:sans-serif;letter-spacing:0px;word-spacing:0px;fill:#000000;fill-opacity:1;stroke:none;stroke-width:1.06930506"
       id="text943">
      <path
         d="m 125.29601,689.21587 q 0.53464,1.93262 2.29124,2.67608 1.75417,0.73467 4.24023,0.0469 2.47726,-0.68531 3.60445,-2.21707 1.12476,-1.54056 0.59012,-3.47318 -0.53463,-1.93262 -2.28638,-2.6585 -1.75417,-0.73467 -4.23144,-0.0494 -2.48605,0.68774 -3.61324,2.21951 -1.12962,1.52298 -0.59498,3.4556 z m -1.44068,0.39855 q -0.76307,-2.75838 0.63361,-4.92266 1.3879,-2.16184 4.49767,-3.02212 3.10098,-0.85785 5.41141,0.28089 2.30164,1.14118 3.06472,3.89956 0.7655,2.76716 -0.61997,4.93779 -1.38791,2.16185 -4.49767,3.02213 -3.10976,0.86028 -5.41141,-0.2809 -2.31286,-1.14753 -3.07836,-3.91469 z"
         style="font-size:18.66666603px;fill:#ededed;fill-opacity:1;stroke-width:1.06930506"
         id="path977"
         inkscape:connector-curvature="0" />
      <path
         d="m 121.65344,678.14602 -0.67747,-7.79091 1.54365,-0.13423 0.51798,5.95669 3.99534,-0.34743 -0.46745,-5.37554 1.54366,-0.13424 0.46744,5.37555 6.47427,-0.56298 0.1595,1.83422 z"
         style="font-size:18.66666603px;fill:#ededed;fill-opacity:1;stroke-width:1.06930506"
         id="path979"
         inkscape:connector-curvature="0" />
      <path
         d="m 121.03262,664.97124 0.72035,-7.78706 1.54289,0.14272 -0.55075,5.95375 3.99336,0.36941 0.49702,-5.3729 1.5429,0.14273 -0.49702,5.37289 6.47107,0.59861 -0.1696,1.83332 z"
         style="font-size:18.66666603px;fill:#ededed;fill-opacity:1;stroke-width:1.06930506"
         id="path981"
         inkscape:connector-curvature="0" />
      <path
         d="m 144.92395,624.94881 q 0.53387,-0.32586 1.39396,-0.33141 0.86594,-0.0125 2.10946,0.29064 l 4.0514,0.9521 -1.26876,1.5173 -3.79474,-0.90382 q -1.48149,-0.3596 -2.23338,-0.15664 -0.74605,0.19596 -1.44767,1.03502 l -1.28629,1.53828 4.41206,3.68934 -1.18106,1.41241 -10.43931,-8.72928 2.66614,-3.18843 q 1.49679,-1.79 2.98165,-2.0454 1.48486,-0.25541 2.99517,1.0075 0.98589,0.8244 1.25028,1.82964 0.27022,0.99825 -0.20891,2.08275 z m -7.34257,-0.12791 3.70585,3.09881 1.48509,-1.77601 q 0.85363,-1.02086 0.81782,-1.93002 -0.037,-0.92199 -0.95293,-1.68792 -0.91598,-0.76593 -1.81597,-0.62741 -0.90114,0.12568 -1.75478,1.14654 z"
         style="font-size:18.66666603px;fill:#ededed;fill-opacity:1;stroke-width:1.06930506"
         id="path983"
         inkscape:connector-curvature="0" />
      <path
         d="m 168.49888,598.47434 1.68923,-0.73234 4.79648,11.06361 6.07955,-2.63571 0.61632,1.42163 -7.76877,3.36805 z"
         style="font-size:18.66666603px;fill:#ededed;fill-opacity:1;stroke-width:1.06930506"
         id="path985"
         inkscape:connector-curvature="0" />
      <path
         d="m 209.69167,597.46274 -0.69648,4.93679 2.92417,0.41254 q 1.47111,0.20754 2.26038,-0.29783 0.79958,-0.51313 0.97656,-1.76763 0.17826,-1.26353 -0.4507,-1.95979 -0.61865,-0.704 -2.08976,-0.91154 z m 0.78179,-5.54148 -0.57297,4.06134 2.69853,0.38071 q 1.33574,0.18845 2.05558,-0.21627 0.73014,-0.41246 0.8753,-1.44133 0.14388,-1.01985 -0.44366,-1.61821 -0.57851,-0.59709 -1.91424,-0.78553 z m -1.61173,-1.75539 4.65701,0.65701 q 2.08482,0.29413 3.09074,1.31971 1.00592,1.02558 0.78055,2.62304 -0.17444,1.23645 -0.85519,1.886 -0.68075,0.64956 -1.82534,0.67217 1.30401,0.47853 1.9142,1.50351 0.6205,1.01723 0.42696,2.38906 -0.25466,1.80504 -1.62087,2.61562 -1.36622,0.81059 -3.63154,0.49099 l -4.83752,-0.68247 z"
         style="font-size:18.66666603px;fill:#ededed;fill-opacity:1;stroke-width:1.06930506"
         id="path987"
         inkscape:connector-curvature="0" />
      <path
         d="m 228.55441,595.83233 q -1.89388,-0.65884 -3.50412,0.36365 -1.60164,1.02549 -2.44914,3.46171 -0.84451,2.42762 -0.22514,4.22574 0.62798,1.80112 2.52186,2.45995 1.89389,0.65884 3.48692,-0.36964 1.60163,-1.02549 2.44614,-3.4531 0.8475,-2.43623 0.22813,-4.23435 -0.61076,-1.79513 -2.50465,-2.45396 z m 0.49114,-1.41181 q 2.70309,0.94034 3.68961,3.31975 0.98952,2.37081 -0.0706,5.41824 -1.05713,3.03882 -3.30742,4.29222 -2.2473,1.24479 -4.95039,0.30446 -2.7117,-0.94334 -3.70982,-3.31714 -0.98953,-2.3708 0.0706,-5.41823 1.06013,-3.04743 3.30743,-4.29222 2.2589,-1.25041 4.9706,-0.30708 z"
         style="font-size:18.66666603px;fill:#ededed;fill-opacity:1;stroke-width:1.06930506"
         id="path989"
         inkscape:connector-curvature="0" />
      <path
         d="m 237.87774,598.10826 10.09653,5.5299 -0.74433,1.35899 -4.23686,-2.32054 -5.7926,10.57618 -1.6228,-0.88882 5.7926,-10.57617 -4.23687,-2.32054 z"
         style="font-size:18.66666603px;fill:#ededed;fill-opacity:1;stroke-width:1.06930506"
         id="path991"
         inkscape:connector-curvature="0" />
      <path
         d="m 251.27575,605.84985 1.45405,1.1294 -3.42174,4.40535 5.28354,4.10386 3.42175,-4.40535 1.45405,1.1294 -8.34749,10.74704 -1.45406,-1.1294 3.97527,-5.11798 -5.28355,-4.10386 -3.97526,5.11798 -1.45405,-1.1294 z"
         style="font-size:18.66666603px;fill:#ededed;fill-opacity:1;stroke-width:1.06930506"
         id="path993"
         inkscape:connector-curvature="0" />
      <path
         d="m 277.04934,634.33426 -1.51608,0.96207 q -0.13834,-1.15362 -0.42869,-2.07045 -0.29034,-0.91683 -0.75428,-1.64794 -0.8058,-1.26981 -1.73786,-1.64988 -0.92718,-0.37238 -1.83529,0.20389 -0.76189,0.48348 -0.86624,1.1866 -0.0918,0.70593 0.48034,2.13483 l 0.40341,1.06099 q 0.77278,1.94925 0.45648,3.30502 -0.30371,1.35858 -1.70435,2.2474 -1.67,1.05975 -3.24494,0.48313 -1.57006,-0.56893 -2.94236,-2.73146 -0.51767,-0.81576 -0.919,-1.85646 -0.39646,-1.03301 -0.65986,-2.24761 l 1.60074,-1.0158 q 0.0697,1.28356 0.37659,2.3626 0.30691,1.07903 0.86364,1.95636 0.84487,1.33137 1.82725,1.72269 0.98238,0.39132 1.95205,-0.22401 0.84654,-0.5372 0.9916,-1.3633 0.14994,-0.81841 -0.36357,-2.15496 l -0.41599,-1.06379 q -0.75739,-1.95902 -0.51184,-3.20513 0.24555,-1.24611 1.56154,-2.08121 1.52377,-0.96696 3.07992,-0.45397 1.56104,0.52068 2.75753,2.40615 0.51278,0.80807 0.89887,1.7397 0.3861,0.93163 0.65039,1.99454 z"
         style="font-size:18.66666603px;fill:#ededed;fill-opacity:1;stroke-width:1.06930506"
         id="path995"
         inkscape:connector-curvature="0" />
      <path
         d="m 279.44944,637.77259 4.38756,10.64279 -1.43252,0.59056 -1.84118,-4.46609 -11.14839,4.59599 -0.7052,-1.7106 11.14838,-4.59599 -1.84117,-4.4661 z"
         style="font-size:18.66666603px;fill:#ededed;fill-opacity:1;stroke-width:1.06930506"
         id="path997"
         inkscape:connector-curvature="0" />
      <path
         d="m 283.64916,656.14618 -7.13043,-1.12062 0.98145,4.90671 z m 1.57477,-1.37464 0.40939,2.0467 -12.32656,7.75451 -0.37541,-1.87688 3.17995,-1.9002 -1.20313,-6.01497 -3.6662,-0.53082 -0.38079,-1.90369 z"
         style="font-size:18.66666603px;fill:#ededed;fill-opacity:1;stroke-width:1.06930506"
         id="path999"
         inkscape:connector-curvature="0" />
      <path
         d="m 279.55874,673.12073 q -0.20703,0.5902 -0.86936,1.13894 -0.66243,0.55785 -1.81701,1.11028 l -3.73909,1.82746 0.0218,-1.97775 3.50983,-1.70236 q 1.37453,-0.6594 1.82814,-1.29247 0.45351,-0.62395 0.46554,-1.71763 l 0.0221,-2.00509 -5.75096,-0.0633 0.0203,-1.84103 13.60725,0.14974 -0.0457,4.15599 q -0.0257,2.3332 -1.01352,3.47083 -0.98783,1.13764 -2.95647,1.11598 -1.28507,-0.0141 -2.12606,-0.625 -0.84109,-0.60174 -1.15665,-1.7446 z m 5.76524,-4.54882 -4.83043,-0.0531 -0.0255,2.31496 q -0.0146,1.33065 0.58858,2.01181 0.61223,0.69037 1.80617,0.70351 1.19394,0.0131 1.80298,-0.6638 0.61806,-0.66772 0.63271,-1.99836 z"
         style="font-size:18.66666603px;fill:#ededed;fill-opacity:1;stroke-width:1.06930506"
         id="path1001"
         inkscape:connector-curvature="0" />
      <path
         d="m 286.46379,678.99417 -2.22028,11.29557 -1.52039,-0.29885 0.93171,-4.74003 -11.83218,-2.32576 0.35686,-1.81552 11.83219,2.32577 0.93171,-4.74003 z"
         style="font-size:18.66666603px;fill:#ededed;fill-opacity:1;stroke-width:1.06930506"
         id="path1003"
         inkscape:connector-curvature="0" />
    </g>
  </g>
</svg>
