<?xml version="1.0" encoding="UTF-8" standalone="no"?>
<!-- Created with Inkscape (http://www.inkscape.org/) -->

<svg
   xmlns:dc="http://purl.org/dc/elements/1.1/"
   xmlns:cc="http://creativecommons.org/ns#"
   xmlns:rdf="http://www.w3.org/1999/02/22-rdf-syntax-ns#"
   xmlns:svg="http://www.w3.org/2000/svg"
   xmlns="http://www.w3.org/2000/svg"
   xmlns:xlink="http://www.w3.org/1999/xlink"
   xmlns:sodipodi="http://sodipodi.sourceforge.net/DTD/sodipodi-0.dtd"
   xmlns:inkscape="http://www.inkscape.org/namespaces/inkscape"
   version="1.1"
   width="100%"
   height="100%"
   id="ASI"
   inkscape:version="0.91 r13725"
   sodipodi:docname="ADF.svg"
   viewBox="0 0 512 512"
   preserveAspectRatio="xMinYMin meet">
  <title
     id="title5536">ADF</title>
  <defs
     id="defs3747">
    <marker
       inkscape:stockid="TriangleOutM"
       orient="auto"
       refY="0.0"
       refX="0.0"
       id="TriangleOutM"
       style="overflow:visible"
       inkscape:isstock="true">
      <path
         id="path5129"
         d="M 5.77,0.0 L -2.88,5.0 L -2.88,-5.0 L 5.77,0.0 z "
         style="fill-rule:evenodd;stroke:#000000;stroke-width:1pt;stroke-opacity:1;fill:#000000;fill-opacity:1"
         transform="scale(0.4)" />
    </marker>
    <marker
       inkscape:stockid="TriangleInM"
       orient="auto"
       refY="0.0"
       refX="0.0"
       id="TriangleInM"
       style="overflow:visible"
       inkscape:isstock="true">
      <path
         id="path5120"
         d="M 5.77,0.0 L -2.88,5.0 L -2.88,-5.0 L 5.77,0.0 z "
         style="fill-rule:evenodd;stroke:#000000;stroke-width:1pt;stroke-opacity:1;fill:#000000;fill-opacity:1"
         transform="scale(-0.4)" />
    </marker>
    <marker
       inkscape:stockid="TriangleInS"
       orient="auto"
       refY="0.0"
       refX="0.0"
       id="TriangleInS"
       style="overflow:visible"
       inkscape:isstock="true">
      <path
         id="path5123"
         d="M 5.77,0.0 L -2.88,5.0 L -2.88,-5.0 L 5.77,0.0 z "
         style="fill-rule:evenodd;stroke:#000000;stroke-width:1pt;stroke-opacity:1;fill:#000000;fill-opacity:1"
         transform="scale(-0.2)" />
    </marker>
    <marker
       inkscape:stockid="Arrow2Sstart"
       orient="auto"
       refY="0.0"
       refX="0.0"
       id="Arrow2Sstart"
       style="overflow:visible"
       inkscape:isstock="true">
      <path
         id="path5014"
         style="fill-rule:evenodd;stroke-width:0.625;stroke-linejoin:round;stroke:#000000;stroke-opacity:1;fill:#000000;fill-opacity:1"
         d="M 8.7185878,4.0337352 L -2.2072895,0.016013256 L 8.7185884,-4.0017078 C 6.9730900,-1.6296469 6.9831476,1.6157441 8.7185878,4.0337352 z "
         transform="scale(0.3) translate(-2.3,0)" />
    </marker>
    <marker
       inkscape:stockid="Arrow1Sstart"
       orient="auto"
       refY="0.0"
       refX="0.0"
       id="Arrow1Sstart"
       style="overflow:visible"
       inkscape:isstock="true">
      <path
         id="path4996"
         d="M 0.0,0.0 L 5.0,-5.0 L -12.5,0.0 L 5.0,5.0 L 0.0,0.0 z "
         style="fill-rule:evenodd;stroke:#000000;stroke-width:1pt;stroke-opacity:1;fill:#000000;fill-opacity:1"
         transform="scale(0.2) translate(6,0)" />
    </marker>
    <marker
       inkscape:stockid="Arrow2Mstart"
       orient="auto"
       refY="0.0"
       refX="0.0"
       id="Arrow2Mstart"
       style="overflow:visible"
       inkscape:isstock="true">
      <path
         id="path5008"
         style="fill-rule:evenodd;stroke-width:0.625;stroke-linejoin:round;stroke:#000000;stroke-opacity:1;fill:#000000;fill-opacity:1"
         d="M 8.7185878,4.0337352 L -2.2072895,0.016013256 L 8.7185884,-4.0017078 C 6.9730900,-1.6296469 6.9831476,1.6157441 8.7185878,4.0337352 z "
         transform="scale(0.6) translate(0,0)" />
    </marker>
    <radialGradient
       inkscape:collect="always"
       xlink:href="#linearGradient12865"
       id="radialGradient12871"
       cx="-606.02588"
       cy="-589.34821"
       fx="-606.02588"
       fy="-589.34821"
       r="255.99997"
       gradientTransform="translate(-2.5570006e-5,1.2943287e-4)"
       gradientUnits="userSpaceOnUse" />
    <linearGradient
       inkscape:collect="always"
       id="linearGradient12865">
      <stop
         style="stop-color:#151515;stop-opacity:1"
         offset="0"
         id="stop12867" />
      <stop
         id="stop12873"
         offset="0.87221068"
         style="stop-color:#0e0e0e;stop-opacity:1" />
      <stop
         style="stop-color:#080808;stop-opacity:1"
         offset="0.95222574"
         id="stop12877" />
      <stop
         style="stop-color:#000000;stop-opacity:1"
         offset="1"
         id="stop12869" />
    </linearGradient>
    <marker
       inkscape:stockid="TriangleInM"
       orient="auto"
       refY="0"
       refX="0"
       id="TriangleInM-0"
       style="overflow:visible"
       inkscape:isstock="true">
      <path
         inkscape:connector-curvature="0"
         id="path5120-3"
         d="m 5.77,0 -8.65,5 0,-10 8.65,5 z"
         style="fill:#000000;fill-opacity:1;fill-rule:evenodd;stroke:#000000;stroke-width:1pt;stroke-opacity:1"
         transform="scale(-0.4,-0.4)" />
    </marker>
    <marker
       inkscape:stockid="TriangleOutM"
       orient="auto"
       refY="0"
       refX="0"
       id="TriangleOutM-1"
       style="overflow:visible"
       inkscape:isstock="true">
      <path
         inkscape:connector-curvature="0"
         id="path5129-9"
         d="m 5.77,0 -8.65,5 0,-10 8.65,5 z"
         style="fill:#000000;fill-opacity:1;fill-rule:evenodd;stroke:#000000;stroke-width:1pt;stroke-opacity:1"
         transform="scale(0.4,0.4)" />
    </marker>
  </defs>
  <sodipodi:namedview
     id="base"
     bordercolor="#666666"
     borderopacity="1.0"
     inkscape:pageshadow="2"
     inkscape:zoom="1"
     inkscape:cx="255.6849"
     inkscape:cy="255.58767"
     inkscape:document-units="px"
     inkscape:current-layer="layer3"
     showgrid="false"
     borderlayer="true"
     inkscape:window-width="1366"
     inkscape:window-height="704"
     inkscape:window-x="0"
     inkscape:window-y="27"
     inkscape:window-maximized="1"
     inkscape:snap-bbox="true"
     inkscape:snap-bbox-midpoints="true"
     inkscape:snap-bbox-edge-midpoints="true"
     inkscape:bbox-nodes="true"
     inkscape:bbox-paths="true"
     inkscape:snap-global="true"
     inkscape:snap-center="true"
     inkscape:snap-page="true"
     inkscape:snap-object-midpoints="true"
     inkscape:object-paths="true"
     inkscape:snap-intersection-paths="true"
     inkscape:snap-smooth-nodes="true"
     inkscape:snap-midpoints="true"
     inkscape:object-nodes="true"
     inkscape:snap-text-baseline="true" />
  <metadata
     id="metadata3750">
    <rdf:RDF>
      <cc:Work
         rdf:about="">
        <dc:format>image/svg+xml</dc:format>
        <dc:type
           rdf:resource="http://purl.org/dc/dcmitype/StillImage" />
        <dc:title>ADF</dc:title>
        <dc:creator>
          <cc:Agent>
            <dc:title>Tuomas Kuosmanen</dc:title>
          </cc:Agent>
        </dc:creator>
        <dc:rights>
          <cc:Agent>
            <dc:title>Tuomas Kuosmanen</dc:title>
          </cc:Agent>
        </dc:rights>
        <dc:publisher>
          <cc:Agent>
            <dc:title>flightgear.org</dc:title>
          </cc:Agent>
        </dc:publisher>
        <cc:license
           rdf:resource="http://www.gnu.org/licenses/gpl-2.0.html" />
        <dc:date>2015-07-10</dc:date>
      </cc:Work>
    </rdf:RDF>
  </metadata>
  <g
     inkscape:label="Face"
     inkscape:groupmode="layer"
     id="Face"
     transform="translate(0,-540.36218)"
     style="display:inline;opacity:1">
    <ellipse
       style="display:inline;opacity:1;fill:url(#radialGradient12871);fill-opacity:1;stroke:none;stroke-width:20;stroke-miterlimit:4;stroke-dasharray:none;stroke-opacity:1"
       id="path12863"
       transform="matrix(-0.88387547,-0.46772231,0.46772244,-0.8838754,0,0)"
       inkscape:transform-center-x="2.3138069"
       inkscape:transform-center-y="-9.8341511"
       cx="-598.7486"
       cy="-584.14807"
       rx="255.99997"
       ry="256.00003" />
  </g>
  <g
     inkscape:groupmode="layer"
     id="layer1"
     inkscape:label="CompassCard"
     style="display:inline">
    <g
       id="Card"
       inkscape:label="Card">
      <path
         style="font-style:normal;font-variant:normal;font-weight:normal;font-stretch:normal;font-size:52.55440903px;line-height:1000%;font-family:Overpass;-inkscape-font-specification:'Overpass, Normal';text-align:center;letter-spacing:0px;word-spacing:0px;writing-mode:lr-tb;text-anchor:middle;fill:#ffffff;fill-opacity:1;stroke:none;stroke-width:1px;stroke-linecap:butt;stroke-linejoin:miter;stroke-opacity:1"
         d="m 242.05273,22.681641 0,36.798828 5.4668,0 0,-24.96875 -0.1543,-2.720703 1.48829,2.720703 15.91015,24.96875 5.15821,0 0,-36.798828 -5.4668,0 0,24.609375 0.1543,2.771484 -1.51368,-2.822266 -15.52539,-24.558593 -5.51758,0 z m -82.40039,21.138671 c -0.70401,-0.01331 -1.42599,0.04105 -2.16601,0.16211 -1.47378,0.218757 -2.93008,0.742548 -4.36719,1.572266 -1.28896,0.744179 -2.3852,1.583981 -3.28711,2.519531 -0.9019,0.935551 -1.61491,1.941698 -2.14062,3.015625 -0.51945,1.050558 -0.86586,2.158315 -1.04102,3.326172 -0.16887,1.144484 -0.16212,2.305568 0.0234,3.482422 l 5.36328,-0.873047 c -0.0281,-0.596142 0.005,-1.207595 0.0977,-1.833985 0.0841,-0.641204 0.25347,-1.253381 0.50976,-1.835937 0.27111,-0.591108 0.64749,-1.154699 1.12891,-1.689453 0.47287,-0.549569 1.0862,-1.042273 1.84179,-1.478516 1.65935,-0.958023 3.15112,-1.265935 4.47461,-0.923828 1.32977,0.318741 2.42197,1.219616 3.27735,2.701172 0.36781,0.637071 0.58731,1.290715 0.6582,1.960937 0.0623,0.655402 -0.01,1.300326 -0.2168,1.933594 -0.2158,0.618448 -0.56382,1.214173 -1.04297,1.787109 -0.47287,0.549573 -1.07953,1.037157 -1.82031,1.464844 l -2.44336,1.41211 2.62891,4.554687 2.44531,-1.410156 c 1.08154,-0.624424 2.08539,-1.026966 3.00977,-1.205078 0.92437,-0.17812 1.76665,-0.170332 2.52929,0.02148 0.7689,0.168455 1.4439,0.500191 2.02539,0.994141 0.58777,0.470576 1.08235,1.053663 1.48438,1.75 0.53034,0.918564 0.81401,1.801768 0.84961,2.65039 0.0504,0.84007 -0.0816,1.637883 -0.39649,2.392578 -0.32347,0.739876 -0.80361,1.430556 -1.43945,2.074219 -0.64439,0.628844 -1.39655,1.19138 -2.25586,1.6875 -0.6667,0.38492 -1.37316,0.685046 -2.11914,0.898438 -0.74597,0.213395 -1.51654,0.312248 -2.31445,0.298828 -0.80647,-0.02824 -1.62947,-0.185681 -2.4668,-0.472657 -0.82251,-0.295533 -1.65841,-0.751364 -2.50781,-1.367187 l -3.39649,4.332031 c 1.08601,0.854556 2.23892,1.533436 3.45704,2.035156 1.20956,0.486908 2.46955,0.785441 3.77929,0.898438 1.3012,0.09819 2.63478,-0.02048 4.00196,-0.355469 1.39053,-0.328727 2.78978,-0.898327 4.19726,-1.710937 1.60008,-0.923807 2.95729,-1.994335 4.07227,-3.210938 1.11497,-1.216593 1.92462,-2.533578 2.42968,-3.951172 0.50508,-1.417594 0.68409,-2.904249 0.53711,-4.458984 -0.15552,-1.569551 -0.69533,-3.153826 -1.61914,-4.753906 -0.52178,-0.90375 -1.12635,-1.661303 -1.81445,-2.271485 -0.68811,-0.610179 -1.4361,-1.085459 -2.24609,-1.427734 -0.80998,-0.342269 -1.67475,-0.555757 -2.5918,-0.638672 -0.92561,-0.09773 -1.88091,-0.07737 -2.86914,0.05859 0.98207,-1.515207 1.45973,-3.065413 1.43359,-4.650391 -0.0199,-1.608351 -0.45907,-3.153204 -1.31445,-4.634765 -0.69286,-1.200064 -1.58736,-2.185452 -2.68359,-2.955079 -1.08997,-0.793002 -2.30265,-1.337445 -3.63868,-1.632812 -0.66801,-0.147684 -1.35262,-0.228877 -2.05664,-0.242188 z m 206.49805,7.50586 c -0.30249,-0.0043 -0.60216,0.005 -0.90039,0.02539 -1.16953,0.07542 -2.30337,0.329489 -3.40234,0.761719 -1.07561,0.425971 -2.07753,1.012554 -3.00391,1.761719 l 3.4375,4.207031 c 0.50221,-0.322422 1.0479,-0.599116 1.63672,-0.832031 0.59737,-0.247731 1.21306,-0.407232 1.8457,-0.476562 0.64748,-0.06077 1.32353,-0.01479 2.02735,0.134765 0.71237,0.134731 1.44557,0.419226 2.20117,0.855469 1.65934,0.958023 2.67163,2.094873 3.03711,3.412109 0.38884,1.310978 0.15616,2.707897 -0.69922,4.189453 -0.36782,0.637072 -0.82416,1.154286 -1.36914,1.550782 -0.53644,0.381687 -1.13116,0.640201 -1.78321,0.777343 -0.6435,0.122336 -1.33261,0.120645 -2.06835,-0.0078 -0.71238,-0.134731 -1.43891,-0.41606 -2.17969,-0.84375 l -2.44531,-1.412109 -2.62891,4.55664 2.44336,1.410156 c 1.08154,0.624427 1.93043,1.292432 2.54687,2.003907 0.61644,0.711477 1.03285,1.446751 1.24805,2.203125 0.23856,0.750108 0.28937,1.499436 0.15234,2.25 -0.11364,0.744299 -0.3714,1.46382 -0.77343,2.160156 -0.53034,0.918565 -1.15397,1.605401 -1.8711,2.060547 -0.7023,0.4637 -1.46043,0.74891 -2.27148,0.853515 -0.8025,0.08979 -1.64029,0.01984 -2.51563,-0.208984 -0.8668,-0.243639 -1.73054,-0.613255 -2.58984,-1.109375 -0.66671,-0.38492 -1.27815,-0.847378 -1.83594,-1.386719 -0.5578,-0.539335 -1.03063,-1.157747 -1.41797,-1.855468 -0.37877,-0.712544 -0.65408,-1.502458 -0.82422,-2.371094 -0.15528,-0.86008 -0.17694,-1.811946 -0.0684,-2.855469 l -5.44921,-0.775391 c -0.19708,1.367782 -0.20967,2.70399 -0.0352,4.009766 0.18311,1.290961 0.55431,2.53188 1.11133,3.722656 0.56556,1.175958 1.33489,2.272555 2.30859,3.289063 0.97996,1.039873 2.17455,1.966687 3.58203,2.779297 1.60008,0.923806 3.20531,1.562624 4.81641,1.919922 1.61109,0.357292 3.1565,0.400287 4.63672,0.128906 1.4802,-0.271387 2.85595,-0.859023 4.1289,-1.763672 1.28152,-0.919464 2.38479,-2.179211 3.3086,-3.779297 0.52178,-0.903749 0.87421,-1.806028 1.05859,-2.707031 0.18438,-0.901012 0.22382,-1.787549 0.11524,-2.660156 -0.10858,-0.872603 -0.35742,-1.726852 -0.74414,-2.5625 -0.37817,-0.850471 -0.87253,-1.669185 -1.48438,-2.457032 1.80325,0.09291 3.38459,-0.268841 4.74414,-1.083984 1.38293,-0.821405 2.50204,-1.971569 3.35742,-3.453125 0.69286,-1.200063 1.09839,-2.468558 1.2168,-3.802735 0.14177,-1.340446 0.006,-2.662083 -0.40625,-3.966796 -0.41221,-1.30471 -1.09326,-2.538527 -2.04297,-3.699219 -0.92634,-1.166959 -2.10781,-2.164424 -3.54492,-2.994141 -1.28895,-0.74418 -2.56305,-1.272642 -3.82422,-1.585937 -0.94587,-0.234974 -1.87377,-0.360252 -2.78125,-0.373047 z m -143.48047,7.380859 -2.73047,0.435547 c -0.44043,0.07021 -0.74601,0.442688 -0.68359,0.832031 l 3.34375,20.9375 c 0.0615,0.389353 0.46583,0.646515 0.90625,0.576172 l 2.73047,-0.435547 c 0.44032,-0.07027 0.74577,-0.440721 0.68359,-0.830078 l -3.34375,-20.9375 c -0.0615,-0.389345 -0.4659,-0.648444 -0.90625,-0.578125 z m 66.10547,0 c -0.44043,-0.07021 -0.8441,0.18878 -0.90625,0.578125 l -3.34375,20.9375 c -0.0616,0.389357 0.24317,0.759769 0.68359,0.830078 l 2.73047,0.435547 c 0.44043,0.07027 0.84407,-0.186819 0.90625,-0.576172 l 3.34375,-20.9375 c 0.0616,-0.389343 -0.24316,-0.761728 -0.68359,-0.832031 l -2.73047,-0.435547 z m -156.68164,1.023438 c -0.70402,-0.01331 -1.42599,0.04105 -2.16602,0.162109 -1.47378,0.218759 -2.92812,0.74255 -4.36523,1.572266 -1.28895,0.744178 -2.3852,1.583982 -3.28711,2.519531 -0.90191,0.935554 -1.61492,1.9417 -2.14062,3.015625 -0.51945,1.050557 -0.86781,2.158313 -1.04297,3.326172 -0.16888,1.144484 -0.16023,2.305568 0.0254,3.482422 l 5.36328,-0.873047 c -0.0281,-0.596143 0.003,-1.207594 0.0957,-1.833985 0.0841,-0.641204 0.25543,-1.25338 0.51172,-1.835937 0.2711,-0.591105 0.64748,-1.154698 1.12891,-1.689453 0.47286,-0.54957 1.08619,-1.042273 1.84179,-1.478516 1.65934,-0.958023 3.15111,-1.265933 4.47461,-0.923828 1.32976,0.318741 2.42197,1.219616 3.27735,2.701172 0.36781,0.637071 0.58731,1.290715 0.6582,1.960938 0.0623,0.6554 -0.01,1.300326 -0.2168,1.933593 -0.2158,0.618448 -0.56383,1.214171 -1.04297,1.78711 -0.47287,0.54957 -1.07953,1.037155 -1.82031,1.464843 l -2.44336,1.41211 2.62891,4.554687 2.44531,-1.410156 c 1.08154,-0.624425 2.08343,-1.026965 3.00781,-1.205078 0.92438,-0.178115 1.76862,-0.170334 2.53125,0.02148 0.7689,0.168454 1.4439,0.500191 2.02539,0.994141 0.58776,0.470576 1.08235,1.053664 1.48438,1.75 0.53034,0.918565 0.81401,1.801769 0.84961,2.65039 0.0504,0.84007 -0.0815,1.637883 -0.39649,2.392579 -0.32348,0.739875 -0.80361,1.430556 -1.43945,2.074218 -0.64439,0.628847 -1.39655,1.191382 -2.25586,1.6875 -0.6667,0.38492 -1.37316,0.685046 -2.11914,0.898438 -0.74597,0.213396 -1.51654,0.312248 -2.31445,0.298828 -0.80648,-0.02824 -1.62947,-0.185678 -2.4668,-0.472656 -0.82251,-0.295532 -1.65841,-0.751363 -2.50781,-1.367188 l -3.39649,4.332031 c 1.086,0.854556 2.23892,1.533435 3.45704,2.035157 1.20956,0.486907 2.46955,0.785439 3.77929,0.898437 1.3012,0.09818 2.63479,-0.02048 4.00196,-0.355468 1.39054,-0.32873 2.78978,-0.898329 4.19726,-1.710938 1.60008,-0.923808 2.95729,-1.994338 4.07227,-3.210938 1.11497,-1.216594 1.9246,-2.533578 2.42968,-3.951171 0.50508,-1.417594 0.68408,-2.904249 0.53711,-4.458985 -0.15552,-1.569551 -0.69533,-3.153826 -1.61914,-4.753906 -0.52178,-0.903749 -1.12634,-1.661303 -1.81445,-2.271484 -0.68811,-0.610182 -1.43611,-1.08546 -2.24609,-1.427735 -0.80999,-0.342268 -1.67475,-0.555756 -2.5918,-0.638672 -0.92561,-0.09773 -1.88287,-0.07737 -2.87109,0.05859 0.98206,-1.515206 1.46168,-3.065412 1.43554,-4.650391 -0.0199,-1.60835 -0.45907,-3.153203 -1.31445,-4.634765 -0.69285,-1.200063 -1.58736,-2.18545 -2.68359,-2.955078 -1.08998,-0.793003 -2.30266,-1.337445 -3.63868,-1.632813 -0.66801,-0.147683 -1.35457,-0.228877 -2.05859,-0.242187 z M 253.375,66.75 c -0.65925,0 -1.18945,0.285107 -1.18945,0.638672 l 0,10.222656 c 0,0.353565 0.5302,0.638672 1.18945,0.638672 l 5.25,0 c 0.65925,0 1.18945,-0.285107 1.18945,-0.638672 l 0,-10.222656 c 0,-0.353565 -0.5302,-0.638672 -1.18945,-0.638672 l -5.25,0 z M 240.98047,67.064453 238.36523,67.25 c -0.42145,0.02946 -0.73902,0.353974 -0.71289,0.726562 l 0.7793,11.113282 a 178.01099,178.01099 0 0 1 4.11914,-0.5 l -0.76562,-10.904297 c -0.0255,-0.372586 -0.38324,-0.650674 -0.80469,-0.621094 z m 29.79687,0.08594 c -0.42136,-0.03052 -0.78166,0.2466 -0.80859,0.61914 l -0.78906,10.921875 a 178.01099,178.01099 0 0 1 4.39258,0.220703 l 1.125,-10.726562 c 0.0391,-0.371483 -0.2672,-0.704009 -0.6875,-0.748047 l -0.39258,-0.04102 c -0.073,-0.02635 -0.14497,-0.05078 -0.22657,-0.05664 l -0.99609,-0.07227 -0.99023,-0.103516 c -0.0808,-0.0076 -0.15868,0.0023 -0.23438,0.01563 l -0.39258,-0.0293 z m -81.5625,0.189453 c -0.10227,-0.0021 -0.2093,0.01236 -0.31445,0.04883 l -2.61523,0.904297 c -0.42156,0.145716 -0.65615,0.564873 -0.52735,0.9375 l 6.92774,20.037109 c 0.12894,0.372708 0.57269,0.555831 0.99414,0.410156 l 2.61523,-0.902343 c 0.42158,-0.145692 0.65627,-0.562925 0.52735,-0.935547 l -6.92774,-20.041016 c -0.0966,-0.279472 -0.37141,-0.451656 -0.67969,-0.458984 z m 133.01563,0 c -0.30841,0.0063 -0.58112,0.179506 -0.67774,0.458984 l -6.92968,20.041016 c -0.12893,0.372622 0.10595,0.789867 0.52734,0.935547 l 2.61523,0.902343 c 0.42145,0.145675 0.86529,-0.0376 0.99415,-0.410156 l 6.92773,-20.037109 c 0.12869,-0.37263 -0.10595,-0.791784 -0.52734,-0.9375 l -2.61524,-0.904297 c -0.10506,-0.03647 -0.21154,-0.05121 -0.31445,-0.04883 z m -113.54102,5.078125 c -0.097,-0.01115 -0.19836,-0.0038 -0.30078,0.02148 l -2.54492,0.634766 c -0.40978,0.102311 -0.66472,0.477451 -0.57422,0.839843 l 2.6875,10.767579 a 178.01099,178.01099 0 0 1 4.0332,-0.957032 l -2.69921,-10.816406 c -0.0663,-0.271798 -0.31088,-0.457563 -0.60157,-0.490234 z m 94.36719,0.146484 c -0.29042,0.03267 -0.53327,0.218551 -0.60156,0.490235 l -2.6836,10.664062 a 178.01099,178.01099 0 0 1 4.01563,1.025391 l 2.68945,-10.677735 c 0.0921,-0.362214 -0.16644,-0.738685 -0.57617,-0.841797 l -2.54101,-0.640625 c -0.10186,-0.02569 -0.20596,-0.03024 -0.30274,-0.01953 z m -125.54102,10.75 c -0.0974,0.0048 -0.19455,0.03334 -0.29101,0.07617 l -2.39453,1.064453 c -0.38592,0.171954 -0.576,0.586596 -0.42383,0.927734 l 4.61523,10.355469 a 178.01099,178.01099 0 0 1 3.78321,-1.695312 l -4.60938,-10.347657 c -0.084,-0.19184 -0.26021,-0.319172 -0.46484,-0.363281 -0.0679,-0.01483 -0.14182,-0.02228 -0.21485,-0.01758 z m 156.69141,0.208985 c -0.2917,-0.0189 -0.56334,0.121314 -0.67773,0.376953 l -4.4668,9.972656 a 178.01099,178.01099 0 0 1 3.73438,1.802734 l 4.51367,-10.080078 c 0.15269,-0.340826 -0.0333,-0.753047 -0.41797,-0.925781 L 334.5,83.597656 c -0.0966,-0.04312 -0.19571,-0.06816 -0.29297,-0.07422 z M 164.4707,90.533203 c -0.24395,0.0076 -0.5368,0.09495 -0.82226,0.259766 l -4.54688,2.623047 c -0.57093,0.329628 -0.88772,0.842245 -0.71094,1.148437 l 5.11133,8.853517 c 0.17678,0.30619 0.77868,0.28859 1.34961,-0.041 l 4.54688,-2.625 c 0.57093,-0.32963 0.88771,-0.842242 0.71094,-1.148434 L 164.99805,90.75 c -0.0884,-0.153095 -0.28339,-0.224442 -0.52735,-0.216797 z m 183.0586,0 c -0.24396,-0.0076 -0.43896,0.0637 -0.52735,0.216797 l -5.11133,8.853516 c -0.17678,0.306197 0.14001,0.818804 0.71094,1.148434 l 4.54688,2.625 c 0.57094,0.32964 1.17282,0.34724 1.34961,0.041 l 5.11133,-8.853517 c 0.17678,-0.306196 -0.14,-0.818807 -0.71094,-1.148437 l -4.54688,-2.623047 c -0.28546,-0.164811 -0.57831,-0.252122 -0.82226,-0.259766 z m -198.53711,8.914063 c -0.1823,-0.02368 -0.38566,0.0204 -0.56055,0.138672 l -2.16797,1.462892 c -0.35007,0.23645 -0.46508,0.67876 -0.25586,0.98828 l 6.43164,9.5293 a 178.01099,178.01099 0 0 1 3.37305,-2.41211 l -6.36914,-9.43555 c -0.10361,-0.154768 -0.26858,-0.247872 -0.45117,-0.271484 z m 213.77734,0.255859 c -0.20906,0.0067 -0.40362,0.10259 -0.52148,0.277344 l -6.04883,8.925781 a 178.01099,178.01099 0 0 1 3.32812,2.47656 l 6.15235,-9.07812 c 0.20952,-0.3092 0.0981,-0.74939 -0.25196,-0.98633 l -2.16992,-1.466798 c -0.0872,-0.05928 -0.18262,-0.103077 -0.27734,-0.126953 -0.0717,-0.01747 -0.14121,-0.02387 -0.21094,-0.02148 z M 128.96094,101.3125 c -0.19393,-0.007 -0.40295,0.0586 -0.57617,0.19922 l -2.14649,1.74219 c -0.34647,0.28095 -0.42441,0.75261 -0.17578,1.05859 l 13.36328,16.46289 c 0.24833,0.30607 0.72804,0.32707 1.07422,0.0449 l 2.14844,-1.74414 c 0.34617,-0.28103 0.4244,-0.75444 0.17578,-1.06055 l -13.36328,-16.45898 c -0.12416,-0.15322 -0.30581,-0.23628 -0.5,-0.24414 z m 253.52539,0 c -0.194,0.007 -0.37767,0.0917 -0.50195,0.24414 l -13.36329,16.46094 c -0.24846,0.30626 -0.1704,0.77735 0.17579,1.05859 l 2.14843,1.74414 c 0.34627,0.28095 0.82562,0.26195 1.07422,-0.043 l 13.36328,-16.46289 c 0.24837,-0.30607 0.17041,-0.77945 -0.17578,-1.06054 l -2.14648,-1.74219 c -0.17324,-0.14048 -0.38021,-0.20742 -0.57422,-0.19922 z M 72.28125,119.04297 c -1.400315,-0.0381 -2.730305,0.14328 -3.988281,0.54297 -1.27279,0.39114 -2.456227,1.02125 -3.550781,1.89062 -1.10937,0.86082 -2.08677,2.0235 -2.933594,3.49024 -0.872486,1.51119 -1.401394,2.97415 -1.585938,4.38867 -0.184543,1.41452 -0.112445,2.78076 0.214844,4.0957 0.327295,1.31495 0.868505,2.56455 1.625,3.75195 0.75649,1.18744 1.647473,2.31533 2.671875,3.38086 1.018141,1.04217 2.128611,2.00806 3.332031,2.9004 1.211968,0.87751 2.425747,1.66772 3.640625,2.36914 1.318588,0.76128 2.68653,1.45253 4.105469,2.07421 1.412679,0.59832 2.836502,1.07531 4.271484,1.42969 1.420169,0.34586 2.826983,0.54479 4.21875,0.59766 1.385501,0.0295 2.713538,-0.15183 3.986328,-0.54297 1.257976,-0.39969 2.443366,-1.02981 3.552735,-1.89063 1.103108,-0.88418 2.077004,-2.05865 2.923828,-3.52539 0.863932,-1.49637 1.387722,-2.95266 1.572266,-4.36718 0.193097,-1.42934 0.126123,-2.80029 -0.201172,-4.11524 -0.32729,-1.31494 -0.868505,-2.56648 -1.625,-3.7539 -0.77131,-1.19598 -1.665459,-2.31527 -2.683594,-3.35743 -1.018141,-1.04217 -2.130564,-2.01001 -3.333984,-2.90234 -1.218235,-0.90089 -2.43356,-1.70093 -3.648438,-2.40234 -1.303767,-0.75273 -2.66154,-1.42903 -4.074219,-2.02735 -1.41894,-0.62168 -2.839597,-1.10533 -4.259765,-1.45117 -1.434984,-0.35437 -2.844962,-0.54664 -4.230469,-0.57617 z m 51.13867,1.25586 c -0.18376,0.007 -0.37342,0.0886 -0.52539,0.23437 l -1.88281,1.82032 c -0.30385,0.29327 -0.3405,0.74706 -0.0801,1.01562 l 8.00977,8.28906 a 178.01099,178.01099 0 0 1 2.83007,-3.03711 l -7.85742,-8.13281 c -0.12991,-0.13408 -0.30834,-0.19759 -0.49218,-0.18945 l -0.002,0 z m 264.81055,0.31445 c -0.18374,-0.009 -0.36205,0.0556 -0.49219,0.18945 l -7.61328,7.84961 a 178.01099,178.01099 0 0 1 3.03125,2.82618 l 7.55859,-7.79102 c 0.26018,-0.2682 0.22729,-0.71962 -0.0762,-1.01367 l -1.88281,-1.82617 c -0.15148,-0.14712 -0.34156,-0.22594 -0.52539,-0.23438 z m -316.179689,3.95508 c 0.336582,0.003 0.681139,0.0242 1.033203,0.0645 1.393443,0.15262 2.857129,0.54332 4.390625,1.17188 1.533496,0.62856 3.039929,1.37118 4.521485,2.22656 0.933384,0.53889 1.85434,1.11871 2.759765,1.74023 0.905431,0.62152 1.745702,1.28441 2.523438,1.99024 0.76292,0.69727 1.440469,1.42376 2.03125,2.17969 0.590781,0.75592 1.034546,1.54662 1.330078,2.36914 0.304083,0.80769 0.43795,1.63575 0.402344,2.48437 -0.05042,0.84008 -0.327359,1.6962 -0.832031,2.57031 -0.496119,0.85931 -1.087896,1.5258 -1.775391,1.99805 -0.693755,0.44889 -1.456659,0.75922 -2.287109,0.93164 -0.836714,0.14904 -1.726144,0.1689 -2.669922,0.0586 -0.943773,-0.1103 -1.909212,-0.3227 -2.894532,-0.63477 -1.000134,-0.32063 -2.013816,-0.71771 -3.042968,-1.19336 -1.020598,-0.49047 -2.020218,-1.01943 -2.998047,-1.58398 -0.918564,-0.53034 -1.830903,-1.10505 -2.736328,-1.72657 -0.920246,-0.63008 -1.76247,-1.29491 -2.525391,-1.99218 -0.777736,-0.70583 -1.461954,-1.43548 -2.052734,-2.19141 -0.590782,-0.75592 -1.031042,-1.53288 -1.320313,-2.33203 -0.295529,-0.82251 -0.417607,-1.65407 -0.367187,-2.49414 0.04416,-0.86344 0.319545,-1.7333 0.824218,-2.60742 0.735625,-1.27414 1.689893,-2.12509 2.865235,-2.55274 0.870395,-0.32715 1.810568,-0.48543 2.820312,-0.47656 z m 31.958989,1.05078 c -0.19202,0.0251 -0.38382,0.12703 -0.5293,0.29492 l -1.8125,2.08789 c -0.29223,0.33712 -0.28714,0.8178 0.01,1.07617 l 16.02149,13.89063 c 0.29791,0.25838 0.77235,0.19619 1.06445,-0.14063 l 1.8125,-2.09179 c 0.29185,-0.33683 0.28546,-0.81612 -0.0137,-1.07422 l -16.01758,-13.89063 c -0.14841,-0.12868 -0.34138,-0.17764 -0.5332,-0.15234 l -0.002,0 z m 303.42187,0 c -0.19174,-0.0242 -0.38479,0.023 -0.5332,0.15234 l -16.01953,13.89063 c -0.29789,0.2581 -0.30237,0.73739 -0.0117,1.07422 l 1.8125,2.09179 c 0.29214,0.33682 0.76662,0.39901 1.06445,0.14063 l 16.02148,-13.89063 c 0.29785,-0.25838 0.30123,-0.73905 0.008,-1.07617 l -1.81055,-2.08789 c -0.1456,-0.16789 -0.33741,-0.26897 -0.5293,-0.29492 l -0.002,0 z m 36.375,10.83203 c -1.32437,0.0584 -2.6625,0.2458 -4.01172,0.56055 -2.67508,0.63577 -5.33825,1.71887 -7.99023,3.25 -1.73342,1.00079 -3.22785,2.15961 -4.48242,3.47656 -1.23121,1.32321 -2.13597,2.76412 -2.7168,4.32422 -0.58083,1.56011 -0.79319,3.21332 -0.63477,4.95898 0.1818,1.75193 0.81285,3.56099 1.89063,5.42774 0.94947,1.64453 2.05691,3.00048 3.32422,4.0664 1.28212,1.05741 2.64491,1.80998 4.08984,2.25977 1.45975,0.44123 2.97375,0.56481 4.54102,0.37109 1.56725,-0.19371 3.11461,-0.73028 4.64062,-1.61132 1.54082,-0.8896 2.8003,-1.94223 3.77735,-3.15821 0.99185,-1.22454 1.68685,-2.53574 2.08593,-3.93164 0.42245,-1.38964 0.52696,-2.83293 0.31446,-4.33008 -0.19768,-1.50571 -0.71131,-2.97695 -1.54102,-4.41406 -0.43625,-0.7556 -0.91339,-1.42786 -1.43164,-2.01758 -0.50345,-0.59827 -1.02223,-1.11926 -1.55469,-1.5625 -0.52391,-0.42842 -1.05052,-0.77583 -1.58008,-1.04297 -0.51474,-0.27567 -1.01038,-0.483 -1.48632,-0.62304 1.79514,-0.48332 3.50512,-0.67003 5.1289,-0.56055 1.63233,0.12429 3.15473,0.46853 4.56836,1.03516 1.42843,0.55808 2.74253,1.31235 3.94141,2.25976 1.20743,0.96224 2.29497,2.0414 3.26367,3.24024 L 462.5,145.79883 c -2.25496,-2.70818 -4.62268,-4.80753 -7.10352,-6.29883 -2.48084,-1.49129 -5.03189,-2.43774 -7.65429,-2.83984 -1.29952,-0.19792 -2.61118,-0.2674 -3.93555,-0.20899 z m -341.87891,8.81445 c -0.20389,0.0241 -0.40704,0.13974 -0.54687,0.33204 l -1.539063,2.12109 c -0.248302,0.34189 -0.204705,0.79602 0.09766,1.01563 l 9.251953,6.71484 a 178.01099,178.01099 0 0 1 2.50976,-3.29883 l -9.32617,-6.77148 c -0.0758,-0.0553 -0.16017,-0.0914 -0.24805,-0.10743 -0.0649,-0.0132 -0.13134,-0.0154 -0.19922,-0.006 z m 334.00586,0.1211 c 0.65881,-0.0137 1.28713,0.0734 1.88477,0.26172 0.80541,0.2659 1.55213,0.70426 2.24023,1.31445 0.70292,0.60162 1.311,1.3474 1.82422,2.23633 0.51323,0.88894 0.85071,1.78103 1.01172,2.67578 0.18432,0.90101 0.18671,1.75858 0.006,2.57422 -0.18097,0.81563 -0.54862,1.58143 -1.10351,2.29687 -0.53153,0.72171 -1.25722,1.34662 -2.17579,1.87696 -0.90374,0.52178 -1.80062,0.83414 -2.6914,0.93359 -0.86741,0.10572 -1.69925,0.0323 -2.4961,-0.21875 -0.79685,-0.25109 -1.54041,-0.68279 -2.22851,-1.29297 -0.67956,-0.59536 -1.27584,-1.33762 -1.78906,-2.22656 -0.51323,-0.88893 -0.8625,-1.78259 -1.04688,-2.68359 -0.18436,-0.90102 -0.18998,-1.76721 -0.0176,-2.59766 0.18098,-0.81563 0.53018,-1.57982 1.04688,-2.29297 0.53152,-0.72171 1.24859,-1.34345 2.15234,-1.86523 0.91857,-0.53034 1.82408,-0.84586 2.71484,-0.94532 0.22641,-0.027 0.44837,-0.0423 0.66797,-0.0469 z m -26.45898,0.24023 c -0.0892,0.0168 -0.17244,0.0521 -0.24805,0.10547 l -8.89453,6.4336 a 178.01099,178.01099 0 0 1 2.41211,3.37109 l 8.91211,-6.44336 c 0.30261,-0.21876 0.34773,-0.67314 0.0996,-1.01563 l -1.53516,-2.12109 c -0.1238,-0.17129 -0.297,-0.28201 -0.47656,-0.32226 l -0.002,-0.002 c -0.0908,-0.0202 -0.17976,-0.0204 -0.26758,-0.004 l 0,-0.002 z M 54.839844,147.7207 c -0.998635,-0.002 -1.988262,0.15178 -2.966797,0.46094 -1.30471,0.41221 -2.536573,1.09326 -3.697266,2.04297 -1.166953,0.92635 -2.166377,2.10781 -2.996093,3.54492 -0.744181,1.28895 -1.272637,2.56306 -1.585938,3.82422 -0.313299,1.26117 -0.429343,2.48874 -0.347656,3.68164 0.07543,1.16953 0.329487,2.30336 0.761718,3.40234 0.425967,1.07561 1.014507,2.07753 1.763672,3.00391 l 4.207032,-3.4375 c -0.322422,-0.50221 -0.601069,-1.0479 -0.833985,-1.63672 -0.247727,-0.59737 -0.405279,-1.21305 -0.474609,-1.8457 -0.06077,-0.64746 -0.01673,-1.32354 0.132812,-2.02734 0.134732,-0.71238 0.419226,-1.44558 0.855469,-2.20118 0.958023,-1.65934 2.096826,-2.67163 3.414063,-3.03711 1.310977,-0.38884 2.705944,-0.15615 4.1875,0.69922 0.637071,0.36782 1.154279,0.82416 1.550781,1.36914 0.381681,0.53643 0.642149,1.13115 0.779297,1.78321 0.122336,0.64349 0.118738,1.33261 -0.0098,2.06836 -0.134731,0.71237 -0.41606,1.4389 -0.84375,2.17968 l -1.412109,2.44532 4.55664,2.6289 1.41211,-2.44336 c 0.624426,-1.08154 1.292425,-1.93043 2.003906,-2.54687 0.711475,-0.61645 1.444802,-1.03286 2.201172,-1.24805 0.750109,-0.23856 1.499437,-0.28937 2.25,-0.15234 0.744299,0.11365 1.465773,0.37141 2.162109,0.77343 0.918564,0.53034 1.605398,1.15397 2.060547,1.8711 0.463703,0.7023 0.746954,1.45848 0.851563,2.26953 0.08979,0.8025 0.01984,1.64223 -0.208985,2.51758 -0.243639,0.86679 -0.613255,1.73053 -1.109375,2.58984 -0.38492,0.6667 -0.845424,1.27815 -1.384765,1.83594 -0.539336,0.55779 -1.1597,1.03063 -1.857422,1.41797 -0.712544,0.37877 -1.502458,0.65408 -2.371094,0.82422 -0.86008,0.15528 -1.811953,0.17694 -2.855469,0.0684 l -0.77539,5.44921 c 1.367782,0.19709 2.703989,0.20967 4.009765,0.0352 1.290962,-0.1831 2.531881,-0.55431 3.722657,-1.11133 1.175957,-0.56556 2.272554,-1.33489 3.289062,-2.30859 1.039873,-0.97995 1.966687,-2.17455 2.779297,-3.58203 0.92381,-1.60009 1.564581,-3.20532 1.921875,-4.81641 0.3573,-1.61109 0.400293,-3.15651 0.128906,-4.63672 -0.271387,-1.48021 -0.859023,-2.85595 -1.763672,-4.1289 -0.919464,-1.28151 -2.179217,-2.38479 -3.779297,-3.3086 -0.903749,-0.52178 -1.807975,-0.87421 -2.708984,-1.05859 -0.90101,-0.18438 -1.787548,-0.22382 -2.660156,-0.11524 -0.872604,0.10858 -1.726852,0.35743 -2.5625,0.74415 -0.850461,0.37816 -1.669181,0.87251 -2.457031,1.48437 0.09291,-1.80325 -0.266894,-3.38458 -1.082032,-4.74414 -0.821404,-1.38292 -1.973517,-2.50204 -3.455078,-3.35742 -1.200063,-0.69286 -2.466604,-1.09839 -3.800781,-1.2168 -0.335112,-0.0354 -0.669075,-0.0539 -1.001953,-0.0547 z m 39.46289,10.62696 c -0.28859,0.0414 -0.639497,0.3257 -0.886718,0.7539 l -2.623047,4.54688 c -0.32963,0.57093 -0.34916,1.17283 -0.04297,1.34961 l 8.853516,5.11133 c 0.306192,0.17678 0.818805,-0.14001 1.148435,-0.71094 l 2.625,-4.54688 c 0.32963,-0.57093 0.34723,-1.17283 0.041,-1.34961 l -8.853518,-5.11133 c -0.07655,-0.0442 -0.165522,-0.0568 -0.261719,-0.043 z m 323.394536,0 c -0.0962,-0.0138 -0.18517,-10e-4 -0.26172,0.043 l -8.85352,5.11133 c -0.30619,0.17679 -0.28859,0.77868 0.041,1.34961 l 2.625,4.54688 c 0.32963,0.57093 0.84223,0.88773 1.14843,0.71094 l 8.85352,-5.11133 c 0.3062,-0.17679 0.28669,-0.77868 -0.043,-1.34961 l -2.62305,-4.54688 c -0.24721,-0.42819 -0.59812,-0.71248 -0.88671,-0.7539 z M 85.224609,173.56445 c -0.26827,-0.002 -0.538926,0.16836 -0.677734,0.45313 l -1.148437,2.35742 c -0.185096,0.3796 -0.06404,0.81475 0.271484,0.97852 l 10.476562,5.10937 a 178.01099,178.01099 0 0 1 1.804688,-3.73437 l -10.462891,-5.09961 c -0.08343,-0.0411 -0.174308,-0.0615 -0.263672,-0.0625 l 0,-0.002 z m 341.095701,0.39063 c -0.0905,6.4e-4 -0.17757,0.0218 -0.26172,0.0625 l -9.8125,4.75781 a 178.01099,178.01099 0 0 1 1.69532,3.78711 l 9.92578,-4.81445 c 0.33611,-0.16286 0.45788,-0.60218 0.27343,-0.98243 L 427,174.41016 c -0.1382,-0.28498 -0.41139,-0.45683 -0.67969,-0.45508 z M 68.806641,185.18164 c -0.282285,0.0221 -0.5524,0.22657 -0.671875,0.53906 l -0.988282,2.58203 c -0.159282,0.4166 0.0054,0.86693 0.375,1.00782 l 19.806641,7.57422 c 0.368215,0.14086 0.791905,-0.0808 0.951172,-0.49805 l 0.990234,-2.58399 c 0.159254,-0.41637 -0.0079,-0.86501 -0.376953,-1.00585 l -19.80664,-7.57422 c -0.09216,-0.036 -0.185184,-0.0475 -0.279297,-0.041 z m 373.833979,0 c -0.0945,-0.006 -0.18911,0.005 -0.28124,0.041 l -19.80665,7.57422 c -0.36818,0.14086 -0.53614,0.58948 -0.37695,1.00585 l 0.99024,2.58399 c 0.15925,0.41667 0.5828,0.63892 0.95117,0.49805 l 19.80664,-7.57422 c 0.36816,-0.14088 0.53616,-0.59115 0.37695,-1.00782 l -0.99023,-2.58203 c -0.11952,-0.31249 -0.3876,-0.51641 -0.66993,-0.53906 z m -369.146479,19.18555 0,0.002 c -0.264689,0.0435 -0.504556,0.25613 -0.591797,0.56055 l -0.720703,2.51953 c -0.116344,0.40603 0.08033,0.81518 0.439453,0.91797 l 11.283203,3.23437 a 178.01099,178.01099 0 0 1 1.025391,-4.01953 l -11.167969,-3.19922 c -0.08978,-0.0247 -0.179357,-0.0295 -0.267578,-0.0156 z m 364.498049,0.41211 c -0.0887,-0.0147 -0.17965,-0.0127 -0.26953,0.0156 l -10.37891,2.95117 a 178.01099,178.01099 0 0 1 0.97852,4.03321 l 10.53515,-2.9961 c 0.35926,-0.10165 0.55684,-0.51365 0.44141,-0.91992 l -0.71875,-2.51953 c -0.0869,-0.3047 -0.32341,-0.51764 -0.58789,-0.5625 l 0,-0.002 z M 59.619141,218.65234 c -0.387115,-0.0751 -0.767018,0.2183 -0.851563,0.65625 l -0.52539,2.71485 c -0.08461,0.43799 0.159762,0.849 0.546874,0.92383 l 20.820313,4.02148 c 0.387114,0.0751 0.765047,-0.21647 0.849609,-0.6543 l 0.525391,-2.71875 c 0.08462,-0.43783 -0.159763,-0.84906 -0.546875,-0.92382 l -20.818359,-4.01954 z m 392.207029,0 -20.81836,4.01954 c -0.38704,0.0751 -0.63149,0.48599 -0.54687,0.92382 l 0.52539,2.71875 c 0.0835,0.43783 0.46256,0.72913 0.84961,0.6543 l 20.82031,-4.02148 c 0.38705,-0.0751 0.63138,-0.48584 0.54687,-0.92383 l -0.52539,-2.71485 c -0.0835,-0.43795 -0.4645,-0.73109 -0.85156,-0.65625 z m -432.339842,17.28125 0,5.51563 22.607422,4.64453 c 1.026453,0.20529 1.863585,0.36853 2.513672,0.48828 0.650087,0.10263 1.216301,0.17914 1.695312,0.23047 -0.479011,0.0513 -1.034989,0.15463 -1.667968,0.30859 -0.63298,0.13687 -1.480348,0.35176 -2.541016,0.64258 l -22.607422,5.92774 0,4.59179 22.658203,5.77539 c 1.077776,0.25662 1.94171,0.46955 2.591797,0.64063 0.632979,0.15395 1.188957,0.25726 1.667969,0.30859 -0.479012,0.0513 -1.043274,0.14439 -1.693359,0.28125 -0.650088,0.11976 -1.505739,0.29127 -2.566407,0.51367 l -22.658203,4.56836 0,5.61914 36.796875,-7.8789 0,-4.95117 -23.863281,-6.21094 c -0.975131,-0.25661 -1.762564,-0.45298 -2.361328,-0.58984 -0.615872,-0.13685 -1.155284,-0.23187 -1.617188,-0.28321 0.461904,-0.0513 1.001316,-0.14439 1.617188,-0.28125 0.598764,-0.15397 1.386197,-0.35862 2.361328,-0.61523 l 23.863281,-6.36524 0,-4.92578 -36.796875,-7.95508 z m 48.06836,0.77344 c -0.371478,-0.0391 -0.706169,0.26743 -0.75,0.6875 L 66.53125,240 c -0.04408,0.42005 0.220256,0.78992 0.591797,0.82812 l 11.611328,1.2168 a 178.01099,178.01099 0 0 1 0.246094,-4.14062 l -11.425781,-1.19727 z m 376.310542,0.42383 -10.88476,1.11914 a 178.01099,178.01099 0 0 1 0.5,4.11523 l 10.81055,-1.11132 c 0.37144,-0.0383 0.63708,-0.40594 0.59375,-0.82618 l -0.26954,-2.60742 c -0.0428,-0.42005 -0.37835,-0.72767 -0.75,-0.68945 z m 11.85157,6.88476 0,23.96876 5.15625,0 0,-18.50196 11.24023,0 0,11.21289 5.1582,0 0,-11.21289 10.08399,0 0,17.3457 5.1582,0 0,-22.8125 -36.79687,0 z m -388.328128,8.16993 c -0.353565,0 -0.638672,0.53019 -0.638672,1.18945 l 0,5.25 c 0,0.65926 0.285107,1.18945 0.638672,1.18945 l 10.222656,0 c 0.353565,0 0.638672,-0.53019 0.638672,-1.18945 l 0,-5.25 c 0,-0.65926 -0.285107,-1.18945 -0.638672,-1.18945 l -10.222656,0 z m 366.999998,0 c -0.35356,0 -0.63867,0.53019 -0.63867,1.18945 l 0,5.25 c 0,0.65926 0.28511,1.18945 0.63867,1.18945 l 10.22266,0 c 0.35356,0 0.63867,-0.53019 0.63867,-1.18945 l 0,-5.25 c 0,-0.65926 -0.28511,-1.18945 -0.63867,-1.18945 l -10.22266,0 z M 78.501953,268.8125 67.056641,269.61523 c -0.372586,0.0255 -0.650634,0.38718 -0.621094,0.8086 l 0.181641,2.61328 c 0.02947,0.42141 0.355935,0.74089 0.728515,0.71484 l 11.65625,-0.81836 a 178.01099,178.01099 0 0 1 -0.5,-4.12109 z m 354.896487,0.44336 a 178.01099,178.01099 0 0 1 -0.20899,4.13867 l 10.81446,0.78125 c 0.37256,0.0263 0.69802,-0.29156 0.72851,-0.71289 l 0.1875,-2.61328 c 0.0318,-0.4213 -0.24466,-0.78165 -0.61719,-0.80859 l -10.90429,-0.78516 z m -353.824221,15.26953 -20.9375,3.34375 c -0.389343,0.0615 -0.648394,0.46583 -0.578125,0.90625 l 0.4375,2.73047 c 0.07021,0.44034 0.440746,0.74576 0.830078,0.68359 l 20.939453,-3.34375 c 0.389358,-0.0615 0.644444,-0.46592 0.574219,-0.90625 l -0.435547,-2.73047 c -0.07024,-0.44041 -0.440738,-0.74596 -0.830078,-0.68359 z m 352.296871,0 c -0.38934,-0.0616 -0.75977,0.24318 -0.83007,0.68359 l -0.43555,2.73047 c -0.0714,0.44033 0.18689,0.84399 0.57617,0.90625 l 20.9375,3.34375 c 0.38946,0.0616 0.76174,-0.24325 0.83203,-0.68359 l 0.43555,-2.73047 c 0.0713,-0.44042 -0.18872,-0.84413 -0.57813,-0.90625 l -20.9375,-3.34375 z m -348.326168,14.77539 -11.267578,2.81055 c -0.3624,0.0912 -0.571065,0.4944 -0.46875,0.90429 l 0.634765,2.54102 c 0.102325,0.40984 0.477449,0.66865 0.839844,0.57813 l 11.169922,-2.78711 a 178.01099,178.01099 0 0 1 -0.908203,-4.04688 z m 344.810548,0.54297 a 178.01099,178.01099 0 0 1 -1.02539,4.01758 l 10.67187,2.6875 c 0.36233,0.0921 0.73874,-0.16653 0.8418,-0.57617 l 0.64063,-2.54102 c 0.10226,-0.40973 -0.10863,-0.81323 -0.47071,-0.9043 l -10.6582,-2.68359 z m -4.38477,14.74609 0,0.002 c -0.28135,0.0327 -0.54296,0.24246 -0.65234,0.55859 l -0.90234,2.61523 c -0.14561,0.42145 0.0359,0.86354 0.4082,0.99219 l 20.03906,6.92969 c 0.37264,0.12891 0.79173,-0.10594 0.9375,-0.52734 l 0.9043,-2.61524 c 0.14561,-0.42144 -0.0378,-0.8655 -0.41016,-0.99414 l -20.04101,-6.92773 c -0.0937,-0.0331 -0.18934,-0.0422 -0.28321,-0.0332 z m -336.496091,0.002 c -0.09399,-0.009 -0.190002,-10e-6 -0.283203,0.0332 l -20.041015,6.92773 c -0.372643,0.12882 -0.553925,0.57269 -0.408203,0.99415 l 0.904296,2.61328 c 0.145721,0.42143 0.562902,0.6562 0.935547,0.52734 l 20.039063,-6.92773 c 0.372687,-0.12881 0.553871,-0.57267 0.408203,-0.99415 l -0.902344,-2.61328 c -0.10955,-0.31613 -0.370922,-0.52891 -0.652344,-0.56054 z m 6.207032,13.88672 -10.617188,4.73046 c -0.341219,0.15204 -0.478578,0.58273 -0.306641,0.96875 l 1.066407,2.39454 c 0.171937,0.38574 0.586606,0.57589 0.927734,0.42382 L 95.375,332.26172 a 178.01099,178.01099 0 0 1 -1.693359,-3.7832 z m 324.507809,0.65234 a 178.01099,178.01099 0 0 1 -1.80664,3.73633 l 10.08985,4.51562 c 0.34104,0.15268 0.7531,-0.0314 0.92578,-0.41601 l 1.07226,-2.39453 c 0.17283,-0.38549 0.0383,-0.81801 -0.30273,-0.97071 l -9.97852,-4.4707 z M 73.5625,331.81836 66.318359,336 l -2.386718,-4.13281 -4.355469,2.51367 2.386719,4.13476 -20.269532,11.70118 3.234375,5.59961 30.984375,3.83203 3.042969,-1.75782 -9.904297,-17.15624 7.244141,-4.1836 -2.732422,-4.73242 z m 361.88867,5.6582 -2.73242,4.73242 31.86914,18.4004 2.10352,-3.64454 c -0.56802,-0.62426 -0.97365,-1.27352 -1.2168,-1.94726 -0.22834,-0.66519 -0.32406,-1.35374 -0.28906,-2.06446 0.0264,-0.69587 0.17306,-1.41135 0.43945,-2.14648 0.26639,-0.73513 0.62161,-1.4874 1.06641,-2.25781 l -3.51172,-2.02735 -3.01563,5.22266 -24.71289,-14.26758 z m -335.583982,4.3711 c -0.0962,-0.0138 -0.187123,-0.001 -0.263672,0.043 L 90.75,347.00195 c -0.3062,0.17678 -0.286657,0.77869 0.04297,1.34961 l 2.623047,4.54688 c 0.32963,0.57094 0.842241,0.88772 1.148437,0.71094 l 8.853516,-5.11133 c 0.30619,-0.17679 0.28859,-0.77867 -0.041,-1.34961 l -2.625,-4.54688 c -0.24722,-0.42819 -0.59617,-0.71247 -0.884761,-0.7539 z m 312.265622,0 c -0.28859,0.0414 -0.63754,0.3257 -0.88476,0.7539 l -2.625,4.54688 c -0.32964,0.57094 -0.34724,1.17283 -0.041,1.34961 l 8.85352,5.11133 c 0.3062,0.17678 0.81881,-0.14 1.14843,-0.71094 l 2.62305,-4.54688 c 0.32963,-0.57093 0.34914,-1.17283 0.043,-1.34961 l -8.85352,-5.11133 c -0.0765,-0.0442 -0.16747,-0.0568 -0.26367,-0.043 z m -347.437498,1.40039 6.28711,10.89062 -20.822266,-2.49805 14.535156,-8.39257 z m 362.365238,8.76172 -12.68946,21.97851 4.64453,2.68164 9.35352,-16.20117 c 1.45176,1.35178 2.44108,3.06028 2.96875,5.12305 0.53393,2.08614 0.74645,4.48896 0.63672,7.21093 -0.0706,1.55932 -0.0769,3.02707 -0.0215,4.40235 0.0617,1.39864 0.27454,2.68787 0.64063,3.86719 0.38091,1.18786 0.95982,2.27223 1.73633,3.2539 0.76795,0.9965 1.82561,1.88372 3.17383,2.66211 1.36302,0.78695 2.76327,1.27093 4.20117,1.44922 1.42933,0.19309 2.82041,0.0771 4.17187,-0.34766 1.35771,-0.40136 2.63834,-1.11488 3.8418,-2.13867 1.21829,-1.01523 2.2942,-2.33041 3.22656,-3.94531 0.74418,-1.28895 1.27392,-2.60192 1.5918,-3.93945 0.3327,-1.32899 0.46504,-2.63584 0.39648,-3.91993 -0.0537,-1.27553 -0.30679,-2.49693 -0.75781,-3.66601 -0.43619,-1.16053 -1.04502,-2.22454 -1.83008,-3.19141 l -0.002,0 -4.44336,3.18164 c 1.01295,1.25646 1.6022,2.61375 1.76758,4.07227 0.16538,1.45851 -0.25312,3.05564 -1.25391,4.78906 -0.47046,0.81486 -1.02849,1.48929 -1.67383,2.02539 -0.63052,0.54466 -1.30174,0.93884 -2.01367,1.17969 -0.71192,0.24085 -1.43424,0.32667 -2.16601,0.25977 -0.72552,-0.0435 -1.42119,-0.25766 -2.08789,-0.64258 -0.77041,-0.4448 -1.38086,-0.99482 -1.83204,-1.65039 -0.43635,-0.64702 -0.7617,-1.36755 -0.9746,-2.16211 -0.20663,-0.77119 -0.32204,-1.59763 -0.34571,-2.48047 -0.0319,-0.86802 -0.0283,-1.74601 0.01,-2.63281 0.0998,-1.91781 0.0287,-3.86519 -0.21289,-5.8418 -0.2416,-1.97661 -0.74389,-3.89559 -1.50586,-5.75781 -0.76198,-1.86223 -1.83247,-3.61726 -3.21289,-5.26368 -1.38043,-1.64641 -3.16,-3.09806 -5.33789,-4.35546 z m -318.44532,3.51757 -9.527339,6.42969 c -0.309635,0.20892 -0.371051,0.66155 -0.134766,1.01172 l 1.466795,2.17187 c 0.23627,0.35031 0.67485,0.46288 0.98438,0.25391 l 9.625,-6.49414 a 178.01099,178.01099 0 0 1 -2.41407,-3.37305 z m 294.53516,0.73438 a 178.01099,178.01099 0 0 1 -2.48437,3.32617 l 9.09765,6.16602 c 0.30915,0.20958 0.74934,0.096 0.98633,-0.25391 l 1.4668,-2.16992 c 0.23709,-0.34974 0.18023,-0.80038 -0.12891,-1.00977 l -8.9375,-6.05859 z m -314.730468,1.29101 -4.644531,2.68165 9.353515,16.20117 c -1.896556,0.58134 -3.869678,0.58393 -5.919922,0.01 -2.073612,-0.58066 -4.262022,-1.59865 -6.564453,-3.05469 -1.315113,-0.8408 -2.582053,-1.58105 -3.800781,-2.2207 -1.242097,-0.6459 -2.465563,-1.1063 -3.669922,-1.3789 -1.219177,-0.26407 -2.447138,-0.30469 -3.685547,-0.12305 -1.246965,0.16682 -2.544361,0.63957 -3.892578,1.41797 -1.363032,0.78694 -2.482123,1.75795 -3.355469,2.91406 -0.881892,1.14129 -1.475311,2.40434 -1.783203,3.78711 -0.331261,1.3765 -0.355209,2.84236 -0.07031,4.39648 0.270077,1.56268 0.870374,3.15074 1.802734,4.76563 0.74418,1.28896 1.617784,2.40555 2.617188,3.34961 0.984577,0.95262 2.048981,1.72005 3.195312,2.30273 1.131508,0.59123 2.316724,0.98378 3.554688,1.17774 1.223143,0.20244 2.449828,0.20597 3.679687,0.01 l -0.533203,-5.4414 c -1.594599,0.249 -3.066306,0.0802 -4.412109,-0.50586 -1.345806,-0.58604 -2.518742,-1.7451 -3.519532,-3.47852 -0.47046,-0.81486 -0.776358,-1.63596 -0.917968,-2.46289 -0.156426,-0.81837 -0.161053,-1.59506 -0.01367,-2.33203 0.147376,-0.73698 0.433582,-1.40559 0.857422,-2.00586 0.400468,-0.60654 0.932908,-1.10336 1.599609,-1.48828 0.77041,-0.44481 1.55237,-0.69879 2.345703,-0.76172 0.778513,-0.0544 1.566769,0.0254 2.361328,0.23828 0.771188,0.20665 1.543926,0.52048 2.320313,0.94141 0.76783,0.40612 1.526344,0.84799 2.27539,1.32422 1.610976,1.04532 3.333422,1.95724 5.166016,2.73632 1.832589,0.77908 3.744561,1.303 5.738281,1.57422 1.993726,0.27122 4.049972,0.22189 6.166016,-0.15039 2.116053,-0.37227 4.261557,-1.1879 6.439454,-2.44531 l -12.689458,-21.979 z m 29.488278,10.9336 c -0.19153,-0.0329 -0.38577,0.009 -0.53906,0.13476 l -16.46094,13.36329 c -0.30632,0.24855 -0.32678,0.73 -0.0449,1.07617 l 1.74219,2.14648 c 0.28114,0.34618 0.75445,0.42431 1.06055,0.17578 l 16.46289,-13.36328 c 0.30613,-0.24861 0.32502,-0.72789 0.043,-1.07422 l -1.74415,-2.14843 c -0.14063,-0.17298 -0.32795,-0.27875 -0.51953,-0.31055 z m 275.62891,0 c -0.19153,0.0329 -0.37909,0.13757 -0.51953,0.31055 l -1.74414,2.14843 c -0.28118,0.34633 -0.26208,0.82561 0.043,1.07422 l 16.46289,13.36328 c 0.30597,0.24853 0.7796,0.1704 1.06054,-0.17578 l 1.74219,-2.14648 c 0.28094,-0.34617 0.26023,-0.82761 -0.0449,-1.07617 l -16.46094,-13.36329 c -0.15303,-0.12422 -0.34753,-0.16674 -0.53906,-0.13476 z m -265.55859,11.1582 -8.1211,7.8457 c -0.26857,0.25944 -0.24807,0.71576 0.0449,1.01954 l 1.82032,1.88085 c 0.29361,0.30388 0.74698,0.34239 1.01562,0.082 l 8.23828,-7.95899 a 178.01099,178.01099 0 0 1 -2.99804,-2.86914 z m 255.41601,0.53125 a 178.01099,178.01099 0 0 1 -2.82812,3.0332 l 7.81445,7.57813 c 0.26807,0.26017 0.71963,0.2272 1.01367,-0.0762 l 1.82617,-1.88282 c 0.29427,-0.30315 0.31452,-0.75739 0.0449,-1.01757 l -7.87109,-7.63477 z m -243.87305,10.47656 c -0.19406,0.002 -0.37666,0.0776 -0.50586,0.22657 l -13.89257,16.01953 c -0.25838,0.29785 -0.19423,0.7743 0.14257,1.0664 l 2.08985,1.81055 c 0.33713,0.29225 0.81582,0.2892 1.07422,-0.008 l 13.89258,-16.02149 c 0.25838,-0.29789 0.19424,-0.77232 -0.14258,-1.06445 l -2.0918,-1.8125 c -0.16843,-0.14601 -0.37207,-0.21709 -0.56641,-0.21484 l 0,-0.002 z m 232.40235,0 c -0.19417,-0.002 -0.39799,0.069 -0.56641,0.21485 l -2.0918,1.81445 c -0.3369,0.29208 -0.40081,0.76655 -0.14257,1.06445 l 13.89257,16.02149 c 0.25838,0.29794 0.73719,0.30099 1.07422,0.008 l 2.08985,-1.81055 c 0.337,-0.29235 0.40083,-0.76855 0.14258,-1.0664 L 372.42969,390.8791 c -0.1291,-0.14891 -0.31162,-0.22469 -0.50586,-0.22657 z m -220.50391,9.18555 -6.67383,9.18945 c -0.21929,0.30218 -0.11921,0.74781 0.22266,0.9961 l 2.11914,1.53711 c 0.34172,0.24838 0.7944,0.20504 1.01367,-0.0977 l 6.61914,-9.11523 a 178.01099,178.01099 0 0 1 -3.30078,-2.50977 z m 208.45508,0.5293 a 178.01099,178.01099 0 0 1 -3.37109,2.41211 l 6.47265,8.94922 c 0.21886,0.30256 0.67128,0.34576 1.01367,0.0976 l 2.1211,-1.5332 c 0.34247,-0.24753 0.44352,-0.69135 0.22461,-0.99414 l -6.46094,-8.93164 z m -195.8457,7.99609 c -0.24396,-0.008 -0.43896,0.0657 -0.52735,0.21875 l -5.11133,8.85352 c -0.17678,0.3062 0.14001,0.81881 0.71094,1.14843 l 4.54688,2.62305 c 0.57094,0.32963 1.17283,0.34914 1.34961,0.043 l 5.11133,-8.85352 c 0.17678,-0.3062 -0.14,-0.8188 -0.71094,-1.14843 l -4.54688,-2.625 c -0.28546,-0.16482 -0.57831,-0.25212 -0.82226,-0.25977 z m 183.9414,0.002 c -0.24395,0.008 -0.5368,0.093 -0.82226,0.25782 l -4.54688,2.625 c -0.57093,0.32963 -0.88771,0.84223 -0.71094,1.14843 l 5.11133,8.85352 c 0.17678,0.3062 0.77868,0.28669 1.34961,-0.043 l 4.54688,-2.62305 c 0.57093,-0.32963 0.88771,-0.84223 0.71094,-1.14843 l -5.11133,-8.85352 c -0.0884,-0.15309 -0.28339,-0.22444 -0.52735,-0.2168 z m -170.02539,7.39844 -4.94726,10.15039 c -0.16362,0.3358 0.0127,0.75626 0.39062,0.94141 l 2.35352,1.14844 c 0.37996,0.18502 0.81885,0.0629 0.98242,-0.27149 l 4.95508,-10.16406 a 178.01099,178.01099 0 0 1 -3.73438,-1.80469 z m -36.52148,0.29688 -18.39844,31.86914 3.64453,2.10351 c 0.62426,-0.56802 1.27353,-0.97365 1.94727,-1.21679 0.66518,-0.22834 1.35375,-0.32407 2.06445,-0.28907 0.69588,0.0265 1.41135,0.17112 2.14648,0.4375 0.73515,0.2664 1.4874,0.62357 2.25782,1.06836 l 2.02734,-3.51172 -5.22266,-3.01562 14.26758,-24.71289 -4.73437,-2.73242 z m 191.8457,0.20703 a 178.01099,178.01099 0 0 1 -3.78906,1.69531 l 4.83984,9.97656 c 0.16292,0.336 0.60045,0.45794 0.98047,0.27344 l 2.35742,-1.14062 c 0.38007,-0.18426 0.55559,-0.60539 0.39258,-0.94141 l -4.78125,-9.86328 z m 37.13672,0.17187 -4.73437,2.73438 18.39843,31.86719 3.64453,-2.10352 c -0.17976,-0.82464 -0.20634,-1.58988 -0.0801,-2.29492 0.13485,-0.69024 0.39559,-1.33366 0.78125,-1.93164 0.37084,-0.58944 0.85485,-1.13719 1.45312,-1.64063 0.59827,-0.50344 1.28232,-0.97707 2.05274,-1.42187 l -2.0254,-3.51172 -5.22265,3.01562 -14.26758,-24.71289 z m -177.56445,5.67774 c -0.30854,-0.002 -0.58578,0.15937 -0.69141,0.43554 l -7.57617,19.80665 c -0.14082,0.36831 0.0808,0.79199 0.49805,0.95117 l 2.58398,0.98828 c 0.41637,0.1592 0.86497,-0.008 1.00586,-0.37695 l 7.57617,-19.80469 c 0.14088,-0.3683 -0.0808,-0.79375 -0.49805,-0.95313 l -2.58593,-0.98828 c -0.10339,-0.0397 -0.20955,-0.0578 -0.3125,-0.0586 z m 125.14648,0.8457 c -1.51273,-0.21558 -0.45746,7.22561 4.79492,20.95899 0.14078,0.36824 0.59118,0.53612 1.00782,0.37695 l 2.58203,-0.98828 c 0.41666,-0.15917 0.6389,-0.58479 0.49804,-0.95313 -4.21374,-13.05332 -7.54805,-19.20432 -8.88281,-19.39453 z m -161.85156,1.5918 -2.68164,4.64453 16.20117,9.35351 c -1.35178,1.45176 -3.06028,2.44108 -5.12305,2.96875 -2.08613,0.53393 -4.48896,0.74646 -7.21093,0.63672 -1.55933,-0.0706 -3.02707,-0.0788 -4.40235,-0.0234 -1.39863,0.0617 -2.68787,0.27648 -3.86719,0.64257 -1.18787,0.38091 -2.27222,0.95983 -3.2539,1.73633 -0.99649,0.76796 -1.88372,1.82562 -2.66211,3.17383 -0.78695,1.36303 -1.26898,2.76328 -1.44727,4.20117 -0.19309,1.42933 -0.079,2.82042 0.34571,4.17188 0.40136,1.35771 1.11487,2.63833 2.13867,3.84179 1.01523,1.21828 2.33041,2.29225 3.94531,3.22461 1.28895,0.74418 2.60192,1.27587 3.93945,1.59375 1.32899,0.3327 2.63584,0.46503 3.91993,0.39649 1.27552,-0.0537 2.49693,-0.3068 3.66601,-0.75781 1.16053,-0.4362 2.22454,-1.04698 3.19141,-1.83204 l -3.18164,-4.44531 c -1.25647,1.01295 -2.61376,1.6022 -4.07227,1.76758 -1.45852,0.16539 -3.05563,-0.25116 -4.78906,-1.25195 -0.81485,-0.47046 -1.48929,-1.0285 -2.02539,-1.67383 -0.54466,-0.63053 -0.93688,-1.30175 -1.17774,-2.01367 -0.24085,-0.71193 -0.32862,-1.43425 -0.26172,-2.16602 0.0435,-0.72551 0.25766,-1.42119 0.64258,-2.08789 0.4448,-0.77041 0.99482,-1.38085 1.65039,-1.83203 0.64702,-0.43636 1.36755,-0.7617 2.16211,-0.97461 0.77119,-0.20663 1.5996,-0.32204 2.48242,-0.3457 0.86804,-0.0319 1.74406,-0.0283 2.63086,0.01 1.9178,0.0998 3.86518,0.0287 5.8418,-0.21289 1.97661,-0.24159 3.89559,-0.74388 5.75781,-1.50586 1.86222,-0.76198 3.61726,-1.83246 5.26368,-3.21289 1.64641,-1.38042 3.09806,-3.16 4.35546,-5.33789 l -21.97851,-12.68945 z m 199.30469,2.30273 c -0.77455,-0.007 -1.64291,0.0794 -2.60547,0.25977 -0.97738,0.18896 -2.02938,0.48991 -3.1543,0.90234 -1.13973,0.42097 -2.35362,1.00387 -3.64258,1.74805 -1.77786,1.02645 -3.26078,2.23747 -4.44922,3.63476 -1.18844,1.3973 -2.03493,2.89264 -2.53711,4.48633 -0.51698,1.60226 -0.68024,3.26754 -0.49218,4.9961 0.19662,1.74336 0.78585,3.46808 1.76953,5.17187 0.75273,1.30377 1.6916,2.45122 2.8164,3.44141 1.1248,0.99019 2.38345,1.71514 3.7754,2.17578 1.38565,0.484 2.8825,0.6461 4.49023,0.48828 1.59293,-0.14926 3.24153,-0.71553 4.94531,-1.69922 1.30378,-0.75273 2.38312,-1.60271 3.23828,-2.55078 0.84036,-0.93953 1.45663,-1.83825 1.84961,-2.69727 l 3.99414,8.50977 -13.46679,7.77539 2.63086,4.55469 17.88867,-10.32813 -8.00781,-16.38476 -6.23633,1.05273 c -0.22878,1.04077 -0.64663,1.99321 -1.25391,2.85742 -0.62209,0.87278 -1.48844,1.62995 -2.59961,2.27149 -0.87412,0.50467 -1.74109,0.83542 -2.59765,0.99414 -0.87138,0.16726 -1.707,0.15633 -2.50782,-0.0332 -0.80082,-0.18955 -1.55132,-0.56547 -2.25195,-1.12891 -0.70063,-0.56344 -1.32561,-1.31939 -1.87305,-2.26758 -0.55599,-0.96302 -0.89098,-1.95447 -1.00586,-2.97461 -0.12115,-0.99679 -0.03,-1.96844 0.27344,-2.91406 0.30347,-0.94561 0.81373,-1.84173 1.5293,-2.68945 0.7093,-0.82436 1.61263,-1.55452 2.70898,-2.1875 0.90375,-0.52178 1.73719,-0.92353 2.50196,-1.20704 0.7585,-0.26012 1.47269,-0.44561 2.14062,-0.55468 0.66793,-0.10927 1.28821,-0.16025 1.86328,-0.15625 0.57507,0.004 1.12092,0.0245 1.63672,0.0625 l 0.64062,-5.40821 c -0.55856,-0.11208 -1.22861,-0.17917 -2.01171,-0.20117 z m -148.63086,0.10938 -3.0586,10.67382 c -0.10198,0.359 0.14271,0.74306 0.54883,0.85938 l 2.51953,0.7207 c 0.40636,0.11629 0.81498,-0.0784 0.91797,-0.4375 l 3.0918,-10.79101 a 178.01099,178.01099 0 0 1 -4.01953,-1.02539 z m 97.49609,0.39062 a 178.01099,178.01099 0 0 1 -4.03516,0.97461 l 3.01368,10.59961 c 0.10157,0.35923 0.51366,0.55306 0.91992,0.4375 l 2.51953,-0.7168 c 0.40626,-0.1154 0.65296,-0.49813 0.55078,-0.85742 l -2.96875,-10.4375 z m -15.49023,3.09766 0,0.002 c -0.10084,-0.0173 -0.20906,-0.0172 -0.31836,0.004 l -2.71875,0.52539 c -0.43774,0.0835 -0.72912,0.46436 -0.6543,0.85156 l 4.01953,20.81641 c 0.0751,0.38702 0.4878,0.63316 0.92578,0.54882 l 2.71485,-0.52539 c 0.43798,-0.0835 0.7311,-0.46454 0.65625,-0.85156 l -4.01953,-20.82031 c -0.0563,-0.29026 -0.30111,-0.49981 -0.60547,-0.55078 z m -66.1875,0.002 c -0.30416,0.0521 -0.54943,0.25839 -0.60547,0.54883 l -4.01953,20.82031 c -0.0751,0.38719 0.2185,0.76693 0.65625,0.85156 l 2.71484,0.52539 c 0.43799,0.0835 0.85093,-0.16164 0.92578,-0.54882 l 4.02149,-20.81641 c 0.0751,-0.38724 -0.21825,-0.76698 -0.65625,-0.85156 l -2.7168,-0.52539 c -0.10968,-0.0208 -0.21881,-0.0209 -0.32031,-0.004 z m 51.18164,2.52735 a 178.01099,178.01099 0 0 1 -4.11524,0.5 l 1.11914,10.8789 c 0.0383,0.37154 0.40776,0.63709 0.82813,0.59375 l 2.60547,-0.26953 c 0.42034,-0.0429 0.72768,-0.37649 0.68945,-0.74805 l -1.12695,-10.95507 z m -36,0.11328 -1.06836,10.19726 c -0.0385,0.37151 0.26723,0.7079 0.6875,0.75196 l 0.39062,0.0391 c 0.0729,0.0254 0.14496,0.0534 0.22657,0.0586 l 0.99609,0.0703 0.99219,0.10547 c 0.0811,0.008 0.15664,-0.002 0.23242,-0.0156 l 0.39258,0.0254 c 0.42133,0.0314 0.78109,-0.24465 0.80859,-0.61719 l 0.74609,-10.34961 a 178.01099,178.01099 0 0 1 -4.40429,-0.26562 z M 253.375,433.75 c -0.65925,0 -1.18945,0.28511 -1.18945,0.63867 l 0,10.22266 c 0,0.35356 0.5302,0.63867 1.18945,0.63867 l 5.25,0 c 0.65925,0 1.18945,-0.28511 1.18945,-0.63867 l 0,-10.22266 c 0,-0.35356 -0.5302,-0.63867 -1.18945,-0.63867 l -5.25,0 z m 2.18945,17.51367 c -1.76208,0 -3.40516,0.23779 -4.92773,0.7168 -1.53968,0.49612 -2.87481,1.20705 -4.00391,2.13086 -1.1291,0.94092 -2.0096,2.08796 -2.64258,3.43945 -0.65008,1.36861 -0.9746,2.93324 -0.97461,4.69531 2e-5,1.65944 0.27288,3.07934 0.82032,4.25977 0.54744,1.19753 1.26665,2.21447 2.15625,3.05273 0.88959,0.85538 1.90653,1.57459 3.05273,2.15625 1.1291,0.59876 2.29271,1.11966 3.49024,1.56446 1.18042,0.4619 2.34402,0.88144 3.49023,1.25781 1.1291,0.39347 2.1397,0.8213 3.0293,1.2832 0.88959,0.46191 1.60685,0.99304 2.15429,1.5918 0.54744,0.61587 0.82227,1.35993 0.82227,2.23242 0,1.40282 -0.49605,2.48797 -1.48828,3.25781 -0.99224,0.76984 -2.37073,1.15625 -4.13281,1.15625 -0.8896,0 -1.6936,-0.095 -2.41211,-0.2832 -0.73563,-0.18818 -1.38468,-0.45277 -1.94922,-0.79492 -0.56456,-0.32504 -1.04403,-0.71974 -1.4375,-1.18164 -0.39348,-0.4448 -0.70143,-0.9306 -0.92383,-1.46094 l -5.05469,1.69336 c 0.32505,1.04356 0.80257,2.00884 1.43555,2.89844 0.63298,0.88959 1.4287,1.66046 2.38672,2.31054 0.94091,0.65009 2.04458,1.15442 3.31054,1.51368 1.26597,0.37636 2.67759,0.56445 4.23438,0.56445 1.86473,0 3.52438,-0.25631 4.97852,-0.76953 1.45414,-0.51323 2.67768,-1.21392 3.66992,-2.10352 0.99224,-0.87248 1.75287,-1.89136 2.2832,-3.05469 0.51323,-1.16331 0.76953,-2.39513 0.76953,-3.69531 0,-1.55678 -0.27287,-2.8734 -0.82031,-3.95117 -0.54745,-1.07778 -1.26666,-2.00164 -2.15625,-2.77148 -0.88959,-0.76984 -1.89824,-1.42084 -3.02734,-1.95118 -1.14621,-0.53033 -2.30982,-1.00786 -3.49024,-1.43554 -1.19753,-0.4277 -2.36113,-0.84723 -3.49023,-1.25782 -1.1462,-0.41057 -2.16314,-0.89006 -3.05274,-1.4375 -0.88959,-0.54743 -1.6088,-1.19843 -2.15625,-1.95117 -0.54744,-0.73562 -0.82031,-1.64925 -0.82031,-2.74414 0,-0.9238 0.16128,-1.74632 0.48633,-2.46484 0.32504,-0.70141 0.77771,-1.29052 1.35937,-1.76953 0.58166,-0.47902 1.28431,-0.83863 2.10547,-1.07813 0.82116,-0.2395 1.72846,-0.35937 2.72071,-0.35937 0.99223,0 1.92439,0.13643 2.79687,0.41015 0.85538,0.27372 1.64086,0.6499 2.35937,1.12891 0.71853,0.49612 1.36123,1.08718 1.92579,1.77148 0.54744,0.6843 1.0084,1.43665 1.38476,2.25782 l 5.15821,-1.87305 c -0.46191,-1.36861 -1.11095,-2.60872 -1.94922,-3.7207 -0.83827,-1.09489 -1.83036,-2.03532 -2.97657,-2.82227 -1.16331,-0.76984 -2.45507,-1.3609 -3.875,-1.77148 -1.43703,-0.4277 -2.97681,-0.64063 -4.61914,-0.64063 z"
         id="path6187"
         inkscape:connector-curvature="0" />
    </g>
  </g>
  <g
     inkscape:groupmode="layer"
     id="layer2"
     inkscape:label="arrows"
     style="display:inline">
    <g
       style="display:inline;opacity:1"
       id="Needle"
       transform="translate(0,-541.28467)"
       inkscape:label="Needle">
      <path
         sodipodi:nodetypes="cc"
         inkscape:connector-curvature="0"
         id="path4368-6"
         d="m 256,969.61212 c -0.33541,-109.7542 -1.58977,-219.52095 0,-329.26415"
         style="display:inline;opacity:1;fill:#ffc022;fill-rule:evenodd;stroke:#ffc022;stroke-width:4.5;stroke-linecap:square;stroke-linejoin:miter;stroke-miterlimit:4;stroke-dasharray:none;stroke-opacity:1" />
      <path
         inkscape:connector-curvature="0"
         id="path4408"
         d="m 256,622.70036 -8.87695,41.73799 8.87695,0 8.87695,0 L 256,622.70036 Z"
         style="fill:#ffc022;fill-rule:evenodd;stroke:none;stroke-width:1px;stroke-linecap:butt;stroke-linejoin:miter;stroke-opacity:1" />
    </g>
  </g>
  <g
     inkscape:groupmode="layer"
     id="layer3"
     inkscape:label="Decorations">
    <g
       id="g6392"
       transform="translate(-0.79549,-540.36218)"
       style="display:inline;opacity:1;stroke:#ff9900;stroke-width:7;stroke-linecap:butt;stroke-miterlimit:4;stroke-dasharray:none">
      <g
         transform="translate(0,47.456723)"
         id="g4626"
         style="stroke:#ff9900;stroke-width:7;stroke-linecap:butt;stroke-miterlimit:4;stroke-dasharray:none">
        <g
           id="g4372"
           style="stroke:#ff9900;stroke-width:7;stroke-linecap:butt;stroke-miterlimit:4;stroke-dasharray:none">
          <path
             inkscape:connector-curvature="0"
             id="path4630"
             d="m 215.49999,748.36215 81,0"
             style="fill:none;fill-rule:evenodd;stroke:#ff9900;stroke-width:7;stroke-linecap:butt;stroke-linejoin:miter;stroke-miterlimit:4;stroke-dasharray:none;stroke-opacity:1" />
          <path
             style="fill:none;fill-rule:evenodd;stroke:#ff9900;stroke-width:7;stroke-linecap:butt;stroke-linejoin:miter;stroke-miterlimit:4;stroke-dasharray:none;stroke-opacity:1"
             d="m 255.99999,724.86215 0,81"
             id="path4368"
             inkscape:connector-curvature="0" />
          <path
             style="fill:none;fill-rule:evenodd;stroke:#ff9900;stroke-width:7;stroke-linecap:butt;stroke-linejoin:miter;stroke-miterlimit:4;stroke-dasharray:none;stroke-opacity:1"
             d="m 240.24999,797.36215 31.5,0"
             id="path4370"
             inkscape:connector-curvature="0" />
        </g>
      </g>
    </g>
  </g>
</svg>
