<?xml version="1.0" encoding="UTF-8" standalone="no"?>
<!-- Created with Inkscape (http://www.inkscape.org/) -->

<svg
   xmlns:dc="http://purl.org/dc/elements/1.1/"
   xmlns:cc="http://creativecommons.org/ns#"
   xmlns:rdf="http://www.w3.org/1999/02/22-rdf-syntax-ns#"
   xmlns:svg="http://www.w3.org/2000/svg"
   xmlns="http://www.w3.org/2000/svg"
   xmlns:xlink="http://www.w3.org/1999/xlink"
   xmlns:sodipodi="http://sodipodi.sourceforge.net/DTD/sodipodi-0.dtd"
   xmlns:inkscape="http://www.inkscape.org/namespaces/inkscape"
   version="1.1"
   width="100%"
   height="100%"
   id="ASI"
   inkscape:version="0.91 r13725"
   sodipodi:docname="Empty.svg"
   viewBox="0 0 512 512"
   preserveAspectRatio="xMinYMin meet">
  <title
     id="title5536">Airspeed Indicator</title>
  <defs
     id="defs3747">
    <linearGradient
       inkscape:collect="always"
       id="linearGradient12865">
      <stop
         style="stop-color:#151515;stop-opacity:1"
         offset="0"
         id="stop12867" />
      <stop
         id="stop12873"
         offset="0.87221068"
         style="stop-color:#0e0e0e;stop-opacity:1" />
      <stop
         style="stop-color:#080808;stop-opacity:1"
         offset="0.95222574"
         id="stop12877" />
      <stop
         style="stop-color:#000000;stop-opacity:1"
         offset="1"
         id="stop12869" />
    </linearGradient>
    <radialGradient
       inkscape:collect="always"
       xlink:href="#linearGradient12865"
       id="radialGradient12871"
       cx="-606.02588"
       cy="-589.34821"
       fx="-606.02588"
       fy="-589.34821"
       r="255.99997"
       gradientTransform="translate(0,1.3927177e-4)"
       gradientUnits="userSpaceOnUse" />
  </defs>
  <sodipodi:namedview
     id="base"
     bordercolor="#666666"
     borderopacity="1.0"
     inkscape:pageshadow="2"
     inkscape:zoom="1"
     inkscape:cx="153.79042"
     inkscape:cy="234.79687"
     inkscape:document-units="px"
     inkscape:current-layer="g13099"
     showgrid="false"
     borderlayer="true"
     inkscape:window-width="1366"
     inkscape:window-height="704"
     inkscape:window-x="0"
     inkscape:window-y="27"
     inkscape:window-maximized="1"
     inkscape:snap-bbox="true"
     inkscape:snap-bbox-midpoints="true"
     inkscape:snap-bbox-edge-midpoints="true"
     inkscape:bbox-nodes="true"
     inkscape:bbox-paths="true"
     inkscape:snap-global="false"
     inkscape:snap-center="true"
     inkscape:snap-page="true"
     inkscape:snap-object-midpoints="true"
     inkscape:object-paths="true"
     inkscape:snap-intersection-paths="true"
     inkscape:snap-smooth-nodes="true"
     inkscape:snap-midpoints="true"
     inkscape:object-nodes="true"
     inkscape:snap-text-baseline="true" />
  <metadata
     id="metadata3750">
    <rdf:RDF>
      <cc:Work
         rdf:about="">
        <dc:format>image/svg+xml</dc:format>
        <dc:type
           rdf:resource="http://purl.org/dc/dcmitype/StillImage" />
        <dc:title>Airspeed Indicator</dc:title>
        <dc:creator>
          <cc:Agent>
            <dc:title>Torsten Dreyer</dc:title>
          </cc:Agent>
        </dc:creator>
        <dc:rights>
          <cc:Agent>
            <dc:title>Torsten Dreyer</dc:title>
          </cc:Agent>
        </dc:rights>
        <dc:publisher>
          <cc:Agent>
            <dc:title>flightgear.org</dc:title>
          </cc:Agent>
        </dc:publisher>
        <cc:license
           rdf:resource="http://www.gnu.org/licenses/gpl-2.0.html" />
        <dc:date>2014-08-01</dc:date>
      </cc:Work>
    </rdf:RDF>
  </metadata>
  <g
     inkscape:label="Face"
     inkscape:groupmode="layer"
     id="Face"
     transform="translate(0,-540.36218)"
     style="display:inline;opacity:1">
    <ellipse
       style="opacity:1;fill:url(#radialGradient12871);fill-opacity:1;stroke:none;stroke-width:20;stroke-miterlimit:4;stroke-dasharray:none;stroke-opacity:1"
       id="path12863"
       transform="matrix(-0.88387547,-0.46772231,0.46772244,-0.8838754,0,0)"
       inkscape:transform-center-x="2.3138069"
       inkscape:transform-center-y="-9.8341511"
       cx="-598.7486"
       cy="-584.14807"
       rx="255.99997"
       ry="256.00003" />
    <g
       id="g13099"
       transform="matrix(0.82386358,0,0,0.82386358,66.5,81.960418)">
      <path
         style="fill:#2c2c2c;fill-opacity:1;fill-rule:evenodd;stroke:none;stroke-width:1px;stroke-linecap:butt;stroke-linejoin:miter;stroke-opacity:0.74871796"
         d="m 88,847.36218 352,0 -278,-20 132.83236,-117.56089 z"
         id="path13091"
         inkscape:connector-curvature="0"
         sodipodi:nodetypes="ccccc" />
      <path
         sodipodi:nodetypes="ccccc"
         inkscape:connector-curvature="0"
         id="path13081"
         d="m 88,845.36218 352,0 -278,-20 132.83236,-117.56089 z"
         style="fill:#000000;fill-opacity:0.69230771;fill-rule:evenodd;stroke:none;stroke-width:1px;stroke-linecap:butt;stroke-linejoin:miter;stroke-opacity:0.74871796" />
    </g>
    <g
       id="g13093"
       transform="matrix(1.707624,0,0,1.707624,-181.15174,-688.54667)">
      <g
         style="font-style:normal;font-weight:normal;font-size:52.26438141px;line-height:1000%;font-family:sans-serif;text-align:start;letter-spacing:0px;word-spacing:0px;text-anchor:start;opacity:0.647;fill:#3c3c3c;fill-opacity:1;stroke:none;stroke-width:1px;stroke-linecap:butt;stroke-linejoin:miter;stroke-opacity:1"
         id="text13087">
        <path
           d="m 191.30854,897.55034 c -0.1568,0 -2.71775,1.35888 -8.83268,2.77002 6.7421,-10.40062 13.32741,-19.70368 13.32741,-20.33085 -0.10452,-1.56793 -3.55397,-5.95814 -5.33096,-5.95814 -8.10098,0 -34.80808,11.08005 -34.80808,19.44235 0,1.04529 3.86756,5.90588 4.80832,6.0104 0.10453,0 0.20906,0.0523 0.41812,0.0523 3.71077,0 6.7421,-0.52264 7.52607,-0.94076 0,-1.25434 -0.20906,-4.07662 -0.26132,-5.64455 -1.93379,0.99302 -4.80833,2.40416 -7.00343,2.40416 -0.52264,0 -0.52264,-0.26132 -0.52264,-0.36585 0,-0.62717 9.04173,-11.18458 30.78372,-17.14272 0.41811,-0.10453 0.47038,0.15679 0.47038,0.36585 0,0.15679 -0.0523,0.36585 -0.10453,0.41812 -6.01041,7.16022 -11.81175,14.58176 -17.35178,23.20538 -2.14284,0.26132 -4.547,0.57491 -7.16022,0.78397 -0.57491,0.10453 -2.14284,2.61322 -2.14284,3.34492 0,0.15679 0.0523,0.20906 0.1568,0.20906 0.26132,0 3.13586,-0.1568 6.68984,-0.47038 -3.39719,5.54002 -6.68984,11.55042 -9.82571,18.39706 1.09755,-0.36585 6.06267,-1.09755 7.57834,-1.72473 2.03831,-4.70379 5.74908,-10.97552 9.72117,-17.29951 3.39719,-0.36585 6.37626,-0.7317 7.73513,-1.09755 2.66549,-2.40416 4.18115,-5.59229 4.18115,-6.27172 0,-0.10453 0,-0.1568 -0.0523,-0.1568 z"
           style="font-style:normal;font-variant:normal;font-weight:normal;font-stretch:normal;font-family:Yesteryear;-inkscape-font-specification:Yesteryear;fill:#3c3c3c;fill-opacity:1"
           id="path13104" />
        <path
           d="m 196.86326,912.02758 c -0.31359,0 -0.47038,-0.20906 -0.47038,-1.25435 0,-1.56793 0.36585,-4.59926 1.30661,-8.31004 3.97209,-3.71077 7.73513,-8.57135 7.73513,-8.57135 6.37625,-8.15325 7.68286,-12.07308 7.68286,-13.69327 0,-0.41812 -0.0523,-0.62717 -0.31358,-0.8885 -0.41812,-0.52264 -1.88152,-2.09057 -3.18813,-2.56095 -1.20208,0 -8.88495,3.91983 -15.15667,17.56083 -2.03831,4.44247 -3.86757,12.12534 -3.86757,15.52252 0,0.31359 0,0.62718 0.0523,0.83623 0.20906,1.04529 3.13586,4.547 5.22644,4.547 2.40416,0 8.41456,-5.38323 10.66193,-7.68286 -0.36585,-0.41812 -0.83623,-0.94076 -1.14982,-1.25435 -1.20208,1.04529 -6.89889,5.74909 -8.51909,5.74909 z m 4.07662,-18.71065 c 4.18115,-9.51212 8.10098,-13.43195 8.72815,-13.43195 0.1568,0 0.1568,0.10453 0.1568,0.26132 0,1.20208 -2.09058,5.80135 -6.84664,12.43893 0,0 -1.4634,1.98604 -3.55397,4.44247 0.47037,-1.20208 0.94075,-2.45643 1.51566,-3.71077 z"
           style="font-style:normal;font-variant:normal;font-weight:normal;font-stretch:normal;font-family:Yesteryear;-inkscape-font-specification:Yesteryear;fill:#3c3c3c;fill-opacity:1"
           id="path13106" />
        <path
           d="m 207.03521,915.2157 c 2.40417,0 8.41457,-5.38323 10.66194,-7.68286 -0.36585,-0.41812 -0.83623,-0.94076 -1.14982,-1.25435 -1.20208,1.04529 -6.27172,5.54003 -7.36928,5.54003 -0.10453,0 -0.15679,-0.0523 -0.15679,-0.15679 0,-1.14982 2.3519,-6.63758 3.18813,-9.2508 0.0523,-0.20906 0.10453,-0.36585 0.10453,-0.47038 0,-1.04529 -3.39719,-3.03133 -3.8153,-3.03133 -0.36585,0 -3.86757,8.98947 -4.86059,13.53647 0,1.20208 2.3519,2.77001 3.39718,2.77001 z m 10.08703,-24.09388 c 0,-0.41811 -2.71775,-2.24736 -3.91983,-2.24736 -0.62717,0 -2.50869,3.60624 -2.50869,5.01738 0,0.31358 2.61322,1.88151 3.8153,1.93378 0.62717,0 2.50869,-4.28568 2.61322,-4.7038 z"
           style="font-style:normal;font-variant:normal;font-weight:normal;font-stretch:normal;font-family:Yesteryear;-inkscape-font-specification:Yesteryear;fill:#3c3c3c;fill-opacity:1"
           id="path13108" />
        <path
           d="m 236.30245,906.17397 c -2.1951,2.1951 -4.39021,4.07662 -6.58531,5.80134 0.88849,-2.77001 1.4634,-5.01738 1.82925,-6.21946 0.0523,-0.15679 0.0523,-0.20906 0.0523,-0.20906 0,-0.7317 -1.51567,-3.50171 -2.03831,-3.60624 -0.10453,0.0523 -0.1568,0.15679 -0.20906,0.20906 -1.35888,1.77699 -6.01041,7.73513 -8.62362,7.73513 -0.31359,0 -0.47038,-0.26133 -0.47038,-0.57491 0,-2.61322 6.79437,-7.78739 9.19853,-9.19853 0,0 0.15679,-0.0523 0.15679,-0.1568 0,-0.20905 -2.29963,-1.56793 -3.03133,-1.56793 -7.42155,1.98605 -12.54346,10.13929 -12.54346,13.48421 0,1.72473 1.98605,3.24039 2.71775,3.24039 2.82228,0 7.16022,-3.50171 9.61665,-6.89889 -1.25435,3.91983 -2.19511,6.48078 -2.92681,8.41456 -6.63757,4.65153 -11.81175,7.78739 -11.81175,11.28911 0,1.62019 2.24737,3.86756 3.39719,3.86756 2.56095,0 8.78041,-5.01738 11.75948,-11.81175 0.67944,-1.62019 1.35888,-3.24039 1.88152,-4.80832 2.87454,-2.1951 5.85361,-4.65153 8.78042,-7.6306 l -1.14982,-1.35887 z M 214.665,928.38633 c -0.10453,0 -0.1568,-0.10453 -0.1568,-0.20906 0,-2.45643 3.03134,-4.91285 7.47381,-8.10098 -1.82925,3.65851 -5.95814,8.31004 -7.31701,8.31004 z"
           style="font-style:normal;font-variant:normal;font-weight:normal;font-stretch:normal;font-family:Yesteryear;-inkscape-font-specification:Yesteryear;fill:#3c3c3c;fill-opacity:1"
           id="path13110" />
        <path
           d="m 250.45875,911.66173 c -0.10453,0 -0.15679,-0.0523 -0.15679,-0.1568 0,-1.04528 2.35189,-7.10795 3.24039,-9.8257 0.0523,-0.15679 0.15679,-0.52264 0.10453,-0.67944 -0.36585,-0.78396 -3.24039,-2.56095 -3.86757,-2.56095 -0.88849,0 -3.39718,1.20208 -7.05569,5.01738 0.26132,-0.8885 0.57491,-1.77699 0.94076,-2.71775 8.04871,-7.78739 14.37271,-17.35177 14.37271,-20.95802 0,-0.15679 -0.0523,-0.62717 -0.26133,-0.88849 -0.62717,-0.78397 -2.35189,-2.56096 -3.91983,-3.03134 -6.32399,0.41812 -19.18102,27.85692 -19.18102,36.79413 0,0.41811 0.15679,0.57491 0.36585,0.78396 0.78396,0.73171 2.97907,2.09058 3.60624,2.09058 0.41811,0 0.57491,-0.15679 0.67944,-0.52264 2.40416,-7.83966 8.46683,-13.64101 9.25079,-13.90233 -1.35887,3.13586 -3.44945,8.31004 -3.55398,11.23684 0,1.14982 2.56096,2.56096 3.8153,2.56096 2.40417,0 8.3623,-5.06965 10.60967,-7.36928 -0.36585,-0.41812 -0.83623,-0.94076 -1.14981,-1.25435 -1.20208,1.04529 -6.32399,5.38324 -7.83966,5.38324 z m -2.24737,-21.95104 c 2.97907,-6.32399 5.69682,-10.97552 6.48078,-10.97552 0.1568,0 0.20906,0.20905 0.20906,0.5749 0,3.18813 -4.44247,9.72118 -8.98947,15.57479 0.7317,-1.72473 1.4634,-3.44945 2.29963,-5.17417 z"
           style="font-style:normal;font-variant:normal;font-weight:normal;font-stretch:normal;font-family:Yesteryear;-inkscape-font-specification:Yesteryear;fill:#3c3c3c;fill-opacity:1"
           id="path13112" />
        <path
           d="m 260.7483,915.2157 c 2.40416,0 8.41456,-5.38323 10.66193,-7.68286 -0.36585,-0.41812 -0.83623,-0.94076 -1.14981,-1.25435 -1.20209,1.04529 -6.1672,5.33097 -7.26475,5.33097 -0.10453,0 -0.1568,-0.0523 -0.1568,-0.15679 0,-2.97907 2.29964,-9.40759 4.7038,-15.36573 l 5.06964,0 c 0.31359,0 0.52265,-0.10453 0.57491,-0.15679 0.7317,-0.62718 2.1951,-2.50869 1.51567,-2.50869 l -6.11493,0.20905 c 2.03831,-4.86058 3.97209,-8.98947 4.3902,-9.66891 0.0523,-0.10453 0.0523,-0.15679 0.0523,-0.15679 0,-0.10453 -0.10453,-0.10453 -0.26132,-0.10453 -0.73171,0 -3.76304,1.14982 -5.27871,1.88152 -2.03831,0.94076 -2.24737,1.82925 -2.61322,2.61322 -0.67943,1.35887 -1.56793,3.39718 -2.50869,5.69682 l -3.34492,0.15679 c -0.52264,0.20906 -1.20208,1.6202 -1.20208,1.98605 0,0.0523 0.0523,0.0523 0.0523,0.0523 l 3.60624,0 c -2.40416,6.21946 -4.86059,13.43195 -4.86059,15.52252 0,1.14982 2.97907,3.60624 4.12889,3.60624 z"
           style="font-style:normal;font-variant:normal;font-weight:normal;font-stretch:normal;font-family:Yesteryear;-inkscape-font-specification:Yesteryear;fill:#3c3c3c;fill-opacity:1"
           id="path13114" />
        <path
           d="m 298.09202,900.1113 c -2.3519,-0.0523 -4.12889,-0.20906 -6.68984,-0.20906 -0.57491,1.04529 -0.94076,2.14284 -1.56794,3.13586 -1.88151,3.0836 -8.51909,10.66194 -12.0208,10.66194 -0.94076,0 -1.51567,-0.83623 -1.51567,-2.97907 0,-9.30306 14.16365,-33.76279 21.79425,-33.76279 1.41114,0 1.4634,1.35887 1.4634,2.1951 0,4.86059 -4.18115,9.72118 -6.21946,11.81175 l 4.49474,4.18115 c 3.60624,-3.55398 6.42851,-9.14627 6.42851,-13.48421 0,-1.30661 -0.67943,-2.66548 -1.35887,-3.65851 -1.14982,-1.67246 -3.39718,-4.02435 -5.80135,-4.02435 -12.59571,0 -26.23672,21.63745 -26.23672,33.34467 0,5.33097 5.80135,10.81873 8.98948,10.81873 3.03133,0 6.27172,-3.24039 8.88494,-6.53305 -2.29963,4.65153 -3.34492,8.72815 -4.59926,14.00686 0.88849,0 4.12888,-0.67944 5.95814,-1.20209 1.72472,-10.5574 7.36927,-23.57123 7.99645,-24.30293 z"
           style="font-style:normal;font-variant:normal;font-weight:normal;font-stretch:normal;font-family:Yesteryear;-inkscape-font-specification:Yesteryear;fill:#3c3c3c;fill-opacity:1"
           id="path13116" />
        <path
           d="m 317.47394,906.27849 c -3.34492,3.13587 -6.74211,6.37626 -11.23684,6.37626 -1.25435,0 -1.6202,-0.31359 -1.6202,-1.35887 0,-0.36586 0,-0.78397 0.0523,-1.20209 6.01041,-2.66548 10.08703,-5.22643 10.08703,-7.52607 0,-1.41113 -2.29963,-4.23341 -4.39021,-4.23341 -4.39021,0 -11.81175,4.33794 -11.81175,12.70024 0,1.46341 2.97907,4.59927 4.80832,4.59927 4.33795,0 9.14627,-1.98605 15.36573,-8.10098 l -1.25434,-1.25435 z m -7.73513,-5.1219 c 0.36585,0 0.57491,0.26132 0.57491,0.5749 0,2.09058 -2.56096,4.28568 -5.06965,5.85361 1.09755,-3.29265 3.18813,-6.42851 4.49474,-6.42851 z"
           style="font-style:normal;font-variant:normal;font-weight:normal;font-stretch:normal;font-family:Yesteryear;-inkscape-font-specification:Yesteryear;fill:#3c3c3c;fill-opacity:1"
           id="path13118" />
        <path
           d="m 331.81805,911.5572 c 0,-0.7317 0.10453,-2.77002 1.6202,-5.95814 0,-0.78397 -1.25434,-3.0836 -2.03831,-3.60624 -0.0523,-0.0523 -0.10453,0.0523 -0.10453,0.0523 -1.25434,2.14284 -4.02436,4.39021 -4.02436,4.39021 -2.40416,1.98604 -4.44247,3.6585 -5.38323,3.6585 -0.26132,0 -0.36585,-0.15679 -0.36585,-0.41811 0,-0.78397 0.83623,-2.66548 3.29266,-5.12191 0,0 2.66548,-2.71775 5.69681,-4.33794 0,0 0.10453,-0.0523 0.0523,-0.10453 -0.26132,-0.41812 -1.93378,-1.41114 -2.71775,-1.67246 -0.10453,-0.0523 -0.15679,0 -0.20906,0 -3.60624,1.04528 -7.00342,4.12888 -7.00342,4.12888 -5.17418,4.7038 -5.64456,9.30306 -5.64456,9.66891 0,1.46341 1.82926,2.97907 2.50869,2.97907 0.10453,0 0.20906,0 0.36585,-0.0523 2.87455,-0.94076 6.95117,-3.97209 9.19854,-6.32399 -0.83623,2.61322 -0.67944,3.50171 -0.67944,4.07662 0,1.41114 1.82925,2.40416 3.0836,2.40416 2.66548,0 8.3623,-5.48776 10.81872,-7.78739 -0.36585,-0.41812 -0.88849,-0.99302 -1.20208,-1.30661 -1.20208,1.09755 -6.16719,5.48776 -7.10795,5.48776 -0.10453,0 -0.1568,-0.0523 -0.1568,-0.15679 z"
           style="font-style:normal;font-variant:normal;font-weight:normal;font-stretch:normal;font-family:Yesteryear;-inkscape-font-specification:Yesteryear;fill:#3c3c3c;fill-opacity:1"
           id="path13120" />
        <path
           d="m 350.53443,903.24716 c 0.10453,-0.31359 0,-0.78397 -0.41812,-1.04529 0,0 -3.24039,-2.40416 -5.90587,-3.76303 0,-0.78397 -0.0523,-1.35888 -0.10453,-1.51567 -0.15679,-0.41811 -1.77699,-1.14982 -1.93378,-1.14982 -0.31359,0 -3.18813,4.28568 -3.18813,5.4355 0,0.15679 0.0523,0.26132 0.15679,0.31359 0,0 1.09756,0.88849 2.77002,1.93378 -1.14982,1.20208 -2.50869,2.50869 -3.39719,3.34492 l 1.20208,1.25434 c 1.14982,-0.99302 2.77001,-2.50869 3.86757,-3.6585 0.36585,0.20905 0.7317,0.41811 1.14981,0.5749 -0.31358,0.73171 -1.4634,2.92681 -2.45642,7.47381 0,1.20208 2.35189,2.77001 3.39718,2.77001 2.40416,0 8.41457,-5.38323 10.66193,-7.68286 -0.36585,-0.41812 -0.83623,-0.94076 -1.14981,-1.25435 -1.20208,1.04529 -6.27173,5.54003 -7.36928,5.54003 -0.10453,0 -0.15679,-0.0523 -0.15679,-0.15679 0,-1.14982 1.98604,-5.80135 2.87454,-8.41457 z"
           style="font-style:normal;font-variant:normal;font-weight:normal;font-stretch:normal;font-family:Yesteryear;-inkscape-font-specification:Yesteryear;fill:#3c3c3c;fill-opacity:1"
           id="path13122" />
      </g>
      <g
         style="font-style:normal;font-weight:normal;font-size:52.26438141px;line-height:1000%;font-family:sans-serif;text-align:start;letter-spacing:0px;word-spacing:0px;text-anchor:start;opacity:1;fill:#050505;fill-opacity:1;stroke:none;stroke-width:1px;stroke-linecap:butt;stroke-linejoin:miter;stroke-opacity:1"
         id="text13083">
        <path
           d="m 191.30854,896.55034 c -0.1568,0 -2.71775,1.35888 -8.83268,2.77002 6.7421,-10.40062 13.32741,-19.70368 13.32741,-20.33085 -0.10452,-1.56793 -3.55397,-5.95814 -5.33096,-5.95814 -8.10098,0 -34.80808,11.08005 -34.80808,19.44235 0,1.04529 3.86756,5.90588 4.80832,6.0104 0.10453,0 0.20906,0.0523 0.41812,0.0523 3.71077,0 6.7421,-0.52264 7.52607,-0.94076 0,-1.25434 -0.20906,-4.07662 -0.26132,-5.64455 -1.93379,0.99302 -4.80833,2.40416 -7.00343,2.40416 -0.52264,0 -0.52264,-0.26132 -0.52264,-0.36585 0,-0.62717 9.04173,-11.18458 30.78372,-17.14272 0.41811,-0.10453 0.47038,0.15679 0.47038,0.36585 0,0.15679 -0.0523,0.36585 -0.10453,0.41812 -6.01041,7.16022 -11.81175,14.58176 -17.35178,23.20538 -2.14284,0.26132 -4.547,0.57491 -7.16022,0.78397 -0.57491,0.10453 -2.14284,2.61322 -2.14284,3.34492 0,0.15679 0.0523,0.20906 0.1568,0.20906 0.26132,0 3.13586,-0.1568 6.68984,-0.47038 -3.39719,5.54002 -6.68984,11.55042 -9.82571,18.39706 1.09755,-0.36585 6.06267,-1.09755 7.57834,-1.72473 2.03831,-4.70379 5.74908,-10.97552 9.72117,-17.29951 3.39719,-0.36585 6.37626,-0.7317 7.73513,-1.09755 2.66549,-2.40416 4.18115,-5.59229 4.18115,-6.27172 0,-0.10453 0,-0.1568 -0.0523,-0.1568 z"
           style="font-style:normal;font-variant:normal;font-weight:normal;font-stretch:normal;font-family:Yesteryear;-inkscape-font-specification:Yesteryear;fill:#050505;fill-opacity:1"
           id="path13125" />
        <path
           d="m 196.86326,911.02758 c -0.31359,0 -0.47038,-0.20906 -0.47038,-1.25435 0,-1.56793 0.36585,-4.59926 1.30661,-8.31004 3.97209,-3.71077 7.73513,-8.57135 7.73513,-8.57135 6.37625,-8.15325 7.68286,-12.07308 7.68286,-13.69327 0,-0.41812 -0.0523,-0.62717 -0.31358,-0.8885 -0.41812,-0.52264 -1.88152,-2.09057 -3.18813,-2.56095 -1.20208,0 -8.88495,3.91983 -15.15667,17.56083 -2.03831,4.44247 -3.86757,12.12534 -3.86757,15.52252 0,0.31359 0,0.62718 0.0523,0.83623 0.20906,1.04529 3.13586,4.547 5.22644,4.547 2.40416,0 8.41456,-5.38323 10.66193,-7.68286 -0.36585,-0.41812 -0.83623,-0.94076 -1.14982,-1.25435 -1.20208,1.04529 -6.89889,5.74909 -8.51909,5.74909 z m 4.07662,-18.71065 c 4.18115,-9.51212 8.10098,-13.43195 8.72815,-13.43195 0.1568,0 0.1568,0.10453 0.1568,0.26132 0,1.20208 -2.09058,5.80135 -6.84664,12.43893 0,0 -1.4634,1.98604 -3.55397,4.44247 0.47037,-1.20208 0.94075,-2.45643 1.51566,-3.71077 z"
           style="font-style:normal;font-variant:normal;font-weight:normal;font-stretch:normal;font-family:Yesteryear;-inkscape-font-specification:Yesteryear;fill:#050505;fill-opacity:1"
           id="path13127" />
        <path
           d="m 207.03521,914.2157 c 2.40417,0 8.41457,-5.38323 10.66194,-7.68286 -0.36585,-0.41812 -0.83623,-0.94076 -1.14982,-1.25435 -1.20208,1.04529 -6.27172,5.54003 -7.36928,5.54003 -0.10453,0 -0.15679,-0.0523 -0.15679,-0.15679 0,-1.14982 2.3519,-6.63758 3.18813,-9.2508 0.0523,-0.20906 0.10453,-0.36585 0.10453,-0.47038 0,-1.04529 -3.39719,-3.03133 -3.8153,-3.03133 -0.36585,0 -3.86757,8.98947 -4.86059,13.53647 0,1.20208 2.3519,2.77001 3.39718,2.77001 z m 10.08703,-24.09388 c 0,-0.41811 -2.71775,-2.24736 -3.91983,-2.24736 -0.62717,0 -2.50869,3.60624 -2.50869,5.01738 0,0.31358 2.61322,1.88151 3.8153,1.93378 0.62717,0 2.50869,-4.28568 2.61322,-4.7038 z"
           style="font-style:normal;font-variant:normal;font-weight:normal;font-stretch:normal;font-family:Yesteryear;-inkscape-font-specification:Yesteryear;fill:#050505;fill-opacity:1"
           id="path13129" />
        <path
           d="m 236.30245,905.17397 c -2.1951,2.1951 -4.39021,4.07662 -6.58531,5.80134 0.88849,-2.77001 1.4634,-5.01738 1.82925,-6.21946 0.0523,-0.15679 0.0523,-0.20906 0.0523,-0.20906 0,-0.7317 -1.51567,-3.50171 -2.03831,-3.60624 -0.10453,0.0523 -0.1568,0.15679 -0.20906,0.20906 -1.35888,1.77699 -6.01041,7.73513 -8.62362,7.73513 -0.31359,0 -0.47038,-0.26133 -0.47038,-0.57491 0,-2.61322 6.79437,-7.78739 9.19853,-9.19853 0,0 0.15679,-0.0523 0.15679,-0.1568 0,-0.20905 -2.29963,-1.56793 -3.03133,-1.56793 -7.42155,1.98605 -12.54346,10.13929 -12.54346,13.48421 0,1.72473 1.98605,3.24039 2.71775,3.24039 2.82228,0 7.16022,-3.50171 9.61665,-6.89889 -1.25435,3.91983 -2.19511,6.48078 -2.92681,8.41456 -6.63757,4.65153 -11.81175,7.78739 -11.81175,11.28911 0,1.62019 2.24737,3.86756 3.39719,3.86756 2.56095,0 8.78041,-5.01738 11.75948,-11.81175 0.67944,-1.62019 1.35888,-3.24039 1.88152,-4.80832 2.87454,-2.1951 5.85361,-4.65153 8.78042,-7.6306 l -1.14982,-1.35887 z M 214.665,927.38633 c -0.10453,0 -0.1568,-0.10453 -0.1568,-0.20906 0,-2.45643 3.03134,-4.91285 7.47381,-8.10098 -1.82925,3.65851 -5.95814,8.31004 -7.31701,8.31004 z"
           style="font-style:normal;font-variant:normal;font-weight:normal;font-stretch:normal;font-family:Yesteryear;-inkscape-font-specification:Yesteryear;fill:#050505;fill-opacity:1"
           id="path13131" />
        <path
           d="m 250.45875,910.66173 c -0.10453,0 -0.15679,-0.0523 -0.15679,-0.1568 0,-1.04528 2.35189,-7.10795 3.24039,-9.8257 0.0523,-0.15679 0.15679,-0.52264 0.10453,-0.67944 -0.36585,-0.78396 -3.24039,-2.56095 -3.86757,-2.56095 -0.88849,0 -3.39718,1.20208 -7.05569,5.01738 0.26132,-0.8885 0.57491,-1.77699 0.94076,-2.71775 8.04871,-7.78739 14.37271,-17.35177 14.37271,-20.95802 0,-0.15679 -0.0523,-0.62717 -0.26133,-0.88849 -0.62717,-0.78397 -2.35189,-2.56096 -3.91983,-3.03134 -6.32399,0.41812 -19.18102,27.85692 -19.18102,36.79413 0,0.41811 0.15679,0.57491 0.36585,0.78396 0.78396,0.73171 2.97907,2.09058 3.60624,2.09058 0.41811,0 0.57491,-0.15679 0.67944,-0.52264 2.40416,-7.83966 8.46683,-13.64101 9.25079,-13.90233 -1.35887,3.13586 -3.44945,8.31004 -3.55398,11.23684 0,1.14982 2.56096,2.56096 3.8153,2.56096 2.40417,0 8.3623,-5.06965 10.60967,-7.36928 -0.36585,-0.41812 -0.83623,-0.94076 -1.14981,-1.25435 -1.20208,1.04529 -6.32399,5.38324 -7.83966,5.38324 z m -2.24737,-21.95104 c 2.97907,-6.32399 5.69682,-10.97552 6.48078,-10.97552 0.1568,0 0.20906,0.20905 0.20906,0.5749 0,3.18813 -4.44247,9.72118 -8.98947,15.57479 0.7317,-1.72473 1.4634,-3.44945 2.29963,-5.17417 z"
           style="font-style:normal;font-variant:normal;font-weight:normal;font-stretch:normal;font-family:Yesteryear;-inkscape-font-specification:Yesteryear;fill:#050505;fill-opacity:1"
           id="path13133" />
        <path
           d="m 260.7483,914.2157 c 2.40416,0 8.41456,-5.38323 10.66193,-7.68286 -0.36585,-0.41812 -0.83623,-0.94076 -1.14981,-1.25435 -1.20209,1.04529 -6.1672,5.33097 -7.26475,5.33097 -0.10453,0 -0.1568,-0.0523 -0.1568,-0.15679 0,-2.97907 2.29964,-9.40759 4.7038,-15.36573 l 5.06964,0 c 0.31359,0 0.52265,-0.10453 0.57491,-0.15679 0.7317,-0.62718 2.1951,-2.50869 1.51567,-2.50869 l -6.11493,0.20905 c 2.03831,-4.86058 3.97209,-8.98947 4.3902,-9.66891 0.0523,-0.10453 0.0523,-0.15679 0.0523,-0.15679 0,-0.10453 -0.10453,-0.10453 -0.26132,-0.10453 -0.73171,0 -3.76304,1.14982 -5.27871,1.88152 -2.03831,0.94076 -2.24737,1.82925 -2.61322,2.61322 -0.67943,1.35887 -1.56793,3.39718 -2.50869,5.69682 l -3.34492,0.15679 c -0.52264,0.20906 -1.20208,1.6202 -1.20208,1.98605 0,0.0523 0.0523,0.0523 0.0523,0.0523 l 3.60624,0 c -2.40416,6.21946 -4.86059,13.43195 -4.86059,15.52252 0,1.14982 2.97907,3.60624 4.12889,3.60624 z"
           style="font-style:normal;font-variant:normal;font-weight:normal;font-stretch:normal;font-family:Yesteryear;-inkscape-font-specification:Yesteryear;fill:#050505;fill-opacity:1"
           id="path13135" />
        <path
           d="m 298.09202,899.1113 c -2.3519,-0.0523 -4.12889,-0.20906 -6.68984,-0.20906 -0.57491,1.04529 -0.94076,2.14284 -1.56794,3.13586 -1.88151,3.0836 -8.51909,10.66194 -12.0208,10.66194 -0.94076,0 -1.51567,-0.83623 -1.51567,-2.97907 0,-9.30306 14.16365,-33.76279 21.79425,-33.76279 1.41114,0 1.4634,1.35887 1.4634,2.1951 0,4.86059 -4.18115,9.72118 -6.21946,11.81175 l 4.49474,4.18115 c 3.60624,-3.55398 6.42851,-9.14627 6.42851,-13.48421 0,-1.30661 -0.67943,-2.66548 -1.35887,-3.65851 -1.14982,-1.67246 -3.39718,-4.02435 -5.80135,-4.02435 -12.59571,0 -26.23672,21.63745 -26.23672,33.34467 0,5.33097 5.80135,10.81873 8.98948,10.81873 3.03133,0 6.27172,-3.24039 8.88494,-6.53305 -2.29963,4.65153 -3.34492,8.72815 -4.59926,14.00686 0.88849,0 4.12888,-0.67944 5.95814,-1.20209 1.72472,-10.5574 7.36927,-23.57123 7.99645,-24.30293 z"
           style="font-style:normal;font-variant:normal;font-weight:normal;font-stretch:normal;font-family:Yesteryear;-inkscape-font-specification:Yesteryear;fill:#050505;fill-opacity:1"
           id="path13137" />
        <path
           d="m 317.47394,905.27849 c -3.34492,3.13587 -6.74211,6.37626 -11.23684,6.37626 -1.25435,0 -1.6202,-0.31359 -1.6202,-1.35887 0,-0.36586 0,-0.78397 0.0523,-1.20209 6.01041,-2.66548 10.08703,-5.22643 10.08703,-7.52607 0,-1.41113 -2.29963,-4.23341 -4.39021,-4.23341 -4.39021,0 -11.81175,4.33794 -11.81175,12.70024 0,1.46341 2.97907,4.59927 4.80832,4.59927 4.33795,0 9.14627,-1.98605 15.36573,-8.10098 l -1.25434,-1.25435 z m -7.73513,-5.1219 c 0.36585,0 0.57491,0.26132 0.57491,0.5749 0,2.09058 -2.56096,4.28568 -5.06965,5.85361 1.09755,-3.29265 3.18813,-6.42851 4.49474,-6.42851 z"
           style="font-style:normal;font-variant:normal;font-weight:normal;font-stretch:normal;font-family:Yesteryear;-inkscape-font-specification:Yesteryear;fill:#050505;fill-opacity:1"
           id="path13139" />
        <path
           d="m 331.81805,910.5572 c 0,-0.7317 0.10453,-2.77002 1.6202,-5.95814 0,-0.78397 -1.25434,-3.0836 -2.03831,-3.60624 -0.0523,-0.0523 -0.10453,0.0523 -0.10453,0.0523 -1.25434,2.14284 -4.02436,4.39021 -4.02436,4.39021 -2.40416,1.98604 -4.44247,3.6585 -5.38323,3.6585 -0.26132,0 -0.36585,-0.15679 -0.36585,-0.41811 0,-0.78397 0.83623,-2.66548 3.29266,-5.12191 0,0 2.66548,-2.71775 5.69681,-4.33794 0,0 0.10453,-0.0523 0.0523,-0.10453 -0.26132,-0.41812 -1.93378,-1.41114 -2.71775,-1.67246 -0.10453,-0.0523 -0.15679,0 -0.20906,0 -3.60624,1.04528 -7.00342,4.12888 -7.00342,4.12888 -5.17418,4.7038 -5.64456,9.30306 -5.64456,9.66891 0,1.46341 1.82926,2.97907 2.50869,2.97907 0.10453,0 0.20906,0 0.36585,-0.0523 2.87455,-0.94076 6.95117,-3.97209 9.19854,-6.32399 -0.83623,2.61322 -0.67944,3.50171 -0.67944,4.07662 0,1.41114 1.82925,2.40416 3.0836,2.40416 2.66548,0 8.3623,-5.48776 10.81872,-7.78739 -0.36585,-0.41812 -0.88849,-0.99302 -1.20208,-1.30661 -1.20208,1.09755 -6.16719,5.48776 -7.10795,5.48776 -0.10453,0 -0.1568,-0.0523 -0.1568,-0.15679 z"
           style="font-style:normal;font-variant:normal;font-weight:normal;font-stretch:normal;font-family:Yesteryear;-inkscape-font-specification:Yesteryear;fill:#050505;fill-opacity:1"
           id="path13141" />
        <path
           d="m 350.53443,902.24716 c 0.10453,-0.31359 0,-0.78397 -0.41812,-1.04529 0,0 -3.24039,-2.40416 -5.90587,-3.76303 0,-0.78397 -0.0523,-1.35888 -0.10453,-1.51567 -0.15679,-0.41811 -1.77699,-1.14982 -1.93378,-1.14982 -0.31359,0 -3.18813,4.28568 -3.18813,5.4355 0,0.15679 0.0523,0.26132 0.15679,0.31359 0,0 1.09756,0.88849 2.77002,1.93378 -1.14982,1.20208 -2.50869,2.50869 -3.39719,3.34492 l 1.20208,1.25434 c 1.14982,-0.99302 2.77001,-2.50869 3.86757,-3.6585 0.36585,0.20905 0.7317,0.41811 1.14981,0.5749 -0.31358,0.73171 -1.4634,2.92681 -2.45642,7.47381 0,1.20208 2.35189,2.77001 3.39718,2.77001 2.40416,0 8.41457,-5.38323 10.66193,-7.68286 -0.36585,-0.41812 -0.83623,-0.94076 -1.14981,-1.25435 -1.20208,1.04529 -6.27173,5.54003 -7.36928,5.54003 -0.10453,0 -0.15679,-0.0523 -0.15679,-0.15679 0,-1.14982 1.98604,-5.80135 2.87454,-8.41457 z"
           style="font-style:normal;font-variant:normal;font-weight:normal;font-stretch:normal;font-family:Yesteryear;-inkscape-font-specification:Yesteryear;fill:#050505;fill-opacity:1"
           id="path13143" />
      </g>
    </g>
  </g>
</svg>
