<?xml version="1.0" encoding="UTF-8" standalone="no"?>
<!-- Created with Inkscape (http://www.inkscape.org/) -->

<svg
   xmlns:dc="http://purl.org/dc/elements/1.1/"
   xmlns:cc="http://creativecommons.org/ns#"
   xmlns:rdf="http://www.w3.org/1999/02/22-rdf-syntax-ns#"
   xmlns:svg="http://www.w3.org/2000/svg"
   xmlns="http://www.w3.org/2000/svg"
   xmlns:xlink="http://www.w3.org/1999/xlink"
   xmlns:sodipodi="http://sodipodi.sourceforge.net/DTD/sodipodi-0.dtd"
   xmlns:inkscape="http://www.inkscape.org/namespaces/inkscape"
   version="1.1"
   width="100%"
   height="100%"
   id="ASI"
   inkscape:version="0.91 r13725"
   sodipodi:docname="Empty.svg"
   viewBox="0 0 512 512"
   preserveAspectRatio="xMinYMin meet">
  <title
     id="title5536">Airspeed Indicator</title>
  <defs
     id="defs3747">
    <linearGradient
       inkscape:collect="always"
       id="linearGradient12865">
      <stop
         style="stop-color:#151515;stop-opacity:1"
         offset="0"
         id="stop12867" />
      <stop
         id="stop12873"
         offset="0.87221068"
         style="stop-color:#0e0e0e;stop-opacity:1" />
      <stop
         style="stop-color:#080808;stop-opacity:1"
         offset="0.95222574"
         id="stop12877" />
      <stop
         style="stop-color:#000000;stop-opacity:1"
         offset="1"
         id="stop12869" />
    </linearGradient>
    <radialGradient
       inkscape:collect="always"
       xlink:href="#linearGradient12865"
       id="radialGradient12871"
       cx="-606.02588"
       cy="-589.34821"
       fx="-606.02588"
       fy="-589.34821"
       r="255.99997"
       gradientTransform="translate(0,1.3927177e-4)"
       gradientUnits="userSpaceOnUse" />
  </defs>
  <sodipodi:namedview
     id="base"
     bordercolor="#666666"
     borderopacity="1.0"
     inkscape:pageshadow="2"
     inkscape:zoom="1"
     inkscape:cx="187.29042"
     inkscape:cy="250.29687"
     inkscape:document-units="px"
     inkscape:current-layer="g4535"
     showgrid="false"
     borderlayer="true"
     inkscape:window-width="1366"
     inkscape:window-height="704"
     inkscape:window-x="0"
     inkscape:window-y="27"
     inkscape:window-maximized="1"
     inkscape:snap-bbox="true"
     inkscape:snap-bbox-midpoints="true"
     inkscape:snap-bbox-edge-midpoints="true"
     inkscape:bbox-nodes="true"
     inkscape:bbox-paths="true"
     inkscape:snap-global="true"
     inkscape:snap-center="true"
     inkscape:snap-page="true"
     inkscape:snap-object-midpoints="true"
     inkscape:object-paths="true"
     inkscape:snap-intersection-paths="true"
     inkscape:snap-smooth-nodes="true"
     inkscape:snap-midpoints="true"
     inkscape:object-nodes="true"
     inkscape:snap-text-baseline="true" />
  <metadata
     id="metadata3750">
    <rdf:RDF>
      <cc:Work
         rdf:about="">
        <dc:format>image/svg+xml</dc:format>
        <dc:type
           rdf:resource="http://purl.org/dc/dcmitype/StillImage" />
        <dc:title>Airspeed Indicator</dc:title>
        <dc:creator>
          <cc:Agent>
            <dc:title>Torsten Dreyer</dc:title>
          </cc:Agent>
        </dc:creator>
        <dc:rights>
          <cc:Agent>
            <dc:title>Torsten Dreyer</dc:title>
          </cc:Agent>
        </dc:rights>
        <dc:publisher>
          <cc:Agent>
            <dc:title>flightgear.org</dc:title>
          </cc:Agent>
        </dc:publisher>
        <cc:license
           rdf:resource="http://www.gnu.org/licenses/gpl-2.0.html" />
        <dc:date>2014-08-01</dc:date>
      </cc:Work>
    </rdf:RDF>
  </metadata>
  <g
     inkscape:label="Face"
     inkscape:groupmode="layer"
     id="Face"
     transform="translate(0,-540.36218)"
     style="display:inline;opacity:1">
    <ellipse
       style="opacity:1;fill:url(#radialGradient12871);fill-opacity:1;stroke:none;stroke-width:20;stroke-miterlimit:4;stroke-dasharray:none;stroke-opacity:1"
       id="path12863"
       transform="matrix(-0.88387547,-0.46772231,0.46772244,-0.8838754,0,0)"
       inkscape:transform-center-x="2.3138069"
       inkscape:transform-center-y="-9.8341511"
       cx="-598.7486"
       cy="-584.14807"
       rx="255.99997"
       ry="256.00003" />
    <g
       id="g4545"
       transform="matrix(1.2973348,0,0,1.2973348,-76.53428,-237.35144)">
      <g
         transform="matrix(0.5671816,0,0,0.5671816,111.19148,345.07012)"
         id="g4535">
        <rect
           ry="8"
           rx="8"
           y="691.88843"
           x="149.76305"
           height="219.802"
           width="219.802"
           id="rect4533"
           style="color:#000000;clip-rule:nonzero;display:inline;overflow:visible;visibility:visible;opacity:1;isolation:auto;mix-blend-mode:normal;color-interpolation:sRGB;color-interpolation-filters:linearRGB;solid-color:#000000;solid-opacity:1;fill:#1b1b1b;fill-opacity:1;fill-rule:nonzero;stroke:none;stroke-width:20;stroke-linecap:butt;stroke-linejoin:miter;stroke-miterlimit:4;stroke-dasharray:none;stroke-dashoffset:0;stroke-opacity:1;color-rendering:auto;image-rendering:auto;shape-rendering:auto;text-rendering:auto;enable-background:accumulate" />
        <rect
           style="color:#000000;clip-rule:nonzero;display:inline;overflow:visible;visibility:visible;opacity:1;isolation:auto;mix-blend-mode:normal;color-interpolation:sRGB;color-interpolation-filters:linearRGB;solid-color:#000000;solid-opacity:1;fill:#0a0a0a;fill-opacity:1;fill-rule:nonzero;stroke:none;stroke-width:20;stroke-linecap:butt;stroke-linejoin:miter;stroke-miterlimit:4;stroke-dasharray:none;stroke-dashoffset:0;stroke-opacity:1;color-rendering:auto;image-rendering:auto;shape-rendering:auto;text-rendering:auto;enable-background:accumulate"
           id="rect4519"
           width="219.802"
           height="219.802"
           x="145.99994"
           y="686.36218"
           rx="8"
           ry="8" />
        <g
           style="fill:#000000;fill-opacity:1"
           transform="matrix(0.82386358,0,0,0.82386358,561.26298,105.72351)"
           id="g4196">
          <path
             inkscape:connector-curvature="0"
             style="fill:#000000;fill-opacity:1"
             d="m -308,138 0,12.5 0,12.5 12.5,0 12.5,0 0,-12.5 0,-12.5 -12.5,0 -12.5,0 z m 25,25 0,12.5 0,12.5 12.5,0 12.5,0 0,-12.5 0,-12.5 -12.5,0 -12.5,0 z m 0,25 -12.5,0 -12.5,0 0,12.5 0,12.5 12.5,0 12.5,0 0,-12.5 0,-12.5 z m 0,25 0,12.5 0,12.5 12.5,0 12.5,0 0,-12.5 0,-12.5 -12.5,0 -12.5,0 z m 0,25 -12.5,0 -12.5,0 0,12.5 0,12.5 12.5,0 12.5,0 0,-12.5 0,-12.5 z m 0,25 0,12.5 0,12.5 12.5,0 12.5,0 0,-12.5 0,-12.5 -12.5,0 -12.5,0 z m 0,25 -12.5,0 -12.5,0 0,12.5 0,12.5 12.5,0 12.5,0 0,-12.5 0,-12.5 z m 0,25 0,12.5 0,12.5 12.5,0 12.5,0 0,-12.5 0,-12.5 -12.5,0 -12.5,0 z m -25,0 -12.5,0 -12.5,0 0,12.5 0,12.5 12.5,0 12.5,0 0,-12.5 0,-12.5 z m 0,-25 0,-12.5 0,-12.5 -12.5,0 -12.5,0 0,12.5 0,12.5 12.5,0 12.5,0 z m 0,-50 0,-12.5 0,-12.5 -12.5,0 -12.5,0 0,12.5 0,12.5 12.5,0 12.5,0 z m 0,-50 0,-12.5 0,-12.5 -12.5,0 -12.5,0 0,12.5 0,12.5 12.5,0 12.5,0 z"
             transform="matrix(1.2137932,0,0,1.2137932,-80.717247,556.40494)"
             id="path4192" />
          <path
             inkscape:connector-curvature="0"
             style="fill:#000000;fill-opacity:1"
             d="m -369.35726,932.43806 c -2.10707,-2.10707 -2.10707,-170.97983 0,-173.08691 2.096,-2.096 109.08746,-2.096 111.18346,0 0.95791,0.95791 1.45655,6.06897 1.45655,14.92966 0,8.86069 -0.49864,13.97174 -1.45655,14.92965 -1.06425,1.06425 -10.70835,1.45656 -35.8069,1.45656 l -34.35035,0 0,16.9931 0,16.99311 31.92276,0 c 23.21042,0 32.32028,0.39752 33.37932,1.45655 2.00333,2.00332 2.00333,27.85598 0,29.85931 -1.05904,1.05903 -10.1689,1.45655 -33.37932,1.45655 l -31.92276,0 0,36.77794 c 0,26.98666 -0.38777,37.1657 -1.45655,38.23448 -1.00426,1.00426 -7.14789,1.45655 -19.78483,1.45655 -12.63693,0 -18.78057,-0.45229 -19.78483,-1.45655 z"
             id="path4178" />
        </g>
        <g
           id="g4556"
           transform="matrix(0.82386358,0,0,0.82386358,555.8269,100.28743)"
           style="fill:#222222;fill-opacity:1">
          <path
             id="path4558"
             d="m -308,138 0,12.5 0,12.5 12.5,0 12.5,0 0,-12.5 0,-12.5 -12.5,0 -12.5,0 z m 25,25 0,12.5 0,12.5 12.5,0 12.5,0 0,-12.5 0,-12.5 -12.5,0 -12.5,0 z m 0,25 -12.5,0 -12.5,0 0,12.5 0,12.5 12.5,0 12.5,0 0,-12.5 0,-12.5 z m 0,25 0,12.5 0,12.5 12.5,0 12.5,0 0,-12.5 0,-12.5 -12.5,0 -12.5,0 z m 0,25 -12.5,0 -12.5,0 0,12.5 0,12.5 12.5,0 12.5,0 0,-12.5 0,-12.5 z m 0,25 0,12.5 0,12.5 12.5,0 12.5,0 0,-12.5 0,-12.5 -12.5,0 -12.5,0 z m 0,25 -12.5,0 -12.5,0 0,12.5 0,12.5 12.5,0 12.5,0 0,-12.5 0,-12.5 z m 0,25 0,12.5 0,12.5 12.5,0 12.5,0 0,-12.5 0,-12.5 -12.5,0 -12.5,0 z m -25,0 -12.5,0 -12.5,0 0,12.5 0,12.5 12.5,0 12.5,0 0,-12.5 0,-12.5 z m 0,-25 0,-12.5 0,-12.5 -12.5,0 -12.5,0 0,12.5 0,12.5 12.5,0 12.5,0 z m 0,-50 0,-12.5 0,-12.5 -12.5,0 -12.5,0 0,12.5 0,12.5 12.5,0 12.5,0 z m 0,-50 0,-12.5 0,-12.5 -12.5,0 -12.5,0 0,12.5 0,12.5 12.5,0 12.5,0 z"
             style="fill:#222222;fill-opacity:1"
             inkscape:connector-curvature="0"
             transform="matrix(1.2137932,0,0,1.2137932,-80.717247,556.40494)" />
          <path
             id="path4560"
             d="m -369.35726,932.43806 c -2.10707,-2.10707 -2.10707,-170.97983 0,-173.08691 2.096,-2.096 109.08746,-2.096 111.18346,0 0.95791,0.95791 1.45655,6.06897 1.45655,14.92966 0,8.86069 -0.49864,13.97174 -1.45655,14.92965 -1.06425,1.06425 -10.70835,1.45656 -35.8069,1.45656 l -34.35035,0 0,16.9931 0,16.99311 31.92276,0 c 23.21042,0 32.32028,0.39752 33.37932,1.45655 2.00333,2.00332 2.00333,27.85598 0,29.85931 -1.05904,1.05903 -10.1689,1.45655 -33.37932,1.45655 l -31.92276,0 0,36.77794 c 0,26.98666 -0.38777,37.1657 -1.45655,38.23448 -1.00426,1.00426 -7.14789,1.45655 -19.78483,1.45655 -12.63693,0 -18.78057,-0.45229 -19.78483,-1.45655 z"
             style="fill:#222222;fill-opacity:1"
             inkscape:connector-curvature="0" />
        </g>
        <g
           id="g4513"
           transform="matrix(0.82386358,0,0,0.82386358,557.49988,101.96041)"
           style="fill:#161616;fill-opacity:1">
          <path
             id="path4515"
             transform="matrix(1.2137932,0,0,1.2137932,-80.717247,556.40494)"
             d="m -308,138 0,12.5 0,12.5 12.5,0 12.5,0 0,-12.5 0,-12.5 -12.5,0 -12.5,0 z m 25,25 0,12.5 0,12.5 12.5,0 12.5,0 0,-12.5 0,-12.5 -12.5,0 -12.5,0 z m 0,25 -12.5,0 -12.5,0 0,12.5 0,12.5 12.5,0 12.5,0 0,-12.5 0,-12.5 z m 0,25 0,12.5 0,12.5 12.5,0 12.5,0 0,-12.5 0,-12.5 -12.5,0 -12.5,0 z m 0,25 -12.5,0 -12.5,0 0,12.5 0,12.5 12.5,0 12.5,0 0,-12.5 0,-12.5 z m 0,25 0,12.5 0,12.5 12.5,0 12.5,0 0,-12.5 0,-12.5 -12.5,0 -12.5,0 z m 0,25 -12.5,0 -12.5,0 0,12.5 0,12.5 12.5,0 12.5,0 0,-12.5 0,-12.5 z m 0,25 0,12.5 0,12.5 12.5,0 12.5,0 0,-12.5 0,-12.5 -12.5,0 -12.5,0 z m -25,0 -12.5,0 -12.5,0 0,12.5 0,12.5 12.5,0 12.5,0 0,-12.5 0,-12.5 z m 0,-25 0,-12.5 0,-12.5 -12.5,0 -12.5,0 0,12.5 0,12.5 12.5,0 12.5,0 z m 0,-50 0,-12.5 0,-12.5 -12.5,0 -12.5,0 0,12.5 0,12.5 12.5,0 12.5,0 z m 0,-50 0,-12.5 0,-12.5 -12.5,0 -12.5,0 0,12.5 0,12.5 12.5,0 12.5,0 z"
             style="fill:#161616;fill-opacity:1"
             inkscape:connector-curvature="0" />
          <path
             id="path4517"
             d="m -369.35726,932.43806 c -2.10707,-2.10707 -2.10707,-170.97983 0,-173.08691 2.096,-2.096 109.08746,-2.096 111.18346,0 0.95791,0.95791 1.45655,6.06897 1.45655,14.92966 0,8.86069 -0.49864,13.97174 -1.45655,14.92965 -1.06425,1.06425 -10.70835,1.45656 -35.8069,1.45656 l -34.35035,0 0,16.9931 0,16.99311 31.92276,0 c 23.21042,0 32.32028,0.39752 33.37932,1.45655 2.00333,2.00332 2.00333,27.85598 0,29.85931 -1.05904,1.05903 -10.1689,1.45655 -33.37932,1.45655 l -31.92276,0 0,36.77794 c 0,26.98666 -0.38777,37.1657 -1.45655,38.23448 -1.00426,1.00426 -7.14789,1.45655 -19.78483,1.45655 -12.63693,0 -18.78057,-0.45229 -19.78483,-1.45655 z"
             style="fill:#161616;fill-opacity:1"
             inkscape:connector-curvature="0" />
        </g>
      </g>
    </g>
  </g>
</svg>
