<?xml version="1.0" encoding="UTF-8" standalone="no"?>
<!-- Created with Inkscape (http://www.inkscape.org/) -->

<svg
   xmlns:dc="http://purl.org/dc/elements/1.1/"
   xmlns:cc="http://creativecommons.org/ns#"
   xmlns:rdf="http://www.w3.org/1999/02/22-rdf-syntax-ns#"
   xmlns:svg="http://www.w3.org/2000/svg"
   xmlns="http://www.w3.org/2000/svg"
   xmlns:xlink="http://www.w3.org/1999/xlink"
   xmlns:sodipodi="http://sodipodi.sourceforge.net/DTD/sodipodi-0.dtd"
   xmlns:inkscape="http://www.inkscape.org/namespaces/inkscape"
   version="1.1"
   width="100%"
   height="100%"
   id="ALT"
   inkscape:version="0.48.3.1 r9886"
   sodipodi:docname="TC.svg"
   viewBox="0 0 512 512"
   preserveAspectRatio="xMinYMin meet">
  <title
     id="title3023">Turn Coordinator</title>
  <defs
     id="defs3747">
    <filter
       color-interpolation-filters="sRGB"
       id="filter7320">
      <feGaussianBlur
         id="feGaussianBlur7322"
         stdDeviation="1.560427" />
    </filter>
    <filter
       x="-0.15478399"
       y="-0.095661767"
       width="1.309568"
       height="1.1913235"
       color-interpolation-filters="sRGB"
       id="filter7390">
      <feGaussianBlur
         id="feGaussianBlur7392"
         stdDeviation="2.6718665" />
    </filter>
    <filter
       x="-0.025320208"
       y="-0.4602949"
       width="1.0506403"
       height="1.9205898"
       color-interpolation-filters="sRGB"
       id="filter7296">
      <feGaussianBlur
         id="feGaussianBlur7298"
         stdDeviation="2.5395566" />
    </filter>
    <linearGradient
       id="linearGradient7280">
      <stop
         id="stop7282"
         style="stop-color:#989898;stop-opacity:1"
         offset="0" />
      <stop
         id="stop7284"
         style="stop-color:#161616;stop-opacity:1"
         offset="1" />
    </linearGradient>
    <filter
       x="-0.012963847"
       y="-0.21167447"
       width="1.0259277"
       height="1.4233489"
       color-interpolation-filters="sRGB"
       id="filter7272">
      <feGaussianBlur
         id="feGaussianBlur7274"
         stdDeviation="1.3586542" />
    </filter>
    <radialGradient
       inkscape:collect="always"
       xlink:href="#linearGradient7280"
       id="radialGradient4583"
       gradientUnits="userSpaceOnUse"
       gradientTransform="matrix(1.0340996,0.02815312,-0.03274765,1.2028624,-174.98251,-103.73414)"
       cx="436.2619"
       cy="383.55603"
       fx="436.2619"
       fy="383.55603"
       r="21.234371" />
  </defs>
  <sodipodi:namedview
     id="base"
     bordercolor="#666666"
     borderopacity="1.0"
     inkscape:pageshadow="2"
     inkscape:zoom="1.1015625"
     inkscape:cx="415.04681"
     inkscape:cy="254.48781"
     inkscape:document-units="px"
     inkscape:current-layer="ALT"
     showgrid="false"
     borderlayer="true"
     inkscape:window-width="1236"
     inkscape:window-height="782"
     inkscape:window-x="40"
     inkscape:window-y="-1"
     inkscape:window-maximized="1"
     showguides="true"
     inkscape:guide-bbox="true" />
  <metadata
     id="metadata3750">
    <rdf:RDF>
      <cc:Work
         rdf:about="">
        <dc:format>image/svg+xml</dc:format>
        <dc:type
           rdf:resource="http://purl.org/dc/dcmitype/StillImage" />
        <dc:title>Turn Coordinator</dc:title>
        <dc:creator>
          <cc:Agent>
            <dc:title>Torsten Dreyer</dc:title>
          </cc:Agent>
        </dc:creator>
        <dc:rights>
          <cc:Agent>
            <dc:title>Torsten Dreyer</dc:title>
          </cc:Agent>
        </dc:rights>
        <dc:publisher>
          <cc:Agent>
            <dc:title>flightgear.org</dc:title>
          </cc:Agent>
        </dc:publisher>
        <cc:license
           rdf:resource="http://www.gnu.org/licenses/gpl-2.0.html" />
        <dc:date>2014-09-24</dc:date>
      </cc:Work>
    </rdf:RDF>
  </metadata>
  <g
     inkscape:groupmode="layer"
     id="Face"
     inkscape:label="Face"
     style="display:inline">
    <path
       inkscape:connector-curvature="0"
       style="fill:#c1c2a9;fill-opacity:1;fill-rule:evenodd;stroke:none"
       id="rect7294"
       d="m 422.8324,345.34948 c 6.68867,3.80313 -13.57514,53.68166 -18.00556,61.39426 L 251.36486,439.51279 104.84248,410.86839 87.825749,347.53691 422.8324,345.34948 z" />
    <g
       id="Ball">
      <path
         d="m 462.49999,391.78574 a 20.714285,33.516418 0 1 1 -41.42857,0 20.714285,33.516418 0 1 1 41.42857,0 z"
         transform="matrix(1.5211083,0,0,1.0802908,-413.32691,-21.671132)"
         id="path7384"
         style="fill:#000000;fill-opacity:0.57213931;stroke:none;filter:url(#filter7390)"
         inkscape:connector-curvature="0" />
      <path
         inkscape:connector-curvature="0"
         style="fill:url(#radialGradient4583);fill-opacity:1;stroke:none"
         id="path7231"
         d="m 281.8968,400.03405 a 31.508672,36.207478 0 1 1 -63.01734,0 31.508672,36.207478 0 1 1 63.01734,0 z" />
    </g>
    <path
       inkscape:connector-curvature="0"
       style="opacity:0.7;fill:none;stroke:#fbf7d3;stroke-width:8.99965286;stroke-linecap:round;stroke-linejoin:miter;stroke-miterlimit:4;stroke-opacity:1;stroke-dasharray:none;filter:url(#filter7296)"
       id="path7256"
       d="m 382.19428,378.97327 c -47.33809,11.3318 -95.59887,14.35943 -144.50945,11.53893"
       transform="matrix(1.4704047,0,0,1.2091331,-130.94241,-83.673262)" />
    <path
       inkscape:connector-curvature="0"
       style="fill:none;stroke:#262626;stroke-width:3;stroke-linecap:butt;stroke-linejoin:miter;stroke-miterlimit:4;stroke-opacity:1;stroke-dasharray:none"
       id="path7223"
       d="m 283.51834,429.7478 c 2.78667,-20.54685 3.15004,-41.0937 0,-61.64055 m -67.25603,61.64055 c -2.78667,-20.54685 -3.15003,-41.0937 0,-61.64055" />
    <path
       id="path7233"
       transform="matrix(1.4704047,0,0,1.2091331,-130.94241,-83.673262)"
       style="fill:none;stroke:#ffffff;stroke-width:1.49994206;stroke-linecap:butt;stroke-linejoin:miter;stroke-miterlimit:4;stroke-opacity:1;stroke-dasharray:none;filter:url(#filter7272)"
       d="m 388.8032,375.8793 c -85.69481,34.99897 -172.00699,28.81642 -251.52798,-1.51523 m 251.52798,-3.28299 c -83.84266,29.74347 -167.68532,28.06563 -251.52798,-1.51523"
       inkscape:connector-curvature="0"
       sodipodi:nodetypes="cccc" />
    <path
       inkscape:connector-curvature="0"
       style="fill:#0a0a0a;fill-opacity:1;stroke:none"
       id="path7226"
       d="M 256,0 C 114.61739,0 0.02292,114.64032 0.02292,256.02292 0.02292,397.40553 114.61739,512 256,512 397.38261,512 511.97708,397.40553 511.97708,256.02292 511.97708,114.64032 397.38261,0 256,0 z M 124.47779,352.22953 c 56.83207,12.6846 93.60689,17.46907 131.52221,17.46907 37.91532,0 74.69015,-4.78418 131.52222,-17.46878 13.75263,-3.0695 25.17869,-6.04721 24.48356,7.4276 -1.21996,23.64886 2.13979,39.71033 -20.76976,47.53075 -53.6581,18.31674 -105.1801,22.97069 -135.23602,22.97069 -30.05592,0 -81.57792,-4.65424 -135.23602,-22.97098 -22.909555,-7.82043 -19.54981,-23.88189 -20.769765,-47.53076 0.950195,-15.10746 15.341295,-9.4705 24.483575,-7.42759 z"
       sodipodi:nodetypes="ssssscsssssscc" />
    <path
       id="path3089"
       style="font-size:20.85845757px;font-style:normal;font-variant:normal;font-weight:normal;font-stretch:normal;text-align:start;line-height:100%;letter-spacing:0px;word-spacing:0px;writing-mode:lr-tb;text-anchor:start;fill:#f0f0f0;fill-opacity:1;stroke:none;font-family:Liberation Sans;-inkscape-font-specification:Liberation Sans"
       d="m 282.13111,63.394408 0,-2.251595 1.96741,0 0,2.251595 -1.96741,0 m -8.82807,-13.098321 c -0.80715,1.3e-5 -1.52348,0.137096 -2.14901,0.411249 -0.61881,0.27418 -1.14009,0.664867 -1.56383,1.172064 -0.41703,0.50722 -0.73315,1.117241 -0.94839,1.830064 -0.21524,0.712843 -0.32286,1.504498 -0.32286,2.374971 0,0.870486 0.11435,1.668996 0.34304,2.395533 0.23541,0.719691 0.56836,1.339993 0.99883,1.860906 0.4372,0.52092 0.96857,0.925316 1.5941,1.213189 0.63226,0.287877 1.34187,0.431815 2.12883,0.431813 0.55154,2e-6 1.05263,-0.07197 1.50329,-0.215906 0.45737,-0.150791 0.86768,-0.359842 1.2309,-0.627157 0.36992,-0.26731 0.6995,-0.582602 0.98874,-0.945876 0.28921,-0.370122 0.5448,-0.777944 0.76678,-1.223469 l 1.57392,0.801938 c -0.25561,0.541482 -0.57173,1.045263 -0.94839,1.511344 -0.37668,0.466086 -0.8206,0.870481 -1.33177,1.213189 -0.50447,0.342709 -1.07957,0.613448 -1.72526,0.812219 -0.639,0.191917 -1.35533,0.287875 -2.14901,0.287875 -1.15018,0 -2.15911,-0.185062 -3.02677,-0.555188 -0.86096,-0.376979 -1.58402,-0.897895 -2.16919,-1.562751 -0.57845,-0.671706 -1.01229,-1.466789 -1.30151,-2.385252 -0.28923,-0.918453 -0.43384,-1.922588 -0.43384,-3.012407 0,-1.13093 0.15134,-2.152201 0.45402,-3.063815 0.3094,-0.911593 0.75669,-1.686114 1.34187,-2.323564 0.5919,-0.644279 1.31833,-1.137779 2.17927,-1.480502 0.86095,-0.349547 1.84297,-0.524329 2.94606,-0.524343 1.51337,1.4e-5 2.77789,0.301597 3.79355,0.90475 1.01564,0.603181 1.76224,1.497649 2.23981,2.683408 l -1.82615,0.616876 c -0.13454,-0.342698 -0.31615,-0.668271 -0.54482,-0.97672 -0.2287,-0.31528 -0.51456,-0.592874 -0.85759,-0.832782 -0.34304,-0.239883 -0.74661,-0.4318 -1.2107,-0.57575 -0.45739,-0.143925 -0.98203,-0.215893 -1.57392,-0.215906 m -20.09776,13.098321 0,-14.486291 10.7854,0 0,1.603876 -8.85835,0 0,4.647128 8.25299,0 0,1.583313 -8.25299,0 0,5.048098 9.272,0 0,1.603876 -11.19905,0 m -11.50173,0 0,-14.486291 1.92704,0 0,12.882415 7.18354,0 0,1.603876 -9.11058,0 m -13.80207,0 0,-14.486291 10.78539,0 0,1.603876 -8.85835,0 0,4.647128 8.253,0 0,1.583313 -8.253,0 0,5.048098 9.27201,0 0,1.603876 -11.19905,0 m 45.00807,-22.101404 0,-2.251595 1.96741,0 0,2.251595 -1.96741,0 m -8.82807,-13.098321 c -0.80715,1.3e-5 -1.52348,0.137096 -2.14901,0.411249 -0.61882,0.27418 -1.14009,0.664867 -1.56384,1.172064 -0.41702,0.50722 -0.73315,1.117241 -0.94839,1.830064 -0.21524,0.712843 -0.32285,1.504498 -0.32285,2.37497 0,0.870486 0.11434,1.668997 0.34303,2.395533 0.23541,0.719692 0.56836,1.339994 0.99884,1.860907 0.43719,0.52092 0.96856,0.925316 1.5941,1.213189 0.63225,0.287876 1.34186,0.431814 2.12882,0.431813 0.55154,10e-7 1.05264,-0.07197 1.5033,-0.215907 0.45737,-0.15079 0.86767,-0.359841 1.23089,-0.627156 0.36992,-0.26731 0.69951,-0.582603 0.98874,-0.945876 0.28922,-0.370122 0.54481,-0.777945 0.76679,-1.22347 l 1.57392,0.801938 c -0.25561,0.541483 -0.57174,1.045264 -0.94839,1.511345 -0.37668,0.466085 -0.8206,0.870481 -1.33178,1.213189 -0.50447,0.342708 -1.07956,0.613448 -1.72526,0.812218 -0.63899,0.191917 -1.35532,0.287875 -2.14901,0.287876 -1.15017,-1e-6 -2.1591,-0.185063 -3.02677,-0.555188 -0.86095,-0.376979 -1.58401,-0.897895 -2.16919,-1.562751 -0.57845,-0.671706 -1.01228,-1.466789 -1.30151,-2.385252 -0.28922,-0.918453 -0.43383,-1.922588 -0.43383,-3.012408 0,-1.130929 0.15134,-2.1522 0.45401,-3.063814 0.30941,-0.911594 0.75669,-1.686114 1.34187,-2.323564 0.59191,-0.644279 1.31833,-1.137779 2.17928,-1.480502 0.86094,-0.349547 1.84296,-0.524329 2.94606,-0.524343 1.51337,1.4e-5 2.77789,0.301597 3.79355,0.90475 1.01564,0.603181 1.76224,1.497649 2.2398,2.683408 l -1.82614,0.616875 c -0.13454,-0.342697 -0.31615,-0.66827 -0.54482,-0.976719 -0.2287,-0.31528 -0.51457,-0.592874 -0.85759,-0.832782 -0.34304,-0.239883 -0.74662,-0.4318 -1.21071,-0.57575 -0.45739,-0.143925 -0.98202,-0.215893 -1.57391,-0.215906 m -11.83468,13.098321 0,-2.251595 1.9674,0 0,2.251595 -1.9674,0 m -2.88552,-7.392224 c -1e-5,1.20634 -0.17826,2.272163 -0.53473,3.197471 -0.3565,0.918462 -0.84414,1.689556 -1.46294,2.313283 -0.61882,0.616876 -1.35197,1.086387 -2.19945,1.408532 -0.84078,0.315292 -1.74881,0.472938 -2.7241,0.472938 l -5.31702,0 0,-14.486292 4.70158,0 c 1.09635,1.5e-5 2.10528,0.140526 3.02677,0.421532 0.9282,0.274181 1.72525,0.702566 2.39115,1.285157 0.66588,0.575763 1.18379,1.309158 1.55374,2.200189 0.37665,0.891053 0.56499,1.953447 0.565,3.18719 m -1.93714,0 c -1e-5,-0.980138 -0.13789,-1.816346 -0.41365,-2.508627 -0.27579,-0.699115 -0.66254,-1.271437 -1.16027,-1.716969 -0.49775,-0.445509 -1.09301,-0.771082 -1.78579,-0.97672 -0.6928,-0.212467 -1.45286,-0.318706 -2.28017,-0.318719 l -2.73418,0 0,11.340226 3.16802,0 c 0.7466,2e-6 1.43603,-0.123372 2.06829,-0.370125 0.63898,-0.246748 1.19053,-0.613445 1.65464,-1.100094 0.46409,-0.486643 0.8273,-1.093236 1.08963,-1.819783 0.26232,-0.726537 0.39347,-1.569599 0.39348,-2.529189 m -178.404257,361.7206 0,-31.03266 5.439223,0 0,26.01106 13.939161,0 0,5.0216 -19.378384,0 m 370.982787,0 -6.02925,-11.78315 -6.37956,0 0,11.78315 -5.43922,0 0,-31.03266 12.98038,0 c 1.62253,3e-5 3.03611,0.22028 4.24075,0.66074 1.21689,0.42584 2.23098,1.04253 3.04228,1.85007 0.81125,0.79291 1.41355,1.76199 1.80692,2.90725 0.40561,1.13061 0.60843,2.40804 0.60846,3.83227 -3e-5,1.15999 -0.14753,2.22451 -0.44251,3.19358 -0.28274,0.95441 -0.68223,1.80603 -1.19847,2.55484 -0.504,0.74886 -1.10631,1.38023 -1.80694,1.89413 -0.70066,0.49923 -1.46277,0.8663 -2.28631,1.10122 l 7.0249,13.03856 -6.12143,0 m -0.64534,-21.51803 c -10e-6,-1.51234 -0.41795,-2.63558 -1.25379,-3.36977 -0.82358,-0.73412 -2.00361,-1.1012 -3.5401,-1.10122 l -6.96958,0 0,9.16223 7.11708,0 c 0.81126,2e-5 1.50577,-0.1101 2.0835,-0.33036 0.59001,-0.23492 1.06939,-0.55795 1.43817,-0.96909 0.38103,-0.42579 0.66375,-0.92501 0.84815,-1.49767 0.18436,-0.57262 0.27656,-1.20399 0.27657,-1.89412 m -117.6886,118.81915 -7.40621,-12.73526 c 0.0131,0.34669 0.0294,0.68983 0.0492,1.02943 0.0131,0.2901 0.0229,0.59786 0.0294,0.92331 0.0131,0.31839 0.0196,0.6014 0.0196,0.84902 l 0,9.9335 -1.66984,0 0,-14.95332 2.18061,0 7.48479,12.82017 c -0.0196,-0.34668 -0.0393,-0.69337 -0.059,-1.04005 -0.0131,-0.29716 -0.0262,-0.61907 -0.0393,-0.96576 -0.0131,-0.35375 -0.0196,-0.68983 -0.0196,-1.00821 l 0,-9.80615 1.68948,0 0,14.95332 -2.25919,0 m -11.58073,-7.54564 c -2e-5,1.16741 -0.15719,2.22868 -0.47149,3.18381 -0.30779,0.95515 -0.75635,1.77233 -1.34569,2.45154 -0.58937,0.67922 -1.30969,1.20277 -2.16096,1.57069 -0.8513,0.36791 -1.81719,0.55186 -2.89766,0.55186 -1.13942,0 -2.13804,-0.19103 -2.99588,-0.57309 -0.85784,-0.38914 -1.57162,-0.92684 -2.14132,-1.61313 -0.5697,-0.69336 -0.99863,-1.51408 -1.28675,-2.46215 -0.28814,-0.94807 -0.43219,-1.98457 -0.43219,-3.10953 0,-1.16739 0.1506,-2.22158 0.45183,-3.16259 0.30122,-0.94098 0.74324,-1.74048 1.32605,-2.39848 0.5828,-0.66504 1.29985,-1.17446 2.15114,-1.52823 0.85783,-0.36081 1.84008,-0.54123 2.94677,-0.54125 1.10012,2e-5 2.07582,0.18044 2.92712,0.54125 0.85783,0.36084 1.57487,0.8738 2.15114,1.53884 0.58279,0.66508 1.02481,1.46812 1.32605,2.40909 0.30121,0.94101 0.45182,1.98813 0.45184,3.14137 m -1.9154,0 c -2e-5,-0.89854 -0.10807,-1.71572 -0.32415,-2.45154 -0.20956,-0.7358 -0.52388,-1.36549 -0.94296,-1.88907 -0.41256,-0.52354 -0.92662,-0.92683 -1.54215,-1.20985 -0.61556,-0.28298 -1.32605,-0.42449 -2.13149,-0.4245 -0.82511,10e-6 -1.54871,0.14152 -2.17079,0.4245 -0.6221,0.28302 -1.1427,0.68631 -1.56179,1.20985 -0.41255,0.52358 -0.72359,1.15327 -0.93314,1.88907 -0.203,0.73582 -0.3045,1.553 -0.3045,2.45154 0,0.89855 0.10477,1.7228 0.31432,2.47276 0.21609,0.74289 0.53041,1.38673 0.94297,1.93152 0.41909,0.53771 0.93641,0.95869 1.55196,1.26291 0.62209,0.29716 1.33586,0.44574 2.14132,0.44574 0.86438,0 1.60761,-0.15212 2.22972,-0.45635 0.62864,-0.30423 1.14268,-0.7252 1.54215,-1.26292 0.40598,-0.54478 0.70393,-1.19215 0.89385,-1.94212 0.19643,-0.74996 0.29466,-1.56714 0.29468,-2.45154 m -16.49209,7.54564 0,-14.95332 1.87611,0 0,14.95332 -1.87611,0 m -7.08206,-13.29774 0,13.29774 -1.86629,0 0,-13.29774 -4.75412,0 0,-1.65558 11.37453,0 0,1.65558 -4.75412,0 m -7.55355,13.29774 -1.58143,-4.37244 -6.30608,0 -1.59126,4.37244 -1.94487,0 5.64798,-14.95332 2.13149,0 5.55957,14.95332 -1.9154,0 m -3.9192,-10.88865 c -0.10479,-0.283 -0.20628,-0.56953 -0.3045,-0.85963 -0.0917,-0.29007 -0.17353,-0.55185 -0.24556,-0.78534 -0.0721,-0.24054 -0.13425,-0.43865 -0.18663,-0.59431 -0.0459,-0.16272 -0.0721,-0.26177 -0.0786,-0.29716 -0.0131,0.0353 -0.0426,0.13444 -0.0884,0.29716 -0.0458,0.16274 -0.10806,0.36438 -0.18663,0.60492 -0.0721,0.24057 -0.15717,0.50589 -0.25539,0.79596 -0.0917,0.29009 -0.18664,0.57663 -0.28485,0.85963 l -1.76807,4.91369 5.17649,0 -1.77788,-4.93492 m -10.90302,10.88865 0,-9.97596 c -2e-5,-0.36082 0.003,-0.72873 0.01,-1.10372 0.007,-0.37497 0.0164,-0.71811 0.0294,-1.02943 0.0131,-0.36082 0.0294,-0.71104 0.0492,-1.05066 -0.0917,0.36084 -0.18665,0.71814 -0.28485,1.07188 -0.0851,0.30425 -0.1801,0.62971 -0.28486,0.97637 -0.0982,0.33962 -0.19647,0.64739 -0.29468,0.92331 l -3.57541,10.18821 -1.31622,0 -3.62453,-10.18821 c -0.0393,-0.10612 -0.0819,-0.22994 -0.12769,-0.37144 -0.0393,-0.14149 -0.0851,-0.29007 -0.13751,-0.44574 -0.0458,-0.16271 -0.095,-0.32544 -0.14734,-0.48818 -0.0459,-0.1698 -0.0917,-0.33606 -0.13752,-0.4988 -0.11133,-0.37497 -0.21938,-0.76411 -0.32414,-1.1674 0.007,0.39622 0.0163,0.78889 0.0294,1.17801 0.0131,0.33255 0.0229,0.68277 0.0294,1.05066 0.007,0.36084 0.01,0.67922 0.01,0.95514 l 0,9.97596 -1.66984,0 0,-14.95332 2.46546,0 3.68346,10.36863 c 0.0458,0.14151 0.10149,0.32546 0.16699,0.55186 0.0654,0.21933 0.12768,0.44573 0.18663,0.67921 0.059,0.23348 0.11131,0.45635 0.15716,0.6686 0.0523,0.20519 0.0884,0.36438 0.10805,0.47758 0.0196,-0.1132 0.0556,-0.27593 0.10804,-0.48819 0.0523,-0.21225 0.11131,-0.43512 0.17681,-0.6686 0.0721,-0.23348 0.14078,-0.45988 0.20627,-0.67921 0.0654,-0.21933 0.12441,-0.39974 0.17681,-0.54125 l 3.6147,-10.36863 2.40653,0 0,14.95332 -1.68948,0 m -16.52179,0 -3.59506,-6.20844 -4.3121,0 0,6.20844 -1.87611,0 0,-14.95332 6.51236,0 c 0.78579,2e-5 1.47992,0.0991 2.08238,0.29715 0.60899,0.19105 1.11976,0.47052 1.53232,0.83841 0.41254,0.36792 0.72686,0.81719 0.94297,1.34782 0.21607,0.53064 0.32412,1.1285 0.32414,1.79355 -2e-5,0.47404 -0.0655,0.941 -0.19645,1.40087 -0.12443,0.4599 -0.32416,0.88087 -0.59918,1.26292 -0.27504,0.38207 -0.62538,0.71106 -1.05101,0.98698 -0.42566,0.27594 -0.93643,0.47051 -1.53232,0.5837 l 3.92902,6.44192 -2.16096,0 m -0.27503,-10.65517 c -1e-5,-0.4528 -0.0721,-0.84546 -0.2161,-1.17801 -0.14407,-0.33252 -0.35362,-0.60845 -0.62864,-0.82779 -0.27504,-0.22639 -0.60901,-0.39266 -1.0019,-0.4988 -0.39291,-0.11319 -0.8382,-0.16979 -1.33587,-0.16981 l -4.44962,0 0,5.51862 4.5282,0 c 0.53696,1e-5 1.00189,-0.0708 1.3948,-0.21225 0.3929,-0.14857 0.71376,-0.35021 0.96261,-0.60493 0.25538,-0.25469 0.44201,-0.55538 0.55989,-0.90208 0.1244,-0.34668 0.18662,-0.72166 0.18663,-1.12495 m -12.11122,3.10953 c -2e-5,1.16741 -0.15718,2.22868 -0.47148,3.18381 -0.30779,0.95515 -0.75635,1.77233 -1.34569,2.45154 -0.58937,0.67922 -1.30969,1.20277 -2.16097,1.57069 -0.8513,0.36791 -1.81718,0.55186 -2.89765,0.55186 -1.13943,0 -2.13805,-0.19103 -2.99588,-0.57309 -0.85785,-0.38914 -1.57161,-0.92684 -2.14132,-1.61313 -0.56971,-0.69336 -0.99863,-1.51408 -1.28676,-2.46215 -0.28812,-0.94807 -0.43219,-1.98457 -0.43219,-3.10953 0,-1.16739 0.15061,-2.22158 0.45184,-3.16259 0.30123,-0.94098 0.74324,-1.74048 1.32605,-2.39848 0.5828,-0.66504 1.29984,-1.17446 2.15114,-1.52823 0.85783,-0.36081 1.84009,-0.54123 2.94676,-0.54125 1.10012,2e-5 2.07583,0.18044 2.92713,0.54125 0.85782,0.36084 1.57487,0.8738 2.15114,1.53884 0.58279,0.66508 1.02481,1.46812 1.32604,2.40909 0.30121,0.94101 0.45182,1.98813 0.45184,3.14137 m -1.9154,0 c -1e-5,-0.89854 -0.10806,-1.71572 -0.32414,-2.45154 -0.20957,-0.7358 -0.52389,-1.36549 -0.94297,-1.88907 -0.41256,-0.52354 -0.9266,-0.92683 -1.54214,-1.20985 -0.61556,-0.28298 -1.32606,-0.42449 -2.1315,-0.4245 -0.8251,10e-6 -1.54869,0.14152 -2.17078,0.4245 -0.6221,0.28302 -1.1427,0.68631 -1.56179,1.20985 -0.41255,0.52358 -0.7236,1.15327 -0.93314,1.88907 -0.20301,0.73582 -0.3045,1.553 -0.3045,2.45154 0,0.89855 0.10477,1.7228 0.31432,2.47276 0.2161,0.74289 0.53042,1.38673 0.94297,1.93152 0.41909,0.53771 0.93641,0.95869 1.55196,1.26291 0.62209,0.29716 1.33586,0.44574 2.14132,0.44574 0.86437,0 1.60762,-0.15212 2.22972,-0.45635 0.62863,-0.30423 1.14268,-0.7252 1.54214,-1.26292 0.40599,-0.54478 0.70394,-1.19215 0.89386,-1.94212 0.19644,-0.74996 0.29466,-1.56714 0.29467,-2.45154 m -21.54087,-5.7521 0,5.56107 7.72053,0 0,1.67681 -7.72053,0 0,6.05986 -1.87611,0 0,-14.95332 9.83238,0 0,1.65558 -7.95627,0 m -7.43568,13.29774 -7.40621,-12.73526 c 0.0131,0.34669 0.0294,0.68983 0.0492,1.02943 0.0131,0.2901 0.0229,0.59786 0.0294,0.92331 0.0131,0.31839 0.0196,0.6014 0.0196,0.84902 l 0,9.9335 -1.66983,0 0,-14.95332 2.18061,0 7.48479,12.82017 c -0.0196,-0.34668 -0.0394,-0.69337 -0.059,-1.04005 -0.0131,-0.29716 -0.0262,-0.61907 -0.0392,-0.96576 -0.0131,-0.35375 -0.0196,-0.68983 -0.0196,-1.00821 l 0,-9.80615 1.68948,0 0,14.95332 -2.25919,0 m -14.35081,0 0,-14.95332 1.87611,0 0,14.95332 -1.87611,0 m 113.6826,-22.15438 0,-6.71366 -7.688,0 0,6.71366 -1.92704,0 0,-14.48629 1.92704,0 0,6.12763 7.688,0 0,-6.12763 1.92704,0 0,14.48629 -1.92704,0 M 283.50326,457.6698 c -0.80715,10e-6 -1.52348,0.13709 -2.14901,0.41125 -0.61881,0.27418 -1.14008,0.66486 -1.56383,1.17206 -0.41703,0.50722 -0.73315,1.11724 -0.94838,1.83006 -0.21525,0.71284 -0.32287,1.5045 -0.32286,2.37498 -1e-5,0.87048 0.11434,1.66899 0.34303,2.39552 0.23541,0.71969 0.56836,1.34 0.99883,1.86091 0.4372,0.52092 0.96857,0.92532 1.59411,1.21319 0.63225,0.28788 1.34186,0.43182 2.12882,0.43182 0.55154,0 1.05264,-0.072 1.5033,-0.21591 0.45737,-0.15079 0.86767,-0.35985 1.23089,-0.62715 0.36992,-0.26732 0.69951,-0.58261 0.98874,-0.94589 0.28921,-0.37011 0.54481,-0.77794 0.76679,-1.22347 l 1.57391,0.80195 c -0.25561,0.54148 -0.57173,1.04525 -0.94839,1.51134 -0.37667,0.46609 -0.82059,0.87048 -1.33177,1.21319 -0.50447,0.3427 -1.07956,0.61345 -1.72526,0.81222 -0.639,0.19191 -1.35533,0.28787 -2.14901,0.28787 -1.15017,0 -2.1591,-0.18506 -3.02677,-0.55519 -0.86096,-0.37697 -1.58401,-0.89789 -2.16918,-1.56275 -0.57846,-0.6717 -1.0123,-1.46678 -1.30152,-2.38525 -0.28922,-0.91845 -0.43384,-1.92259 -0.43383,-3.0124 -10e-6,-1.13093 0.15134,-2.15221 0.45401,-3.06382 0.3094,-0.91159 0.75669,-1.68612 1.34187,-2.32356 0.5919,-0.64429 1.31833,-1.13779 2.17927,-1.4805 0.86095,-0.34955 1.84297,-0.52433 2.94606,-0.52435 1.51337,2e-5 2.7779,0.3016 3.79356,0.90475 1.01563,0.60318 1.76224,1.49765 2.2398,2.68341 l -1.82615,0.61687 c -0.13454,-0.34269 -0.31614,-0.66827 -0.54482,-0.97671 -0.22869,-0.31529 -0.51456,-0.59288 -0.85758,-0.83278 -0.34305,-0.2399 -0.74662,-0.43181 -1.21071,-0.57576 -0.45739,-0.14392 -0.98203,-0.21589 -1.57392,-0.2159 m -13.35814,0.2159 0,12.88242 -1.91696,0 0,-12.88242 -4.88319,0 0,-1.60387 11.68334,0 0,1.60387 -4.88319,0 m -11.08808,12.88242 0,-14.48629 1.92705,0 0,14.48629 -1.92705,0 m -3.01668,-10.12704 c -1e-5,0.63059 -0.10427,1.22005 -0.31276,1.76838 -0.2018,0.54149 -0.50784,1.01443 -0.91813,1.41881 -0.40357,0.39755 -0.9114,0.71284 -1.52347,0.94587 -0.61209,0.23305 -1.32507,0.34957 -2.13892,0.34956 l -4.17695,0 0,5.64442 -1.92704,0 0,-14.48629 5.98292,0 c 0.84077,2e-5 1.57391,0.10625 2.19946,0.31872 0.62551,0.20563 1.1468,0.50036 1.56383,0.88418 0.41701,0.377 0.72977,0.83623 0.9383,1.37769 0.20849,0.53464 0.31275,1.12753 0.31276,1.77866 m -1.93714,0.0206 c -1e-5,-0.91845 -0.27577,-1.61415 -0.82731,-2.08709 -0.55156,-0.47978 -1.37887,-0.71968 -2.48195,-0.7197 l -3.82383,0 0,5.71639 3.90454,0 c 1.10981,10e-6 1.92367,-0.25017 2.4416,-0.75053 0.52463,-0.50035 0.78694,-1.22004 0.78695,-2.15907 m -17.46446,2.79647 c -2e-5,1.13094 -0.16144,2.15906 -0.48428,3.08438 -0.31614,0.92531 -0.77689,1.71696 -1.38223,2.37496 -0.60536,0.658 -1.34524,1.16521 -2.21962,1.52162 -0.87442,0.35643 -1.86653,0.53463 -2.97633,0.53463 -1.17036,0 -2.19609,-0.18506 -3.07722,-0.55519 -0.88113,-0.37697 -1.61428,-0.89789 -2.19945,-1.56275 -0.58518,-0.6717 -1.02574,-1.46678 -1.32169,-2.38525 -0.29596,-0.91845 -0.44393,-1.92259 -0.44393,-3.0124 0,-1.13093 0.1547,-2.15221 0.46411,-3.06382 0.3094,-0.91159 0.76341,-1.68612 1.36204,-2.32356 0.59863,-0.64429 1.33514,-1.13779 2.20954,-1.4805 0.88113,-0.34955 1.89005,-0.52433 3.02677,-0.52435 1.12999,2e-5 2.13219,0.1748 3.0066,0.52435 0.88111,0.34957 1.61763,0.8465 2.20954,1.49078 0.59861,0.6443 1.05263,1.42225 1.36205,2.33384 0.30939,0.91162 0.46408,1.92603 0.4641,3.04326 m -1.9674,0 c -1e-5,-0.87048 -0.11099,-1.66214 -0.33294,-2.37498 -0.21525,-0.71282 -0.53811,-1.32284 -0.96857,-1.83006 -0.42376,-0.5072 -0.95176,-0.89788 -1.58401,-1.17206 -0.63226,-0.27416 -1.36205,-0.41124 -2.18937,-0.41125 -0.8475,10e-6 -1.59074,0.13709 -2.22972,0.41125 -0.63899,0.27418 -1.17371,0.66486 -1.60418,1.17206 -0.42375,0.50722 -0.74324,1.11724 -0.95849,1.83006 -0.2085,0.71284 -0.31276,1.5045 -0.31275,2.37498 -1e-5,0.87048 0.10761,1.66899 0.32285,2.39552 0.22196,0.71969 0.54481,1.34343 0.96857,1.8712 0.43047,0.52092 0.96184,0.92874 1.5941,1.22347 0.63898,0.28787 1.37212,0.43181 2.19945,0.43181 0.88785,0 1.65126,-0.14736 2.29025,-0.4421 0.64571,-0.29472 1.17371,-0.70255 1.58401,-1.22347 0.41701,-0.52776 0.72305,-1.15492 0.91813,-1.88147 0.20176,-0.72654 0.30266,-1.51818 0.30267,-2.37496 m -17.13152,7.30997 -7.60728,-12.33751 c 0.0135,0.33587 0.0302,0.6683 0.0504,0.99728 0.0135,0.28103 0.0236,0.57919 0.0303,0.89448 0.0135,0.30844 0.0202,0.5826 0.0202,0.82249 l 0,9.62326 -1.71517,0 0,-14.48629 2.23981,0 7.688,12.41975 c -0.0202,-0.33585 -0.0404,-0.6717 -0.0605,-1.00756 -0.0135,-0.28787 -0.0269,-0.59974 -0.0403,-0.93559 -0.0135,-0.3427 -0.0202,-0.66828 -0.0202,-0.97672 l 0,-9.49988 1.73536,0 0,14.48629 -2.32053,0 m 141.3623,-147.59781 -3.61202,-6.01454 -4.33244,0 0,6.01454 -1.88496,0 0,-14.4863 6.54308,0 c 0.7895,10e-6 1.4869,0.096 2.09221,0.28788 0.61185,0.18508 1.12503,0.45581 1.53954,0.81222 0.41448,0.35643 0.73029,0.79167 0.94741,1.30571 0.21711,0.51408 0.32566,1.09326 0.32567,1.73754 -10e-6,0.45924 -0.0658,0.91161 -0.19737,1.35713 -0.12502,0.44553 -0.32569,0.85335 -0.60201,1.22347 -0.27633,0.37013 -0.62832,0.68884 -1.05596,0.95615 -0.42767,0.26732 -0.94084,0.45581 -1.53955,0.56547 l 3.94756,6.24073 -2.17116,0 m -0.27633,-10.32239 c -10e-6,-0.43865 -0.0724,-0.81906 -0.21711,-1.14122 -0.14476,-0.32213 -0.3553,-0.58944 -0.63161,-0.80194 -0.27634,-0.21932 -0.61189,-0.38039 -1.00663,-0.48322 -0.39476,-0.10965 -0.84215,-0.16448 -1.34217,-0.1645 l -4.47061,0 0,5.34626 4.54956,0 c 0.53949,0 1.00662,-0.0685 1.40139,-0.20562 0.39474,-0.14394 0.71713,-0.33927 0.96715,-0.58603 0.25657,-0.24675 0.44408,-0.53805 0.56252,-0.87392 0.125,-0.33584 0.1875,-0.69911 0.18751,-1.08981 m -12.16833,3.01241 c -2e-5,1.13094 -0.15792,2.15907 -0.47371,3.08438 -0.30924,0.92532 -0.75991,1.71697 -1.35204,2.37497 -0.59214,0.658 -1.31586,1.16521 -2.17115,1.52162 -0.85532,0.35642 -1.82576,0.53463 -2.91133,0.53463 -1.1448,0 -2.14813,-0.18507 -3.01001,-0.55518 -0.86189,-0.37699 -1.57903,-0.8979 -2.15142,-1.56275 -0.57239,-0.67171 -1.00333,-1.4668 -1.29282,-2.38526 -0.28949,-0.91846 -0.43424,-1.92259 -0.43423,-3.01241 -1e-5,-1.13093 0.15132,-2.1522 0.45396,-3.06381 0.30265,-0.9116 0.74675,-1.68612 1.3323,-2.32356 0.58556,-0.64429 1.30599,-1.13778 2.16129,-1.48051 0.86188,-0.34955 1.84877,-0.52433 2.96067,-0.52434 1.1053,10e-6 2.08561,0.17479 2.94093,0.52434 0.86187,0.34957 1.5823,0.8465 2.16129,1.49078 0.58554,0.64431 1.02963,1.42226 1.3323,2.33385 0.30263,0.91162 0.45395,1.92603 0.45397,3.04325 m -1.92444,0 c -1e-5,-0.87047 -0.10856,-1.66212 -0.32567,-2.37497 -0.21055,-0.71283 -0.52635,-1.32284 -0.94741,-1.83006 -0.41451,-0.5072 -0.93098,-0.89789 -1.54942,-1.17207 -0.61846,-0.27415 -1.33231,-0.41124 -2.14155,-0.41125 -0.829,1e-5 -1.556,0.1371 -2.18102,0.41125 -0.62503,0.27418 -1.14809,0.66487 -1.56916,1.17207 -0.41449,0.50722 -0.72701,1.11723 -0.93754,1.83006 -0.20397,0.71285 -0.30594,1.5045 -0.30594,2.37497 0,0.87049 0.10526,1.66899 0.31581,2.39553 0.21711,0.71969 0.53291,1.34342 0.94741,1.87119 0.42107,0.52093 0.94083,0.92875 1.55929,1.22347 0.62502,0.28788 1.34215,0.43182 2.15141,0.43182 0.86846,0 1.6152,-0.14737 2.24024,-0.4421 0.6316,-0.29473 1.14807,-0.70255 1.54941,-1.22346 0.40791,-0.52778 0.70727,-1.15493 0.89807,-1.88148 0.19737,-0.72653 0.29606,-1.51819 0.29607,-2.37497 m -17.72453,-5.57244 0,12.88242 -1.87509,0 0,-12.88242 -4.77655,0 0,-1.60388 11.42818,0 0,1.60388 -4.77654,0 m -7.58917,12.88242 -1.5889,-4.23588 -6.33582,0 -1.59877,4.23588 -1.95403,0 5.6746,-14.4863 2.14156,0 5.58578,14.4863 -1.92442,0 m -3.9377,-10.54857 c -0.10527,-0.27416 -0.20725,-0.55176 -0.30593,-0.83278 -0.0921,-0.28102 -0.17435,-0.53462 -0.24672,-0.76082 -0.0724,-0.23303 -0.13488,-0.42494 -0.18751,-0.57575 -0.046,-0.15763 -0.0724,-0.25359 -0.079,-0.28787 -0.0131,0.0343 -0.0428,0.13024 -0.0889,0.28787 -0.046,0.15765 -0.10857,0.353 -0.18751,0.58603 -0.0724,0.23305 -0.15791,0.49009 -0.25659,0.77109 -0.0921,0.28104 -0.18752,0.55863 -0.2862,0.83279 l -1.7764,4.76022 5.20091,0 -1.78628,-4.78078 m -11.507,10.54857 -7.44114,-12.33751 c 0.0131,0.33586 0.0296,0.66829 0.0494,0.99728 0.0131,0.28103 0.023,0.57919 0.0296,0.89447 0.0131,0.30844 0.0198,0.58262 0.0198,0.8225 l 0,9.62326 -1.67772,0 0,-14.4863 2.1909,0 7.5201,12.41976 c -0.0198,-0.33585 -0.0395,-0.67171 -0.0592,-1.00756 -0.0131,-0.28787 -0.0264,-0.59974 -0.0395,-0.9356 -0.0131,-0.3427 -0.0198,-0.66828 -0.0197,-0.97671 l 0,-9.49989 1.69745,0 0,14.4863 -2.26985,0 m -14.41859,0 0,-14.4863 1.88495,0 0,14.4863 -1.88495,0 m -2.84223,-7.39222 c -2e-5,1.20634 -0.17437,2.27216 -0.52306,3.19746 -0.34871,0.91846 -0.8257,1.68955 -1.43099,2.31328 -0.6053,0.61688 -1.32244,1.08639 -2.15142,1.40854 -0.82241,0.31528 -1.71061,0.47294 -2.6646,0.47294 l -5.2009,0 0,-14.4863 4.5989,0 c 1.07241,10e-6 2.0593,0.14053 2.96067,0.42153 0.90792,0.27419 1.68757,0.70257 2.33893,1.28516 0.65133,0.57576 1.15794,1.30916 1.5198,2.20019 0.36844,0.89106 0.55265,1.95345 0.55267,3.1872 m -1.89483,0 c -1e-5,-0.98015 -0.13489,-1.81635 -0.40463,-2.50864 -0.26976,-0.69911 -0.64806,-1.27144 -1.13492,-1.71696 -0.48688,-0.44552 -1.06914,-0.77108 -1.7468,-0.97672 -0.67766,-0.21248 -1.42112,-0.31871 -2.23037,-0.31873 l -2.67446,0 0,11.34023 3.09883,0 c 0.73029,0 1.40466,-0.12337 2.02312,-0.37012 0.62502,-0.24675 1.16452,-0.61345 1.6185,-1.1001 0.45396,-0.48664 0.80923,-1.09324 1.06584,-1.81978 0.25658,-0.72653 0.38488,-1.56959 0.38489,-2.52918 m -14.85268,7.39222 -3.61201,-6.01454 -4.33244,0 0,6.01454 -1.88497,0 0,-14.4863 6.54308,0 c 0.7895,10e-6 1.48691,0.096 2.0922,0.28788 0.61187,0.18508 1.12505,0.45581 1.53955,0.81222 0.41448,0.35643 0.73028,0.79167 0.94741,1.30571 0.2171,0.51408 0.32567,1.09326 0.32568,1.73754 -10e-6,0.45924 -0.0658,0.91161 -0.19738,1.35713 -0.12501,0.44553 -0.32568,0.85335 -0.602,1.22347 -0.27635,0.37013 -0.62834,0.68884 -1.05598,0.95615 -0.42765,0.26732 -0.94084,0.45581 -1.53954,0.56547 l 3.94755,6.24073 -2.17115,0 m -0.27633,-10.32239 c -10e-6,-0.43865 -0.0724,-0.81906 -0.21712,-1.14122 -0.14475,-0.32213 -0.35528,-0.58944 -0.63161,-0.80194 -0.27633,-0.21932 -0.61188,-0.38039 -1.00662,-0.48322 -0.39477,-0.10965 -0.84216,-0.16448 -1.34217,-0.1645 l -4.4706,0 0,5.34626 4.54955,0 c 0.53949,0 1.00662,-0.0685 1.40138,-0.20562 0.39475,-0.14394 0.71713,-0.33927 0.96715,-0.58603 0.25658,-0.24675 0.4441,-0.53805 0.56253,-0.87392 0.12499,-0.33584 0.1875,-0.69911 0.18751,-1.08981 m -12.16835,3.01241 c -10e-6,1.13094 -0.15791,2.15907 -0.4737,3.08438 -0.30925,0.92532 -0.75992,1.71697 -1.35204,2.37497 -0.59215,0.658 -1.31586,1.16521 -2.17116,1.52162 -0.85531,0.35642 -1.82575,0.53463 -2.91132,0.53463 -1.1448,0 -2.14814,-0.18507 -3.01001,-0.55518 -0.86189,-0.37699 -1.57903,-0.8979 -2.15143,-1.56275 -0.57239,-0.67171 -1.00333,-1.4668 -1.29281,-2.38526 -0.2895,-0.91846 -0.43423,-1.92259 -0.43423,-3.01241 0,-1.13093 0.15132,-2.1522 0.45396,-3.06381 0.30265,-0.9116 0.74675,-1.68612 1.3323,-2.32356 0.58555,-0.64429 1.30598,-1.13778 2.16129,-1.48051 0.86188,-0.34955 1.84877,-0.52433 2.96067,-0.52434 1.1053,10e-6 2.08561,0.17479 2.94092,0.52434 0.86188,0.34957 1.5823,0.8465 2.16129,1.49078 0.58554,0.64431 1.02965,1.42226 1.3323,2.33385 0.30263,0.91162 0.45396,1.92603 0.45397,3.04325 m -1.92443,0 c -1e-5,-0.87047 -0.10857,-1.66212 -0.32568,-2.37497 -0.21054,-0.71283 -0.52634,-1.32284 -0.94741,-1.83006 -0.41451,-0.5072 -0.93098,-0.89789 -1.54942,-1.17207 -0.61845,-0.27415 -1.3323,-0.41124 -2.14154,-0.41125 -0.82899,1e-5 -1.55601,0.1371 -2.18102,0.41125 -0.62504,0.27418 -1.14809,0.66487 -1.56917,1.17207 -0.41449,0.50722 -0.727,1.11723 -0.93754,1.83006 -0.20395,0.71285 -0.30593,1.5045 -0.30593,2.37497 0,0.87049 0.10526,1.66899 0.31581,2.39553 0.21711,0.71969 0.53291,1.34342 0.9474,1.87119 0.42108,0.52093 0.94083,0.92875 1.55929,1.22347 0.62503,0.28788 1.34217,0.43182 2.15142,0.43182 0.86846,0 1.61519,-0.14737 2.24024,-0.4421 0.6316,-0.29473 1.14807,-0.70255 1.54941,-1.22346 0.4079,-0.52778 0.70726,-1.15493 0.89807,-1.88148 0.19737,-0.72653 0.29606,-1.51819 0.29607,-2.37497 m -13.78684,0 c -1e-5,1.13094 -0.15792,2.15907 -0.47371,3.08438 -0.30923,0.92532 -0.75991,1.71697 -1.35203,2.37497 -0.59215,0.658 -1.31587,1.16521 -2.17116,1.52162 -0.85532,0.35642 -1.82575,0.53463 -2.91132,0.53463 -1.1448,0 -2.14813,-0.18507 -3.01001,-0.55518 -0.86189,-0.37699 -1.57903,-0.8979 -2.15142,-1.56275 -0.5724,-0.67171 -1.00335,-1.4668 -1.29283,-2.38526 -0.28948,-0.91846 -0.43423,-1.92259 -0.43423,-3.01241 0,-1.13093 0.15132,-2.1522 0.45397,-3.06381 0.30264,-0.9116 0.74674,-1.68612 1.3323,-2.32356 0.58555,-0.64429 1.30598,-1.13778 2.16129,-1.48051 0.86188,-0.34955 1.84876,-0.52433 2.96067,-0.52434 1.1053,10e-6 2.08561,0.17479 2.94093,0.52434 0.86186,0.34957 1.5823,0.8465 2.16128,1.49078 0.58555,0.64431 1.02964,1.42226 1.3323,2.33385 0.30264,0.91162 0.45396,1.92603 0.45397,3.04325 m -1.92443,0 c -2e-5,-0.87047 -0.10857,-1.66212 -0.32568,-2.37497 -0.21054,-0.71283 -0.52635,-1.32284 -0.94741,-1.83006 -0.4145,-0.5072 -0.93097,-0.89789 -1.54941,-1.17207 -0.61847,-0.27415 -1.33231,-0.41124 -2.14155,-0.41125 -0.829,1e-5 -1.55601,0.1371 -2.18103,0.41125 -0.62504,0.27418 -1.14809,0.66487 -1.56915,1.17207 -0.4145,0.50722 -0.72702,1.11723 -0.93755,1.83006 -0.20396,0.71285 -0.30594,1.5045 -0.30593,2.37497 -1e-5,0.87049 0.10526,1.66899 0.3158,2.39553 0.21711,0.71969 0.53292,1.34342 0.94741,1.87119 0.42107,0.52093 0.94083,0.92875 1.55929,1.22347 0.62502,0.28788 1.34216,0.43182 2.15142,0.43182 0.86845,0 1.6152,-0.14737 2.24023,-0.4421 0.6316,-0.29473 1.14807,-0.70255 1.54942,-1.22346 0.4079,-0.52778 0.70726,-1.15493 0.89807,-1.88148 0.19736,-0.72653 0.29605,-1.51819 0.29607,-2.37497 m -19.61936,-5.78835 c -0.78952,1e-5 -1.49021,0.1371 -2.10208,0.41125 -0.60529,0.27418 -1.11518,0.66487 -1.52967,1.17207 -0.40792,0.50722 -0.71714,1.11723 -0.92768,1.83006 -0.21054,0.71285 -0.31581,1.5045 -0.3158,2.37497 -1e-5,0.87049 0.11184,1.66899 0.33554,2.39553 0.23027,0.71969 0.55594,1.34 0.97702,1.86092 0.42764,0.52091 0.94741,0.92531 1.55928,1.21318 0.61845,0.28788 1.31256,0.43181 2.08233,0.43181 0.5395,0 1.02965,-0.072 1.47048,-0.2159 0.44738,-0.1508 0.84871,-0.35984 1.204,-0.62716 0.36185,-0.26731 0.68423,-0.5826 0.96715,-0.94588 0.28289,-0.37012 0.53291,-0.77794 0.75003,-1.22347 l 1.53956,0.80194 c -0.25003,0.54149 -0.55926,1.04527 -0.92768,1.51135 -0.36845,0.46608 -0.80268,0.87047 -1.30269,1.21319 -0.49346,0.34271 -1.05599,0.61344 -1.68759,0.81221 -0.62503,0.19192 -1.32572,0.28788 -2.10207,0.28788 -1.12506,0 -2.11195,-0.18507 -2.96067,-0.55518 -0.84214,-0.37699 -1.54942,-0.8979 -2.12181,-1.56275 -0.56582,-0.67171 -0.99018,-1.4668 -1.27309,-2.38526 -0.28291,-0.91846 -0.42436,-1.92259 -0.42436,-3.01241 0,-1.13093 0.14804,-2.1522 0.44411,-3.06381 0.30264,-0.9116 0.74016,-1.68612 1.31255,-2.32356 0.57897,-0.64429 1.28954,-1.13778 2.13168,-1.48051 0.84214,-0.34955 1.80272,-0.52433 2.88173,-0.52434 1.48031,10e-6 2.71722,0.3016 3.71069,0.90475 0.99346,0.60318 1.72376,1.49765 2.1909,2.6834 l -1.78627,0.61688 c -0.1316,-0.34269 -0.30924,-0.66827 -0.53292,-0.97672 -0.22371,-0.31527 -0.50333,-0.59287 -0.83886,-0.83278 -0.33555,-0.23988 -0.73031,-0.4318 -1.18427,-0.57575 -0.4474,-0.14393 -0.96057,-0.2159 -1.53954,-0.21591 m -17.34951,13.09833 -7.44115,-12.33751 c 0.0131,0.33586 0.0296,0.66829 0.0494,0.99728 0.0131,0.28103 0.023,0.57919 0.0296,0.89447 0.0131,0.30844 0.0197,0.58262 0.0197,0.8225 l 0,9.62326 -1.67771,0 0,-14.4863 2.1909,0 7.52009,12.41976 c -0.0198,-0.33585 -0.0395,-0.67171 -0.0592,-1.00756 -0.0131,-0.28787 -0.0264,-0.59974 -0.0395,-0.9356 -0.0131,-0.3427 -0.0198,-0.66828 -0.0198,-0.97671 l 0,-9.49989 1.69745,0 0,14.4863 -2.26984,0 m -13.79665,0 -3.61202,-6.01454 -4.33244,0 0,6.01454 -1.88496,0 0,-14.4863 6.54308,0 c 0.7895,10e-6 1.4869,0.096 2.0922,0.28788 0.61186,0.18508 1.12504,0.45581 1.53955,0.81222 0.41448,0.35643 0.73029,0.79167 0.94741,1.30571 0.21711,0.51408 0.32566,1.09326 0.32567,1.73754 -1e-5,0.45924 -0.0658,0.91161 -0.19738,1.35713 -0.12501,0.44553 -0.32568,0.85335 -0.602,1.22347 -0.27633,0.37013 -0.62832,0.68884 -1.05597,0.95615 -0.42766,0.26732 -0.94085,0.45581 -1.53955,0.56547 l 3.94756,6.24073 -2.17115,0 m -0.27634,-10.32239 c 0,-0.43865 -0.0724,-0.81906 -0.21711,-1.14122 -0.14475,-0.32213 -0.35529,-0.58944 -0.63161,-0.80194 -0.27634,-0.21932 -0.61188,-0.38039 -1.00662,-0.48322 -0.39477,-0.10965 -0.84216,-0.16448 -1.34218,-0.1645 l -4.4706,0 0,5.34626 4.54956,0 c 0.53949,0 1.00662,-0.0685 1.40138,-0.20562 0.39475,-0.14394 0.71713,-0.33927 0.96715,-0.58603 0.25658,-0.24675 0.44409,-0.53805 0.56253,-0.87392 0.125,-0.33584 0.1875,-0.69911 0.1875,-1.08981 m -18.60285,10.52801 c -0.76321,0 -1.48692,-0.10624 -2.17116,-0.31872 -0.68424,-0.21248 -1.28624,-0.54147 -1.80601,-0.987 -0.51318,-0.45237 -0.92109,-1.02127 -1.22374,-1.70669 -0.30264,-0.69227 -0.45396,-1.51133 -0.45396,-2.45722 l 0,-9.22229 1.88495,0 0,9.05779 c 0,0.7334 0.0921,1.35713 0.27633,1.87119 0.1908,0.50721 0.45397,0.92189 0.78951,1.24403 0.33554,0.32215 0.7303,0.55862 1.18427,0.7094 0.46055,0.14395 0.96386,0.21592 1.50994,0.21592 0.53949,0 1.04939,-0.0754 1.52967,-0.22619 0.48028,-0.15079 0.90136,-0.39069 1.26322,-0.71969 0.36185,-0.329 0.64476,-0.75738 0.84873,-1.28516 0.21053,-0.53462 0.31579,-1.18233 0.3158,-1.94316 l 0,-8.92413 1.8751,0 0,9.03723 c -2e-5,0.96644 -0.15463,1.80607 -0.46384,2.5189 -0.30266,0.70599 -0.71715,1.29202 -1.24349,1.7581 -0.52634,0.46609 -1.14479,0.81222 -1.85534,1.03841 -0.70399,0.22618 -1.45732,0.33928 -2.25998,0.33928 m -12.46441,-13.08804 0,12.88242 -1.87509,0 0,-12.88242 -4.77655,0 0,-1.60388 11.42818,0 0,1.60388 -4.77654,0 m 276.91197,9.98131 33.82894,12.31273 -5.47233,15.03508 -33.82893,-12.31272 z m -389.80659,12.31273 33.828934,-12.31272 5.472322,15.03508 -33.828934,12.31273 z M 34,256 l 36,0 0,16 -36,0 z m 409,0 36,0 0,16 -36,0 z"
       inkscape:connector-curvature="0" />
  </g>
  <g
     inkscape:groupmode="layer"
     id="Aircraft"
     inkscape:label="Aircraft"
     style="display:inline">
    <path
       inkscape:connector-curvature="0"
       style="fill:#ffffff;fill-opacity:1;stroke:none"
       id="path7134"
       d="m 255.65433,230.80525 c -14.89754,0.0126 -27.0623,12.19137 -27.79674,27.48246 L 80.575331,258.12755 c -5.359222,0.0444 -6.453158,7.82852 -0.596977,8.86581 l 152.649006,8.98169 c 5.01697,7.65995 13.47976,12.69815 23.07232,12.69003 9.57382,-0.008 18.00941,-5.03867 23.01468,-12.68982 l 153.3141,-9.27999 c 5.85454,-1.0472 4.7484,-8.82941 -0.61088,-8.8648 l -147.92344,0.44936 c -0.73901,-15.30741 -12.92965,-27.4872 -27.83981,-27.47458 z" />
    <path
       sodipodi:nodetypes="ccccc"
       inkscape:connector-curvature="0"
       style="fill:#000000;fill-opacity:0.60301508;stroke:none;filter:url(#filter7320)"
       id="path7318"
       transform="matrix(1.2078485,-9.5353284e-4,9.8408029e-4,1.1703685,-270.82961,-109.70926)"
       d="m 415.11233,303.11984 41.46233,0 -0.25253,-7.17567 -40.95727,0 z" />
    <path
       inkscape:connector-curvature="0"
       style="fill:#ffffff;fill-opacity:1;stroke:none"
       id="path7169"
       d="m 191.65561,243.4514 c 5.29347,0.0606 123.40273,-0.0395 128.69609,-0.10897 5.29336,-0.0695 7.03219,-8.41258 -0.31208,-9.00711 l -53.68699,-2.62188 c -4.45329,-0.83657 -4.86813,-2.85853 -5.18977,-5.47746 l -0.63487,-31.66124 c -0.004,-4.88044 -8.97658,-4.96457 -8.97268,0.008 l -0.58524,31.66227 c -0.31753,2.61948 -0.7292,4.64214 -5.18118,5.48626 l -53.83532,2.71292 c -7.34333,0.60695 -5.59141,8.94708 -0.29796,9.00762 z" />
  </g>
</svg>
