<?xml version="1.0" encoding="UTF-8" standalone="no"?>
<!-- Created with Inkscape (http://www.inkscape.org/) -->

<svg
   xmlns:dc="http://purl.org/dc/elements/1.1/"
   xmlns:cc="http://creativecommons.org/ns#"
   xmlns:rdf="http://www.w3.org/1999/02/22-rdf-syntax-ns#"
   xmlns:svg="http://www.w3.org/2000/svg"
   xmlns="http://www.w3.org/2000/svg"
   xmlns:xlink="http://www.w3.org/1999/xlink"
   xmlns:sodipodi="http://sodipodi.sourceforge.net/DTD/sodipodi-0.dtd"
   xmlns:inkscape="http://www.inkscape.org/namespaces/inkscape"
   version="1.1"
   width="100%"
   height="100%"
   id="ASI"
   inkscape:version="0.91 r13725"
   sodipodi:docname="VOR.svg"
   viewBox="0 0 512 512"
   preserveAspectRatio="xMinYMin meet">
  <title
     id="title5536">Airspeed Indicator</title>
  <defs
     id="defs3747">
    <marker
       inkscape:stockid="TriangleOutM"
       orient="auto"
       refY="0.0"
       refX="0.0"
       id="TriangleOutM"
       style="overflow:visible"
       inkscape:isstock="true">
      <path
         id="path5129"
         d="M 5.77,0.0 L -2.88,5.0 L -2.88,-5.0 L 5.77,0.0 z "
         style="fill-rule:evenodd;stroke:#000000;stroke-width:1pt;stroke-opacity:1;fill:#000000;fill-opacity:1"
         transform="scale(0.4)" />
    </marker>
    <marker
       inkscape:stockid="TriangleInM"
       orient="auto"
       refY="0.0"
       refX="0.0"
       id="TriangleInM"
       style="overflow:visible"
       inkscape:isstock="true">
      <path
         id="path5120"
         d="M 5.77,0.0 L -2.88,5.0 L -2.88,-5.0 L 5.77,0.0 z "
         style="fill-rule:evenodd;stroke:#000000;stroke-width:1pt;stroke-opacity:1;fill:#000000;fill-opacity:1"
         transform="scale(-0.4)" />
    </marker>
    <marker
       inkscape:stockid="TriangleInS"
       orient="auto"
       refY="0.0"
       refX="0.0"
       id="TriangleInS"
       style="overflow:visible"
       inkscape:isstock="true">
      <path
         id="path5123"
         d="M 5.77,0.0 L -2.88,5.0 L -2.88,-5.0 L 5.77,0.0 z "
         style="fill-rule:evenodd;stroke:#000000;stroke-width:1pt;stroke-opacity:1;fill:#000000;fill-opacity:1"
         transform="scale(-0.2)" />
    </marker>
    <marker
       inkscape:stockid="Arrow2Sstart"
       orient="auto"
       refY="0.0"
       refX="0.0"
       id="Arrow2Sstart"
       style="overflow:visible"
       inkscape:isstock="true">
      <path
         id="path5014"
         style="fill-rule:evenodd;stroke-width:0.625;stroke-linejoin:round;stroke:#000000;stroke-opacity:1;fill:#000000;fill-opacity:1"
         d="M 8.7185878,4.0337352 L -2.2072895,0.016013256 L 8.7185884,-4.0017078 C 6.9730900,-1.6296469 6.9831476,1.6157441 8.7185878,4.0337352 z "
         transform="scale(0.3) translate(-2.3,0)" />
    </marker>
    <marker
       inkscape:stockid="Arrow1Sstart"
       orient="auto"
       refY="0.0"
       refX="0.0"
       id="Arrow1Sstart"
       style="overflow:visible"
       inkscape:isstock="true">
      <path
         id="path4996"
         d="M 0.0,0.0 L 5.0,-5.0 L -12.5,0.0 L 5.0,5.0 L 0.0,0.0 z "
         style="fill-rule:evenodd;stroke:#000000;stroke-width:1pt;stroke-opacity:1;fill:#000000;fill-opacity:1"
         transform="scale(0.2) translate(6,0)" />
    </marker>
    <marker
       inkscape:stockid="Arrow2Mstart"
       orient="auto"
       refY="0.0"
       refX="0.0"
       id="Arrow2Mstart"
       style="overflow:visible"
       inkscape:isstock="true">
      <path
         id="path5008"
         style="fill-rule:evenodd;stroke-width:0.625;stroke-linejoin:round;stroke:#000000;stroke-opacity:1;fill:#000000;fill-opacity:1"
         d="M 8.7185878,4.0337352 L -2.2072895,0.016013256 L 8.7185884,-4.0017078 C 6.9730900,-1.6296469 6.9831476,1.6157441 8.7185878,4.0337352 z "
         transform="scale(0.6) translate(0,0)" />
    </marker>
    <linearGradient
       inkscape:collect="always"
       id="linearGradient4476">
      <stop
         style="stop-color:#3b3c39;stop-opacity:1"
         offset="0"
         id="stop4478" />
      <stop
         style="stop-color:#383a37;stop-opacity:0"
         offset="1"
         id="stop4480" />
    </linearGradient>
    <radialGradient
       inkscape:collect="always"
       xlink:href="#linearGradient12865"
       id="radialGradient12871"
       cx="-606.02588"
       cy="-589.34821"
       fx="-606.02588"
       fy="-589.34821"
       r="255.99997"
       gradientTransform="translate(-2.5570006e-5,1.2943287e-4)"
       gradientUnits="userSpaceOnUse" />
    <linearGradient
       inkscape:collect="always"
       id="linearGradient12865">
      <stop
         style="stop-color:#151515;stop-opacity:1"
         offset="0"
         id="stop12867" />
      <stop
         id="stop12873"
         offset="0.87221068"
         style="stop-color:#0e0e0e;stop-opacity:1" />
      <stop
         style="stop-color:#080808;stop-opacity:1"
         offset="0.95222574"
         id="stop12877" />
      <stop
         style="stop-color:#000000;stop-opacity:1"
         offset="1"
         id="stop12869" />
    </linearGradient>
    <radialGradient
       inkscape:collect="always"
       xlink:href="#linearGradient4476"
       id="radialGradient4482"
       cx="256"
       cy="256"
       fx="256"
       fy="256"
       r="136"
       gradientUnits="userSpaceOnUse" />
    <marker
       inkscape:stockid="TriangleInM"
       orient="auto"
       refY="0"
       refX="0"
       id="TriangleInM-0"
       style="overflow:visible"
       inkscape:isstock="true">
      <path
         inkscape:connector-curvature="0"
         id="path5120-3"
         d="m 5.77,0 -8.65,5 0,-10 8.65,5 z"
         style="fill:#000000;fill-opacity:1;fill-rule:evenodd;stroke:#000000;stroke-width:1pt;stroke-opacity:1"
         transform="scale(-0.4,-0.4)" />
    </marker>
    <marker
       inkscape:stockid="TriangleOutM"
       orient="auto"
       refY="0"
       refX="0"
       id="TriangleOutM-1"
       style="overflow:visible"
       inkscape:isstock="true">
      <path
         inkscape:connector-curvature="0"
         id="path5129-9"
         d="m 5.77,0 -8.65,5 0,-10 8.65,5 z"
         style="fill:#000000;fill-opacity:1;fill-rule:evenodd;stroke:#000000;stroke-width:1pt;stroke-opacity:1"
         transform="scale(0.4,0.4)" />
    </marker>
  </defs>
  <sodipodi:namedview
     id="base"
     bordercolor="#666666"
     borderopacity="1.0"
     inkscape:pageshadow="2"
     inkscape:zoom="1"
     inkscape:cx="255.6849"
     inkscape:cy="255.58767"
     inkscape:document-units="px"
     inkscape:current-layer="layer1"
     showgrid="false"
     borderlayer="true"
     inkscape:window-width="1366"
     inkscape:window-height="704"
     inkscape:window-x="0"
     inkscape:window-y="27"
     inkscape:window-maximized="1"
     inkscape:snap-bbox="true"
     inkscape:snap-bbox-midpoints="true"
     inkscape:snap-bbox-edge-midpoints="true"
     inkscape:bbox-nodes="true"
     inkscape:bbox-paths="true"
     inkscape:snap-global="true"
     inkscape:snap-center="true"
     inkscape:snap-page="true"
     inkscape:snap-object-midpoints="true"
     inkscape:object-paths="true"
     inkscape:snap-intersection-paths="true"
     inkscape:snap-smooth-nodes="true"
     inkscape:snap-midpoints="true"
     inkscape:object-nodes="true"
     inkscape:snap-text-baseline="true" />
  <metadata
     id="metadata3750">
    <rdf:RDF>
      <cc:Work
         rdf:about="">
        <dc:format>image/svg+xml</dc:format>
        <dc:type
           rdf:resource="http://purl.org/dc/dcmitype/StillImage" />
        <dc:title>Airspeed Indicator</dc:title>
        <dc:creator>
          <cc:Agent>
            <dc:title>Torsten Dreyer</dc:title>
          </cc:Agent>
        </dc:creator>
        <dc:rights>
          <cc:Agent>
            <dc:title>Torsten Dreyer</dc:title>
          </cc:Agent>
        </dc:rights>
        <dc:publisher>
          <cc:Agent>
            <dc:title>flightgear.org</dc:title>
          </cc:Agent>
        </dc:publisher>
        <cc:license
           rdf:resource="http://www.gnu.org/licenses/gpl-2.0.html" />
        <dc:date>2014-08-01</dc:date>
      </cc:Work>
    </rdf:RDF>
  </metadata>
  <g
     inkscape:label="Face"
     inkscape:groupmode="layer"
     id="Face"
     transform="translate(0,-540.36218)"
     style="display:inline;opacity:1">
    <ellipse
       style="display:inline;opacity:1;fill:url(#radialGradient12871);fill-opacity:1;stroke:none;stroke-width:20;stroke-miterlimit:4;stroke-dasharray:none;stroke-opacity:1"
       id="path12863"
       transform="matrix(-0.88387547,-0.46772231,0.46772244,-0.8838754,0,0)"
       inkscape:transform-center-x="2.3138069"
       inkscape:transform-center-y="-9.8341511"
       cx="-598.7486"
       cy="-584.14807"
       rx="255.99997"
       ry="256.00003" />
    <path
       style="color:#000000;clip-rule:nonzero;display:inline;overflow:visible;visibility:visible;opacity:1;isolation:auto;mix-blend-mode:normal;color-interpolation:sRGB;color-interpolation-filters:linearRGB;solid-color:#000000;solid-opacity:1;fill:url(#radialGradient4482);fill-opacity:1;fill-rule:nonzero;stroke:none;stroke-width:34;stroke-linecap:butt;stroke-linejoin:miter;stroke-miterlimit:4;stroke-dasharray:none;stroke-dashoffset:0;stroke-opacity:1;color-rendering:auto;image-rendering:auto;shape-rendering:auto;text-rendering:auto;enable-background:accumulate"
       d="M 239.83203,120 C 237.15506,120 235,122.15506 235,124.83203 L 235,235 124.83203,235 C 122.15506,235 120,237.15506 120,239.83203 l 0,32.33594 C 120,274.84494 122.15506,277 124.83203,277 L 235,277 l 0,110.16797 c 0,2.67697 2.15506,4.83203 4.83203,4.83203 l 32.33594,0 C 274.84494,392 277,389.84494 277,387.16797 L 277,277 387.16797,277 C 389.84494,277 392,274.84494 392,272.16797 l 0,-32.33594 C 392,237.15506 389.84494,235 387.16797,235 L 277,235 277,124.83203 C 277,122.15506 274.84494,120 272.16797,120 l -32.33594,0 z"
       transform="translate(0,540.36218)"
       id="rect4457"
       inkscape:connector-curvature="0" />
    <circle
       style="color:#000000;clip-rule:nonzero;display:inline;overflow:visible;visibility:visible;opacity:1;isolation:auto;mix-blend-mode:normal;color-interpolation:sRGB;color-interpolation-filters:linearRGB;solid-color:#000000;solid-opacity:1;fill:none;fill-opacity:0;fill-rule:nonzero;stroke:#ffffff;stroke-width:5.11111069;stroke-linecap:butt;stroke-linejoin:miter;stroke-miterlimit:4;stroke-dasharray:none;stroke-dashoffset:0;stroke-opacity:1;color-rendering:auto;image-rendering:auto;shape-rendering:auto;text-rendering:auto;enable-background:accumulate"
       id="path4484"
       cx="256"
       cy="796.36218"
       r="20.444443" />
    <text
       xml:space="preserve"
       style="font-style:normal;font-variant:normal;font-weight:bold;font-stretch:normal;font-size:45px;line-height:100%;font-family:Overpass;-inkscape-font-specification:'Overpass, Bold';text-align:end;letter-spacing:0px;word-spacing:0px;writing-mode:lr-tb;text-anchor:end;opacity:0.20700001;fill:#000000;fill-opacity:1;stroke:none;stroke-width:1px;stroke-linecap:butt;stroke-linejoin:miter;stroke-opacity:1"
       x="209.99277"
       y="862.36218"
       id="text5787"
       sodipodi:linespacing="100%"><tspan
         sodipodi:role="line"
         x="209.99277"
         y="862.36218"
         style="font-style:normal;font-variant:normal;font-weight:900;font-stretch:normal;font-size:17.5px;line-height:100%;font-family:Exo;-inkscape-font-specification:'Exo Heavy';text-align:end;text-anchor:end;fill:#888a85"
         id="tspan5791">FlightGear</tspan><tspan
         sodipodi:role="line"
         x="209.99277"
         y="879.86218"
         style="font-style:normal;font-variant:normal;font-weight:500;font-stretch:normal;font-size:17.5px;line-height:100%;font-family:Exo;-inkscape-font-specification:'Exo Medium';text-align:end;text-anchor:end;fill:#555753"
         id="tspan5795">.org</tspan></text>
    <g
       id="g6392">
      <g
         transform="translate(0,7.456723)"
         id="g4626">
        <circle
           r="5.8110237"
           cy="748.90546"
           cx="256"
           id="circle4628"
           style="color:#000000;clip-rule:nonzero;display:inline;overflow:visible;visibility:visible;opacity:1;isolation:auto;mix-blend-mode:normal;color-interpolation:sRGB;color-interpolation-filters:linearRGB;solid-color:#000000;solid-opacity:1;fill:#ffffff;fill-opacity:1;fill-rule:nonzero;stroke:none;stroke-width:6;stroke-linecap:butt;stroke-linejoin:miter;stroke-miterlimit:4;stroke-dasharray:none;stroke-dashoffset:0;stroke-opacity:1;color-rendering:auto;image-rendering:auto;shape-rendering:auto;text-rendering:auto;enable-background:accumulate" />
        <path
           style="fill:none;fill-rule:evenodd;stroke:#ffffff;stroke-width:2.47918153;stroke-linecap:butt;stroke-linejoin:miter;stroke-miterlimit:4;stroke-dasharray:none;stroke-opacity:1"
           d="m 242,748.36218 28,0"
           id="path4630"
           inkscape:connector-curvature="0" />
      </g>
      <g
         id="g6338"
         transform="translate(0,-12.543277)">
        <circle
           style="color:#000000;clip-rule:nonzero;display:inline;overflow:visible;visibility:visible;opacity:1;isolation:auto;mix-blend-mode:normal;color-interpolation:sRGB;color-interpolation-filters:linearRGB;solid-color:#000000;solid-opacity:1;fill:#ffffff;fill-opacity:1;fill-rule:nonzero;stroke:none;stroke-width:6;stroke-linecap:butt;stroke-linejoin:miter;stroke-miterlimit:4;stroke-dasharray:none;stroke-dashoffset:0;stroke-opacity:1;color-rendering:auto;image-rendering:auto;shape-rendering:auto;text-rendering:auto;enable-background:accumulate"
           id="circle6340"
           cx="256"
           cy="748.90546"
           r="5.8110237" />
        <path
           inkscape:connector-curvature="0"
           id="path6342"
           d="m 242,748.36218 28,0"
           style="fill:none;fill-rule:evenodd;stroke:#ffffff;stroke-width:2.47918153;stroke-linecap:butt;stroke-linejoin:miter;stroke-miterlimit:4;stroke-dasharray:none;stroke-opacity:1" />
      </g>
      <g
         transform="translate(0,-32.543277)"
         id="g6344">
        <circle
           r="5.8110237"
           cy="748.90546"
           cx="256"
           id="circle6346"
           style="color:#000000;clip-rule:nonzero;display:inline;overflow:visible;visibility:visible;opacity:1;isolation:auto;mix-blend-mode:normal;color-interpolation:sRGB;color-interpolation-filters:linearRGB;solid-color:#000000;solid-opacity:1;fill:#ffffff;fill-opacity:1;fill-rule:nonzero;stroke:none;stroke-width:6;stroke-linecap:butt;stroke-linejoin:miter;stroke-miterlimit:4;stroke-dasharray:none;stroke-dashoffset:0;stroke-opacity:1;color-rendering:auto;image-rendering:auto;shape-rendering:auto;text-rendering:auto;enable-background:accumulate" />
        <path
           style="fill:none;fill-rule:evenodd;stroke:#ffffff;stroke-width:2.47918153;stroke-linecap:butt;stroke-linejoin:miter;stroke-miterlimit:4;stroke-dasharray:none;stroke-opacity:1"
           d="m 242,748.36218 28,0"
           id="path6348"
           inkscape:connector-curvature="0" />
      </g>
      <g
         id="g6350"
         transform="translate(0,-52.543277)">
        <circle
           style="color:#000000;clip-rule:nonzero;display:inline;overflow:visible;visibility:visible;opacity:1;isolation:auto;mix-blend-mode:normal;color-interpolation:sRGB;color-interpolation-filters:linearRGB;solid-color:#000000;solid-opacity:1;fill:#ffffff;fill-opacity:1;fill-rule:nonzero;stroke:none;stroke-width:6;stroke-linecap:butt;stroke-linejoin:miter;stroke-miterlimit:4;stroke-dasharray:none;stroke-dashoffset:0;stroke-opacity:1;color-rendering:auto;image-rendering:auto;shape-rendering:auto;text-rendering:auto;enable-background:accumulate"
           id="circle6352"
           cx="256"
           cy="748.90546"
           r="5.8110237" />
        <path
           inkscape:connector-curvature="0"
           id="path6354"
           d="m 242,748.36218 28,0"
           style="fill:none;fill-rule:evenodd;stroke:#ffffff;stroke-width:2.47918153;stroke-linecap:butt;stroke-linejoin:miter;stroke-miterlimit:4;stroke-dasharray:none;stroke-opacity:1" />
      </g>
      <g
         transform="translate(0,-72.543277)"
         id="g6356">
        <circle
           r="5.8110237"
           cy="748.90546"
           cx="256"
           id="circle6358"
           style="color:#000000;clip-rule:nonzero;display:inline;overflow:visible;visibility:visible;opacity:1;isolation:auto;mix-blend-mode:normal;color-interpolation:sRGB;color-interpolation-filters:linearRGB;solid-color:#000000;solid-opacity:1;fill:#ffffff;fill-opacity:1;fill-rule:nonzero;stroke:none;stroke-width:6;stroke-linecap:butt;stroke-linejoin:miter;stroke-miterlimit:4;stroke-dasharray:none;stroke-dashoffset:0;stroke-opacity:1;color-rendering:auto;image-rendering:auto;shape-rendering:auto;text-rendering:auto;enable-background:accumulate" />
        <path
           style="fill:none;fill-rule:evenodd;stroke:#ffffff;stroke-width:2.47918153;stroke-linecap:butt;stroke-linejoin:miter;stroke-miterlimit:4;stroke-dasharray:none;stroke-opacity:1"
           d="m 242,748.36218 28,0"
           id="path6360"
           inkscape:connector-curvature="0" />
      </g>
      <g
         id="g6362"
         transform="translate(0,87.456723)">
        <circle
           style="color:#000000;clip-rule:nonzero;display:inline;overflow:visible;visibility:visible;opacity:1;isolation:auto;mix-blend-mode:normal;color-interpolation:sRGB;color-interpolation-filters:linearRGB;solid-color:#000000;solid-opacity:1;fill:#ffffff;fill-opacity:1;fill-rule:nonzero;stroke:none;stroke-width:6;stroke-linecap:butt;stroke-linejoin:miter;stroke-miterlimit:4;stroke-dasharray:none;stroke-dashoffset:0;stroke-opacity:1;color-rendering:auto;image-rendering:auto;shape-rendering:auto;text-rendering:auto;enable-background:accumulate"
           id="circle6364"
           cx="256"
           cy="748.90546"
           r="5.8110237" />
        <path
           inkscape:connector-curvature="0"
           id="path6366"
           d="m 242,748.36218 28,0"
           style="fill:none;fill-rule:evenodd;stroke:#ffffff;stroke-width:2.47918153;stroke-linecap:butt;stroke-linejoin:miter;stroke-miterlimit:4;stroke-dasharray:none;stroke-opacity:1" />
      </g>
      <g
         transform="translate(0,107.45672)"
         id="g6368">
        <circle
           r="5.8110237"
           cy="748.90546"
           cx="256"
           id="circle6370"
           style="color:#000000;clip-rule:nonzero;display:inline;overflow:visible;visibility:visible;opacity:1;isolation:auto;mix-blend-mode:normal;color-interpolation:sRGB;color-interpolation-filters:linearRGB;solid-color:#000000;solid-opacity:1;fill:#ffffff;fill-opacity:1;fill-rule:nonzero;stroke:none;stroke-width:6;stroke-linecap:butt;stroke-linejoin:miter;stroke-miterlimit:4;stroke-dasharray:none;stroke-dashoffset:0;stroke-opacity:1;color-rendering:auto;image-rendering:auto;shape-rendering:auto;text-rendering:auto;enable-background:accumulate" />
        <path
           style="fill:none;fill-rule:evenodd;stroke:#ffffff;stroke-width:2.47918153;stroke-linecap:butt;stroke-linejoin:miter;stroke-miterlimit:4;stroke-dasharray:none;stroke-opacity:1"
           d="m 242,748.36218 28,0"
           id="path6372"
           inkscape:connector-curvature="0" />
      </g>
      <g
         id="g6374"
         transform="translate(0,127.45672)">
        <circle
           style="color:#000000;clip-rule:nonzero;display:inline;overflow:visible;visibility:visible;opacity:1;isolation:auto;mix-blend-mode:normal;color-interpolation:sRGB;color-interpolation-filters:linearRGB;solid-color:#000000;solid-opacity:1;fill:#ffffff;fill-opacity:1;fill-rule:nonzero;stroke:none;stroke-width:6;stroke-linecap:butt;stroke-linejoin:miter;stroke-miterlimit:4;stroke-dasharray:none;stroke-dashoffset:0;stroke-opacity:1;color-rendering:auto;image-rendering:auto;shape-rendering:auto;text-rendering:auto;enable-background:accumulate"
           id="circle6376"
           cx="256"
           cy="748.90546"
           r="5.8110237" />
        <path
           inkscape:connector-curvature="0"
           id="path6378"
           d="m 242,748.36218 28,0"
           style="fill:none;fill-rule:evenodd;stroke:#ffffff;stroke-width:2.47918153;stroke-linecap:butt;stroke-linejoin:miter;stroke-miterlimit:4;stroke-dasharray:none;stroke-opacity:1" />
      </g>
      <g
         transform="translate(0,147.45672)"
         id="g6380">
        <circle
           r="5.8110237"
           cy="748.90546"
           cx="256"
           id="circle6382"
           style="color:#000000;clip-rule:nonzero;display:inline;overflow:visible;visibility:visible;opacity:1;isolation:auto;mix-blend-mode:normal;color-interpolation:sRGB;color-interpolation-filters:linearRGB;solid-color:#000000;solid-opacity:1;fill:#ffffff;fill-opacity:1;fill-rule:nonzero;stroke:none;stroke-width:6;stroke-linecap:butt;stroke-linejoin:miter;stroke-miterlimit:4;stroke-dasharray:none;stroke-dashoffset:0;stroke-opacity:1;color-rendering:auto;image-rendering:auto;shape-rendering:auto;text-rendering:auto;enable-background:accumulate" />
        <path
           style="fill:none;fill-rule:evenodd;stroke:#ffffff;stroke-width:2.47918153;stroke-linecap:butt;stroke-linejoin:miter;stroke-miterlimit:4;stroke-dasharray:none;stroke-opacity:1"
           d="m 242,748.36218 28,0"
           id="path6384"
           inkscape:connector-curvature="0" />
      </g>
      <g
         id="g6386"
         transform="translate(0,167.45672)">
        <circle
           style="color:#000000;clip-rule:nonzero;display:inline;overflow:visible;visibility:visible;opacity:1;isolation:auto;mix-blend-mode:normal;color-interpolation:sRGB;color-interpolation-filters:linearRGB;solid-color:#000000;solid-opacity:1;fill:#ffffff;fill-opacity:1;fill-rule:nonzero;stroke:none;stroke-width:6;stroke-linecap:butt;stroke-linejoin:miter;stroke-miterlimit:4;stroke-dasharray:none;stroke-dashoffset:0;stroke-opacity:1;color-rendering:auto;image-rendering:auto;shape-rendering:auto;text-rendering:auto;enable-background:accumulate"
           id="circle6388"
           cx="256"
           cy="748.90546"
           r="5.8110237" />
        <path
           inkscape:connector-curvature="0"
           id="path6390"
           d="m 242,748.36218 28,0"
           style="fill:none;fill-rule:evenodd;stroke:#ffffff;stroke-width:2.47918153;stroke-linecap:butt;stroke-linejoin:miter;stroke-miterlimit:4;stroke-dasharray:none;stroke-opacity:1" />
      </g>
    </g>
    <g
       id="g6424"
       transform="matrix(0,1,-1,0,1052.3622,540.36218)">
      <g
         id="g6426"
         transform="translate(0,7.456723)">
        <circle
           style="color:#000000;clip-rule:nonzero;display:inline;overflow:visible;visibility:visible;opacity:1;isolation:auto;mix-blend-mode:normal;color-interpolation:sRGB;color-interpolation-filters:linearRGB;solid-color:#000000;solid-opacity:1;fill:#ffffff;fill-opacity:1;fill-rule:nonzero;stroke:none;stroke-width:6;stroke-linecap:butt;stroke-linejoin:miter;stroke-miterlimit:4;stroke-dasharray:none;stroke-dashoffset:0;stroke-opacity:1;color-rendering:auto;image-rendering:auto;shape-rendering:auto;text-rendering:auto;enable-background:accumulate"
           id="circle6428"
           cx="256"
           cy="748.90546"
           r="5.8110237" />
        <path
           inkscape:connector-curvature="0"
           id="path6430"
           d="m 242,748.36218 28,0"
           style="fill:none;fill-rule:evenodd;stroke:#ffffff;stroke-width:2.47918153;stroke-linecap:butt;stroke-linejoin:miter;stroke-miterlimit:4;stroke-dasharray:none;stroke-opacity:1" />
      </g>
      <g
         transform="translate(0,-12.543277)"
         id="g6432">
        <circle
           r="5.8110237"
           cy="748.90546"
           cx="256"
           id="circle6434"
           style="color:#000000;clip-rule:nonzero;display:inline;overflow:visible;visibility:visible;opacity:1;isolation:auto;mix-blend-mode:normal;color-interpolation:sRGB;color-interpolation-filters:linearRGB;solid-color:#000000;solid-opacity:1;fill:#ffffff;fill-opacity:1;fill-rule:nonzero;stroke:none;stroke-width:6;stroke-linecap:butt;stroke-linejoin:miter;stroke-miterlimit:4;stroke-dasharray:none;stroke-dashoffset:0;stroke-opacity:1;color-rendering:auto;image-rendering:auto;shape-rendering:auto;text-rendering:auto;enable-background:accumulate" />
        <path
           style="fill:none;fill-rule:evenodd;stroke:#ffffff;stroke-width:2.47918153;stroke-linecap:butt;stroke-linejoin:miter;stroke-miterlimit:4;stroke-dasharray:none;stroke-opacity:1"
           d="m 242,748.36218 28,0"
           id="path6436"
           inkscape:connector-curvature="0" />
      </g>
      <g
         id="g6438"
         transform="translate(0,-32.543277)">
        <circle
           style="color:#000000;clip-rule:nonzero;display:inline;overflow:visible;visibility:visible;opacity:1;isolation:auto;mix-blend-mode:normal;color-interpolation:sRGB;color-interpolation-filters:linearRGB;solid-color:#000000;solid-opacity:1;fill:#ffffff;fill-opacity:1;fill-rule:nonzero;stroke:none;stroke-width:6;stroke-linecap:butt;stroke-linejoin:miter;stroke-miterlimit:4;stroke-dasharray:none;stroke-dashoffset:0;stroke-opacity:1;color-rendering:auto;image-rendering:auto;shape-rendering:auto;text-rendering:auto;enable-background:accumulate"
           id="circle6440"
           cx="256"
           cy="748.90546"
           r="5.8110237" />
        <path
           inkscape:connector-curvature="0"
           id="path6442"
           d="m 242,748.36218 28,0"
           style="fill:none;fill-rule:evenodd;stroke:#ffffff;stroke-width:2.47918153;stroke-linecap:butt;stroke-linejoin:miter;stroke-miterlimit:4;stroke-dasharray:none;stroke-opacity:1" />
      </g>
      <g
         transform="translate(0,-52.543277)"
         id="g6444">
        <circle
           r="5.8110237"
           cy="748.90546"
           cx="256"
           id="circle6446"
           style="color:#000000;clip-rule:nonzero;display:inline;overflow:visible;visibility:visible;opacity:1;isolation:auto;mix-blend-mode:normal;color-interpolation:sRGB;color-interpolation-filters:linearRGB;solid-color:#000000;solid-opacity:1;fill:#ffffff;fill-opacity:1;fill-rule:nonzero;stroke:none;stroke-width:6;stroke-linecap:butt;stroke-linejoin:miter;stroke-miterlimit:4;stroke-dasharray:none;stroke-dashoffset:0;stroke-opacity:1;color-rendering:auto;image-rendering:auto;shape-rendering:auto;text-rendering:auto;enable-background:accumulate" />
        <path
           style="fill:none;fill-rule:evenodd;stroke:#ffffff;stroke-width:2.47918153;stroke-linecap:butt;stroke-linejoin:miter;stroke-miterlimit:4;stroke-dasharray:none;stroke-opacity:1"
           d="m 242,748.36218 28,0"
           id="path6448"
           inkscape:connector-curvature="0" />
      </g>
      <g
         id="g6450"
         transform="translate(0,-72.543277)">
        <circle
           style="color:#000000;clip-rule:nonzero;display:inline;overflow:visible;visibility:visible;opacity:1;isolation:auto;mix-blend-mode:normal;color-interpolation:sRGB;color-interpolation-filters:linearRGB;solid-color:#000000;solid-opacity:1;fill:#ffffff;fill-opacity:1;fill-rule:nonzero;stroke:none;stroke-width:6;stroke-linecap:butt;stroke-linejoin:miter;stroke-miterlimit:4;stroke-dasharray:none;stroke-dashoffset:0;stroke-opacity:1;color-rendering:auto;image-rendering:auto;shape-rendering:auto;text-rendering:auto;enable-background:accumulate"
           id="circle6452"
           cx="256"
           cy="748.90546"
           r="5.8110237" />
        <path
           inkscape:connector-curvature="0"
           id="path6454"
           d="m 242,748.36218 28,0"
           style="fill:none;fill-rule:evenodd;stroke:#ffffff;stroke-width:2.47918153;stroke-linecap:butt;stroke-linejoin:miter;stroke-miterlimit:4;stroke-dasharray:none;stroke-opacity:1" />
      </g>
      <g
         transform="translate(0,87.456723)"
         id="g6456">
        <circle
           r="5.8110237"
           cy="748.90546"
           cx="256"
           id="circle6458"
           style="color:#000000;clip-rule:nonzero;display:inline;overflow:visible;visibility:visible;opacity:1;isolation:auto;mix-blend-mode:normal;color-interpolation:sRGB;color-interpolation-filters:linearRGB;solid-color:#000000;solid-opacity:1;fill:#ffffff;fill-opacity:1;fill-rule:nonzero;stroke:none;stroke-width:6;stroke-linecap:butt;stroke-linejoin:miter;stroke-miterlimit:4;stroke-dasharray:none;stroke-dashoffset:0;stroke-opacity:1;color-rendering:auto;image-rendering:auto;shape-rendering:auto;text-rendering:auto;enable-background:accumulate" />
        <path
           style="fill:none;fill-rule:evenodd;stroke:#ffffff;stroke-width:2.47918153;stroke-linecap:butt;stroke-linejoin:miter;stroke-miterlimit:4;stroke-dasharray:none;stroke-opacity:1"
           d="m 242,748.36218 28,0"
           id="path6460"
           inkscape:connector-curvature="0" />
      </g>
      <g
         id="g6462"
         transform="translate(0,107.45672)">
        <circle
           style="color:#000000;clip-rule:nonzero;display:inline;overflow:visible;visibility:visible;opacity:1;isolation:auto;mix-blend-mode:normal;color-interpolation:sRGB;color-interpolation-filters:linearRGB;solid-color:#000000;solid-opacity:1;fill:#ffffff;fill-opacity:1;fill-rule:nonzero;stroke:none;stroke-width:6;stroke-linecap:butt;stroke-linejoin:miter;stroke-miterlimit:4;stroke-dasharray:none;stroke-dashoffset:0;stroke-opacity:1;color-rendering:auto;image-rendering:auto;shape-rendering:auto;text-rendering:auto;enable-background:accumulate"
           id="circle6464"
           cx="256"
           cy="748.90546"
           r="5.8110237" />
        <path
           inkscape:connector-curvature="0"
           id="path6466"
           d="m 242,748.36218 28,0"
           style="fill:none;fill-rule:evenodd;stroke:#ffffff;stroke-width:2.47918153;stroke-linecap:butt;stroke-linejoin:miter;stroke-miterlimit:4;stroke-dasharray:none;stroke-opacity:1" />
      </g>
      <g
         transform="translate(0,127.45672)"
         id="g6468">
        <circle
           r="5.8110237"
           cy="748.90546"
           cx="256"
           id="circle6470"
           style="color:#000000;clip-rule:nonzero;display:inline;overflow:visible;visibility:visible;opacity:1;isolation:auto;mix-blend-mode:normal;color-interpolation:sRGB;color-interpolation-filters:linearRGB;solid-color:#000000;solid-opacity:1;fill:#ffffff;fill-opacity:1;fill-rule:nonzero;stroke:none;stroke-width:6;stroke-linecap:butt;stroke-linejoin:miter;stroke-miterlimit:4;stroke-dasharray:none;stroke-dashoffset:0;stroke-opacity:1;color-rendering:auto;image-rendering:auto;shape-rendering:auto;text-rendering:auto;enable-background:accumulate" />
        <path
           style="fill:none;fill-rule:evenodd;stroke:#ffffff;stroke-width:2.47918153;stroke-linecap:butt;stroke-linejoin:miter;stroke-miterlimit:4;stroke-dasharray:none;stroke-opacity:1"
           d="m 242,748.36218 28,0"
           id="path6472"
           inkscape:connector-curvature="0" />
      </g>
      <g
         id="g6474"
         transform="translate(0,147.45672)">
        <circle
           style="color:#000000;clip-rule:nonzero;display:inline;overflow:visible;visibility:visible;opacity:1;isolation:auto;mix-blend-mode:normal;color-interpolation:sRGB;color-interpolation-filters:linearRGB;solid-color:#000000;solid-opacity:1;fill:#ffffff;fill-opacity:1;fill-rule:nonzero;stroke:none;stroke-width:6;stroke-linecap:butt;stroke-linejoin:miter;stroke-miterlimit:4;stroke-dasharray:none;stroke-dashoffset:0;stroke-opacity:1;color-rendering:auto;image-rendering:auto;shape-rendering:auto;text-rendering:auto;enable-background:accumulate"
           id="circle6476"
           cx="256"
           cy="748.90546"
           r="5.8110237" />
        <path
           inkscape:connector-curvature="0"
           id="path6478"
           d="m 242,748.36218 28,0"
           style="fill:none;fill-rule:evenodd;stroke:#ffffff;stroke-width:2.47918153;stroke-linecap:butt;stroke-linejoin:miter;stroke-miterlimit:4;stroke-dasharray:none;stroke-opacity:1" />
      </g>
      <g
         transform="translate(0,167.45672)"
         id="g6480">
        <circle
           r="5.8110237"
           cy="748.90546"
           cx="256"
           id="circle6482"
           style="color:#000000;clip-rule:nonzero;display:inline;overflow:visible;visibility:visible;opacity:1;isolation:auto;mix-blend-mode:normal;color-interpolation:sRGB;color-interpolation-filters:linearRGB;solid-color:#000000;solid-opacity:1;fill:#ffffff;fill-opacity:1;fill-rule:nonzero;stroke:none;stroke-width:6;stroke-linecap:butt;stroke-linejoin:miter;stroke-miterlimit:4;stroke-dasharray:none;stroke-dashoffset:0;stroke-opacity:1;color-rendering:auto;image-rendering:auto;shape-rendering:auto;text-rendering:auto;enable-background:accumulate" />
        <path
           style="fill:none;fill-rule:evenodd;stroke:#ffffff;stroke-width:2.47918153;stroke-linecap:butt;stroke-linejoin:miter;stroke-miterlimit:4;stroke-dasharray:none;stroke-opacity:1"
           d="m 242,748.36218 28,0"
           id="path6484"
           inkscape:connector-curvature="0" />
      </g>
    </g>
  </g>
  <g
     inkscape:groupmode="layer"
     id="layer3"
     inkscape:label="flags"
     style="display:inline">
    <g
       id="FlagGS"
       inkscape:label="FlagGS"
       transform="matrix(0.87772418,0,0,1,55.197381,0)">
      <rect
         ry="6.2462907"
         rx="6.2462907"
         y="221.47681"
         x="385.99112"
         height="69.046387"
         width="34.179302"
         id="rect4448"
         style="color:#000000;clip-rule:nonzero;display:inline;overflow:visible;visibility:visible;opacity:1;isolation:auto;mix-blend-mode:normal;color-interpolation:sRGB;color-interpolation-filters:linearRGB;solid-color:#000000;solid-opacity:1;fill:#e11820;fill-opacity:1;fill-rule:nonzero;stroke:none;stroke-width:34;stroke-linecap:butt;stroke-linejoin:miter;stroke-miterlimit:4;stroke-dasharray:none;stroke-dashoffset:0;stroke-opacity:1;color-rendering:auto;image-rendering:auto;shape-rendering:auto;text-rendering:auto;enable-background:accumulate" />
      <path
         style="fill:none;fill-rule:evenodd;stroke:#000000;stroke-width:3.82205534;stroke-linecap:butt;stroke-linejoin:miter;stroke-miterlimit:4;stroke-dasharray:none;stroke-opacity:1;marker-start:url(#TriangleInM);marker-end:url(#TriangleOutM)"
         d="m 403.08077,238.5046 0,34.9908"
         id="path4978"
         inkscape:connector-curvature="0" />
    </g>
    <g
       transform="matrix(0,0.87772418,-1,0,512,53.620475)"
       inkscape:label="FlagLOC"
       id="FlagLOC">
      <rect
         style="color:#000000;clip-rule:nonzero;display:inline;overflow:visible;visibility:visible;opacity:1;isolation:auto;mix-blend-mode:normal;color-interpolation:sRGB;color-interpolation-filters:linearRGB;solid-color:#000000;solid-opacity:1;fill:#e11820;fill-opacity:1;fill-rule:nonzero;stroke:none;stroke-width:34;stroke-linecap:butt;stroke-linejoin:miter;stroke-miterlimit:4;stroke-dasharray:none;stroke-dashoffset:0;stroke-opacity:1;color-rendering:auto;image-rendering:auto;shape-rendering:auto;text-rendering:auto;enable-background:accumulate"
         id="rect4959"
         width="34.179302"
         height="69.046387"
         x="385.99112"
         y="221.47681"
         rx="6.2462907"
         ry="6.2462907" />
      <path
         style="display:inline;fill:none;fill-rule:evenodd;stroke:#000000;stroke-width:3.82205534;stroke-linecap:butt;stroke-linejoin:miter;stroke-miterlimit:4;stroke-dasharray:none;stroke-opacity:1;marker-start:url(#TriangleInM-0);marker-end:url(#TriangleOutM-1)"
         d="m 403.08077,238.5046 0,34.9908"
         id="path4978-8"
         inkscape:connector-curvature="0" />
    </g>
    <path
       sodipodi:nodetypes="ccsscc"
       inkscape:connector-curvature="0"
       id="FlagTO"
       d="m 356.73755,186.62352 13.43503,25.11861 c 0,0.35143 -0.55041,0.63435 -1.23412,0.63435 l -24.40182,0 c -0.6837,0 -1.23412,-0.28292 -1.23412,-0.63435 z"
       style="color:#000000;clip-rule:nonzero;display:inline;overflow:visible;visibility:visible;opacity:1;isolation:auto;mix-blend-mode:normal;color-interpolation:sRGB;color-interpolation-filters:linearRGB;solid-color:#000000;solid-opacity:1;fill:#ffffff;fill-opacity:1;fill-rule:nonzero;stroke:none;stroke-width:34;stroke-linecap:butt;stroke-linejoin:miter;stroke-miterlimit:4;stroke-dasharray:none;stroke-dashoffset:0;stroke-opacity:1;color-rendering:auto;image-rendering:auto;shape-rendering:auto;text-rendering:auto;enable-background:accumulate"
       inkscape:label="FlagTO" />
    <path
       inkscape:label="FlagTOCover"
       style="color:#000000;clip-rule:nonzero;display:inline;overflow:visible;visibility:visible;opacity:1;isolation:auto;mix-blend-mode:normal;color-interpolation:sRGB;color-interpolation-filters:linearRGB;solid-color:#000000;solid-opacity:1;fill:#0c0c0c;fill-opacity:1;fill-rule:nonzero;stroke:none;stroke-width:34;stroke-linecap:butt;stroke-linejoin:miter;stroke-miterlimit:4;stroke-dasharray:none;stroke-dashoffset:0;stroke-opacity:1;color-rendering:auto;image-rendering:auto;shape-rendering:auto;text-rendering:auto;enable-background:accumulate"
       d="m 356.73755,183.74823 16.43503,30.72753 c 0,0.42991 -0.67332,0.77601 -1.5097,0.77601 l -29.85066,0 c -0.83637,0 -1.5097,-0.3461 -1.5097,-0.77601 z"
       id="FlagTOCover"
       inkscape:connector-curvature="0"
       sodipodi:nodetypes="ccsscc" />
    <path
       inkscape:label="FlagFROM"
       style="color:#000000;clip-rule:nonzero;display:inline;overflow:visible;visibility:visible;opacity:1;isolation:auto;mix-blend-mode:normal;color-interpolation:sRGB;color-interpolation-filters:linearRGB;solid-color:#000000;solid-opacity:1;fill:#ffffff;fill-opacity:1;fill-rule:nonzero;stroke:none;stroke-width:34;stroke-linecap:butt;stroke-linejoin:miter;stroke-miterlimit:4;stroke-dasharray:none;stroke-dashoffset:0;stroke-opacity:1;color-rendering:auto;image-rendering:auto;shape-rendering:auto;text-rendering:auto;enable-background:accumulate"
       d="m 356.73755,325.37648 13.43503,-25.11861 c 0,-0.35143 -0.55041,-0.63435 -1.23412,-0.63435 l -24.40182,0 c -0.6837,0 -1.23412,0.28292 -1.23412,0.63435 z"
       id="FlagFROM"
       inkscape:connector-curvature="0"
       sodipodi:nodetypes="ccsscc" />
    <text
       xml:space="preserve"
       style="font-style:normal;font-variant:normal;font-weight:bold;font-stretch:normal;font-size:42.09389114px;line-height:1000%;font-family:Overpass;-inkscape-font-specification:'Overpass, Bold';text-align:center;letter-spacing:0px;word-spacing:0px;writing-mode:lr-tb;text-anchor:middle;fill:#000000;fill-opacity:1;stroke:none;stroke-width:1px;stroke-linecap:butt;stroke-linejoin:miter;stroke-opacity:1"
       x="356.98306"
       y="178.43517"
       id="text6545"
       sodipodi:linespacing="1000%"><tspan
         sodipodi:role="line"
         id="tspan6547"
         x="356.98306"
         y="178.43517"
         style="font-size:23.38549423px;fill:#ffffff">TO</tspan></text>
    <text
       sodipodi:linespacing="1000%"
       id="text6549"
       y="350.39264"
       x="356.45923"
       style="font-style:normal;font-variant:normal;font-weight:bold;font-stretch:normal;font-size:41.87725449px;line-height:1000%;font-family:Overpass;-inkscape-font-specification:'Overpass, Bold';text-align:center;letter-spacing:0px;word-spacing:0px;writing-mode:lr-tb;text-anchor:middle;fill:#000000;fill-opacity:1;stroke:none;stroke-width:1px;stroke-linecap:butt;stroke-linejoin:miter;stroke-opacity:1"
       xml:space="preserve"><tspan
         style="font-size:23.26514244px;fill:#ffffff"
         y="350.39264"
         x="356.45923"
         id="tspan6551"
         sodipodi:role="line">FR</tspan></text>
    <path
       sodipodi:nodetypes="ccsscc"
       inkscape:connector-curvature="0"
       id="FlagFROMCover"
       d="m 356.73755,328.25177 16.43503,-30.72753 c 0,-0.42991 -0.67332,-0.77601 -1.5097,-0.77601 l -29.85066,0 c -0.83637,0 -1.5097,0.3461 -1.5097,0.77601 z"
       style="color:#000000;clip-rule:nonzero;display:inline;overflow:visible;visibility:visible;opacity:1;isolation:auto;mix-blend-mode:normal;color-interpolation:sRGB;color-interpolation-filters:linearRGB;solid-color:#000000;solid-opacity:1;fill:#0c0c0c;fill-opacity:1;fill-rule:nonzero;stroke:none;stroke-width:34;stroke-linecap:butt;stroke-linejoin:miter;stroke-miterlimit:4;stroke-dasharray:none;stroke-dashoffset:0;stroke-opacity:1;color-rendering:auto;image-rendering:auto;shape-rendering:auto;text-rendering:auto;enable-background:accumulate"
       inkscape:label="FlagFROMCover" />
  </g>
  <g
     inkscape:groupmode="layer"
     id="layer1"
     inkscape:label="CompassCard"
     style="display:inline">
    <g
       id="Card"
       inkscape:label="Card">
      <path
         style="font-style:normal;font-variant:normal;font-weight:normal;font-stretch:normal;font-size:52.55440903px;line-height:1000%;font-family:Overpass;-inkscape-font-specification:'Overpass, Normal';text-align:center;letter-spacing:0px;word-spacing:0px;writing-mode:lr-tb;text-anchor:middle;fill:#ffffff;fill-opacity:1;stroke:none;stroke-width:1px;stroke-linecap:butt;stroke-linejoin:miter;stroke-opacity:1"
         d="M 242.05273 22.681641 L 242.05273 59.480469 L 247.51953 59.480469 L 247.51953 34.511719 L 247.36523 31.791016 L 248.85352 34.511719 L 264.76367 59.480469 L 269.92188 59.480469 L 269.92188 22.681641 L 264.45508 22.681641 L 264.45508 47.291016 L 264.60938 50.0625 L 263.0957 47.240234 L 247.57031 22.681641 L 242.05273 22.681641 z M 159.65234 43.820312 C 158.94833 43.807003 158.22635 43.861362 157.48633 43.982422 C 156.01255 44.201179 154.55625 44.72497 153.11914 45.554688 C 151.83018 46.298867 150.73394 47.138669 149.83203 48.074219 C 148.93013 49.00977 148.21712 50.015917 147.69141 51.089844 C 147.17196 52.140402 146.82555 53.248159 146.65039 54.416016 C 146.48152 55.5605 146.48827 56.721584 146.67383 57.898438 L 152.03711 57.025391 C 152.00901 56.429249 152.04207 55.817796 152.13477 55.191406 C 152.21887 54.550202 152.38824 53.938025 152.64453 53.355469 C 152.91564 52.764361 153.29202 52.20077 153.77344 51.666016 C 154.24631 51.116447 154.85964 50.623743 155.61523 50.1875 C 157.27458 49.229477 158.76635 48.921565 160.08984 49.263672 C 161.41961 49.582413 162.51181 50.483288 163.36719 51.964844 C 163.735 52.601915 163.9545 53.255559 164.02539 53.925781 C 164.08769 54.581183 164.01539 55.226107 163.80859 55.859375 C 163.59279 56.477823 163.24477 57.073548 162.76562 57.646484 C 162.29275 58.196057 161.68609 58.683641 160.94531 59.111328 L 158.50195 60.523438 L 161.13086 65.078125 L 163.57617 63.667969 C 164.65771 63.043545 165.66156 62.641003 166.58594 62.462891 C 167.51031 62.284771 168.35259 62.292559 169.11523 62.484375 C 169.88413 62.65283 170.55913 62.984566 171.14062 63.478516 C 171.72839 63.949092 172.22297 64.532179 172.625 65.228516 C 173.15534 66.14708 173.43901 67.030284 173.47461 67.878906 C 173.52501 68.718976 173.39301 69.516789 173.07812 70.271484 C 172.75465 71.01136 172.27451 71.70204 171.63867 72.345703 C 170.99428 72.974547 170.24212 73.537083 169.38281 74.033203 C 168.71611 74.418123 168.00965 74.718249 167.26367 74.931641 C 166.5177 75.145036 165.74713 75.243889 164.94922 75.230469 C 164.14275 75.202229 163.31975 75.044788 162.48242 74.757812 C 161.65991 74.462279 160.82401 74.006448 159.97461 73.390625 L 156.57812 77.722656 C 157.66413 78.577212 158.81704 79.256092 160.03516 79.757812 C 161.24472 80.24472 162.50471 80.543253 163.81445 80.65625 C 165.11565 80.75444 166.44923 80.63577 167.81641 80.300781 C 169.20694 79.972054 170.60619 79.402454 172.01367 78.589844 C 173.61375 77.666037 174.97096 76.595509 176.08594 75.378906 C 177.20091 74.162313 178.01056 72.845328 178.51562 71.427734 C 179.0207 70.01014 179.19971 68.523485 179.05273 66.96875 C 178.89721 65.399199 178.3574 63.814924 177.43359 62.214844 C 176.91181 61.311094 176.30724 60.553541 175.61914 59.943359 C 174.93103 59.33318 174.18304 58.8579 173.37305 58.515625 C 172.56307 58.173356 171.6983 57.959868 170.78125 57.876953 C 169.85564 57.779223 168.90034 57.799587 167.91211 57.935547 C 168.89418 56.42034 169.37184 54.870134 169.3457 53.285156 C 169.3258 51.676805 168.88663 50.131952 168.03125 48.650391 C 167.33839 47.450327 166.44389 46.464939 165.34766 45.695312 C 164.25769 44.90231 163.04501 44.357867 161.70898 44.0625 C 161.04097 43.914816 160.35636 43.833623 159.65234 43.820312 z M 366.15039 51.326172 C 365.8479 51.321872 365.54823 51.331173 365.25 51.351562 C 364.08047 51.426983 362.94663 51.681051 361.84766 52.113281 C 360.77205 52.539252 359.77013 53.125835 358.84375 53.875 L 362.28125 58.082031 C 362.78346 57.759609 363.32915 57.482915 363.91797 57.25 C 364.51534 57.002269 365.13103 56.842768 365.76367 56.773438 C 366.41115 56.712668 367.0872 56.758648 367.79102 56.908203 C 368.50339 57.042934 369.23659 57.327429 369.99219 57.763672 C 371.65153 58.721695 372.66382 59.858545 373.0293 61.175781 C 373.41814 62.486759 373.18546 63.883678 372.33008 65.365234 C 371.96226 66.002306 371.50592 66.51952 370.96094 66.916016 C 370.4245 67.297703 369.82978 67.556217 369.17773 67.693359 C 368.53423 67.815695 367.84512 67.814004 367.10938 67.685547 C 366.397 67.550816 365.67047 67.269487 364.92969 66.841797 L 362.48438 65.429688 L 359.85547 69.986328 L 362.29883 71.396484 C 363.38037 72.020911 364.22926 72.688916 364.8457 73.400391 C 365.46214 74.111868 365.87855 74.847142 366.09375 75.603516 C 366.33231 76.353624 366.38312 77.102952 366.24609 77.853516 C 366.13245 78.597815 365.87469 79.317336 365.47266 80.013672 C 364.94232 80.932237 364.31869 81.619073 363.60156 82.074219 C 362.89926 82.537919 362.14113 82.823129 361.33008 82.927734 C 360.52758 83.017524 359.68979 82.947574 358.81445 82.71875 C 357.94765 82.475111 357.08391 82.105495 356.22461 81.609375 C 355.5579 81.224455 354.94646 80.761997 354.38867 80.222656 C 353.83087 79.683321 353.35804 79.064909 352.9707 78.367188 C 352.59193 77.654644 352.31662 76.86473 352.14648 75.996094 C 351.9912 75.136014 351.96954 74.184148 352.07812 73.140625 L 346.62891 72.365234 C 346.43183 73.733016 346.41924 75.069224 346.59375 76.375 C 346.77686 77.665961 347.14806 78.90688 347.70508 80.097656 C 348.27064 81.273614 349.03997 82.370211 350.01367 83.386719 C 350.99363 84.426592 352.18822 85.353406 353.5957 86.166016 C 355.19578 87.089822 356.80101 87.72864 358.41211 88.085938 C 360.0232 88.44323 361.56861 88.486225 363.04883 88.214844 C 364.52903 87.943457 365.90478 87.355821 367.17773 86.451172 C 368.45925 85.531708 369.56252 84.271961 370.48633 82.671875 C 371.00811 81.768126 371.36054 80.865847 371.54492 79.964844 C 371.7293 79.063832 371.76874 78.177295 371.66016 77.304688 C 371.55158 76.432085 371.30274 75.577836 370.91602 74.742188 C 370.53785 73.891717 370.04349 73.073003 369.43164 72.285156 C 371.23489 72.378066 372.81623 72.016315 374.17578 71.201172 C 375.55871 70.379767 376.67782 69.229603 377.5332 67.748047 C 378.22606 66.547984 378.63159 65.279489 378.75 63.945312 C 378.89177 62.604866 378.756 61.283229 378.34375 59.978516 C 377.93154 58.673806 377.25049 57.439989 376.30078 56.279297 C 375.37444 55.112338 374.19297 54.114873 372.75586 53.285156 C 371.46691 52.540976 370.19281 52.012514 368.93164 51.699219 C 367.98577 51.464245 367.05787 51.338967 366.15039 51.326172 z M 222.66992 58.707031 L 219.93945 59.142578 C 219.49902 59.212788 219.19344 59.585266 219.25586 59.974609 L 222.59961 80.912109 C 222.66111 81.301462 223.06544 81.558624 223.50586 81.488281 L 226.23633 81.052734 C 226.67665 80.982464 226.9821 80.612013 226.91992 80.222656 L 223.57617 59.285156 C 223.51467 58.895811 223.11027 58.636712 222.66992 58.707031 z M 288.77539 58.707031 C 288.33496 58.636821 287.93129 58.895811 287.86914 59.285156 L 284.52539 80.222656 C 284.46379 80.612013 284.76856 80.982425 285.20898 81.052734 L 287.93945 81.488281 C 288.37988 81.558551 288.78352 81.301462 288.8457 80.912109 L 292.18945 59.974609 C 292.25105 59.585266 291.94629 59.212881 291.50586 59.142578 L 288.77539 58.707031 z M 132.09375 59.730469 C 131.38973 59.717159 130.66776 59.771519 129.92773 59.892578 C 128.45395 60.111337 126.99961 60.635128 125.5625 61.464844 C 124.27355 62.209022 123.1773 63.048826 122.27539 63.984375 C 121.37348 64.919929 120.66047 65.926075 120.13477 67 C 119.61532 68.050557 119.26696 69.158313 119.0918 70.326172 C 118.92292 71.470656 118.93157 72.63174 119.11719 73.808594 L 124.48047 72.935547 C 124.45237 72.339404 124.48347 71.727953 124.57617 71.101562 C 124.66027 70.460358 124.8316 69.848182 125.08789 69.265625 C 125.35899 68.67452 125.73537 68.110927 126.2168 67.576172 C 126.68966 67.026602 127.30299 66.533899 128.05859 66.097656 C 129.71793 65.139633 131.2097 64.831723 132.5332 65.173828 C 133.86296 65.492569 134.95517 66.393444 135.81055 67.875 C 136.17836 68.512071 136.39786 69.165715 136.46875 69.835938 C 136.53105 70.491338 136.45875 71.136264 136.25195 71.769531 C 136.03615 72.387979 135.68812 72.983702 135.20898 73.556641 C 134.73611 74.106211 134.12945 74.593796 133.38867 75.021484 L 130.94531 76.433594 L 133.57422 80.988281 L 136.01953 79.578125 C 137.10107 78.9537 138.10296 78.55116 139.02734 78.373047 C 139.95172 78.194932 140.79596 78.202713 141.55859 78.394531 C 142.32749 78.562985 143.00249 78.894722 143.58398 79.388672 C 144.17174 79.859248 144.66633 80.442336 145.06836 81.138672 C 145.5987 82.057237 145.88237 82.940441 145.91797 83.789062 C 145.96837 84.629132 145.83647 85.426945 145.52148 86.181641 C 145.198 86.921516 144.71787 87.612197 144.08203 88.255859 C 143.43764 88.884706 142.68548 89.447241 141.82617 89.943359 C 141.15947 90.328279 140.45301 90.628405 139.70703 90.841797 C 138.96106 91.055193 138.19049 91.154045 137.39258 91.140625 C 136.5861 91.112385 135.76311 90.954947 134.92578 90.667969 C 134.10327 90.372437 133.26737 89.916606 132.41797 89.300781 L 129.02148 93.632812 C 130.10748 94.487368 131.2604 95.166247 132.47852 95.667969 C 133.68808 96.154876 134.94807 96.453408 136.25781 96.566406 C 137.55901 96.664586 138.8926 96.545926 140.25977 96.210938 C 141.65031 95.882208 143.04955 95.312609 144.45703 94.5 C 146.05711 93.576192 147.41432 92.505662 148.5293 91.289062 C 149.64427 90.072468 150.4539 88.755484 150.95898 87.337891 C 151.46406 85.920297 151.64306 84.433642 151.49609 82.878906 C 151.34057 81.309355 150.80076 79.72508 149.87695 78.125 C 149.35517 77.221251 148.75061 76.463697 148.0625 75.853516 C 147.37439 75.243334 146.62639 74.768056 145.81641 74.425781 C 145.00642 74.083513 144.14166 73.870025 143.22461 73.787109 C 142.299 73.689379 141.34174 73.709743 140.35352 73.845703 C 141.33558 72.330497 141.8152 70.780291 141.78906 69.195312 C 141.76916 67.586962 141.32999 66.042109 140.47461 64.560547 C 139.78176 63.360484 138.88725 62.375097 137.79102 61.605469 C 136.70104 60.812466 135.48836 60.268024 134.15234 59.972656 C 133.48433 59.824973 132.79777 59.743779 132.09375 59.730469 z M 253.375 66.75 C 252.71575 66.75 252.18555 67.035107 252.18555 67.388672 L 252.18555 77.611328 C 252.18555 77.964893 252.71575 78.25 253.375 78.25 L 258.625 78.25 C 259.28425 78.25 259.81445 77.964893 259.81445 77.611328 L 259.81445 67.388672 C 259.81445 67.035107 259.28425 66.75 258.625 66.75 L 253.375 66.75 z M 240.98047 67.064453 L 238.36523 67.25 C 237.94378 67.27946 237.62621 67.603974 237.65234 67.976562 L 238.43164 79.089844 A 178.01099 178.01099 0 0 1 242.55078 78.589844 L 241.78516 67.685547 C 241.75966 67.312961 241.40192 67.034873 240.98047 67.064453 z M 270.77734 67.150391 C 270.35598 67.119871 269.99568 67.396991 269.96875 67.769531 L 269.17969 78.691406 A 178.01099 178.01099 0 0 1 273.57227 78.912109 L 274.69727 68.185547 C 274.73637 67.814064 274.43007 67.481538 274.00977 67.4375 L 273.61719 67.396484 C 273.54419 67.370134 273.47222 67.345704 273.39062 67.339844 L 272.39453 67.267578 L 271.4043 67.164062 C 271.3235 67.156463 271.24562 67.166358 271.16992 67.179688 L 270.77734 67.150391 z M 189.21484 67.339844 C 189.11257 67.337744 189.00554 67.352202 188.90039 67.388672 L 186.28516 68.292969 C 185.8636 68.438685 185.62901 68.857842 185.75781 69.230469 L 192.68555 89.267578 C 192.81449 89.640286 193.25824 89.823409 193.67969 89.677734 L 196.29492 88.775391 C 196.7165 88.629699 196.95119 88.212466 196.82227 87.839844 L 189.89453 67.798828 C 189.79793 67.519356 189.52312 67.347172 189.21484 67.339844 z M 322.23047 67.339844 C 321.92206 67.346144 321.64935 67.51935 321.55273 67.798828 L 314.62305 87.839844 C 314.49412 88.212466 314.729 88.629711 315.15039 88.775391 L 317.76562 89.677734 C 318.18707 89.823409 318.63091 89.640134 318.75977 89.267578 L 325.6875 69.230469 C 325.81619 68.857839 325.58155 68.438685 325.16016 68.292969 L 322.54492 67.388672 C 322.43986 67.352202 322.33338 67.337464 322.23047 67.339844 z M 208.68945 72.417969 C 208.59245 72.406819 208.49109 72.414173 208.38867 72.439453 L 205.84375 73.074219 C 205.43397 73.17653 205.17903 73.55167 205.26953 73.914062 L 207.95703 84.681641 A 178.01099 178.01099 0 0 1 211.99023 83.724609 L 209.29102 72.908203 C 209.22472 72.636405 208.98014 72.45064 208.68945 72.417969 z M 303.05664 72.564453 C 302.76622 72.597123 302.52337 72.783004 302.45508 73.054688 L 299.77148 83.71875 A 178.01099 178.01099 0 0 1 303.78711 84.744141 L 306.47656 74.066406 C 306.56866 73.704192 306.31012 73.327721 305.90039 73.224609 L 303.35938 72.583984 C 303.25752 72.558294 303.15342 72.553743 303.05664 72.564453 z M 177.51562 83.314453 C 177.41823 83.319253 177.32107 83.347795 177.22461 83.390625 L 174.83008 84.455078 C 174.44416 84.627032 174.25408 85.041674 174.40625 85.382812 L 179.02148 95.738281 A 178.01099 178.01099 0 0 1 182.80469 94.042969 L 178.19531 83.695312 C 178.11131 83.503472 177.9351 83.37614 177.73047 83.332031 C 177.66257 83.317201 177.58865 83.309753 177.51562 83.314453 z M 334.20703 83.523438 C 333.91533 83.504537 333.64369 83.644752 333.5293 83.900391 L 329.0625 93.873047 A 178.01099 178.01099 0 0 1 332.79688 95.675781 L 337.31055 85.595703 C 337.46324 85.254877 337.27725 84.842656 336.89258 84.669922 L 334.5 83.597656 C 334.4034 83.554536 334.30429 83.529497 334.20703 83.523438 z M 164.4707 90.533203 C 164.22675 90.540803 163.9339 90.628153 163.64844 90.792969 L 159.10156 93.416016 C 158.53063 93.745644 158.21384 94.258261 158.39062 94.564453 L 163.50195 103.41797 C 163.67873 103.72416 164.28063 103.70656 164.85156 103.37695 L 169.39844 100.75195 C 169.96937 100.42232 170.28615 99.909708 170.10938 99.603516 L 164.99805 90.75 C 164.90965 90.596905 164.71466 90.525558 164.4707 90.533203 z M 347.5293 90.533203 C 347.28534 90.525603 347.09034 90.596903 347.00195 90.75 L 341.89062 99.603516 C 341.71384 99.909713 342.03063 100.42232 342.60156 100.75195 L 347.14844 103.37695 C 347.71938 103.70659 348.32126 103.72419 348.49805 103.41797 L 353.60938 94.564453 C 353.78616 94.258257 353.46938 93.745646 352.89844 93.416016 L 348.35156 90.792969 C 348.0661 90.628158 347.77325 90.540847 347.5293 90.533203 z M 148.99219 99.447266 C 148.80989 99.423586 148.60653 99.467665 148.43164 99.585938 L 146.26367 101.04883 C 145.9136 101.28528 145.79859 101.72759 146.00781 102.03711 L 152.43945 111.56641 A 178.01099 178.01099 0 0 1 155.8125 109.1543 L 149.44336 99.71875 C 149.33975 99.563982 149.17478 99.470878 148.99219 99.447266 z M 362.76953 99.703125 C 362.56047 99.709825 362.36591 99.805715 362.24805 99.980469 L 356.19922 108.90625 A 178.01099 178.01099 0 0 1 359.52734 111.38281 L 365.67969 102.30469 C 365.88921 101.99549 365.77779 101.5553 365.42773 101.31836 L 363.25781 99.851562 C 363.17061 99.792282 363.07519 99.748485 362.98047 99.724609 C 362.90877 99.707139 362.83926 99.700735 362.76953 99.703125 z M 128.96094 101.3125 C 128.76701 101.3055 128.55799 101.3711 128.38477 101.51172 L 126.23828 103.25391 C 125.89181 103.53486 125.81387 104.00652 126.0625 104.3125 L 139.42578 120.77539 C 139.67411 121.08146 140.15382 121.10246 140.5 120.82031 L 142.64844 119.07617 C 142.99461 118.79514 143.07284 118.32173 142.82422 118.01562 L 129.46094 101.55664 C 129.33678 101.40342 129.15513 101.32036 128.96094 101.3125 z M 382.48633 101.3125 C 382.29233 101.3195 382.10866 101.4042 381.98438 101.55664 L 368.62109 118.01758 C 368.37263 118.32384 368.45069 118.79493 368.79688 119.07617 L 370.94531 120.82031 C 371.29158 121.10126 371.77093 121.08226 372.01953 120.77734 L 385.38281 104.31445 C 385.63118 104.00838 385.55322 103.535 385.20703 103.25391 L 383.06055 101.51172 C 382.88731 101.37124 382.68034 101.3043 382.48633 101.3125 z M 72.28125 119.04297 C 70.880935 119.00487 69.550945 119.18625 68.292969 119.58594 C 67.020179 119.97708 65.836742 120.60719 64.742188 121.47656 C 63.632818 122.33738 62.655418 123.50006 61.808594 124.9668 C 60.936108 126.47799 60.4072 127.94095 60.222656 129.35547 C 60.038113 130.76999 60.110211 132.13623 60.4375 133.45117 C 60.764795 134.76612 61.306005 136.01572 62.0625 137.20312 C 62.81899 138.39056 63.709973 139.51845 64.734375 140.58398 C 65.752516 141.62615 66.862986 142.59204 68.066406 143.48438 C 69.278374 144.36189 70.492153 145.1521 71.707031 145.85352 C 73.025619 146.6148 74.393561 147.30605 75.8125 147.92773 C 77.225179 148.52605 78.649002 149.00304 80.083984 149.35742 C 81.504153 149.70328 82.910967 149.90221 84.302734 149.95508 C 85.688235 149.98458 87.016272 149.80325 88.289062 149.41211 C 89.547038 149.01242 90.732428 148.3823 91.841797 147.52148 C 92.944905 146.6373 93.918801 145.46283 94.765625 143.99609 C 95.629557 142.49972 96.153347 141.04343 96.337891 139.62891 C 96.530988 138.19957 96.464014 136.82862 96.136719 135.51367 C 95.809429 134.19873 95.268214 132.94719 94.511719 131.75977 C 93.740409 130.56379 92.84626 129.4445 91.828125 128.40234 C 90.809984 127.36017 89.697561 126.39233 88.494141 125.5 C 87.275906 124.59911 86.060581 123.79907 84.845703 123.09766 C 83.541936 122.34493 82.184163 121.66863 80.771484 121.07031 C 79.352544 120.44863 77.931887 119.96498 76.511719 119.61914 C 75.076735 119.26477 73.666757 119.0725 72.28125 119.04297 z M 123.41992 120.29883 C 123.23616 120.30583 123.0465 120.38743 122.89453 120.5332 L 121.01172 122.35352 C 120.70787 122.64679 120.67122 123.10058 120.93164 123.36914 L 128.94141 131.6582 A 178.01099 178.01099 0 0 1 131.77148 128.62109 L 123.91406 120.48828 C 123.78415 120.3542 123.60572 120.29069 123.42188 120.29883 L 123.41992 120.29883 z M 388.23047 120.61328 C 388.04673 120.60428 387.86842 120.66888 387.73828 120.80273 L 380.125 128.65234 A 178.01099 178.01099 0 0 1 383.15625 131.47852 L 390.71484 123.6875 C 390.97502 123.4193 390.94213 122.96788 390.63867 122.67383 L 388.75586 120.84766 C 388.60438 120.70054 388.4143 120.62172 388.23047 120.61328 z M 72.050781 124.56836 C 72.387363 124.57136 72.73192 124.59251 73.083984 124.63281 C 74.477427 124.78543 75.941113 125.17613 77.474609 125.80469 C 79.008105 126.43325 80.514538 127.17587 81.996094 128.03125 C 82.929478 128.57014 83.850434 129.14996 84.755859 129.77148 C 85.66129 130.393 86.501561 131.05589 87.279297 131.76172 C 88.042217 132.45899 88.719766 133.18548 89.310547 133.94141 C 89.901328 134.69733 90.345093 135.48803 90.640625 136.31055 C 90.944708 137.11824 91.078575 137.9463 91.042969 138.79492 C 90.992549 139.635 90.71561 140.49112 90.210938 141.36523 C 89.714819 142.22454 89.123042 142.89103 88.435547 143.36328 C 87.741792 143.81217 86.978888 144.1225 86.148438 144.29492 C 85.311724 144.44396 84.422294 144.46382 83.478516 144.35352 C 82.534743 144.24322 81.569304 144.03082 80.583984 143.71875 C 79.58385 143.39812 78.570168 143.00104 77.541016 142.52539 C 76.520418 142.03492 75.520798 141.50596 74.542969 140.94141 C 73.624405 140.41107 72.712066 139.83636 71.806641 139.21484 C 70.886395 138.58476 70.044171 137.91993 69.28125 137.22266 C 68.503514 136.51683 67.819296 135.78718 67.228516 135.03125 C 66.637734 134.27533 66.197474 133.49837 65.908203 132.69922 C 65.612674 131.87671 65.490596 131.04515 65.541016 130.20508 C 65.585176 129.34164 65.860561 128.47178 66.365234 127.59766 C 67.100859 126.32352 68.055127 125.47257 69.230469 125.04492 C 70.100864 124.71777 71.041037 124.55949 72.050781 124.56836 z M 104.00977 125.61914 C 103.81775 125.64424 103.62595 125.74617 103.48047 125.91406 L 101.66797 128.00195 C 101.37574 128.33907 101.38083 128.81975 101.67773 129.07812 L 117.69922 142.96875 C 117.99713 143.22713 118.47157 143.16494 118.76367 142.82812 L 120.57617 140.73633 C 120.86802 140.3995 120.86163 139.92021 120.5625 139.66211 L 104.54492 125.77148 C 104.39651 125.6428 104.20354 125.59384 104.01172 125.61914 L 104.00977 125.61914 z M 407.43164 125.61914 C 407.2399 125.59492 407.04685 125.64219 406.89844 125.77148 L 390.87891 139.66211 C 390.58102 139.92021 390.57654 140.3995 390.86719 140.73633 L 392.67969 142.82812 C 392.97183 143.16494 393.44631 143.22713 393.74414 142.96875 L 409.76562 129.07812 C 410.06347 128.81974 410.06685 128.33907 409.77344 128.00195 L 407.96289 125.91406 C 407.81729 125.74617 407.62548 125.64509 407.43359 125.61914 L 407.43164 125.61914 z M 443.80664 136.45117 C 442.48227 136.50957 441.14414 136.69697 439.79492 137.01172 C 437.11984 137.64749 434.45667 138.73059 431.80469 140.26172 C 430.07127 141.26251 428.57684 142.42133 427.32227 143.73828 C 426.09106 145.06149 425.1863 146.5024 424.60547 148.0625 C 424.02464 149.62261 423.81228 151.27582 423.9707 153.02148 C 424.1525 154.77341 424.78355 156.58247 425.86133 158.44922 C 426.8108 160.09375 427.91824 161.4497 429.18555 162.51562 C 430.46767 163.57303 431.83046 164.3256 433.27539 164.77539 C 434.73514 165.21662 436.24914 165.3402 437.81641 165.14648 C 439.38366 164.95277 440.93102 164.4162 442.45703 163.53516 C 443.99785 162.64556 445.25733 161.59293 446.23438 160.37695 C 447.22623 159.15241 447.92123 157.84121 448.32031 156.44531 C 448.74276 155.05567 448.84727 153.61238 448.63477 152.11523 C 448.43709 150.60952 447.92346 149.13828 447.09375 147.70117 C 446.6575 146.94557 446.18036 146.27331 445.66211 145.68359 C 445.15866 145.08532 444.63988 144.56433 444.10742 144.12109 C 443.58351 143.69267 443.0569 143.34526 442.52734 143.07812 C 442.0126 142.80245 441.51696 142.59512 441.04102 142.45508 C 442.83616 141.97176 444.54614 141.78505 446.16992 141.89453 C 447.80225 142.01882 449.32465 142.36306 450.73828 142.92969 C 452.16671 143.48777 453.48081 144.24204 454.67969 145.18945 C 455.88712 146.15169 456.97466 147.23085 457.94336 148.42969 L 462.5 145.79883 C 460.24504 143.09065 457.87732 140.9913 455.39648 139.5 C 452.91564 138.00871 450.36459 137.06226 447.74219 136.66016 C 446.44267 136.46224 445.13101 136.39276 443.80664 136.45117 z M 101.92773 145.26562 C 101.72384 145.28973 101.52069 145.40536 101.38086 145.59766 L 99.841797 147.71875 C 99.593495 148.06064 99.637092 148.51477 99.939453 148.73438 L 109.19141 155.44922 A 178.01099 178.01099 0 0 1 111.70117 152.15039 L 102.375 145.37891 C 102.2992 145.32361 102.21483 145.28751 102.12695 145.27148 C 102.06205 145.25828 101.99561 145.25603 101.92773 145.26562 z M 435.93359 145.38672 C 436.5924 145.37302 437.22072 145.46012 437.81836 145.64844 C 438.62377 145.91434 439.37049 146.3527 440.05859 146.96289 C 440.76151 147.56451 441.36959 148.31029 441.88281 149.19922 C 442.39604 150.08816 442.73352 150.98025 442.89453 151.875 C 443.07885 152.77601 443.08124 153.63358 442.90039 154.44922 C 442.71942 155.26485 442.35177 156.03065 441.79688 156.74609 C 441.26535 157.4678 440.53966 158.09271 439.62109 158.62305 C 438.71735 159.14483 437.82047 159.45719 436.92969 159.55664 C 436.06228 159.66236 435.23044 159.58894 434.43359 159.33789 C 433.63674 159.0868 432.89318 158.6551 432.20508 158.04492 C 431.52552 157.44956 430.92924 156.7073 430.41602 155.81836 C 429.90279 154.92943 429.55352 154.03577 429.36914 153.13477 C 429.18478 152.23375 429.17916 151.36756 429.35156 150.53711 C 429.53254 149.72148 429.88174 148.95729 430.39844 148.24414 C 430.92996 147.52243 431.64703 146.90069 432.55078 146.37891 C 433.46935 145.84857 434.37486 145.53305 435.26562 145.43359 C 435.49203 145.40659 435.71399 145.39132 435.93359 145.38672 z M 409.47461 145.62695 C 409.38541 145.64375 409.30217 145.67905 409.22656 145.73242 L 400.33203 152.16602 A 178.01099 178.01099 0 0 1 402.74414 155.53711 L 411.65625 149.09375 C 411.95886 148.87499 412.00398 148.42061 411.75586 148.07812 L 410.2207 145.95703 C 410.0969 145.78574 409.9237 145.67502 409.74414 145.63477 L 409.74219 145.63281 C 409.65139 145.61261 409.56243 145.61241 409.47461 145.62891 L 409.47461 145.62695 z M 54.839844 147.7207 C 53.841209 147.7187 52.851582 147.87248 51.873047 148.18164 C 50.568337 148.59385 49.336474 149.2749 48.175781 150.22461 C 47.008828 151.15096 46.009404 152.33242 45.179688 153.76953 C 44.435507 155.05848 43.907051 156.33259 43.59375 157.59375 C 43.280451 158.85492 43.164407 160.08249 43.246094 161.27539 C 43.321524 162.44492 43.575581 163.57875 44.007812 164.67773 C 44.433779 165.75334 45.022319 166.75526 45.771484 167.68164 L 49.978516 164.24414 C 49.656094 163.74193 49.377447 163.19624 49.144531 162.60742 C 48.896804 162.01005 48.739252 161.39437 48.669922 160.76172 C 48.609152 160.11426 48.653192 159.43818 48.802734 158.73438 C 48.937466 158.022 49.22196 157.2888 49.658203 156.5332 C 50.616226 154.87386 51.755029 153.86157 53.072266 153.49609 C 54.383243 153.10725 55.77821 153.33994 57.259766 154.19531 C 57.896837 154.56313 58.414045 155.01947 58.810547 155.56445 C 59.192228 156.10088 59.452696 156.6956 59.589844 157.34766 C 59.71218 157.99115 59.708582 158.68027 59.580078 159.41602 C 59.445347 160.12839 59.164018 160.85492 58.736328 161.5957 L 57.324219 164.04102 L 61.880859 166.66992 L 63.292969 164.22656 C 63.917395 163.14502 64.585394 162.29613 65.296875 161.67969 C 66.00835 161.06324 66.741677 160.64683 67.498047 160.43164 C 68.248156 160.19308 68.997484 160.14227 69.748047 160.2793 C 70.492346 160.39295 71.21382 160.65071 71.910156 161.05273 C 72.82872 161.58307 73.515554 162.2067 73.970703 162.92383 C 74.434406 163.62613 74.717657 164.38231 74.822266 165.19336 C 74.912056 165.99586 74.842106 166.83559 74.613281 167.71094 C 74.369642 168.57773 74.000026 169.44147 73.503906 170.30078 C 73.118986 170.96748 72.658482 171.57893 72.119141 172.13672 C 71.579805 172.69451 70.959441 173.16735 70.261719 173.55469 C 69.549175 173.93346 68.759261 174.20877 67.890625 174.37891 C 67.030545 174.53419 66.078672 174.55585 65.035156 174.44727 L 64.259766 179.89648 C 65.627548 180.09357 66.963755 180.10615 68.269531 179.93164 C 69.560493 179.74854 70.801412 179.37733 71.992188 178.82031 C 73.168145 178.25475 74.264742 177.48542 75.28125 176.51172 C 76.321123 175.53177 77.247937 174.33717 78.060547 172.92969 C 78.984357 171.3296 79.625128 169.72437 79.982422 168.11328 C 80.339722 166.50219 80.382715 164.95677 80.111328 163.47656 C 79.839941 161.99635 79.252305 160.62061 78.347656 159.34766 C 77.428192 158.06615 76.168439 156.96287 74.568359 156.03906 C 73.66461 155.51728 72.760384 155.16485 71.859375 154.98047 C 70.958365 154.79609 70.071827 154.75665 69.199219 154.86523 C 68.326615 154.97381 67.472367 155.22266 66.636719 155.60938 C 65.786258 155.98754 64.967538 156.48189 64.179688 157.09375 C 64.272598 155.2905 63.912794 153.70917 63.097656 152.34961 C 62.276252 150.96669 61.124139 149.84757 59.642578 148.99219 C 58.442515 148.29933 57.175974 147.8938 55.841797 147.77539 C 55.506685 147.73999 55.172722 147.7215 54.839844 147.7207 z M 94.302734 158.34766 C 94.014144 158.38906 93.663237 158.67336 93.416016 159.10156 L 90.792969 163.64844 C 90.463339 164.21937 90.443809 164.82127 90.75 164.99805 L 99.603516 170.10938 C 99.909708 170.28616 100.42232 169.96937 100.75195 169.39844 L 103.37695 164.85156 C 103.70658 164.28063 103.72418 163.67873 103.41797 163.50195 L 94.564453 158.39062 C 94.487903 158.34643 94.398931 158.33386 94.302734 158.34766 z M 417.69727 158.34766 C 417.60107 158.33386 417.5121 158.34663 417.43555 158.39062 L 408.58203 163.50195 C 408.27584 163.67874 408.29344 164.28063 408.62305 164.85156 L 411.24805 169.39844 C 411.57768 169.96937 412.09028 170.28617 412.39648 170.10938 L 421.25 164.99805 C 421.5562 164.82126 421.53669 164.21937 421.20703 163.64844 L 418.58398 159.10156 C 418.33677 158.67337 417.98586 158.38908 417.69727 158.34766 z M 85.224609 173.56445 C 84.956339 173.56245 84.685683 173.73281 84.546875 174.01758 L 83.398438 176.375 C 83.213342 176.7546 83.334398 177.18975 83.669922 177.35352 L 94.146484 182.46289 A 178.01099 178.01099 0 0 1 95.951172 178.72852 L 85.488281 173.62891 C 85.404851 173.58781 85.313973 173.56741 85.224609 173.56641 L 85.224609 173.56445 z M 426.32031 173.95508 C 426.22981 173.95572 426.14274 173.97688 426.05859 174.01758 L 416.24609 178.77539 A 178.01099 178.01099 0 0 1 417.94141 182.5625 L 427.86719 177.74805 C 428.2033 177.58519 428.32507 177.14587 428.14062 176.76562 L 427 174.41016 C 426.8618 174.12518 426.58861 173.95333 426.32031 173.95508 z M 68.806641 185.18164 C 68.524356 185.20374 68.254241 185.40821 68.134766 185.7207 L 67.146484 188.30273 C 66.987202 188.71933 67.151884 189.16966 67.521484 189.31055 L 87.328125 196.88477 C 87.69634 197.02563 88.12003 196.80397 88.279297 196.38672 L 89.269531 193.80273 C 89.428785 193.38636 89.261631 192.93772 88.892578 192.79688 L 69.085938 185.22266 C 68.993777 185.18666 68.900754 185.17514 68.806641 185.18164 z M 442.64062 185.18164 C 442.54613 185.17564 442.45151 185.18666 442.35938 185.22266 L 422.55273 192.79688 C 422.18455 192.93774 422.01659 193.38636 422.17578 193.80273 L 423.16602 196.38672 C 423.32527 196.80339 423.74882 197.02564 424.11719 196.88477 L 443.92383 189.31055 C 444.29199 189.16967 444.45999 188.7194 444.30078 188.30273 L 443.31055 185.7207 C 443.19103 185.40821 442.92295 185.20429 442.64062 185.18164 z M 73.494141 204.36719 L 73.494141 204.36914 C 73.229452 204.41264 72.989585 204.62527 72.902344 204.92969 L 72.181641 207.44922 C 72.065297 207.85525 72.261971 208.2644 72.621094 208.36719 L 83.904297 211.60156 A 178.01099 178.01099 0 0 1 84.929688 207.58203 L 73.761719 204.38281 C 73.671939 204.35811 73.582362 204.35329 73.494141 204.36719 z M 437.99219 204.7793 C 437.90349 204.7646 437.81254 204.76662 437.72266 204.79492 L 427.34375 207.74609 A 178.01099 178.01099 0 0 1 428.32227 211.7793 L 438.85742 208.7832 C 439.21668 208.68155 439.41426 208.26955 439.29883 207.86328 L 438.58008 205.34375 C 438.49318 205.03905 438.25667 204.82611 437.99219 204.78125 L 437.99219 204.7793 z M 59.619141 218.65234 C 59.232026 218.57724 58.852123 218.87064 58.767578 219.30859 L 58.242188 222.02344 C 58.157578 222.46143 58.40195 222.87244 58.789062 222.94727 L 79.609375 226.96875 C 79.996489 227.04385 80.374422 226.75228 80.458984 226.31445 L 80.984375 223.5957 C 81.068995 223.15787 80.824612 222.74664 80.4375 222.67188 L 59.619141 218.65234 z M 451.82617 218.65234 L 431.00781 222.67188 C 430.62077 222.74697 430.37632 223.15787 430.46094 223.5957 L 430.98633 226.31445 C 431.06983 226.75228 431.44889 227.04358 431.83594 226.96875 L 452.65625 222.94727 C 453.0433 222.87217 453.28763 222.46143 453.20312 222.02344 L 452.67773 219.30859 C 452.59423 218.87064 452.21323 218.5775 451.82617 218.65234 z M 19.486328 235.93359 L 19.486328 241.44922 L 42.09375 246.09375 C 43.120203 246.29904 43.957335 246.46228 44.607422 246.58203 C 45.257509 246.68466 45.823723 246.76117 46.302734 246.8125 C 45.823723 246.8638 45.267745 246.96713 44.634766 247.12109 C 44.001786 247.25796 43.154418 247.47285 42.09375 247.76367 L 19.486328 253.69141 L 19.486328 258.2832 L 42.144531 264.05859 C 43.222307 264.31521 44.086241 264.52814 44.736328 264.69922 C 45.369307 264.85317 45.925285 264.95648 46.404297 265.00781 C 45.925285 265.05911 45.361023 265.1522 44.710938 265.28906 C 44.06085 265.40882 43.205199 265.58033 42.144531 265.80273 L 19.486328 270.37109 L 19.486328 275.99023 L 56.283203 268.11133 L 56.283203 263.16016 L 32.419922 256.94922 C 31.444791 256.69261 30.657358 256.49624 30.058594 256.35938 C 29.442722 256.22253 28.90331 256.12751 28.441406 256.07617 C 28.90331 256.02487 29.442722 255.93178 30.058594 255.79492 C 30.657358 255.64095 31.444791 255.4363 32.419922 255.17969 L 56.283203 248.81445 L 56.283203 243.88867 L 19.486328 235.93359 z M 67.554688 236.70703 C 67.18321 236.66793 66.848519 236.97446 66.804688 237.39453 L 66.53125 240 C 66.48717 240.42005 66.751506 240.78992 67.123047 240.82812 L 78.734375 242.04492 A 178.01099 178.01099 0 0 1 78.980469 237.9043 L 67.554688 236.70703 z M 443.86523 237.13086 L 432.98047 238.25 A 178.01099 178.01099 0 0 1 433.48047 242.36523 L 444.29102 241.25391 C 444.66246 241.21561 444.9281 240.84797 444.88477 240.42773 L 444.61523 237.82031 C 444.57243 237.40026 444.23688 237.09264 443.86523 237.13086 z M 455.7168 244.01562 L 455.7168 267.98438 L 460.87305 267.98438 L 460.87305 249.48242 L 472.11328 249.48242 L 472.11328 260.69531 L 477.27148 260.69531 L 477.27148 249.48242 L 487.35547 249.48242 L 487.35547 266.82812 L 492.51367 266.82812 L 492.51367 244.01562 L 455.7168 244.01562 z M 67.388672 252.18555 C 67.035107 252.18555 66.75 252.71574 66.75 253.375 L 66.75 258.625 C 66.75 259.28426 67.035107 259.81445 67.388672 259.81445 L 77.611328 259.81445 C 77.964893 259.81445 78.25 259.28426 78.25 258.625 L 78.25 253.375 C 78.25 252.71574 77.964893 252.18555 77.611328 252.18555 L 67.388672 252.18555 z M 434.38867 252.18555 C 434.03511 252.18555 433.75 252.71574 433.75 253.375 L 433.75 258.625 C 433.75 259.28426 434.03511 259.81445 434.38867 259.81445 L 444.61133 259.81445 C 444.96489 259.81445 445.25 259.28426 445.25 258.625 L 445.25 253.375 C 445.25 252.71574 444.96489 252.18555 444.61133 252.18555 L 434.38867 252.18555 z M 78.501953 268.8125 L 67.056641 269.61523 C 66.684055 269.64073 66.406007 270.00241 66.435547 270.42383 L 66.617188 273.03711 C 66.646658 273.45852 66.973123 273.778 67.345703 273.75195 L 79.001953 272.93359 A 178.01099 178.01099 0 0 1 78.501953 268.8125 z M 433.39844 269.25586 A 178.01099 178.01099 0 0 1 433.18945 273.39453 L 444.00391 274.17578 C 444.37647 274.20208 444.70193 273.88422 444.73242 273.46289 L 444.91992 270.84961 C 444.95172 270.42831 444.67526 270.06796 444.30273 270.04102 L 433.39844 269.25586 z M 79.574219 284.52539 L 58.636719 287.86914 C 58.247376 287.93064 57.988325 288.33497 58.058594 288.77539 L 58.496094 291.50586 C 58.566304 291.9462 58.93684 292.25162 59.326172 292.18945 L 80.265625 288.8457 C 80.654983 288.7842 80.910069 288.37978 80.839844 287.93945 L 80.404297 285.20898 C 80.334057 284.76857 79.963559 284.46302 79.574219 284.52539 z M 431.87109 284.52539 C 431.48175 284.46379 431.11132 284.76857 431.04102 285.20898 L 430.60547 287.93945 C 430.53407 288.37978 430.79236 288.78344 431.18164 288.8457 L 452.11914 292.18945 C 452.5086 292.25105 452.88088 291.9462 452.95117 291.50586 L 453.38672 288.77539 C 453.45802 288.33497 453.198 287.93126 452.80859 287.86914 L 431.87109 284.52539 z M 83.544922 299.30078 L 72.277344 302.11133 C 71.914944 302.20253 71.706279 302.60573 71.808594 303.01562 L 72.443359 305.55664 C 72.545684 305.96648 72.920808 306.22529 73.283203 306.13477 L 84.453125 303.34766 A 178.01099 178.01099 0 0 1 83.544922 299.30078 z M 428.35547 299.84375 A 178.01099 178.01099 0 0 1 427.33008 303.86133 L 438.00195 306.54883 C 438.36428 306.64093 438.74069 306.3823 438.84375 305.97266 L 439.48438 303.43164 C 439.58664 303.02191 439.37575 302.61841 439.01367 302.52734 L 428.35547 299.84375 z M 423.9707 314.58984 L 423.9707 314.5918 C 423.68935 314.6245 423.42774 314.83426 423.31836 315.15039 L 422.41602 317.76562 C 422.27041 318.18707 422.45192 318.62916 422.82422 318.75781 L 442.86328 325.6875 C 443.23592 325.81641 443.65501 325.58156 443.80078 325.16016 L 444.70508 322.54492 C 444.85069 322.12348 444.66728 321.67942 444.29492 321.55078 L 424.25391 314.62305 C 424.16021 314.58995 424.06457 314.58084 423.9707 314.58984 z M 87.474609 314.5918 C 87.380619 314.5828 87.284607 314.59179 87.191406 314.625 L 67.150391 321.55273 C 66.777748 321.68155 66.596466 322.12542 66.742188 322.54688 L 67.646484 325.16016 C 67.792205 325.58159 68.209386 325.81636 68.582031 325.6875 L 88.621094 318.75977 C 88.993781 318.63096 89.174965 318.1871 89.029297 317.76562 L 88.126953 315.15234 C 88.017403 314.83621 87.756031 314.62343 87.474609 314.5918 z M 93.681641 328.47852 L 83.064453 333.20898 C 82.723234 333.36102 82.585875 333.79171 82.757812 334.17773 L 83.824219 336.57227 C 83.996156 336.95801 84.410825 337.14816 84.751953 336.99609 L 95.375 332.26172 A 178.01099 178.01099 0 0 1 93.681641 328.47852 z M 418.18945 329.13086 A 178.01099 178.01099 0 0 1 416.38281 332.86719 L 426.47266 337.38281 C 426.8137 337.53549 427.22576 337.35141 427.39844 336.9668 L 428.4707 334.57227 C 428.64353 334.18678 428.509 333.75426 428.16797 333.60156 L 418.18945 329.13086 z M 73.5625 331.81836 L 66.318359 336 L 63.931641 331.86719 L 59.576172 334.38086 L 61.962891 338.51562 L 41.693359 350.2168 L 44.927734 355.81641 L 75.912109 359.64844 L 78.955078 357.89062 L 69.050781 340.73438 L 76.294922 336.55078 L 73.5625 331.81836 z M 435.45117 337.47656 L 432.71875 342.20898 L 464.58789 360.60938 L 466.69141 356.96484 C 466.12339 356.34058 465.71776 355.69132 465.47461 355.01758 C 465.24627 354.35239 465.15055 353.66384 465.18555 352.95312 C 465.21195 352.25725 465.35861 351.54177 465.625 350.80664 C 465.89139 350.07151 466.24661 349.31924 466.69141 348.54883 L 463.17969 346.52148 L 460.16406 351.74414 L 435.45117 337.47656 z M 99.867188 341.84766 C 99.770988 341.83386 99.680065 341.84663 99.603516 341.89062 L 90.75 347.00195 C 90.4438 347.17873 90.463343 347.78064 90.792969 348.35156 L 93.416016 352.89844 C 93.745646 353.46938 94.258257 353.78616 94.564453 353.60938 L 103.41797 348.49805 C 103.72416 348.32126 103.70656 347.71938 103.37695 347.14844 L 100.75195 342.60156 C 100.50473 342.17337 100.15578 341.88909 99.867188 341.84766 z M 412.13281 341.84766 C 411.84422 341.88906 411.49527 342.17336 411.24805 342.60156 L 408.62305 347.14844 C 408.29341 347.71938 408.27581 348.32127 408.58203 348.49805 L 417.43555 353.60938 C 417.74175 353.78616 418.25436 353.46938 418.58398 352.89844 L 421.20703 348.35156 C 421.53666 347.78063 421.55617 347.17873 421.25 347.00195 L 412.39648 341.89062 C 412.31998 341.84643 412.22901 341.83386 412.13281 341.84766 z M 64.695312 343.24805 L 70.982422 354.13867 L 50.160156 351.64062 L 64.695312 343.24805 z M 427.06055 352.00977 L 414.37109 373.98828 L 419.01562 376.66992 L 428.36914 360.46875 C 429.8209 361.82053 430.81022 363.52903 431.33789 365.5918 C 431.87182 367.67794 432.08434 370.08076 431.97461 372.80273 C 431.90401 374.36205 431.89773 375.8298 431.95312 377.20508 C 432.01482 378.60372 432.22766 379.89295 432.59375 381.07227 C 432.97466 382.26013 433.55357 383.3445 434.33008 384.32617 C 435.09803 385.32267 436.15569 386.20989 437.50391 386.98828 C 438.86693 387.77523 440.26718 388.25921 441.70508 388.4375 C 443.13441 388.63059 444.52549 388.5146 445.87695 388.08984 C 447.23466 387.68848 448.51529 386.97496 449.71875 385.95117 C 450.93704 384.93594 452.01295 383.62076 452.94531 382.00586 C 453.68949 380.71691 454.21923 379.40394 454.53711 378.06641 C 454.86981 376.73742 455.00215 375.43057 454.93359 374.14648 C 454.87989 372.87095 454.6268 371.64955 454.17578 370.48047 C 453.73959 369.31994 453.13076 368.25593 452.3457 367.28906 L 452.34375 367.28906 L 447.90039 370.4707 C 448.91334 371.72716 449.50259 373.08445 449.66797 374.54297 C 449.83335 376.00148 449.41485 377.59861 448.41406 379.33203 C 447.9436 380.14689 447.38557 380.82132 446.74023 381.35742 C 446.10971 381.90208 445.43849 382.29626 444.72656 382.53711 C 444.01464 382.77796 443.29232 382.86378 442.56055 382.79688 C 441.83503 382.75338 441.13936 382.53922 440.47266 382.1543 C 439.70225 381.7095 439.0918 381.15948 438.64062 380.50391 C 438.20427 379.85689 437.87892 379.13636 437.66602 378.3418 C 437.45939 377.57061 437.34398 376.74417 437.32031 375.86133 C 437.28841 374.99331 437.29198 374.11532 437.33008 373.22852 C 437.42988 371.31071 437.35878 369.36333 437.11719 367.38672 C 436.87559 365.41011 436.3733 363.49113 435.61133 361.62891 C 434.84935 359.76668 433.77886 358.01165 432.39844 356.36523 C 431.01801 354.71882 429.23844 353.26717 427.06055 352.00977 z M 108.61523 355.52734 L 99.087891 361.95703 C 98.778256 362.16595 98.71684 362.61858 98.953125 362.96875 L 100.41992 365.14062 C 100.65619 365.49093 101.09477 365.6035 101.4043 365.39453 L 111.0293 358.90039 A 178.01099 178.01099 0 0 1 108.61523 355.52734 z M 403.15039 356.26172 A 178.01099 178.01099 0 0 1 400.66602 359.58789 L 409.76367 365.75391 C 410.07282 365.96349 410.51301 365.84991 410.75 365.5 L 412.2168 363.33008 C 412.45389 362.98034 412.39703 362.5297 412.08789 362.32031 L 403.15039 356.26172 z M 88.419922 357.55273 L 83.775391 360.23438 L 93.128906 376.43555 C 91.23235 377.01689 89.259228 377.01948 87.208984 376.44531 C 85.135372 375.86465 82.946962 374.84666 80.644531 373.39062 C 79.329418 372.54982 78.062478 371.80957 76.84375 371.16992 C 75.601653 370.52402 74.378187 370.06362 73.173828 369.79102 C 71.954651 369.52695 70.72669 369.48633 69.488281 369.66797 C 68.241316 369.83479 66.94392 370.30754 65.595703 371.08594 C 64.232671 371.87288 63.11358 372.84389 62.240234 374 C 61.358342 375.14129 60.764923 376.40434 60.457031 377.78711 C 60.12577 379.16361 60.101822 380.62947 60.386719 382.18359 C 60.656796 383.74627 61.257093 385.33433 62.189453 386.94922 C 62.933633 388.23818 63.807237 389.35477 64.806641 390.29883 C 65.791218 391.25145 66.855622 392.01888 68.001953 392.60156 C 69.133461 393.19279 70.318677 393.58534 71.556641 393.7793 C 72.779784 393.98174 74.006469 393.98527 75.236328 393.78906 L 74.703125 388.34766 C 73.108526 388.59666 71.636819 388.42786 70.291016 387.8418 C 68.94521 387.25576 67.772274 386.0967 66.771484 384.36328 C 66.301024 383.54842 65.995126 382.72732 65.853516 381.90039 C 65.69709 381.08202 65.692463 380.30533 65.839844 379.56836 C 65.98722 378.83138 66.273426 378.16277 66.697266 377.5625 C 67.097734 376.95596 67.630174 376.45914 68.296875 376.07422 C 69.067285 375.62941 69.849245 375.37543 70.642578 375.3125 C 71.421091 375.2581 72.209347 375.3379 73.003906 375.55078 C 73.775094 375.75743 74.547832 376.07126 75.324219 376.49219 C 76.092049 376.89831 76.850563 377.34018 77.599609 377.81641 C 79.210585 378.86173 80.933031 379.77365 82.765625 380.55273 C 84.598214 381.33181 86.510186 381.85573 88.503906 382.12695 C 90.497632 382.39817 92.553878 382.34884 94.669922 381.97656 C 96.785975 381.60429 98.931479 380.78866 101.10938 379.53125 L 88.419922 357.55273 z M 117.9082 368.48633 C 117.71667 368.45343 117.52243 368.49533 117.36914 368.62109 L 100.9082 381.98438 C 100.60188 382.23293 100.58142 382.71438 100.86328 383.06055 L 102.60547 385.20703 C 102.88661 385.55321 103.35992 385.63134 103.66602 385.38281 L 120.12891 372.01953 C 120.43504 371.77092 120.45393 371.29164 120.17188 370.94531 L 118.42773 368.79688 C 118.2871 368.6239 118.09978 368.51813 117.9082 368.48633 z M 393.53711 368.48633 C 393.34558 368.51923 393.15802 368.6239 393.01758 368.79688 L 391.27344 370.94531 C 390.99226 371.29164 391.01136 371.77092 391.31641 372.01953 L 407.7793 385.38281 C 408.08527 385.63134 408.5589 385.55321 408.83984 385.20703 L 410.58203 383.06055 C 410.86297 382.71438 410.84226 382.23294 410.53711 381.98438 L 394.07617 368.62109 C 393.92314 368.49687 393.72864 368.45435 393.53711 368.48633 z M 127.97852 379.64453 L 119.85742 387.49023 C 119.58885 387.74967 119.60935 388.20599 119.90234 388.50977 L 121.72266 390.39062 C 122.01627 390.6945 122.46964 390.73301 122.73828 390.47266 L 130.97656 382.51367 A 178.01099 178.01099 0 0 1 127.97852 379.64453 z M 383.39453 380.17578 A 178.01099 178.01099 0 0 1 380.56641 383.20898 L 388.38086 390.78711 C 388.64893 391.04728 389.10049 391.01431 389.39453 390.71094 L 391.2207 388.82812 C 391.51497 388.52497 391.53522 388.07073 391.26562 387.81055 L 383.39453 380.17578 z M 139.52148 390.65234 C 139.32742 390.65434 139.14482 390.72994 139.01562 390.87891 L 125.12305 406.89844 C 124.86467 407.19629 124.92882 407.67274 125.26562 407.96484 L 127.35547 409.77539 C 127.6926 410.06764 128.17129 410.06459 128.42969 409.76758 L 142.32227 393.74609 C 142.58065 393.4482 142.51651 392.97377 142.17969 392.68164 L 140.08789 390.86914 C 139.91946 390.72313 139.71582 390.65205 139.52148 390.6543 L 139.52148 390.65234 z M 371.92383 390.65234 C 371.72966 390.65034 371.52584 390.72134 371.35742 390.86719 L 369.26562 392.68164 C 368.92872 392.97372 368.86481 393.44819 369.12305 393.74609 L 383.01562 409.76758 C 383.274 410.06552 383.75281 410.06857 384.08984 409.77539 L 386.17969 407.96484 C 386.51669 407.67249 386.58052 407.19629 386.32227 406.89844 L 372.42969 390.87891 C 372.30059 390.73 372.11807 390.65422 371.92383 390.65234 z M 151.41992 399.83789 L 144.74609 409.02734 C 144.5268 409.32952 144.62688 409.77515 144.96875 410.02344 L 147.08789 411.56055 C 147.42961 411.80893 147.88229 411.76559 148.10156 411.46289 L 154.7207 402.34766 A 178.01099 178.01099 0 0 1 151.41992 399.83789 z M 359.875 400.36719 A 178.01099 178.01099 0 0 1 356.50391 402.7793 L 362.97656 411.72852 C 363.19542 412.03108 363.64784 412.07428 363.99023 411.82617 L 366.11133 410.29297 C 366.4538 410.04544 366.55485 409.60162 366.33594 409.29883 L 359.875 400.36719 z M 164.0293 408.36328 C 163.78534 408.35528 163.59034 408.42898 163.50195 408.58203 L 158.39062 417.43555 C 158.21384 417.74175 158.53063 418.25436 159.10156 418.58398 L 163.64844 421.20703 C 164.21938 421.53666 164.82127 421.55617 164.99805 421.25 L 170.10938 412.39648 C 170.28616 412.09028 169.96938 411.57768 169.39844 411.24805 L 164.85156 408.62305 C 164.5661 408.45823 164.27325 408.37093 164.0293 408.36328 z M 347.9707 408.36523 C 347.72675 408.37323 347.4339 408.45823 347.14844 408.62305 L 342.60156 411.24805 C 342.03063 411.57768 341.71385 412.09028 341.89062 412.39648 L 347.00195 421.25 C 347.17873 421.5562 347.78063 421.53669 348.35156 421.20703 L 352.89844 418.58398 C 353.46937 418.25435 353.78615 417.74175 353.60938 417.43555 L 348.49805 408.58203 C 348.40965 408.42894 348.21466 408.35759 347.9707 408.36523 z M 177.94531 415.76367 L 172.99805 425.91406 C 172.83443 426.24986 173.01075 426.67032 173.38867 426.85547 L 175.74219 428.00391 C 176.12215 428.18893 176.56104 428.06681 176.72461 427.73242 L 181.67969 417.56836 A 178.01099 178.01099 0 0 1 177.94531 415.76367 z M 141.42383 416.06055 L 123.02539 447.92969 L 126.66992 450.0332 C 127.29418 449.46518 127.94345 449.05955 128.61719 448.81641 C 129.28237 448.58807 129.97094 448.49234 130.68164 448.52734 C 131.37752 448.55384 132.09299 448.69846 132.82812 448.96484 C 133.56327 449.23124 134.31552 449.58841 135.08594 450.0332 L 137.11328 446.52148 L 131.89062 443.50586 L 146.1582 418.79297 L 141.42383 416.06055 z M 333.26953 416.26758 A 178.01099 178.01099 0 0 1 329.48047 417.96289 L 334.32031 427.93945 C 334.48323 428.27545 334.92076 428.39739 335.30078 428.21289 L 337.6582 427.07227 C 338.03827 426.88801 338.21379 426.46688 338.05078 426.13086 L 333.26953 416.26758 z M 370.40625 416.43945 L 365.67188 419.17383 L 384.07031 451.04102 L 387.71484 448.9375 C 387.53508 448.11286 387.5085 447.34762 387.63477 446.64258 C 387.76962 445.95234 388.03036 445.30892 388.41602 444.71094 C 388.78686 444.1215 389.27087 443.57375 389.86914 443.07031 C 390.46741 442.56687 391.15146 442.09324 391.92188 441.64844 L 389.89648 438.13672 L 384.67383 441.15234 L 370.40625 416.43945 z M 192.8418 422.11719 C 192.53326 422.11519 192.25602 422.27656 192.15039 422.55273 L 184.57422 442.35938 C 184.4334 442.72769 184.65502 443.15137 185.07227 443.31055 L 187.65625 444.29883 C 188.07262 444.45803 188.52122 444.29083 188.66211 443.92188 L 196.23828 424.11719 C 196.37916 423.74889 196.15748 423.32344 195.74023 423.16406 L 193.1543 422.17578 C 193.05091 422.13608 192.94475 422.11799 192.8418 422.11719 z M 317.98828 422.96289 C 316.47555 422.74731 317.53082 430.1885 322.7832 443.92188 C 322.92398 444.29012 323.37438 444.458 323.79102 444.29883 L 326.37305 443.31055 C 326.78971 443.15138 327.01195 442.72576 326.87109 442.35742 C 322.65735 429.3041 319.32304 423.1531 317.98828 422.96289 z M 156.13672 424.55469 L 153.45508 429.19922 L 169.65625 438.55273 C 168.30447 440.00449 166.59597 440.99381 164.5332 441.52148 C 162.44707 442.05541 160.04424 442.26794 157.32227 442.1582 C 155.76294 442.0876 154.2952 442.07937 152.91992 442.13477 C 151.52129 442.19647 150.23205 442.41125 149.05273 442.77734 C 147.86486 443.15825 146.78051 443.73717 145.79883 444.51367 C 144.80234 445.28163 143.91511 446.33929 143.13672 447.6875 C 142.34977 449.05053 141.86774 450.45078 141.68945 451.88867 C 141.49636 453.318 141.61045 454.70909 142.03516 456.06055 C 142.43652 457.41826 143.15003 458.69888 144.17383 459.90234 C 145.18906 461.12062 146.50424 462.19459 148.11914 463.12695 C 149.40809 463.87113 150.72106 464.40282 152.05859 464.7207 C 153.38758 465.0534 154.69443 465.18573 155.97852 465.11719 C 157.25404 465.06349 158.47545 464.81039 159.64453 464.35938 C 160.80506 463.92318 161.86907 463.3124 162.83594 462.52734 L 159.6543 458.08203 C 158.39783 459.09498 157.04054 459.68423 155.58203 459.84961 C 154.12351 460.015 152.5264 459.59845 150.79297 458.59766 C 149.97812 458.1272 149.30368 457.56916 148.76758 456.92383 C 148.22292 456.2933 147.8307 455.62208 147.58984 454.91016 C 147.34899 454.19823 147.26122 453.47591 147.32812 452.74414 C 147.37162 452.01863 147.58578 451.32295 147.9707 450.65625 C 148.4155 449.88584 148.96552 449.2754 149.62109 448.82422 C 150.26811 448.38786 150.98864 448.06252 151.7832 447.84961 C 152.55439 447.64298 153.3828 447.52757 154.26562 447.50391 C 155.13366 447.47201 156.00968 447.47557 156.89648 447.51367 C 158.81428 447.61347 160.76166 447.54237 162.73828 447.30078 C 164.71489 447.05919 166.63387 446.5569 168.49609 445.79492 C 170.35831 445.03294 172.11335 443.96246 173.75977 442.58203 C 175.40618 441.20161 176.85783 439.42203 178.11523 437.24414 L 156.13672 424.55469 z M 355.44141 426.85742 C 354.66686 426.85042 353.7985 426.93682 352.83594 427.11719 C 351.85856 427.30615 350.80656 427.6071 349.68164 428.01953 C 348.54191 428.4405 347.32802 429.0234 346.03906 429.76758 C 344.2612 430.79403 342.77828 432.00505 341.58984 433.40234 C 340.4014 434.79964 339.55491 436.29498 339.05273 437.88867 C 338.53575 439.49093 338.37249 441.15621 338.56055 442.88477 C 338.75717 444.62813 339.3464 446.35285 340.33008 448.05664 C 341.08281 449.36041 342.02168 450.50786 343.14648 451.49805 C 344.27128 452.48824 345.52993 453.21319 346.92188 453.67383 C 348.30753 454.15783 349.80438 454.31993 351.41211 454.16211 C 353.00504 454.01285 354.65364 453.44658 356.35742 452.46289 C 357.6612 451.71016 358.74054 450.86018 359.5957 449.91211 C 360.43606 448.97258 361.05233 448.07386 361.44531 447.21484 L 365.43945 455.72461 L 351.97266 463.5 L 354.60352 468.05469 L 372.49219 457.72656 L 364.48438 441.3418 L 358.24805 442.39453 C 358.01927 443.4353 357.60142 444.38774 356.99414 445.25195 C 356.37205 446.12473 355.5057 446.8819 354.39453 447.52344 C 353.52041 448.02811 352.65344 448.35886 351.79688 448.51758 C 350.9255 448.68484 350.08988 448.67391 349.28906 448.48438 C 348.48824 448.29483 347.73774 447.91891 347.03711 447.35547 C 346.33648 446.79203 345.7115 446.03608 345.16406 445.08789 C 344.60807 444.12487 344.27308 443.13342 344.1582 442.11328 C 344.03705 441.11649 344.1282 440.14484 344.43164 439.19922 C 344.73511 438.25361 345.24537 437.35749 345.96094 436.50977 C 346.67024 435.68541 347.57357 434.95525 348.66992 434.32227 C 349.57367 433.80049 350.40711 433.39874 351.17188 433.11523 C 351.93038 432.85511 352.64457 432.66962 353.3125 432.56055 C 353.98043 432.45128 354.60071 432.4003 355.17578 432.4043 C 355.75085 432.4083 356.2967 432.4288 356.8125 432.4668 L 357.45312 427.05859 C 356.89456 426.94651 356.22451 426.87942 355.44141 426.85742 z M 206.81055 426.9668 L 203.75195 437.64062 C 203.64997 437.99962 203.89466 438.38368 204.30078 438.5 L 206.82031 439.2207 C 207.22667 439.33699 207.63529 439.1423 207.73828 438.7832 L 210.83008 427.99219 A 178.01099 178.01099 0 0 1 206.81055 426.9668 z M 304.30664 427.35742 A 178.01099 178.01099 0 0 1 300.27148 428.33203 L 303.28516 438.93164 C 303.38673 439.29087 303.79882 439.4847 304.20508 439.36914 L 306.72461 438.65234 C 307.13087 438.53694 307.37757 438.15421 307.27539 437.79492 L 304.30664 427.35742 z M 288.81641 430.45508 L 288.81641 430.45703 C 288.71557 430.43973 288.60735 430.43984 288.49805 430.46094 L 285.7793 430.98633 C 285.34156 431.06983 285.05018 431.45069 285.125 431.83789 L 289.14453 452.6543 C 289.21963 453.04132 289.63233 453.28746 290.07031 453.20312 L 292.78516 452.67773 C 293.22314 452.59423 293.51626 452.21319 293.44141 451.82617 L 289.42188 431.00586 C 289.36557 430.7156 289.12077 430.50605 288.81641 430.45508 z M 222.62891 430.45703 C 222.32475 430.50913 222.07948 430.71542 222.02344 431.00586 L 218.00391 451.82617 C 217.92881 452.21336 218.22241 452.5931 218.66016 452.67773 L 221.375 453.20312 C 221.81299 453.28663 222.22593 453.04148 222.30078 452.6543 L 226.32227 431.83789 C 226.39737 431.45065 226.10402 431.07091 225.66602 430.98633 L 222.94922 430.46094 C 222.83954 430.44014 222.73041 430.44003 222.62891 430.45703 z M 273.81055 432.98438 A 178.01099 178.01099 0 0 1 269.69531 433.48438 L 270.81445 444.36328 C 270.85275 444.73482 271.22221 445.00037 271.64258 444.95703 L 274.24805 444.6875 C 274.66839 444.6446 274.97573 444.31101 274.9375 443.93945 L 273.81055 432.98438 z M 237.81055 433.09766 L 236.74219 443.29492 C 236.70369 443.66643 237.00942 444.00282 237.42969 444.04688 L 237.82031 444.08594 C 237.89321 444.11134 237.96527 444.13933 238.04688 444.14453 L 239.04297 444.21484 L 240.03516 444.32031 C 240.11626 444.32831 240.1918 444.31829 240.26758 444.30469 L 240.66016 444.33008 C 241.08149 444.36148 241.44125 444.08543 241.46875 443.71289 L 242.21484 433.36328 A 178.01099 178.01099 0 0 1 237.81055 433.09766 z M 253.375 433.75 C 252.71575 433.75 252.18555 434.03511 252.18555 434.38867 L 252.18555 444.61133 C 252.18555 444.96489 252.71575 445.25 253.375 445.25 L 258.625 445.25 C 259.28425 445.25 259.81445 444.96489 259.81445 444.61133 L 259.81445 434.38867 C 259.81445 434.03511 259.28425 433.75 258.625 433.75 L 253.375 433.75 z M 255.56445 451.26367 C 253.80237 451.26367 252.15929 451.50146 250.63672 451.98047 C 249.09704 452.47659 247.76191 453.18752 246.63281 454.11133 C 245.50371 455.05225 244.62321 456.19929 243.99023 457.55078 C 243.34015 458.91939 243.01563 460.48402 243.01562 462.24609 C 243.01564 463.90553 243.2885 465.32543 243.83594 466.50586 C 244.38338 467.70339 245.10259 468.72033 245.99219 469.55859 C 246.88178 470.41397 247.89872 471.13318 249.04492 471.71484 C 250.17402 472.3136 251.33763 472.8345 252.53516 473.2793 C 253.71558 473.7412 254.87918 474.16074 256.02539 474.53711 C 257.15449 474.93058 258.16509 475.35841 259.05469 475.82031 C 259.94428 476.28222 260.66154 476.81335 261.20898 477.41211 C 261.75642 478.02798 262.03125 478.77204 262.03125 479.64453 C 262.03125 481.04735 261.5352 482.1325 260.54297 482.90234 C 259.55073 483.67218 258.17224 484.05859 256.41016 484.05859 C 255.52056 484.05859 254.71656 483.96359 253.99805 483.77539 C 253.26242 483.58721 252.61337 483.32262 252.04883 482.98047 C 251.48427 482.65543 251.0048 482.26073 250.61133 481.79883 C 250.21785 481.35403 249.9099 480.86823 249.6875 480.33789 L 244.63281 482.03125 C 244.95786 483.07481 245.43538 484.04009 246.06836 484.92969 C 246.70134 485.81928 247.49706 486.59015 248.45508 487.24023 C 249.39599 487.89032 250.49966 488.39465 251.76562 488.75391 C 253.03159 489.13027 254.44321 489.31836 256 489.31836 C 257.86473 489.31836 259.52438 489.06205 260.97852 488.54883 C 262.43266 488.0356 263.6562 487.33491 264.64844 486.44531 C 265.64068 485.57283 266.40131 484.55395 266.93164 483.39062 C 267.44487 482.22731 267.70117 480.99549 267.70117 479.69531 C 267.70117 478.13853 267.4283 476.82191 266.88086 475.74414 C 266.33341 474.66636 265.6142 473.7425 264.72461 472.97266 C 263.83502 472.20282 262.82637 471.55182 261.69727 471.02148 C 260.55106 470.49115 259.38745 470.01362 258.20703 469.58594 C 257.0095 469.15824 255.8459 468.73871 254.7168 468.32812 C 253.5706 467.91755 252.55366 467.43806 251.66406 466.89062 C 250.77447 466.34319 250.05526 465.69219 249.50781 464.93945 C 248.96037 464.20383 248.6875 463.2902 248.6875 462.19531 C 248.6875 461.27151 248.84878 460.44899 249.17383 459.73047 C 249.49887 459.02906 249.95154 458.43995 250.5332 457.96094 C 251.11486 457.48192 251.81751 457.12231 252.63867 456.88281 C 253.45983 456.64331 254.36713 456.52344 255.35938 456.52344 C 256.35161 456.52344 257.28377 456.65987 258.15625 456.93359 C 259.01163 457.20731 259.79711 457.58349 260.51562 458.0625 C 261.23415 458.55862 261.87685 459.14968 262.44141 459.83398 C 262.98885 460.51828 263.44981 461.27063 263.82617 462.0918 L 268.98438 460.21875 C 268.52247 458.85014 267.87343 457.61003 267.03516 456.49805 C 266.19689 455.40316 265.2048 454.46273 264.05859 453.67578 C 262.89528 452.90594 261.60352 452.31488 260.18359 451.9043 C 258.74656 451.4766 257.20678 451.26367 255.56445 451.26367 z "
         id="path6187" />
    </g>
  </g>
  <g
     inkscape:groupmode="layer"
     id="layer2"
     inkscape:label="arrows"
     style="display:inline">
    <g
       id="g4443">
      <path
         sodipodi:nodetypes="ccsscc"
         inkscape:connector-curvature="0"
         id="rect4420"
         d="m 256,78.25 13.43503,25.11861 c 0,0.35143 -0.55041,0.63435 -1.23412,0.63435 l -24.40182,0 c -0.6837,0 -1.23412,-0.28292 -1.23412,-0.63435 z"
         style="color:#000000;clip-rule:nonzero;display:inline;overflow:visible;visibility:visible;opacity:1;isolation:auto;mix-blend-mode:normal;color-interpolation:sRGB;color-interpolation-filters:linearRGB;solid-color:#000000;solid-opacity:1;fill:#fdf453;fill-opacity:1;fill-rule:nonzero;stroke:none;stroke-width:34;stroke-linecap:butt;stroke-linejoin:miter;stroke-miterlimit:4;stroke-dasharray:none;stroke-dashoffset:0;stroke-opacity:1;color-rendering:auto;image-rendering:auto;shape-rendering:auto;text-rendering:auto;enable-background:accumulate" />
      <path
         style="color:#000000;clip-rule:nonzero;display:inline;overflow:visible;visibility:visible;opacity:1;isolation:auto;mix-blend-mode:normal;color-interpolation:sRGB;color-interpolation-filters:linearRGB;solid-color:#000000;solid-opacity:1;fill:#fdf453;fill-opacity:1;fill-rule:nonzero;stroke:none;stroke-width:34;stroke-linecap:butt;stroke-linejoin:miter;stroke-miterlimit:4;stroke-dasharray:none;stroke-dashoffset:0;stroke-opacity:1;color-rendering:auto;image-rendering:auto;shape-rendering:auto;text-rendering:auto;enable-background:accumulate"
         d="m 256,434.83311 9.95947,-18.62056 c 0,-0.26052 -0.40802,-0.47023 -0.91486,-0.47023 l -18.08922,0 c -0.50683,0 -0.91486,0.20971 -0.91486,0.47023 z"
         id="path4423"
         inkscape:connector-curvature="0"
         sodipodi:nodetypes="ccsscc" />
    </g>
  </g>
  <g
     inkscape:groupmode="layer"
     id="layer5"
     inkscape:label="Needles"
     style="display:inline">
    <path
       inkscape:label="NeedleLOC"
       inkscape:connector-curvature="0"
       id="NeedleLOC"
       d="m 256,133.98326 0,244.03348"
       style="display:inline;opacity:1;fill:none;fill-rule:evenodd;stroke:#ffffff;stroke-width:6.03762436;stroke-linecap:round;stroke-linejoin:miter;stroke-miterlimit:4;stroke-dasharray:none;stroke-opacity:1" />
    <path
       style="display:inline;opacity:1;fill:none;fill-rule:evenodd;stroke:#ffffff;stroke-width:6.03762436;stroke-linecap:round;stroke-linejoin:miter;stroke-miterlimit:4;stroke-dasharray:none;stroke-opacity:1"
       d="m 133.98326,256 244.03348,0"
       id="NeedleGS"
       inkscape:connector-curvature="0"
       inkscape:label="NeedleGS" />
  </g>
</svg>
