<?xml version="1.0" encoding="UTF-8" standalone="no"?>
<!-- Created with Inkscape (http://www.inkscape.org/) -->

<svg
   xmlns:dc="http://purl.org/dc/elements/1.1/"
   xmlns:cc="http://creativecommons.org/ns#"
   xmlns:rdf="http://www.w3.org/1999/02/22-rdf-syntax-ns#"
   xmlns:svg="http://www.w3.org/2000/svg"
   xmlns="http://www.w3.org/2000/svg"
   xmlns:sodipodi="http://sodipodi.sourceforge.net/DTD/sodipodi-0.dtd"
   xmlns:inkscape="http://www.inkscape.org/namespaces/inkscape"
   width="100%"
   height="100%"
   id="svg2"
   version="1.1"
   inkscape:version="0.91 r13725"
   sodipodi:docname="VSI.svg"
   viewBox="0 0 256 256">
  <title
     id="title4017">Vertical Speed Indicator</title>
  <defs
     id="defs4" />
  <sodipodi:namedview
     id="base"
     bordercolor="#666666"
     borderopacity="1.0"
     inkscape:pageshadow="2"
     inkscape:zoom="2.203125"
     inkscape:cx="102.35461"
     inkscape:cy="116.19858"
     inkscape:document-units="px"
     inkscape:current-layer="layer1"
     showgrid="false"
     inkscape:window-width="1366"
     inkscape:window-height="704"
     inkscape:window-x="0"
     inkscape:window-y="27"
     inkscape:window-maximized="1"
     inkscape:object-nodes="true"
     inkscape:snap-midpoints="true"
     inkscape:snap-center="true"
     inkscape:snap-object-midpoints="true"
     inkscape:object-paths="false"
     showguides="true"
     inkscape:guide-bbox="true" />
  <metadata
     id="metadata7">
    <rdf:RDF>
      <cc:Work
         rdf:about="">
        <dc:format>image/svg+xml</dc:format>
        <dc:type
           rdf:resource="http://purl.org/dc/dcmitype/StillImage" />
        <dc:title>Vertical Speed Indicator</dc:title>
        <dc:date>2014-09-25</dc:date>
        <dc:source>http://commons.wikimedia.org/wiki/File:Vertical_Speed_Indicator.svg</dc:source>
        <dc:creator>
          <cc:Agent>
            <dc:title>Torsten Dreyer</dc:title>
          </cc:Agent>
        </dc:creator>
        <dc:rights>
          <cc:Agent>
            <dc:title>Torsten Dreyer &amp; Cel 84</dc:title>
          </cc:Agent>
        </dc:rights>
        <cc:license
           rdf:resource="http://creativecommons.org/licenses/by-sa/3.0/" />
        <dc:contributor>
          <cc:Agent>
            <dc:title>Torsten Dreyer, Cel 84</dc:title>
          </cc:Agent>
        </dc:contributor>
      </cc:Work>
      <cc:License
         rdf:about="http://creativecommons.org/licenses/by-sa/3.0/">
        <cc:permits
           rdf:resource="http://creativecommons.org/ns#Reproduction" />
        <cc:permits
           rdf:resource="http://creativecommons.org/ns#Distribution" />
        <cc:requires
           rdf:resource="http://creativecommons.org/ns#Notice" />
        <cc:requires
           rdf:resource="http://creativecommons.org/ns#Attribution" />
        <cc:permits
           rdf:resource="http://creativecommons.org/ns#DerivativeWorks" />
        <cc:requires
           rdf:resource="http://creativecommons.org/ns#ShareAlike" />
      </cc:License>
    </rdf:RDF>
  </metadata>
  <g
     inkscape:label="Face"
     inkscape:groupmode="layer"
     id="layer1"
     transform="translate(0,-812.36218)"
     style="display:inline">
    <path
       style="fill:#1e1e1e;fill-opacity:1;stroke:none"
       d="M 256,940.36216 C 256,1011.0546 198.69244,1068.3622 128.00001,1068.3622 57.307569,1068.3622 0,1011.0546 0,940.36216 0,869.66972 57.307569,812.36218 128.00001,812.36218 198.69244,812.36218 256,869.66972 256,940.36216 Z"
       id="path3528"
       inkscape:connector-curvature="0" />
    <g
       style="font-style:normal;font-weight:normal;font-size:40px;line-height:125%;font-family:Sans;letter-spacing:0px;word-spacing:0px;fill:#ffffff;fill-opacity:1;stroke:none"
       id="text5476-6-6"
       transform="translate(309,82.365273)" />
    <g
       style="font-style:normal;font-weight:normal;font-size:40px;line-height:125%;font-family:Sans;letter-spacing:0px;word-spacing:0px;fill:#ffffff;fill-opacity:1;stroke:none"
       id="text5476-6-2-3"
       transform="translate(309,124.61918)" />
    <g
       style="font-style:normal;font-weight:normal;font-size:40px;line-height:125%;font-family:Sans;letter-spacing:0px;word-spacing:0px;fill:#ffffff;fill-opacity:1;stroke:none"
       id="text5476-6-2-8-3"
       transform="translate(309,94.619183)" />
    <g
       id="g6061"
       transform="matrix(1.2995259,0,0,1.2995259,374.10484,-271.26667)">
      <g
         transform="translate(0.97958,-0.054)"
         id="g5996">
        <g
           style="font-style:normal;font-weight:normal;font-size:40px;line-height:125%;font-family:Sans;letter-spacing:0px;word-spacing:0px;fill:#ffffff;fill-opacity:1;stroke:none"
           id="text5727"
           transform="translate(0,-4.00004)" />
        <g
           style="font-style:normal;font-weight:normal;font-size:40px;line-height:125%;font-family:Sans;letter-spacing:0px;word-spacing:0px;fill:#ffffff;fill-opacity:1;stroke:none"
           id="text5727-6"
           transform="translate(0,-2)" />
      </g>
      <g
         transform="translate(1.74536,-3.49585)"
         id="g6053">
        <g
           style="font-style:normal;font-weight:normal;font-size:40px;line-height:125%;font-family:Sans;letter-spacing:0px;word-spacing:0px;fill:#ffffff;fill-opacity:1;stroke:none"
           id="text5727-6-4"
           transform="translate(0,-1.74433)" />
        <g
           style="font-style:normal;font-weight:normal;font-size:40px;line-height:125%;font-family:Sans;letter-spacing:0px;word-spacing:0px;fill:#ffffff;fill-opacity:1;stroke:none"
           id="text5727-6-4-3"
           transform="translate(3.06232,4.15777)">
          <path
             id="path6037"
             style="font-size:11px;-inkscape-font-specification:Sans;fill:#ffffff"
             d="m -236.8692,953.20441 0,-7.87403 1.06885,0 4.13574,6.18213 0,-6.18213 0.99902,0 0,7.87403 -1.06885,0 -4.13574,-6.1875 0,6.1875 z m -7.93848,0 0,-7.87403 2.7124,0 c 0.6123,10e-6 1.07959,0.0376 1.40186,0.1128 0.45117,0.10385 0.83609,0.29183 1.15478,0.56396 0.41536,0.35092 0.72599,0.79941 0.93189,1.34546 0.20588,0.54607 0.30883,1.17001 0.30884,1.87183 -1e-5,0.59798 -0.0698,1.12793 -0.20948,1.58984 -0.13965,0.46192 -0.31869,0.84416 -0.5371,1.14673 -0.21844,0.30257 -0.45745,0.54069 -0.71705,0.71435 -0.2596,0.17367 -0.57292,0.30526 -0.93994,0.39478 -0.36703,0.0895 -0.78866,0.13428 -1.26489,0.13428 z m 1.04199,-0.9292 1.68116,0 c 0.5192,0 0.92651,-0.0483 1.22192,-0.14502 0.29541,-0.0967 0.53084,-0.23275 0.7063,-0.40821 0.24706,-0.24706 0.43953,-0.57918 0.57739,-0.99633 0.13785,-0.41716 0.20678,-0.92293 0.20679,-1.51734 -1e-5,-0.82356 -0.13518,-1.45645 -0.40552,-1.89868 -0.27035,-0.44221 -0.59888,-0.73852 -0.98559,-0.88891 -0.27931,-0.10742 -0.72869,-0.16113 -1.34815,-0.16114 l -1.6543,0 z m 6.89111,-34.20508 0,-7.87402 2.97022,0 c 0.52278,0 0.92203,0.0251 1.19775,0.0752 0.38672,0.0645 0.71077,0.1871 0.97217,0.36792 0.26139,0.18083 0.47176,0.43417 0.6311,0.76001 0.15934,0.32585 0.23901,0.68393 0.23902,1.07422 -1e-5,0.6696 -0.21306,1.23625 -0.63916,1.69995 -0.42611,0.46371 -1.19597,0.69556 -2.30957,0.69556 l -2.01953,0 0,3.20117 z m 1.042,-4.13037 2.03564,0 c 0.67317,0 1.1512,-0.12532 1.43408,-0.37598 0.28287,-0.25064 0.42431,-0.60335 0.42432,-1.0581 -1e-5,-0.32943 -0.0833,-0.61141 -0.24976,-0.84595 -0.16651,-0.23453 -0.38583,-0.3894 -0.65796,-0.4646 -0.17546,-0.0465 -0.49951,-0.0698 -0.97216,-0.0698 l -2.01416,0 z m -3.82422,-3.74365 1.04199,0 0,4.54931 c -1e-5,0.79135 -0.0895,1.41976 -0.26855,1.88526 -0.17905,0.46549 -0.50221,0.84415 -0.96949,1.13598 -0.46729,0.29183 -1.08049,0.43775 -1.8396,0.43775 -0.73763,0 -1.34098,-0.12712 -1.81006,-0.38135 -0.46907,-0.25423 -0.80387,-0.62215 -1.00439,-1.10376 -0.20052,-0.48161 -0.30078,-1.13957 -0.30078,-1.97388 l 0,-4.54931 1.04199,0 0,4.54394 c 0,0.68392 0.0636,1.18791 0.19067,1.51196 0.12712,0.32406 0.34554,0.57382 0.65528,0.74927 0.30973,0.17546 0.68839,0.26319 1.13598,0.26318 0.76628,10e-6 1.31234,-0.17366 1.63819,-0.52099 0.32584,-0.34733 0.48876,-1.01514 0.48877,-2.00342 z m 108.41357,54.31588 0,-7.87403 5.69336,0 0,0.9292 -4.65137,0 0,2.41162 4.35596,0 0,0.92383 -4.35596,0 0,2.68018 4.83399,0 0,0.9292 z m -4.74268,0 0,-6.94483 -2.59423,0 0,-0.9292 6.24121,0 0,0.9292 -2.60498,0 0,6.94483 z m -4.78564,-7.87403 1.04199,0 0,4.54932 c -1e-5,0.79134 -0.0895,1.41976 -0.26855,1.88525 -0.17905,0.4655 -0.50221,0.84416 -0.96949,1.13599 -0.46729,0.29183 -1.08049,0.43774 -1.8396,0.43774 -0.73763,0 -1.34098,-0.12711 -1.81005,-0.38135 -0.46908,-0.25423 -0.80388,-0.62215 -1.0044,-1.10375 -0.20052,-0.48161 -0.30078,-1.13957 -0.30078,-1.97388 l 0,-4.54932 1.04199,0 0,4.54395 c 0,0.68392 0.0636,1.18791 0.19068,1.51196 0.12711,0.32406 0.34553,0.57381 0.65527,0.74927 0.30973,0.17545 0.68839,0.26318 1.13599,0.26318 0.76627,0 1.31233,-0.17366 1.63818,-0.52099 0.32584,-0.34733 0.48876,-1.01514 0.48877,-2.00342 z m -13.12695,7.87403 0,-7.87403 1.06884,0 4.13575,6.18213 0,-6.18213 0.99902,0 0,7.87403 -1.06885,0 -4.13574,-6.1875 0,6.1875 z m -2.8628,0 0,-7.87403 1.042,0 0,7.87403 z m -9.3833,0 0,-7.87403 1.56836,0 1.86377,5.5752 c 0.17187,0.5192 0.2972,0.90771 0.37598,1.16552 0.0895,-0.28645 0.22916,-0.70719 0.41894,-1.2622 l 1.88526,-5.47852 1.40185,0 0,7.87403 -1.00439,0 0,-6.59034 -2.28809,6.59034 -0.93994,0 -2.27734,-6.70313 0,6.70313 z m -10.95166,0 0,-7.87403 3.49121,0 c 0.70182,10e-6 1.23535,0.0707 1.60059,0.21216 0.36523,0.14145 0.65706,0.3912 0.87549,0.74927 0.21841,0.35808 0.32763,0.75375 0.32763,1.18701 0,0.5586 -0.18083,1.02946 -0.54248,1.4126 -0.36166,0.38314 -0.92025,0.62663 -1.67578,0.73047 0.27571,0.13249 0.48519,0.26318 0.62842,0.39209 0.30436,0.2793 0.5926,0.62842 0.86475,1.04736 l 1.36963,2.14307 -1.31055,0 -1.04199,-1.63819 c -0.30437,-0.47265 -0.55502,-0.83431 -0.75196,-1.08496 -0.19694,-0.25065 -0.37329,-0.4261 -0.52905,-0.52637 -0.15577,-0.10025 -0.31421,-0.17008 -0.47534,-0.20947 -0.11817,-0.0251 -0.31153,-0.0376 -0.58008,-0.0376 l -1.2085,0 0,3.49659 z m 1.04199,-4.39893 2.23975,0 c 0.47623,0 0.84863,-0.0492 1.11719,-0.14771 0.26855,-0.0985 0.47265,-0.25601 0.6123,-0.47265 0.13964,-0.21663 0.20947,-0.45206 0.20948,-0.7063 -1e-5,-0.37239 -0.13518,-0.67854 -0.40552,-0.91846 -0.27035,-0.2399 -0.69735,-0.35985 -1.28101,-0.35986 l -2.49219,0 z m -8.38427,4.39893 0,-7.87403 5.69336,0 0,0.9292 -4.65137,0 0,2.41162 4.35596,0 0,0.92383 -4.35596,0 0,2.68018 4.83398,0 0,0.9292 z m -7.36914,0 0,-7.87403 2.97021,0 c 0.52278,10e-6 0.92203,0.0251 1.19776,0.0752 0.38671,0.0645 0.71076,0.1871 0.97216,0.36792 0.26139,0.18083 0.47176,0.43417 0.63111,0.76001 0.15933,0.32585 0.239,0.68392 0.23901,1.07422 -1e-5,0.6696 -0.21306,1.23625 -0.63916,1.69995 -0.42611,0.4637 -1.19597,0.69556 -2.30957,0.69555 l -2.01953,0 0,3.20118 z m 1.04199,-4.13038 2.03564,0 c 0.67318,10e-6 1.1512,-0.12532 1.43409,-0.37597 0.28287,-0.25065 0.42431,-0.60335 0.42431,-1.05811 0,-0.32942 -0.0833,-0.6114 -0.24975,-0.84595 -0.16651,-0.23453 -0.38583,-0.38939 -0.65796,-0.46459 -0.17546,-0.0465 -0.49952,-0.0698 -0.97217,-0.0698 l -2.01416,0 z m 43.80127,-9.61962 0,-6.94483 -2.59424,0 0,-0.9292 6.24121,0 0,0.9292 -2.60498,0 0,6.94483 z m -9.32959,0 0,-7.87403 5.69336,0 0,0.9292 -4.65137,0 0,2.41162 4.35596,0 0,0.92383 -4.35596,0 0,2.68018 4.83398,0 0,0.9292 z m -7.34766,0 0,-7.87403 5.69336,0 0,0.9292 -4.65137,0 0,2.41162 4.35596,0 0,0.92383 -4.35596,0 0,2.68018 4.83399,0 0,0.9292 z m -6.69238,0 0,-7.87403 5.31201,0 0,0.9292 -4.27002,0 0,2.43848 3.69531,0 0,0.9292 -3.69531,0 0,3.57715 z m -9.61963,-3.88331 c 0,-0.93098 0.0958,-1.68025 0.28735,-2.2478 0.19157,-0.56754 0.47624,-1.00528 0.85401,-1.31323 0.37776,-0.30794 0.8531,-0.46191 1.42602,-0.46191 0.42253,0 0.79313,0.0851 1.11182,0.25512 0.31868,0.17009 0.58186,0.41537 0.78955,0.73584 0.20768,0.32048 0.3706,0.71078 0.48877,1.1709 0.11816,0.46013 0.17724,1.08049 0.17725,1.86108 -1e-5,0.92384 -0.0949,1.66952 -0.28467,2.23707 -0.18979,0.56754 -0.47356,1.00618 -0.85132,1.31591 -0.37777,0.30974 -0.8549,0.4646 -1.4314,0.4646 -0.75911,0 -1.3553,-0.27213 -1.78857,-0.8164 -0.51921,-0.65528 -0.77881,-1.72233 -0.77881,-3.20118 z m 0.99365,0 c 0,1.29265 0.15129,2.15292 0.45386,2.58082 0.30257,0.42789 0.67586,0.64184 1.11987,0.64184 0.44401,0 0.8173,-0.21484 1.11988,-0.64453 0.30256,-0.42969 0.45385,-1.28906 0.45385,-2.57813 0,-1.29621 -0.15129,-2.15738 -0.45385,-2.58349 -0.30258,-0.4261 -0.67945,-0.63915 -1.13062,-0.63916 -0.44401,10e-6 -0.7985,0.18799 -1.06348,0.56396 -0.33301,0.47983 -0.49951,1.36606 -0.49951,2.65869 z m -7.1167,0 c 0,-0.93098 0.0958,-1.68025 0.28736,-2.2478 0.19156,-0.56754 0.47623,-1.00528 0.854,-1.31323 0.37777,-0.30794 0.85311,-0.46191 1.42603,-0.46191 0.42252,0 0.79312,0.0851 1.11181,0.25512 0.31868,0.17009 0.58187,0.41537 0.78955,0.73584 0.20768,0.32048 0.3706,0.71078 0.48877,1.1709 0.11816,0.46013 0.17724,1.08049 0.17725,1.86108 -1e-5,0.92384 -0.0949,1.66952 -0.28467,2.23707 -0.18978,0.56754 -0.47356,1.00618 -0.85132,1.31591 -0.37777,0.30974 -0.8549,0.4646 -1.43139,0.4646 -0.75912,0 -1.35531,-0.27213 -1.78858,-0.8164 -0.5192,-0.65528 -0.77881,-1.72233 -0.77881,-3.20118 z m 0.99366,0 c -1e-5,1.29265 0.15128,2.15292 0.45385,2.58082 0.30257,0.42789 0.67586,0.64184 1.11988,0.64184 0.444,0 0.81729,-0.21484 1.11987,-0.64453 0.30257,-0.42969 0.45385,-1.28906 0.45386,-2.57813 -1e-5,-1.29621 -0.15129,-2.15738 -0.45386,-2.58349 -0.30258,-0.4261 -0.67945,-0.63915 -1.13062,-0.63916 -0.44401,10e-6 -0.7985,0.18799 -1.06347,0.56396 -0.33301,0.47983 -0.49952,1.36606 -0.49951,2.65869 z m -3.4751,3.88331 -0.9668,0 0,-6.16065 c -0.23275,0.22201 -0.53801,0.44402 -0.91577,0.66602 -0.37777,0.22201 -0.71704,0.38851 -1.01782,0.49951 l 0,-0.93457 c 0.54069,-0.25423 1.01334,-0.56217 1.41797,-0.92383 0.40462,-0.36165 0.69107,-0.71256 0.85937,-1.05273 l 0.62305,0 z m 26.9414,-30.25004 0,-7.87403 2.71241,0 c 0.6123,10e-6 1.07958,0.0376 1.40185,0.11279 0.45117,0.10385 0.8361,0.29184 1.15479,0.56397 0.41536,0.35092 0.72598,0.7994 0.93188,1.34546 0.20589,0.54607 0.30883,1.17001 0.30884,1.87182 -1e-5,0.59799 -0.0698,1.12794 -0.20947,1.58985 -0.13966,0.46191 -0.31869,0.84416 -0.53711,1.14673 -0.21843,0.30257 -0.45745,0.54069 -0.71704,0.71435 -0.25961,0.17367 -0.57293,0.30526 -0.93994,0.39478 -0.36703,0.0895 -0.78866,0.13428 -1.2649,0.13428 z m 1.042,-0.9292 1.68115,0 c 0.5192,0 0.92651,-0.0483 1.22192,-0.14502 0.29541,-0.0967 0.53084,-0.23275 0.7063,-0.40821 0.24707,-0.24707 0.43953,-0.57918 0.57739,-0.99633 0.13786,-0.41716 0.20678,-0.92293 0.20679,-1.51734 -1e-5,-0.82356 -0.13518,-1.45645 -0.40552,-1.89868 -0.27035,-0.44221 -0.59888,-0.73852 -0.98559,-0.88892 -0.2793,-0.10741 -0.72868,-0.16112 -1.34815,-0.16113 l -1.65429,0 z m -8.36817,0.9292 0,-7.87403 5.69336,0 0,0.9292 -4.65137,0 0,2.41162 4.35596,0 0,0.92383 -4.35596,0 0,2.68018 4.83399,0 0,0.9292 z m -7.34765,0 0,-7.87403 5.69336,0 0,0.9292 -4.65137,0 0,2.41162 4.35596,0 0,0.92383 -4.35596,0 0,2.68018 4.83398,0 0,0.9292 z m -7.36914,0 0,-7.87403 2.97021,0 c 0.52278,10e-6 0.92203,0.0251 1.19775,0.0752 0.38672,0.0645 0.71077,0.1871 0.97217,0.36792 0.26139,0.18083 0.47176,0.43417 0.63111,0.76001 0.15933,0.32585 0.239,0.68392 0.23901,1.07422 -10e-6,0.6696 -0.21306,1.23625 -0.63916,1.69995 -0.42611,0.4637 -1.19597,0.69556 -2.30957,0.69555 l -2.01953,0 0,3.20118 z m 1.04199,-4.13038 2.03564,0 c 0.67317,10e-6 1.1512,-0.12532 1.43408,-0.37597 0.28288,-0.25065 0.42431,-0.60335 0.42432,-1.05811 -1e-5,-0.32942 -0.0833,-0.6114 -0.24976,-0.84595 -0.1665,-0.23453 -0.38582,-0.38939 -0.65795,-0.46459 -0.17546,-0.0465 -0.49952,-0.0698 -0.97217,-0.0698 l -2.01416,0 z m -8.74414,1.60059 0.98291,-0.0859 c 0.0465,0.39389 0.15486,0.71705 0.32495,0.96949 0.17008,0.25244 0.43416,0.45654 0.79223,0.6123 0.35807,0.15576 0.76091,0.23364 1.2085,0.23364 0.39746,0 0.74837,-0.0591 1.05274,-0.17724 0.30435,-0.11817 0.53083,-0.28019 0.67944,-0.48609 0.14859,-0.20589 0.22289,-0.43058 0.2229,-0.67407 -1e-5,-0.24707 -0.0716,-0.46281 -0.21484,-0.64722 -0.14324,-0.1844 -0.37957,-0.33927 -0.70899,-0.4646 -0.21127,-0.0824 -0.67855,-0.21036 -1.40185,-0.38403 -0.72331,-0.17366 -1.22999,-0.33748 -1.52002,-0.49145 -0.37598,-0.19694 -0.65617,-0.44133 -0.84058,-0.73316 -0.18441,-0.29182 -0.27661,-0.61856 -0.27661,-0.98022 0,-0.39746 0.11279,-0.76896 0.33838,-1.11451 0.22558,-0.34553 0.55501,-0.60782 0.98828,-0.78686 0.43326,-0.17903 0.91487,-0.26855 1.44482,-0.26856 0.58366,10e-6 1.09839,0.094 1.54419,0.28199 0.4458,0.18799 0.78865,0.4646 1.02857,0.82983 0.2399,0.36524 0.36881,0.77882 0.38672,1.24072 l -0.99903,0.0752 c -0.0537,-0.49772 -0.23544,-0.87369 -0.54516,-1.12793 -0.30974,-0.25423 -0.76718,-0.38134 -1.37232,-0.38135 -0.63021,10e-6 -1.08944,0.11549 -1.37768,0.34644 -0.28825,0.23096 -0.43238,0.50936 -0.43238,0.8352 0,0.28289 0.10205,0.51563 0.30616,0.69824 0.20051,0.18263 0.72419,0.36972 1.57104,0.56128 0.84684,0.19158 1.42781,0.35898 1.74292,0.5022 0.45833,0.21127 0.79671,0.47893 1.01514,0.80298 0.21841,0.32406 0.32763,0.69735 0.32763,1.11987 0,0.41895 -0.11996,0.81372 -0.35986,1.18433 -0.23991,0.3706 -0.58456,0.65885 -1.03394,0.86474 -0.44938,0.2059 -0.95516,0.30884 -1.51733,0.30884 -0.71257,0 -1.30965,-0.10384 -1.79126,-0.31152 -0.48161,-0.20768 -0.85938,-0.5201 -1.1333,-0.93726 -0.27393,-0.41715 -0.41805,-0.88891 -0.43237,-1.41528 z m 48.02832,-11.22021 0,-7.87403 1.04199,0 0,6.94483 3.87793,0 0,0.9292 z m -8.16944,0 3.02393,-7.87403 1.12256,0 3.22265,7.87403 -1.18701,0 -0.91845,-2.38477 -3.29248,0 -0.86475,2.38477 z m 2.27198,-3.2334 2.66943,0 -0.82178,-2.18067 c -0.25065,-0.66243 -0.43685,-1.2067 -0.55859,-1.63281 -0.10026,0.50489 -0.2417,1.00619 -0.42432,1.50391 z m -3.73828,0.47265 1.04199,0.26319 c -0.21843,0.85579 -0.61142,1.50838 -1.17896,1.95776 -0.56755,0.44938 -1.26131,0.67407 -2.0813,0.67407 -0.84863,0 -1.53882,-0.17277 -2.07055,-0.51831 -0.53174,-0.34554 -0.93637,-0.84594 -1.21387,-1.50122 -0.27751,-0.65527 -0.41626,-1.35888 -0.41626,-2.11084 0,-0.81998 0.15666,-1.53523 0.46997,-2.14575 0.31331,-0.61051 0.75911,-1.07421 1.3374,-1.39111 0.57829,-0.31689 1.21476,-0.47534 1.90943,-0.47535 0.78775,10e-6 1.45019,0.20053 1.9873,0.60157 0.5371,0.40105 0.91129,0.96501 1.12256,1.69189 l -1.02588,0.2417 c -0.18262,-0.57291 -0.4476,-0.99006 -0.79492,-1.25146 -0.34734,-0.26139 -0.78419,-0.39209 -1.31055,-0.39209 -0.60514,0 -1.11092,0.14502 -1.51733,0.43505 -0.40642,0.29005 -0.69198,0.67945 -0.85669,1.16822 -0.16472,0.48877 -0.24707,0.99276 -0.24707,1.51196 0,0.6696 0.0976,1.25415 0.29272,1.75366 0.19515,0.49952 0.49862,0.87281 0.9104,1.11988 0.41178,0.24707 0.85758,0.3706 1.33741,0.3706 0.58365,0 1.07779,-0.16829 1.48242,-0.50488 0.40461,-0.33659 0.67854,-0.8361 0.82178,-1.49854 z m -8.4917,2.76075 0,-7.87403 1.04199,0 0,7.87403 z m -4.89844,0 0,-6.94483 -2.59424,0 0,-0.9292 6.24121,0 0,0.9292 -2.60498,0 0,6.94483 z m -9.93652,0 0,-7.87403 3.49121,0 c 0.70181,10e-6 1.23534,0.0707 1.60058,0.21216 0.36523,0.14145 0.65706,0.3912 0.87549,0.74927 0.21842,0.35808 0.32763,0.75375 0.32764,1.18701 -1e-5,0.5586 -0.18084,1.02946 -0.54248,1.4126 -0.36166,0.38314 -0.92026,0.62663 -1.67578,0.73047 0.27571,0.13249 0.48518,0.26318 0.62841,0.39209 0.30436,0.2793 0.59261,0.62842 0.86475,1.04736 l 1.36963,2.14307 -1.31055,0 -1.04199,-1.63819 c -0.30437,-0.47265 -0.55502,-0.83431 -0.75195,-1.08496 -0.19695,-0.25065 -0.3733,-0.4261 -0.52906,-0.52637 -0.15576,-0.10025 -0.31421,-0.17008 -0.47534,-0.20947 -0.11817,-0.0251 -0.31153,-0.0376 -0.58008,-0.0376 l -1.20849,0 0,3.49659 z m 1.04199,-4.39893 2.23974,0 c 0.47624,0 0.84863,-0.0492 1.11719,-0.14771 0.26855,-0.0985 0.47265,-0.25601 0.61231,-0.47265 0.13964,-0.21663 0.20946,-0.45206 0.20947,-0.7063 -1e-5,-0.37239 -0.13518,-0.67854 -0.40552,-0.91846 -0.27035,-0.2399 -0.69735,-0.35985 -1.28101,-0.35986 l -2.49218,0 z m -8.38428,4.39893 0,-7.87403 5.69336,0 0,0.9292 -4.65137,0 0,2.41162 4.35596,0 0,0.92383 -4.35596,0 0,2.68018 4.83399,0 0,0.9292 z m -5.11865,0 -3.05078,-7.87403 1.12793,0 2.04638,5.72022 c 0.16471,0.45833 0.30257,0.88802 0.41358,1.28906 0.12174,-0.42969 0.26318,-0.85937 0.42431,-1.28906 l 2.12696,-5.72022 1.06347,0 -3.083,7.87403 z m 29.38867,75.63171 2.73438,-0.2832 c 0.0781,0.61849 0.30924,1.1084 0.69336,1.46972 0.38411,0.36134 0.82682,0.542 1.32812,0.542 0.57291,0 1.05794,-0.23275 1.45508,-0.69825 0.39713,-0.46549 0.5957,-1.16698 0.5957,-2.10449 0,-0.8789 -0.19694,-1.53808 -0.59082,-1.97754 -0.39388,-0.43944 -0.90658,-0.65917 -1.53808,-0.65918 -0.78777,10e-6 -1.49415,0.34832 -2.11914,1.04493 l -2.22657,-0.32227 1.40625,-7.45117 7.25586,0 0,2.56836 -5.17578,0 -0.42968,2.43164 c 0.61197,-0.30598 1.23697,-0.45898 1.875,-0.45899 1.21744,10e-6 2.24934,0.44272 3.0957,1.32813 0.84634,0.88542 1.26952,2.03451 1.26953,3.44726 -1e-5,1.17839 -0.34181,2.22982 -1.02539,3.1543 -0.931,1.26302 -2.22332,1.89453 -3.87695,1.89453 -1.32162,0 -2.3991,-0.35481 -3.23243,-1.06445 -0.83333,-0.70963 -1.33138,-1.66341 -1.49414,-2.86133 z m -4.15039,3.68164 -2.74414,0 0,-10.34179 c -1.00261,0.9375 -2.18425,1.63086 -3.54492,2.08007 l 0,-2.49023 c 0.71614,-0.23437 1.49414,-0.6787 2.33398,-1.33301 0.83984,-0.65428 1.41601,-1.41763 1.72852,-2.29004 l 2.22656,0 z m -30.25,0.625 c 1.38671,2e-5 2.4707,0.49481 3.25196,1.48438 0.93098,1.17188 1.39647,3.11524 1.39648,5.83008 -1e-5,2.70833 -0.46876,4.65495 -1.40625,5.83984 -0.77475,0.9766 -1.85548,1.4648 -3.24219,1.4648 -1.39323,0 -2.51628,-0.5354 -3.36914,-1.6064 -0.85286,-1.07096 -1.2793,-2.98014 -1.27929,-5.72754 -1e-5,-2.6953 0.46874,-4.63541 1.40625,-5.82031 0.77473,-0.97655 1.85546,-1.46483 3.24218,-1.46485 z m 0,2.27539 c -0.33203,10e-6 -0.62826,0.10581 -0.88867,0.31739 -0.26042,0.2116 -0.46224,0.59083 -0.60547,1.13769 -0.1888,0.70965 -0.2832,1.90431 -0.2832,3.58399 0,1.67969 0.0846,2.83366 0.25391,3.46191 0.16926,0.62826 0.38248,1.04655 0.63964,1.25488 0.25716,0.20834 0.55176,0.3125 0.88379,0.3125 0.33203,0 0.62825,-0.10579 0.88867,-0.31738 0.26041,-0.21159 0.46224,-0.59082 0.60547,-1.1377 0.1888,-0.70312 0.2832,-1.89452 0.28321,-3.57421 -1e-5,-1.67968 -0.0846,-2.83365 -0.25391,-3.46192 -0.16928,-0.62824 -0.38249,-1.04816 -0.63965,-1.25976 -0.25717,-0.21158 -0.55176,-0.31738 -0.88379,-0.31739 z m -8.75,12.09961 -2.74414,0 0,-10.34179 c -1.00261,0.9375 -2.18425,1.63086 -3.54492,2.08007 l 0,-2.49023 c 0.71614,-0.23437 1.49414,-0.6787 2.33398,-1.33301 0.83984,-0.65428 1.41601,-1.41763 1.72852,-2.29004 l 2.22656,0 z m -42.28906,-24.93555 2.73438,-0.2832 c 0.0781,0.61849 0.30924,1.1084 0.69335,1.46972 0.38411,0.36134 0.82682,0.542 1.32813,0.542 0.57291,0 1.05794,-0.23275 1.45508,-0.69825 0.39713,-0.46549 0.59569,-1.16698 0.5957,-2.10449 -1e-5,-0.8789 -0.19695,-1.53808 -0.59082,-1.97754 -0.39389,-0.43944 -0.90658,-0.65917 -1.53809,-0.65918 -0.78776,10e-6 -1.49414,0.34832 -2.11914,1.04493 l -2.22656,-0.32227 1.40625,-7.45117 7.25586,0 0,2.56836 -5.17578,0 -0.42969,2.43164 c 0.61198,-0.30598 1.23698,-0.45898 1.875,-0.45899 1.21744,10e-6 2.24934,0.44272 3.09571,1.32813 0.84634,0.88542 1.26952,2.03451 1.26953,3.44726 -1e-5,1.17839 -0.34181,2.22982 -1.02539,3.1543 -0.931,1.26302 -2.22332,1.89453 -3.87696,1.89453 -1.32162,0 -2.39909,-0.35481 -3.23242,-1.06445 -0.83333,-0.70963 -1.33138,-1.66341 -1.49414,-2.86133 z m 114.12305,-51.74906 c 1.38671,2e-5 2.47069,0.49481 3.25195,1.48438 0.93098,1.17188 1.39647,3.11524 1.39648,5.83008 -1e-5,2.70833 -0.46876,4.65495 -1.40625,5.83984 -0.77474,0.97656 -1.85547,1.46484 -3.24218,1.46484 -1.39324,0 -2.51628,-0.53548 -3.36914,-1.60644 -0.85287,-1.07096 -1.2793,-2.98014 -1.2793,-5.72754 0,-2.6953 0.46875,-4.63541 1.40625,-5.82031 0.77474,-0.97655 1.85546,-1.46483 3.24219,-1.46485 z m 0,2.27539 c -0.33204,2e-5 -0.62826,0.10581 -0.88868,0.31739 -0.26042,0.2116 -0.46224,0.59083 -0.60546,1.13769 -0.18881,0.70965 -0.28321,1.90431 -0.28321,3.58399 0,1.67969 0.0846,2.83366 0.25391,3.46191 0.16927,0.62826 0.38248,1.04655 0.63965,1.25488 0.25715,0.20834 0.55175,0.3125 0.88379,0.3125 0.33202,0 0.62825,-0.10579 0.88867,-0.31738 0.26041,-0.21159 0.46223,-0.59082 0.60547,-1.1377 0.18879,-0.70312 0.28319,-1.89452 0.2832,-3.57421 -1e-5,-1.67968 -0.0846,-2.83365 -0.25391,-3.46192 -0.16927,-0.62824 -0.38249,-1.04816 -0.63964,-1.25976 -0.25717,-0.21158 -0.55177,-0.31737 -0.88379,-0.31739 z m -6.50391,9.55078 0,2.54883 -9.61914,0 c 0.10417,-0.96354 0.41667,-1.87662 0.9375,-2.73926 0.52083,-0.86262 1.54948,-2.00683 3.08594,-3.43261 1.23697,-1.15234 1.99543,-1.93359 2.27539,-2.34375 0.3776,-0.5664 0.5664,-1.1263 0.5664,-1.67969 0,-0.61197 -0.16439,-1.08235 -0.49316,-1.41113 -0.32878,-0.32877 -0.78288,-0.49315 -1.3623,-0.49317 -0.57293,2e-5 -1.02865,0.17254 -1.36719,0.51758 -0.33855,0.34506 -0.53386,0.91798 -0.58594,1.71875 l -2.73437,-0.27344 c 0.16276,-1.5104 0.67382,-2.59438 1.5332,-3.25195 0.85937,-0.65754 1.93359,-0.98631 3.22266,-0.98633 1.41275,2e-5 2.52277,0.38088 3.33007,1.14258 0.80729,0.76173 1.21093,1.709 1.21094,2.8418 -1e-5,0.64454 -0.11557,1.25814 -0.34668,1.84082 -0.23113,0.58269 -0.59734,1.19304 -1.09863,1.83105 -0.33204,0.42319 -0.931,1.03191 -1.79688,1.82617 -0.86589,0.79428 -1.41439,1.32162 -1.6455,1.58204 -0.23113,0.26042 -0.4183,0.51432 -0.56153,0.76171 z m -22.17969,-48.44238 2.73438,-0.2832 c 0.0781,0.61849 0.30924,1.1084 0.69336,1.46972 0.38411,0.36134 0.82682,0.542 1.32812,0.542 0.57291,0 1.05794,-0.23275 1.45508,-0.69825 0.39713,-0.46549 0.5957,-1.16698 0.5957,-2.10449 0,-0.8789 -0.19694,-1.53808 -0.59082,-1.97754 -0.39388,-0.43944 -0.90658,-0.65917 -1.53808,-0.65918 -0.78777,10e-6 -1.49415,0.34832 -2.11914,1.04493 l -2.22657,-0.32227 1.40625,-7.45117 7.25586,0 0,2.56836 -5.17578,0 -0.42968,2.43164 c 0.61197,-0.30598 1.23697,-0.45898 1.875,-0.45899 1.21744,10e-6 2.24934,0.44272 3.0957,1.32813 0.84634,0.88542 1.26952,2.03451 1.26953,3.44726 -1e-5,1.17839 -0.34181,2.22982 -1.02539,3.1543 -0.931,1.26302 -2.22332,1.89453 -3.87695,1.89453 -1.32162,0 -2.3991,-0.35481 -3.23243,-1.06445 -0.83333,-0.70963 -1.33138,-1.66341 -1.49414,-2.86133 z m -4.15039,3.68164 -2.74414,0 0,-10.34179 c -1.00261,0.9375 -2.18425,1.63086 -3.54492,2.08007 l 0,-2.49023 c 0.71614,-0.23437 1.49414,-0.6787 2.33398,-1.33301 0.83984,-0.65428 1.41601,-1.41763 1.72852,-2.29004 l 2.22656,0 z m -30.25,-29.375 c 1.38671,2e-5 2.4707,0.49481 3.25196,1.48438 0.93098,1.17188 1.39647,3.11524 1.39648,5.83008 -1e-5,2.70833 -0.46876,4.65495 -1.40625,5.83984 -0.77475,0.97656 -1.85548,1.46484 -3.24219,1.46484 -1.39323,0 -2.51628,-0.53548 -3.36914,-1.60644 -0.85286,-1.07096 -1.2793,-2.98014 -1.27929,-5.72754 -1e-5,-2.6953 0.46874,-4.63541 1.40625,-5.82031 0.77473,-0.97655 1.85546,-1.46483 3.24218,-1.46485 z m 0,2.27539 c -0.33203,1e-5 -0.62826,0.10581 -0.88867,0.31739 -0.26042,0.2116 -0.46224,0.59083 -0.60547,1.13769 -0.1888,0.70965 -0.2832,1.90431 -0.2832,3.58399 0,1.67969 0.0846,2.83366 0.25391,3.46191 0.16926,0.62826 0.38248,1.04655 0.63964,1.25488 0.25716,0.20834 0.55176,0.3125 0.88379,0.3125 0.33203,0 0.62825,-0.10579 0.88867,-0.31738 0.26041,-0.21159 0.46224,-0.59082 0.60547,-1.1377 0.1888,-0.70312 0.2832,-1.89452 0.28321,-3.57421 -1e-5,-1.67968 -0.0846,-2.83365 -0.25391,-3.46192 -0.16928,-0.62824 -0.38249,-1.04816 -0.63965,-1.25976 -0.25717,-0.21158 -0.55176,-0.31738 -0.88379,-0.31739 z m -8.75,12.09961 -2.74414,0 0,-10.34179 c -1.00261,0.9375 -2.18425,1.63086 -3.54492,2.08007 l 0,-2.49023 c 0.71614,-0.23437 1.49414,-0.6787 2.33398,-1.33301 0.83984,-0.65428 1.41601,-1.41763 1.72852,-2.29004 l 2.22656,0 z m -42.28906,17.31836 2.73438,-0.2832 c 0.0781,0.61849 0.30924,1.1084 0.69335,1.46972 0.38411,0.36134 0.82682,0.542 1.32813,0.542 0.57291,0 1.05794,-0.23275 1.45508,-0.69825 0.39713,-0.46549 0.59569,-1.16698 0.5957,-2.10449 -1e-5,-0.8789 -0.19695,-1.53808 -0.59082,-1.97754 -0.39389,-0.43944 -0.90658,-0.65917 -1.53809,-0.65918 -0.78776,10e-6 -1.49414,0.34832 -2.11914,1.04493 l -2.22656,-0.32227 1.40625,-7.45117 7.25586,0 0,2.56836 -5.17578,0 -0.42969,2.43164 c 0.61198,-0.30598 1.23698,-0.45898 1.875,-0.45899 1.21744,10e-6 2.24934,0.44272 3.09571,1.32813 0.84634,0.88542 1.26952,2.03451 1.26953,3.44726 -1e-5,1.17839 -0.34181,2.22982 -1.02539,3.1543 -0.931,1.26302 -2.22332,1.89453 -3.87696,1.89453 -1.32162,0 -2.39909,-0.35481 -3.23242,-1.06445 -0.83333,-0.70963 -1.33138,-1.66341 -1.49414,-2.86133 z m -13.35156,30.61621 c 1.38671,2e-5 2.47069,0.49481 3.25195,1.48438 0.93098,1.17188 1.39647,3.11524 1.39649,5.83008 -2e-5,2.70833 -0.46876,4.65495 -1.40625,5.83984 -0.77475,0.97656 -1.85548,1.46484 -3.24219,1.46484 -1.39324,0 -2.51628,-0.53548 -3.36914,-1.60644 -0.85287,-1.07096 -1.2793,-2.98014 -1.2793,-5.72754 0,-2.6953 0.46875,-4.63541 1.40625,-5.82031 0.77474,-0.97655 1.85546,-1.46483 3.24219,-1.46485 z m 0,2.27539 c -0.33204,2e-5 -0.62826,0.10581 -0.88867,0.31739 -0.26043,0.2116 -0.46225,0.59083 -0.60547,1.13769 -0.18881,0.70965 -0.28321,1.90431 -0.28321,3.58399 0,1.67969 0.0846,2.83366 0.25391,3.46191 0.16927,0.62826 0.38248,1.04655 0.63965,1.25488 0.25716,0.20834 0.55175,0.3125 0.88379,0.3125 0.33202,0 0.62825,-0.10579 0.88867,-0.31738 0.26041,-0.21159 0.46223,-0.59082 0.60547,-1.1377 0.18879,-0.70312 0.28319,-1.89452 0.2832,-3.57421 -1e-5,-1.67968 -0.0846,-2.83365 -0.2539,-3.46192 -0.16928,-0.62824 -0.3825,-1.04816 -0.63965,-1.25976 -0.25717,-0.21158 -0.55177,-0.31737 -0.88379,-0.31739 z m 43.19753,95.08852 2.61772,-11.711 1.95183,0.4363 -2.61772,11.711 z m -13.22844,-4.1759 4.3395,-11.1879 1.86464,0.7233 -4.33949,11.1879 z m -12.45526,-6.107 5.96368,-10.4132 1.73553,0.994 -5.96368,10.4132 z m -11.40204,-7.9008 7.45377,-9.40428 1.56739,1.2423 -7.45378,9.40428 z m -18.64815,-20.43614 9.90136,-6.7796 1.12994,1.65022 -9.90136,6.77961 z m -6.82681,-12.07584 10.80383,-5.22277 0.87046,1.80064 -10.80382,5.22277 z m -4.94421,-12.96082 11.46334,-3.5485 0.59142,1.91056 -11.46334,3.5485 z m -2.95057,-13.55444 11.86508,-1.79443 0.29907,1.97751 -11.86508,1.79443 z m 72.40707,-103.33381 2.61772,11.711 -1.95183,0.43628 -2.61772,-11.711 z m -13.3156,3.88892 4.3395,11.18788 -1.86465,0.72325 -4.33949,-11.18788 z m -12.58437,5.83625 5.96368,10.41319 -1.73553,0.99394 -5.96368,-10.41318 z m -11.57014,7.65251 7.45377,9.40432 -1.56738,1.2423 -7.45378,-9.40432 z m -19.08552,20.02818 9.90136,6.7796 -1.12993,1.65023 -9.90136,-6.77961 z m -7.08621,11.9254 10.80382,5.22278 -0.87046,1.80064 -10.80382,-5.22278 z m -5.22328,12.8509 11.46334,3.54849 -0.59142,1.91056 -11.46334,-3.5485 z m -3.24286,13.48747 11.86508,1.79442 -0.29908,1.97751 -11.86507,-1.79442 z m 182.77111,28.68461 -19.80536,-2.78346 0.27835,-1.98053 19.80536,2.78346 z m -34.02566,58.65161 -12.58641,-15.54296 1.55429,-1.25864 12.58641,15.5429 z m -64.88508,19.6896 1.39513,-19.9513 1.99512,0.1395 -1.39513,19.9513 z m -60.88219,-29.85154 14.62707,-13.63997 1.364,1.46271 -14.62708,13.63997 z m 160.07126,-74.23676 -19.80536,2.78346 -0.27835,-1.98053 19.80537,-2.78347 z m -32.74972,-59.37349 -12.58641,15.54292 -1.55429,-1.25865 12.58641,-15.54291 z m -64.44424,-21.08772 1.39513,19.95128 -1.99513,0.13951 -1.39513,-19.95128 z m -61.51331,28.52826 14.62707,13.63997 -1.36399,1.46271 -14.62708,-13.63997 z m -25.53175,62.81621 20,0 0,2 -20,0 z"
             inkscape:connector-curvature="0" />
        </g>
      </g>
    </g>
  </g>
  <g
     inkscape:groupmode="layer"
     id="Needle"
     inkscape:label="Needle"
     style="display:inline"
     sodipodi:insensitive="true">
    <g
       style="display:inline"
       transform="matrix(0,-1.3376838,1.3376838,0,-1119.2051,288.52211)"
       id="g4107"
       inkscape:transform-center-y="6.0410393e-05"
       inkscape:transform-center-x="28.298839">
      <path
         id="rect4304"
         d="m 123.06603,880.23958 -1.83962,-3.18102 0,-27.47936 -1.22642,-3.37264 -1.22641,3.37264 0,27.40271 -1.83962,3.20018 0,0.0575 0,42.92453 6.13207,0 0,-42.92453 z"
         style="fill:#ffffff;fill-opacity:1;stroke:#323232;stroke-width:0.22426826;stroke-miterlimit:4;stroke-dasharray:none;stroke-opacity:1"
         inkscape:connector-curvature="0" />
      <rect
         transform="matrix(0,1,-1,0,0,0)"
         y="-123.06604"
         x="923.16406"
         height="6.1320772"
         width="9.1981134"
         id="rect4342"
         style="fill:#1e1e1e;fill-opacity:1;stroke:#323232;stroke-width:0.22426826;stroke-miterlimit:4;stroke-dasharray:none;stroke-opacity:1" />
      <path
         id="rect4342-3"
         d="m 127.05188,969.15467 c 0,-2.79158 -1.6328,-5.2001 -3.98585,-6.34286 l 0,-27.90095 c 0.5787,-0.69189 0.91981,-1.57609 0.91981,-2.54864 0,-2.20132 -1.78452,-3.98585 -3.98585,-3.98585 -2.20132,0 -3.98584,1.78453 -3.98584,3.98585 0,0.97255 0.3411,1.85675 0.91981,2.54864 l 0,27.90095 c -2.35305,1.14276 -3.98585,3.55128 -3.98585,6.34286 0,3.89465 3.15724,7.05189 7.05188,7.05189 3.89465,0 7.05189,-3.15724 7.05189,-7.05189 z"
         style="display:inline;fill:#1e1e1e;fill-opacity:1;stroke:#323232;stroke-width:0.22426826;stroke-miterlimit:4;stroke-dasharray:none;stroke-opacity:1;enable-background:new"
         inkscape:connector-curvature="0" />
      <ellipse
         transform="matrix(0,0.54674655,-0.57278209,0,247.28436,811.33735)"
         id="path4391"
         style="fill:#323232;fill-opacity:1;stroke:none"
         cx="221.35461"
         cy="222.22127"
         rx="1.1215572"
         ry="1.0705774" />
    </g>
  </g>
</svg>
